<svg xmlns="http://www.w3.org/2000/svg" viewBox="0 0 1102.81 123.6"><defs><style>.cls-1{fill:#231815;}</style></defs><g id="レイヤー_2" data-name="レイヤー 2"><g id="レイヤー_1-2" data-name="レイヤー 1"><path class="cls-1" d="M68.42,27a25.53,25.53,0,0,1-4.65-.15c-.45,0-.9-.45-1.2-.45-.6,0-1.35.15-2,.15a8.78,8.78,0,0,1-1.95-.3H57c-2.55-.3-5.1.3-7.8.6V28.2a1.15,1.15,0,0,0,.3.75,1.15,1.15,0,0,1-.3.75c0,.6.15,1.05.15,1.65s-.3,1.2-.15,1.8a9.22,9.22,0,0,0,.45,1.65,38,38,0,0,0-.15,4.35,11.84,11.84,0,0,0,.45,2c.15.6,0,1.35.15,1.95.15.9.6,1.5.75,2.4S51,48,51,48.9a23.29,23.29,0,0,0-.6,3.15c0,.9.75,1.65.9,2.7.3,1.35,0,3,.15,4.5,0,.6.45,1.2.45,1.8.15.75-.15,1.5,0,2.1a11.38,11.38,0,0,0,.9,2.7,5.6,5.6,0,0,1,.15,2.4c0,.45-.3.9-.3,1.2,0,.6.45,1.2.45,1.8.3,2.7-.15,5.7.6,8.4-.3.45-.15,1.35-.6,1.65a13.2,13.2,0,0,1,.75,2.25c0,.75-.3,1.35-.3,2.1A7.44,7.44,0,0,0,54,87.6c0,.75-.3,1.35-.3,2.25,0,.6.15,1.35.15,2a33.8,33.8,0,0,1,0,3.9,5.37,5.37,0,0,0-.6,1.65c0,.9.15,2.1.15,3.15a6.5,6.5,0,0,1-.15.75c.15.45,0,.45-.15.6,0,.3.3.6.3,1.05a36,36,0,0,0-.6,3.6c0,.45.3.6.45,1.2l.75,2.7a5.53,5.53,0,0,1,.15,2.25c0,.6.6,1.5-.3,2.1.9.75,2,1.65,1.35,3.6-.3,1.35-1.95,1.35-2.7,2.25-.6-.15-1.05-.31-1.2-.75A17.82,17.82,0,0,1,45,119l-2.4.59c-.75,0-1.5.16-1.95-.29-.6.75-1.5.6-3.15.75-.15,0-.3.29-.75.15-.9-.15-.9.14-1.2.3-.6.15-2.1,0-2.85.15-1,.15-2.25.44-3.15-.15-1.5-.3-.9-2.55-1.65-3.6.15-1.2,1.35-1.65.75-2.85a19.54,19.54,0,0,0,1.5-2.25c.3-.9.3-2.25.6-3s0-1.2,0-2.25c0-1.35.45-2.55-.3-3.9a7.7,7.7,0,0,0,.45-3.6.88.88,0,0,0,.3-.75c0-.6-.45-1.35-.45-2,0-.9.6-2,.6-2.85,0-.6-.45-.9-.45-1.5-.15-.6.3-1.5.3-2.1a5.48,5.48,0,0,0-.45-2.25c.45-.15,0-1,.45-1.2a10.58,10.58,0,0,1-.3-3.9,40.39,40.39,0,0,0-.45-6c0-.45-.3-.75-.45-1.2-.15-2.85,1.35-6-.3-8.25.75-2.7-.3-6.75.3-9.15.15-1.2-.9-.9-.75-1.8a16.2,16.2,0,0,0-.3-4.65c-.9-1.8-.3-6.15-.15-8.7a8.87,8.87,0,0,1-.9-2.1c-.3-1.65.45-3.15.6-4.8.15-1.35,0-2.85.15-3.75.15-1.65-.45-3.9-.45-5.7-2.4.15-4.8.6-7.2.75-.45,0-.6-.3-1.05-.3l-4.35.6a5.71,5.71,0,0,1-1.5.45c-1.35.3-2.85,0-4.35.15-2.4.45-4.94,1.5-7.49.9-1-1.65-.45-3.75-.61-4.95a13,13,0,0,1-.14-2.55c0-.45.3-.9.3-1.2s-.46-.6-.6-.75a21.18,21.18,0,0,1,.14-3.15c0-1.05-1-.75-.89-1.8.14-2.7-1.5-6.75.6-8.85a5.27,5.27,0,0,1,3.45-.15c.44,0,1,.15,1.5.15a20.29,20.29,0,0,0,2.84.9c.6,0,1.35-.3,2.1-.3s1.8.3,2.7.3l.9.15a8.46,8.46,0,0,1,1,.15c.9,0,2-.6,2.85-.6a30,30,0,0,1,3.6.6,7.53,7.53,0,0,0,1.8-.3,3.23,3.23,0,0,0,1.2,0,6.76,6.76,0,0,0,1.65-.45c.6,0,1.05.3,1.65.3.3,0,.6-.45.75-.45,1.5-.3,3.3.3,4.65-.15.75,0,.9.6,1.5.75,1-.3,1.65-.6,2.4.3a4,4,0,0,1,2.7-1.05c.75-.15,2,.6,3.3.45.75.45,3-.15,3.6.6l2.4-.45h1a5.63,5.63,0,0,1,1.5.15,10.48,10.48,0,0,1,1.8.45A26.9,26.9,0,0,0,59,7.2c2.7-.15,5.85-1,7.5-.3a7.1,7.1,0,0,1,1.65,1.95,7.92,7.92,0,0,1,.15,2c.15,2.4-.3,5.55-.15,8.4a31.39,31.39,0,0,0,.6,4.2C68.87,24.75,69.47,26.1,68.42,27ZM61.67,12.3c-1.05.45-2.4,0-3.3,0-1.8,0-3.3.3-4.35-.15-.75-.3-.75-1.05-1.65-1.05a14.48,14.48,0,0,0-2.7.45c-1.35-.75-2-.45-3.15.15-.9-.45-1.8-.15-2.7-.3-.6,0-1.2-.45-1.65-.45-.6-.15-.9.3-1.5.15-.45,0-.45-.75-.9-.45-.45,0-.3.45-.6.75-1.65.3-3.3-.75-4.8-.6-1,0-2.1.6-3.15.6-.3,0-.9-.3-1.2-.3-2.4-.15-3.9.6-6,.15-.75.15-1.2.6-1.95.6a14.61,14.61,0,0,1-3.6.3,12.5,12.5,0,0,0-2.25-.6,8.55,8.55,0,0,1-1.95.15A76.92,76.92,0,0,0,6,11.55c.59,1.5.14,3.15.44,4.65,0,.45.45.75.45,1.2v1.2c0,.6.16,1.2.16,1.65,0,1.05-.46,2.1.14,3,.61.6.75-.45,1-.45.15-.15.45,0,.75,0,2.85-.6,5.85-.3,8.25-.75.3-.15.45,0,.9,0a7.44,7.44,0,0,1,1.95-.45c1.8-.15,3.6,0,5.4-.15a10.51,10.51,0,0,1,2.1-.45c.3,0,.75.3,1.2.3.6,0,1.05-.3,1.5-.3.9.15,1.35.75,1.65.75.45.3.75.15.9.3,1.5,1.2.75,3,.9,5.4,0,.45.45,1.2.45,1.65s-.15,1.35,0,1.95.45.9.45,1.5-.3,1.05-.3,1.65c0,3.9-.3,7.95,0,11.85,0,1.05.45,2,.45,3a13.21,13.21,0,0,0-.3,2.55A5.71,5.71,0,0,0,35,53.1a8.55,8.55,0,0,0,.15,1.95,27.69,27.69,0,0,1,.6,3.45,36.48,36.48,0,0,1,0,4c0,2.55.45,5.1.45,7.5.15,2.7,0,5.25.15,7.35v2.1a43.64,43.64,0,0,0,.6,4.65c0,.45-.3.75-.3.9,0,.45.3.6.3,1a44.58,44.58,0,0,0,0,4.5c.15,2.1,0,3.9,0,5.85-.15,1.65-.15,3.3-.15,4.8.15,4.5-.45,8.85,0,13.2a36.45,36.45,0,0,0,4,0,18.66,18.66,0,0,1,2.4-.6,4.28,4.28,0,0,1,2,0c.3,0,.3.45.45.45.3.15.45-.15.75-.15.6-.15,1.05-.45,1.65-.3.45-2.55-.75-5.25-.75-7.65,0-1,.3-2.1.3-3.15,0-1.8-.3-3.6.15-4.65.9,0-1-.45,0-.75.75-2-.15-4.05-.15-6.3.15-1.5.6-3,.6-4.5A25.46,25.46,0,0,0,48,81c0-1-.3-2-.3-3,0-.6.3-1.35.3-2.1-.15-.75-.6-1.5-.75-2.25-.15-1.5.15-3.3-.15-5.1a4.77,4.77,0,0,0-.45-1.35c-.15-1.35,0-2.85-.15-4.2-.15-1.8-.6-3.45-.15-5.1a7.43,7.43,0,0,1-.6-1.95c-.15-.6.15-1.35,0-2.1s-.45-1.05-.45-1.5a8.45,8.45,0,0,0,0-2c0-1.35-.6-2.85-.6-4,0-.45.3-1.2.3-1.8-.15-.9-.75-1.8-.9-2.55A5.1,5.1,0,0,1,44,40.5c-.3-2.1-.3-5.4-.45-6.75a1.85,1.85,0,0,1,.3-.75,10.48,10.48,0,0,0-.45-1.8,7.87,7.87,0,0,1-.15-2.55,3,3,0,0,0,.3-1,2.86,2.86,0,0,1-.45-1.2l-.3-1.5a10.57,10.57,0,0,1-.15-3.15,56.52,56.52,0,0,0,6.75-.45,35.23,35.23,0,0,1,3.9-.15,10.21,10.21,0,0,0,2.25-.3,5,5,0,0,1,3.6.15c.75-.6,2.4-.3,3.45-.75-.15-.75.15-1.65-.3-2.1.75-.75.15-1.95.15-2.85,0-.15.3-.45.15-.75A3.79,3.79,0,0,0,61.67,12.3Zm-6.45.6c.45-.15.45.3.45.75C55.22,13.2,55.22,13.05,55.22,12.9Z"/><path class="cls-1" d="M167.27,35.85c0,.3.3.45.3.75a2.78,2.78,0,0,0-.3,1c0,.3.15.45.15.75s-.3.45-.15.9c0,.3.15.45.15.75,0,.45-.45.9-.45,1.35-.15.6.15,1.2.15,1.8,0,.45-.45.9-.45,1.35a6.21,6.21,0,0,1-.15,1.5,26.45,26.45,0,0,0,0,3.45c0,.45.45,1,.45,1.65.15,2.1-.3,4.5-.15,6.75a17.23,17.23,0,0,1,.15,2.7c0,1.2-.6,2.25-.75,3.9a3.4,3.4,0,0,1,.15.6c0,.6-.45,2.25.15,3.15a6.49,6.49,0,0,1-.75,1.8c.3,2.7-.45,5.25-.45,8a16.91,16.91,0,0,1,.45,2.7c0,.45-.3,1-.3,1.65s.3,1.05.3,1.5-.45.9-.6,1.35c-.15,2,0,3-.75,4.65-.6,1.05.45,3.45-.6,4.8.45,1.2.15,2.1.15,3.6,0,.45.3,1,.15,1.5,0,1-.45,2-.45,2.85-.15,2.25.45,4.35.6,6.3.15.45.15.9.9.75-1.65,1.2.15,2.4.15,3.9a2.13,2.13,0,0,1-.3.9c0,.15-.15.9-.15,1a6.5,6.5,0,0,0-.75.15,4.18,4.18,0,0,1-1.8,1c-.6,0-1.2-.3-1.95-.3-.75-.15-1.8.3-2.85.3a26.78,26.78,0,0,0-3.45.3c-1.2.15-2.1.9-3.15.9-.9-.3-.45.89-1.2.89-.15.46-1.2,0-1.65.16-1.2-1-2.25-3.6-1.2-4.8-.9-2.55.3-5.85-.3-9a11.88,11.88,0,0,0-3.9,2.85c-.6.45-.9,1.2-1.65,1.65l-.6.15c-.15.3-1.2.6-1.65,1.2-1.05.3-2.1.15-3.15.45-1.35.3-2.55.75-4.35,1-1.2.3-3.3,1.2-5.4.9-.45,0-.75-.3-.9-.3-.6,0-.9.45-1.5.45a3.47,3.47,0,0,1-2.4-.3c-.45.75-2.4.15-3.15-.3-1.5.6-2.85-.15-4.35-.3-.9,0-.75-.9-1.5-1.05a26.86,26.86,0,0,1-6.9-.6c-.3-.75-1.35-.9-1.5-2-1,.15-1-.75-1.8-.75a11.21,11.21,0,0,0-1.65-2c-1,0-1.2-.6-2.25-.6-.3-.3-.45-.9-.9-1.2-.75-.45-.9-.9-1.2-1-.15,0-.6.15-.75,0L93,101.25a2.65,2.65,0,0,1-1.2-.75c0-.9-.9-.9-.75-2.1a5.26,5.26,0,0,1-1.2-.75,10.58,10.58,0,0,1-1.05-1.35c-.3-.15-.3-.45-.6-.6-.15-.3-.15-1.5-.9-2,0-.6-.6-.6-1.2-.6A3.31,3.31,0,0,0,84,90c.3-.9-.3-.9-.15-1.65-3-2.7-2.85-8.25-4.35-12.3.15-2.7,0-6,.9-8.4l.3-.75c.3-.45.15-1.35.3-2.4l.45-2.85a5.33,5.33,0,0,0,.3-1.5,9.66,9.66,0,0,1,1.65-4c-.75-2.7,1.8-3.75,2-6.3A14,14,0,0,0,87.47,47l1.65-2.85c.45-.6,1.2-1.05,1-2,.6-.3.9-.9,1.8-1.2V39.6c1.65-1.05,2.4-2.85,3.75-4.35a12.1,12.1,0,0,1,2.1-1.8c.45-.9,2-1.05,2.1-2,2-.45,4-.75,5.55-1.8,1.2-.15,2.7-.15,3.45-.9,2,.3,3-.6,4-1.35,3,0,5.7-.15,9,0,1.5,0,3.15-.3,4.35-.15.9,0,1.65-.15,2.25.45a3,3,0,0,1,2.55.15,15.76,15.76,0,0,1,1.95.3c.45,0,.9.45,1.2.45a5,5,0,0,0,1.5,0l.75.6a3.12,3.12,0,0,1,1.8.75c.15,0,.6,0,.75.15l.3.6a27.32,27.32,0,0,1,4,2.25c.3.15.3.6.75.9s.6.3.9.6a6.54,6.54,0,0,1,1.2,1.5c.3.6,1.35,1.2,2.1,2,.45.3.6,1,1.2,1.5.45.3,1.65,1.2,1.65,2.1a15.07,15.07,0,0,0-.6-8.25c-.6-1.2-1.5-1.5-.9-3.3a5.93,5.93,0,0,1,1.5-2.25,8.59,8.59,0,0,0,2.7.3,15,15,0,0,0,2.4.3c2.1,0,5.85.15,8,.9,1.35-.45,2.25.3,3.45.6.15.75,0,1.2.15,1.95-.15.6.3.9.15,1.5S167.27,35.1,167.27,35.85Zm-5.1-1.05c-.6-.6-2.1-.3-2.55-1a2.53,2.53,0,0,0-1.5-.45c-.6,0-.9.45-1.5.45-.3,1.35.3,3.3.45,5.25,0,1-.3,2.4-.3,3.75a11.41,11.41,0,0,1,.15,2.1,3.47,3.47,0,0,1-3.15,2.4c-1.35-.15-1.5-1.5-2.85-2-.45.45-1.5.3-1.95.6a13.26,13.26,0,0,1-2.1-3.45c-1.05,0-1.5-.6-2.25-1.05l-.9-2.1c-1.05-.45-2.1-.9-2.4-2.1-1.95-.15-2.85-1.5-4-2.4-2.1-.3-3-1-4.8-1.35l-1.95-.3c-3.6-.6-6.9-.3-10.35-.9-.75.6-2.1.45-3.45.6l-2.55.45c-1.8.3-3.3.9-5,.6-.6.3-1.5,1.2-2,.15-.6,1.35-2.1,1.8-3.9,2a6.85,6.85,0,0,1-2.4,1.65c-.45,1.2-1.8,2.1-2.55,2.85a18.2,18.2,0,0,0-1.5,2.1c-.15.3-.75.6-.9.9s-.3.9-.6,1.2c-.45.15-.45.45-.45.45a10.23,10.23,0,0,1-.75,1.05l-.3.6c-.6.15-.45.45-.45.6-.15.15-.45.3-.45.45a17.13,17.13,0,0,0-1.35,2.4,4,4,0,0,1-.75.9c-.15.3,0,.45-.15.75s-.45.3-.6.45l-.45,1.2a8.37,8.37,0,0,1-.75,1.2c-.3.75-.3,1.8-.6,2.7a13.71,13.71,0,0,1-1.05,2.1c-.3,1.5-.15,3.45-.6,5.25-.15,1.65-1,3.15-1.2,4.65a16.61,16.61,0,0,0-.3,2.85,13.86,13.86,0,0,0-.15,3.45c.15.75.75,1.35.9,2.1.3,1.2.15,2.85.45,3.9a3.27,3.27,0,0,0,.75,1.2c.45,1,1,2.1,1.35,3,.15.6.15,1.35.45,1.65a6.45,6.45,0,0,0,1.35,1.5c1.2,1.2,2.4,2.1,2.55,3.75a17.83,17.83,0,0,1,4,4.2,3.11,3.11,0,0,1,1,1.2l.6.3a8.21,8.21,0,0,1,1.65,1.5l2.7,1.65.9,1c.3.15.6.15.75.3l.45.75,1.5.75a16.1,16.1,0,0,0,3.6,1.8c2.25.6,4.35.9,6.9,1.35,1.5.15,3,.6,4.35.75.6,0,1.2-.15,1.8-.15a52.46,52.46,0,0,0,5.55-.6L132,107a7.3,7.3,0,0,0,1.8-.15c.45-.15.75-.6,1.2-.75a19.32,19.32,0,0,0,3.15-.9c.75-.75,1.2-.6,1.5-.9,0-.6.3-.45.45-.45.9-.6,1.5-1.65,2.25-2.1,1.35-.9,2.25-2,3.45-2.85.3-.6.3-1.65.75-2.1,1.35-.6,1.65-1.8,3.45-1.5a3.23,3.23,0,0,1,1.95,1.8c.3.9.15,2.7.3,4.65l.45,4.35c0,.45-.3.6-.3,1.2a37.16,37.16,0,0,0,.3,4.35c1.35.3,3.6-.6,4.65-.6.6-.15,1.2.3,1.65,0a10.58,10.58,0,0,0-.3-3.9c.9-1.35,0-3.3.15-5.1a10.51,10.51,0,0,1,.45-2.1c0-.3-.3-.45-.15-1.05,0-.45.3-.45.45-.9-.6-1.65,0-3.15-.15-4.8.3-.3,0-.45,0-.6a9.38,9.38,0,0,1,.15-4c.15-.9.6-1.65.75-2.7a47.36,47.36,0,0,0,.15-6.45c0-.9.3-1.5.3-2.25,0-.45-.45-1-.45-1.65a6.81,6.81,0,0,0,.3-1.2c.15-2.4.75-3.75.3-5.55.6-.3.15-1.65.75-1.65-.15-4-.15-7.95-.15-11.4v-1.5c0-.45.3-.9.3-1.35,0-.75-.45-1.35-.45-1.95,0-2,.3-4.65.15-6.15-.15-.45.15-.75.15-.9.15-.3-.15-.45-.15-1a1.9,1.9,0,0,0,.3-.9c0-.6-.3-1.35-.3-2,.15-1,.9-2.25.9-3.3C162.47,36,162,35.4,162.17,34.8ZM150.92,73.05c0,.3-.45.6-.45.9l-.3,2.55c-.15.75-.75,1.5-1,2.4-.3.75-.15,1.8-.45,2.55l-.6.3c-.15.3,0,.6-.15,1.2a6.08,6.08,0,0,0-.75,1.35c-.3.6-.3,1.2-.6,1.8-.6.45-.45.9-.75,1.35a12,12,0,0,1-1.95,2c-.6,2.85-3,4-4.05,6.45-.3.3-.9.15-1.5.15-.15.45,0,1.2-.45,1.5-1.2.75-2.4,1.35-3.9,2.1-.45.15-.6,0-.75.15-1.65,1-4.35,1.5-6.9,2.1-.9-.45-1.8-.75-2.4.15-2-.9-6-.15-7.5-1.65-.3.3-1,.3-1.65.3-.9-.9-2.25-.9-3.3-1.05a25.26,25.26,0,0,0-3.6-.9,19.53,19.53,0,0,0-2.7-2.25c-.45-.3-.75-.9-1.2-1.2L101.42,93l-.75-.45a3.07,3.07,0,0,0-1.2-1.2,20.36,20.36,0,0,1-1.8-1.8,10.42,10.42,0,0,1-.75-2c-.6-.75-1.8-.9-2.55-1.5-.45-1.8-2.1-3.3-2.4-5.7a21.32,21.32,0,0,1,.45-5.25c0-.3-.45-1.05.15-1.2a6.76,6.76,0,0,0-.45-1.65c0-.45.3-1.2.3-1.8s-.15-.9-.15-1.35a11.8,11.8,0,0,1,.6-3l.45-2.85c.15-.3.6-.45.75-.75.15-.15,0-.45,0-.6l.6-.3c0-.15-.15-.6,0-.75,0-.15.9-.45.9-.9.15-2.55,1.5-3.9,2.1-6,.6-.15.6-1,1.5-.9-.3-1.2.3-1.5.45-2.25,1.35-.75,2.1-2.25,3-3.3a6.33,6.33,0,0,1,1.8-.45c.45,0,.15-.9.45-1.2.75-.3,1.35-.6,1.2-1.35,1.8-.3,2.4-1.8,4.2-1.95l2-1.65c.3-.15.6,0,.75-.15.45-.75.75-.6,1-.75a5.53,5.53,0,0,1,2.1-1.2c.45,0,.6.3,1,.3.9.15,2.4,0,3.6.15.9,0,1.8.45,2.85.45,3.15.3,6-.15,7.95,1.35a8.55,8.55,0,0,0,2,.15l6,3c.9,1.8,2.85,2.55,4,3.9.45.45,1.35.3,2,.6.45,1.2,2.4,2.1,2.7,3.45.3.75-.15,1.8,0,2.7a14.74,14.74,0,0,0,.75,2.4l.3,2.4c.45,1.8,1.65,3.75,1.8,6.15.15.45-.15.75-.15,1.35a7.44,7.44,0,0,0,.45,2A11.15,11.15,0,0,1,150.92,73.05Zm-4.65-7.35c-.15-.6-.9-.75-1.2-1.2,0-1.5-.75-2.55-.9-3.45.3-1.35-.45-1.95-.6-2.7a21.91,21.91,0,0,1-.45-3.3c-.9-.45-.9-1-1.35-1.5-.75-.45-.6-.6-.75-.75l-2.1-2.25a7,7,0,0,0-2.85-1.95c-1.65-.75-2.85-1.5-4-2.1s-2.4-.45-3.9-.75a20.88,20.88,0,0,0-2-.9,9.72,9.72,0,0,1-2.1,0c-.6,0-1.35-.45-1.8-.45-.3,0-.75.9-1.2.45-.6-.15-1.5-1.05-1.95-.6-2,.15-2.25.9-3.6,1.65l-1.2.45-1,.75c-.15,0-.45-.15-.75,0l-.45.45c-.75.45-1.35,1.05-1.95,1.35a10.33,10.33,0,0,0-1.2.45,23.62,23.62,0,0,0-1.5,1.95c-.6-.15-.6.45-1.2.15,0,.9-.75,1.5-1.2,1.95a6.29,6.29,0,0,1-2.1,1.35c-.15,2.1-1.8,2.7-1.8,4.8a9.55,9.55,0,0,0-1.5,2.7,28,28,0,0,0-.75,4c-.3,1-.9,1.8-1.05,2.7,0-.15.15.75.3.9,0,1.8-.75,2.85-.9,4.2,0,.75.45,1.65.45,2.55,0,.15-.3.3-.3.6a4.06,4.06,0,0,1,0,2c.15,1.2,1.35,2.4.9,3.9,1.35.9,2.4,2.1,4,2.85,1.2,2.25,3.45,3.75,5.25,5.25a8.79,8.79,0,0,0,2.85,2l.6.6a13.61,13.61,0,0,0,3.15.75c.6.15,1.5.6,2,.75.3.15.45.6.9.6,2.55-.3,5.25.75,7.35.75a5,5,0,0,0,2.1-.15,10.62,10.62,0,0,0,2.25-.15,8.37,8.37,0,0,1,1.2-.75c.3,0,.6.15.9,0,.6-.15,1.5-.9,2.25-.15,1.05-2.55,4.5-2.55,5-5.7.6.15.45-.45,1-.45,0-1,.75-1.65,1.2-2.4l1-1.95c.15-.15.6.15.45-.45a8.23,8.23,0,0,1,1.8-3.15c-.3-1,.45-1.8.75-2.55a24.41,24.41,0,0,0,1.35-8.25,9.16,9.16,0,0,0,1.05-2.1A4.87,4.87,0,0,1,146.27,65.7Z"/><path class="cls-1" d="M257.57,121.35a10.09,10.09,0,0,1-3,.15,6.11,6.11,0,0,1-2.1-.75,3.68,3.68,0,0,1-2.25-.75c-1.2.6-2.1,0-3.15.45l-1.95.9c-.15.15-.45-.15-.75,0s-.15.75-1.2.75c-2.4,0-3-2.25-5.4-2.85a17.78,17.78,0,0,0-3.6-3.15c-.3-.45-.3-1.2-.75-1.5-.15-.45-.9-.3-.6-1.2a43.32,43.32,0,0,1-6.3-5.25,40,40,0,0,1-3.9-4.65c-.45-.6-1.5-.9-1.05-1.8-1,0-1.35-.9-2.1-1.5a2.53,2.53,0,0,1-.75-.3c-.15-.15,0-.45-.15-.6s-1-.6-.9-1.35c-2.1-.75-2.7-3-4.65-3.9-.15-.75-.6-1-.9-1.8-1.05-.15-1.2-1-2.4-1.2,0-.9-.9-1.2-1.35-1.65s-1.05-1.2-1.65-1.35c-.75.6-.3,1.65-.3,2.7,0,.45-.3.9-.3,1.5,0,.9.6,2.25-.6,2.85a50.1,50.1,0,0,1,.6,9.9c0,.45-.3.9-.3,1.2,0,.6.45,1.35.45,2,0,.45-.3,1.2-.3,1.5,0,.15.45.6.45.75.15.3-.15.75,0,1.2a3.28,3.28,0,0,1,.45.75c0,.3-.3.45-.3.6a20.88,20.88,0,0,1,.9,2c-.3.9-1.05,1.35-1.5,2.25,0,1,.75,1.2,1.2,1.64a3.88,3.88,0,0,1-1.8,4.81c-3.15,0-4.8-1.5-7.2-2.25a43.24,43.24,0,0,1-8.85-.45c-.3-.9-1.2-1.36-.9-3a8.37,8.37,0,0,0,0-2,3,3,0,0,1,.3-.9c0-.45-.45-.75-.45-1.2-.6-3.15.15-5.55.45-9,0-.3.15-.9.15-1.2a16.91,16.91,0,0,0-.45-2.7c0-.9.15-2,.15-2.85,0-.15-.3-.45-.3-.75s.6-1,.6-1.5a23.14,23.14,0,0,0-.75-2.55c0-.75-.15-1.8-.15-2.55,0-1.5-.15-3.15-.15-4.5,0-2.25.3-5.7.15-8.55,0-.15.15-.45.15-.6a2.14,2.14,0,0,0-.6-.3c0-.45.3-.9.3-1.5,0-1.2-.75-3.45.3-4.5.15-.6-.3-1.2-.3-1.8a10.23,10.23,0,0,1,.3-2.85,8.48,8.48,0,0,1,0-2,1.85,1.85,0,0,0-.3-.75,21.74,21.74,0,0,0,.9-2.85c0-.9-.3-1.65-.3-2.7,0-.6.3-1.5.3-2.1a13.31,13.31,0,0,0,.3-2.25c0-.9-.45-1.95-.45-2.85a7.53,7.53,0,0,0,.3-1.8c0-.45-.3-.75-.45-1.35,0-.6.15-1.2.15-1.8a5.88,5.88,0,0,1-.75-2c0-.45.3-.45.3-.6a11.42,11.42,0,0,0-.45-3.15c-.15-.6.15-4.8.15-5.55,0-2,.15-3.9.15-5.7-.15-1.95-.9-3.9-.9-5.7a32.48,32.48,0,0,1,.6-3.75c0-.3-.3-.3-.3-.6s.3-.45.3-.75-.45-.9-.45-1.2a15.42,15.42,0,0,1-.15-2.7,16.57,16.57,0,0,1-.45-2.4c0-.45.3-.6.3-1a9,9,0,0,1,0-2.85c-.45-.75-1.35.45-1.65-.3-.15-.6-.3-1-.75-1.2-.15-1.5,1.2-1.5.75-3.15,1.65-.3,3.15-.75,4.65.15a8.68,8.68,0,0,1,5.1-.9l1.5-.75a41.17,41.17,0,0,0,7.65.45c.75.45,1.05,1.35,1.65,1.95-.45,1.2,0,2.1.15,3.75a11.66,11.66,0,0,1,.3,2.4c0,.3-.45.9-.6,1.2a22.08,22.08,0,0,0,0,3.15c0,.15-.3.45-.3.9a54.54,54.54,0,0,0,.75,9,21.74,21.74,0,0,1,.45,4.8c0,1.05-.45,2.1-.3,3.15.15,2,1.8,4.05.75,5.55.6,1.35,1.65,3.75.6,5.1.15.6.6.9.75,1.2.15.9-.45.75-.45,1.2,1.05,1.2.15,3.9,0,5.85,0,.45.3.9.3,1.2,0,.45-.3.75-.3,1,0,1.05.75,2,.45,3.15A3,3,0,0,0,210,55.05a21.44,21.44,0,0,0,4.8-4.95c.75,0,.6-.75,1.5-.45a2.55,2.55,0,0,1,.9-1.5c.45-.45.75-.45.75-.45.15-.15.15-.6.3-.75l.9-.45c.6-.3.6-.75,1.8-.75.45,0,.15-.9.75-.9,1.05-.3,1.35-1.35,2.7-1.35.3-1.35,1.5-1.65,2-2.85.45-.3.75-.75,1.5-.75l3.45-3.75a6.93,6.93,0,0,1,1.05-1c.6-.45.9-1.2,1.65-1.8l1-.75c.15-.15.15-.6.45-.9.9-1,2.85-2.7,5.1-.9,1.5-.3,3.45.45,5.1.9,1.35.3,2.7.3,3.3,1.5a7.49,7.49,0,0,1,5.4.15,4.94,4.94,0,0,1,.75,3.9c-.6.45-.9,1.35-2.1,1.35-.6.45-.9,1.2-1.5,1.65-.15.15-.6.15-.75.15-.45.45-.9,1.2-1.5,1.8a8.43,8.43,0,0,0-1.95,1.05c-.15.15-.15.6-.3.75s-.45.15-.75.3l-.45.6c-.3.15-.6.15-.75.3s0,.45-.3.75c0,.15-.6,0-.6.15-.15.15-.15.6-.3.75a7.39,7.39,0,0,1-3.45,3.3c-.75.9-1.5,2.25-2.55,2.85a2.89,2.89,0,0,0-1.5,1.5c-.3.15-.9.15-1.2.45-.45,1.5-2.1,2-2.7,3.45-.6,0-.75.45-1.2,0-.15,1.65-1.5,1.95-2.55,2.7-.75,2.25-3,3.3-4.35,5-.6.45-.75-.15-1.5,0-.6.75-.3,1.65-.75,2.55a22.44,22.44,0,0,1-1.95,1.65c-.6.45-.75,1-1.35,1.5.75,2.25,2.85,3.15,3.6,5.4,1.8,1.5,3.9,2.55,5.85,4.2a11,11,0,0,1,2,1.5c.75.75,1.2,2,1.95,2.7a25,25,0,0,1,1.8,2.4,17,17,0,0,1,3.75,3.6,9.38,9.38,0,0,1,2.7,3.15c3.6,1.5,4.65,5.4,7.95,7.2.3,2,1.8,2.7,3.15,3.75a14.83,14.83,0,0,0,1.35,3.6c.15.6.75.45,1.2.75.75.6,1.2,2.1,2.55,2.4a1.9,1.9,0,0,0,1.05,1.5,4,4,0,0,0,.15,2c.3.9,1.05,1.35,1.2,2.24C259.07,119.4,258,120.45,257.57,121.35Zm-9-10.8c-.3-.45-1.35-.15-1.65-.45-1-1.95-3-3.6-4-4.95-.3-.3-.3-.75-.45-1.05l-1-.45c-.3-.75-.75-.6-.9-.75a6.92,6.92,0,0,1-1.35-2.25,6.19,6.19,0,0,1-1.65-1.05c-.3-1.5-1.8-1.65-1.65-3.3-1-.15-1.5-.75-2.4-.9a16.68,16.68,0,0,0-4-3.9,10.77,10.77,0,0,0-2.1-3,26.21,26.21,0,0,0-4.35-3.9,14.07,14.07,0,0,1-1.8-1.35c-1.2-.9-2.1-2.1-3.3-2.85-1.2-2.55-3.15-4.35-4.8-6.45-.3-.3-.15-1.2-.45-1.5,0-.6-1-.3-.6-1.2.6-2.85,3.3-3.6,5.1-5.25.75-2.1,2.7-3.15,4.05-4.65a2.82,2.82,0,0,1,1.65-.75c.15-.9.9-1.2,1-2.1,1.35-.9,2.55-2.7,3.75-3.6s1.35-1.35,2.1-1.65c1.2-1.35,2.4-2.4,3-3,.3-.3.3-.75.6-1a5.77,5.77,0,0,1,1.35-1.35c.3-.15.6-.15.75-.3s.3-.6.6-.75c.15-.15.45,0,.6-.15.6-.3.75-.9,1.05-1.2.6,0,.45-.45.45-.45l1.35-.9c.15-.15.15-.6.15-.75l1.5-1.2a20.32,20.32,0,0,1,2.55-2.55c.15-.3,0-.6.15-.75.3-.3.6-.15.75-.45s.9-.9.3-1.5c-.3-.75-.45.75-1.5.15-.9-.75-2.7-.6-3.75-1.2-.75.6-1.5.75-1.95,1.2a9.61,9.61,0,0,0-2.1,2.25,10.27,10.27,0,0,1-2.85,2.85l-.6.3c0,.6-.3.3-.45.45-.3.3-.15.6-.45.9l-1,.75a22,22,0,0,0-1.5,2c-1.5.6-2.55,2-3.9,2.85-.3.15-.9.15-1.2.45-1.05.6-1.8,2-3.15,2.1-.3.15-.15.6-.3.9s-.75.3-1,.45c-.45.45-.75,1-1.5,1.2-.15,1.2-1.35,1.8-2.1,2.55-.45.45-.6,1-1,1.5l-.75.45c-.3.3-.3.75-.45.9l-1.35,1.2c-1,1.5-1.95,3.15-3.45,4,.15.9-.6,1.2-.75,1.5-.75,1.35-1.65,3.3-3.9,2.55a2.52,2.52,0,0,1-1.2-1.05c-.15-.15-.15-.75-.15-.9a5.48,5.48,0,0,1,0-2.7v-2a15.39,15.39,0,0,0,.6-2.1c0-.6-.45-1.2-.45-1.8a8.78,8.78,0,0,1-.3-1.95c.15-4.5.75-9.75.45-14.4a6.33,6.33,0,0,1-.45-1.8c-.15-.75.15-1.65,0-2.4s-.6-1.2-.75-2c0-.45-.15-1.95-.15-2.1s.3-.6.3-.75c0-.6-.45-.9-.45-1.5a8.48,8.48,0,0,0,0-1.95,6.76,6.76,0,0,0-.45-1.65,8.48,8.48,0,0,0,0-1.95c-.15-1.05-.75-2.1-.3-3.45a12.89,12.89,0,0,1-.3-8.25c-.45-.15-.6-.6-.45-1.2.6-1.2.6-3.6.3-5.55a.82.82,0,0,0-.75-.45c-1.5,1.65-4.8.75-7.05.75,0,1.5.15,3.3.15,3.9a22.23,22.23,0,0,1,.15,5.4c0,.3.3.3.3.75,0,2.85-.45,5.25-.15,8,0,.3.3.6.45.9,0,.6-.15,1.2-.15,1.8a15.16,15.16,0,0,1,.45,2.55c0,.3-.15.45-.15.75-.15.3.15.75.15.75a43.27,43.27,0,0,0-.3,6.3c0,1.8.45,3.3.3,5.1a5,5,0,0,1-.3,2.4c.6.3.6,1.2.75,1.65l.45,2a75.46,75.46,0,0,1,0,8.25c0,1.2.3,1.65,0,2.4a10.66,10.66,0,0,0-.6,3,15.12,15.12,0,0,1-.75,3.75c.6,0,.45.9.6,1.2-.15,1.8.15,3.6-.15,5.7,0,.6-.3,1.2-.15,1.8,0,.75.3,1.35.3,2s-.15,1.2-.15,1.8c0,.9.6,2,.6,2.85,0,.6-.3,1.2-.3,2a49,49,0,0,0-.15,6.6,5.32,5.32,0,0,1,.45,1.65c.15,1-.15,2.4,0,3.6.15,3.75,1.35,7.5-.3,10.2.9,1.8-.15,3.9.6,6.3-.15.9-.75,1.5-.3,2.4,2.25-.3,4.8,0,7.05-.3.3-1.65-.45-3.3-.45-4.65,0-.6.45-1.2.3-1.65,0-.3-.3-.3-.45-.6s0-.6,0-.9c0-1.5.45-2.85-.15-4.35.75-1.2.15-2.1.3-3.6a27.73,27.73,0,0,0,.15-3.45c0-.6.3-1.2.3-2,0-1.5-.75-2.85.3-3.75a14.58,14.58,0,0,1-.6-4.65,29.29,29.29,0,0,1,.3-3.45c0-.3.45-.75.45-1.2.3-.75.15-1.05.3-1.35a4.87,4.87,0,0,1,2.7-1.5,18.57,18.57,0,0,0,2.7,2.1c.45,1.35,2,2.4,2.7,3.15.6.45.45.6,1,.75.3.15.6,1.35,1.35.75,0,.6.75,1,1,1.2s0,.6.15.75c.3.3.9.3,1.2.6s.45.75.75.9a9.63,9.63,0,0,0,3.75,2.7,12.81,12.81,0,0,0,1.65,2.1c1.05,1.2,2.4,2,2.85,3.6.75.45,1.2,1,2,1.5,0,.75.45,1,.6,1.8,1.35,0,1.95,1.65,2.7,2.1.3.3.75.3,1.2.6a19.42,19.42,0,0,0,4.65,4.65c.9.6,1.5,1.35,2.25,1.8.3.3.9.45,1,.75s.15.6.3.75l.45.45.9,1.2a15,15,0,0,0,1.95,2.25c.15.15.9.15,1.2.3.6.15.9.45,1.2.45.9,0,1.65-.75,2.7-.9a25.42,25.42,0,0,1,3.45-.15C250.07,112.8,248.57,112.35,248.57,110.55Z"/><path class="cls-1" d="M349.07,75.45c.15,1.35.6,2,0,3.15-.45.75-1.95,1.05-2.25,1.65a5.81,5.81,0,0,0-3.6.15c-1.35-1.05-4.5-.3-5.85-1.35a3.91,3.91,0,0,1-1.65.45c-2.7.3-5.85-.45-9-.9-2.1-.15-4.65-.15-6.45-.15a11.58,11.58,0,0,1-2.25.3c-1.5-.15-2.85-1-4.35-1-1.05-.15-2.4.3-3.6.3a13.13,13.13,0,0,1-2.4-.3c-.3,0-.75.3-1.05.3a3.53,3.53,0,0,0-1.2-.3c-1.35,0-2.7.6-3.75-.6a3.26,3.26,0,0,1-2.55.75c-.9-.15-1.5-.3-1.8-.3s-.75.45-.75.45c-.6,0-1.5-.6-2.25.15-.3-.45-1.5,0-1.95-.45-.6-.3-.45.45-.9.45-1.65-.75-3-.15-4.65-.15-1.5,0-3-.6-5.1-.3a8.08,8.08,0,0,0,.6,6.45c.15,1-.3,1.5-.3,2.25.15.3.6.3.75.45s0,.6.15.75a20.58,20.58,0,0,1,2.4,2.7c.9,1.5,2.55,2.7,3.6,4.5a25,25,0,0,0,1.8,2.4,11,11,0,0,1,3.9,2.1l.9.45c1.2.75,1.8,1.65,3.15,2.25a15.76,15.76,0,0,0,1.95.3c.9.3,2.25,1.8,3.6,2a11.63,11.63,0,0,1,1.35-.15,10.21,10.21,0,0,1,2.25.3,5.39,5.39,0,0,0,3.6-.9,11.35,11.35,0,0,0,2.25-.15c0-.15.15-.45.15-.6.15,0,.45.15.6,0,.15,0,.3-.45.45-.45.6-.15,1.35.3,1.95-.15a3.39,3.39,0,0,1,1.5-.75,15,15,0,0,0,2.85-1.8l1.95-1.2c1.95-1.2,3.15-3.75,4.95-5.4a9.81,9.81,0,0,1,1.8-5.1,7.5,7.5,0,0,1,1.35-4.35,4,4,0,0,1,2.7-.15l1.95,1c.6.3,1.2.3,2.4.75.3.15.6.45.9.45s.9,0,1.5.15c.3,0,.6.45.9.45.75.15,2.1-.3,2.85,0,.15.15.3.45.6.6a2.56,2.56,0,0,1,1.35,1.2,5.76,5.76,0,0,1-1.05,3.3c-.15.45-.3,1.35-.9,1.2-.15.75.3.9.15,1.8-.15.6-.6.9-.75,1.65a21.24,21.24,0,0,1-1.05,3.3l-1,1.2a5.61,5.61,0,0,1-2.25,2c.45.9-.9,1.35-1.2,1.8-.45,1.2-1.65,2-3,2.85-1.5,1.35-3.45,2.25-4.8,3.3l-1.35.9a5.71,5.71,0,0,1-2.4,1.65c-.45.3-.6.15-1.05.3,0,0-.3.45-.45.45-1.05.45-2.25.3-3.45.6,0,.15-.6.45-.6.45l-4.5.9a6.07,6.07,0,0,1-3.15.45c-.45,0-1-.3-1.35-.3s-1.35,1-2.25.3c-.75-.3-.3.9-1.2.6-1.05-.3-2.25.3-3.45.15a8.47,8.47,0,0,1-1.8-.45c-.6-.15-.75.3-1.05.14-.15,0-.45-.44-.45-.44a36,36,0,0,1-6-.9c-.6-.15-1.35,0-1.65-.75a5.7,5.7,0,0,1-4.65-1.8,6.76,6.76,0,0,1-1.65-.45c-1.2-.6-2.85-1-3.6-2.55-1.5,0-2.1-1.05-2.85-1.8a4.55,4.55,0,0,1-3.75-2.25,15.79,15.79,0,0,0-2.25-2.25c-.3-.3,0-1-.45-1.35-1.65-.75-2.4-2.4-4.2-3-.3-1-1.35-1.8-1.95-2.7a6.27,6.27,0,0,1-.6-1.5l-1.05-1.2c-.45-1.35-.6-3-1.05-4.5a2.86,2.86,0,0,1-.45-1.2c-.15-.9,0-1.8-.15-2.55-.15-.6-.6-1.2-.75-1.8-.15-.9,0-2-.15-3.15a16.91,16.91,0,0,1-.45-2.7c0-1.35.3-2.85.3-4.35,0-.45-.15-1.2-.15-1.65.15-1,.9-2.1,1-3.15a2.83,2.83,0,0,0-.3-1.2c0-.45.45-1,.15-1.5.45-.3.6-1.2.75-1.65a21.38,21.38,0,0,1,.45-2.4l.6-.45a1.35,1.35,0,0,0,.15-.75l.6-.45c0-.3-.15-.75,0-.9a5.26,5.26,0,0,1,.75-1.2l.45-1.5c.3-.45.6-.6.75-.9s-.15-.9,0-1.2.45-.15.6-.45l.75-3a5.18,5.18,0,0,1,1.95-2.85c-.45-.45,0-.9,0-1.35a11.44,11.44,0,0,0,2.4-4.2c1.8-1.2,2.85-3.3,4.65-4.65a6.91,6.91,0,0,1,1.5-.75c.15-.15.15-.3.45-.45.15-.15.6-.15.75-.15,1.05-.75,1.65-1.65,3-2.25,1.2-.45,4.2-.15,5.25-1.5a7.33,7.33,0,0,0,3.45-1.2,6,6,0,0,1,3.45-.9,9.46,9.46,0,0,0,4.05-.3,14.15,14.15,0,0,1,3-.45c.3,0,.75.3,1.2.3,1.65,0,3,0,5.1.15,1.05,0,1.95-.45,3.15-.45.15,0,.3.3.6.3a5.56,5.56,0,0,1,2.25,0,8.08,8.08,0,0,1,1.5.45c1.05,0,1.65.6,2.55,1.05.45.3,1.2.3,1.65.6a9.18,9.18,0,0,1,1.8.75c1.2.45,2.55.6,3,2,.45.15.75,0,1.2.3.9.3,1.8,1.35,2.7,2s1.5,1.95,2.55,2.55c.15.6.6.9.75,1.65,1.65.9,2.55,2.7,4.5,3.45.6,1.35,1.65,2.1,1.8,3.75l1.5,2.25c.15.45.9,1,1.05,1.65a9.37,9.37,0,0,0,1.5,3,9.67,9.67,0,0,1,1.65,2.4l.3,2.4.75,1.95c.3,1.5,0,3,.15,4.65l.45,3.6a9.23,9.23,0,0,0,.15,1.95c0,.6.45,1.05.45,1.5S349.07,75,349.07,75.45Zm-6.15-6.9a4.12,4.12,0,0,0,.3-2c0-.6-.45-1.5-.45-1.95.3-1.2.9-.6.3-1.35-.6-.6-.3-2.1-.45-2.4a5.29,5.29,0,0,0-1.2-1.95c-.15-.45-.15-.75-.45-1.05a8.89,8.89,0,0,0-1.2-1.2c0-.15.15-.6,0-.75-.6-.45-.45-.75-.6-1.05a9.56,9.56,0,0,1-1.2-2.1c-.45-.45.3-.9,0-1.8-.9.3-.9-.75-1.2-1.2l-.6-.45c-.3-.3-.3-.6-.45-1.05-2.1-.45-3-1.95-4.65-3,0-.9-.75-1.5-1.05-2.1a11,11,0,0,0-1.5-2c-1.2-1.2-3.45-1.5-4-3.3-1.5,0-2.25-.9-3.6-.3a28.42,28.42,0,0,0-3.15-1.35c-.45-.15-.75-.45-1.2-.45-.75-.15-1.8,0-2.85-.15s-1.65-.3-2.4-.3a11.42,11.42,0,0,1-3.15.45c-.6,0-1.05-.3-1.65-.3l-2.55.45-5.1.6-2.4.45-.75.45-.9.3c-1.35.45-2.55,1.05-3.9.6-.9,1.5-2.85,1.5-4.2,2.4-.45.6-.75.45-.9.6l-1,.75-1.5.9c-.15.15-.45.15-.75.3-.9.75-1.05,1.95-2.25,2.4,0,.6-.45.9-.45,1.65-.75.15-.9.9-1.2,1.35a28.26,28.26,0,0,0-2.1,3.6,11.31,11.31,0,0,0-.9,1.95,14.86,14.86,0,0,0-.3,2.7c-.45,1.2-1.8,2.1-1.65,3.6-1.35.75-1.65,2.7-2.25,4.05a3.93,3.93,0,0,0-.75,1.35c-.45,2,0,4.35-.9,6.3,1.2,1.2.45,2.85.45,4.65,0,1.2.3,2.7.45,4a7.92,7.92,0,0,0,.15,2,11.35,11.35,0,0,0,.15,2.25c0,.3.45.45.45.75.15.45-.15,1,0,1.35l.45,1a11.79,11.79,0,0,1,1.2,3.9l1.8,2a5.53,5.53,0,0,0,1.5,1.65,6.1,6.1,0,0,1,1.35,1.5c.15.3.6.15,1.05.3a16.24,16.24,0,0,0,2.1,2.25l.45.75a5,5,0,0,0,1.65,1.2,7.9,7.9,0,0,0,2.55,1.5,6,6,0,0,0,1.5,1.8c.75.45,1.8.45,2.7,1l1.35,1.2c.6.45,1.5.45,1.65,1.2,1.35,0,2.55.9,3.45,1.05a4.08,4.08,0,0,0,1.35,0c.75.3,1.2.75,1.95.75a5.84,5.84,0,0,0,2.4-.15s.45.45.45.6a6.41,6.41,0,0,0,3-.3c2,1.5,6,.6,8.25.3a1.58,1.58,0,0,1,.9,0c.45-.15.6-.45,1.05-.45l2.4-.45c.75-.15,1.8,0,2.55-.15s1.65-.9,2.55-1.2c.15-.15.45,0,.75,0a13,13,0,0,0,2.1-1.2c.6-.6,1.05-.45,1.2-.6.6-.6.9-1.2,1.5-1.8l1.5-.9.75-.45a42.76,42.76,0,0,1,3.9-2.55c.45-1.35,1.65-1.8,1.8-3.3,1.65-.9,2.4-2.55,2.85-4.8.6-.6.75-.9.45-2-.45-.45-1.65-.3-2.4-.3-.9-.45-1.35-1-2.7-1a23.3,23.3,0,0,0-.75,3.45c-.15.45-.6.6-.75,1.2s0,1.05-.3,1.65a2.69,2.69,0,0,0-.75.9l-.9,1.5-1.5,1.8c-1.2,1.2-1.8,2.55-3,3.3-.3.3-.75.3-1.2.6a6.52,6.52,0,0,0-1,.6l-2.4,1.2c-.3.15-.6-.15-.75,0-.15,0-.3.3-.45.45l-2.55,1.2c-.75.3-1.2.9-2.4.6-.75.9-1.95.75-2.85,1.2l-1.05.45c-.45,0-.9-.3-1.5-.3-.45,0-.9.45-1.35.45-3,.45-5.55-.3-8.25-.6-1.95-2.55-6.9-2.25-8.1-5.25a6.19,6.19,0,0,1-2.25-1c-.3-.6-.75-.45-.9-.6-1.2-.45-1.65-1.35-2.85-1.65,0-1.8-2.7-2.1-1.8-3.75-.9.15-1.35-.3-1.95-.45a4.87,4.87,0,0,0-1.5-1.95c-.15-1.35-1.5-1.65-1.35-3.3-1.8-.15-1.8-2.1-2.85-3.15.15-.6.75-.75.75-1.5a5.15,5.15,0,0,1-1.8-3.3c-.15-.6.3-1.2.3-1.8s-.45-1.5-.45-2.4c-.15-2.1.75-4,.3-5.85,1.35-1.35,3.45-1,6.3-1,.6,0,.9.15,1.35.15,2.1-.15,3.3,0,4.95,0,1.35.15,2.85.3,3.75.3s1.65-.3,2.55-.3c.6,0,1.05.45,1.5.45.6,0,1.95-.45,2.25-.45A16.33,16.33,0,0,0,302,72.3c.6,0,1.5.3,2.1.3,1.95.15,3.45-.15,4.95-.15a1.9,1.9,0,0,0,.9.3c.45,0,.9-.3,1.2-.3.6.15,1.2.6,1.65.6,1.05,0,1.8-.45,2.7-.45,1.2,0,2.55.45,3.9.6.6,0,1.35-.3,1.95-.3a20.59,20.59,0,0,1,4.05.9c.9,0,.9-.75,1.8-.75,2.85.9,6.45.6,9.9,1,2.1.15,4.35.75,6.3,0A8.69,8.69,0,0,0,342.92,68.55Zm-8.4-3c-.15,1,0,2.1-1,2.85-3,.45-6.9-.75-9.9.45-1.2-.75-2.7-.6-4.65-.6-1.65.15-3.75-.3-5.55-.3-1.35,0-2.7.45-4.05-.3a3.56,3.56,0,0,1-3.45-.15,7.7,7.7,0,0,1-3.75.9c-.45,0-.9-.45-1.2-.45a18.41,18.41,0,0,0-2.55.15c-.3,0-.75-.3-1.2-.3s-2.1.45-2.85-.3c-.45,0-.75.45-1.2.45-.6.15-1.05-.15-1.65,0-.9.15-1.8.75-2.7.9a38,38,0,0,0-3.9.15l-1.2.45-1.5.3a10.33,10.33,0,0,1-2.7.3c-1.05-.15-1.5-1.2-2.1-2a5.39,5.39,0,0,1,.3-2.7c.3-.45.15-1.65.3-2.55,0-.3.9-.45.3-1.2l.9-1.5a8.87,8.87,0,0,1,2.1-5.25,8.78,8.78,0,0,0,.3-1.95c0-.15.45-.3.45-.45.15-.3,0-.75,0-1a.9.9,0,0,0,.6-.15,2,2,0,0,1,.3-1.2c.3-.45,1.05-.9,1.35-1.5A7.22,7.22,0,0,0,285.62,47l.75-.6L288,44c1.8-.45,3-1.2,5-1.35.6,0,.9-.75,1.5-.9.15-.15.75,0,1.35-.3a16.31,16.31,0,0,1,3.45-.9c.75,0,1.5.3,2.4.3.6,0,1.2-.15,1.65-.15,1.2,0,2.25.9,3.15.3l1.5.75,1.2.75c1.2.3,2.4,0,3.6.3l1.2.45a3,3,0,0,0,1.5.3,13,13,0,0,0,2.4,1.5,15.85,15.85,0,0,0,2.85.9c2.25,2.1,4.8,4.05,7,6.15a21.08,21.08,0,0,1,2.7,2.55c0,.45.3.3.45.45.3.3.45.9.9.9,0,1.2.9,2.1,1.35,3.3.3.3.15.6.3.9.15.45.9,1.5,1.2,2.25A11.37,11.37,0,0,1,334.52,65.55Zm-6.9-5.1c-.45-.3,0-.75-.15-1.2-.15-.15-1.35-.15-.75-.9-.6-.6-1.8-.75-1.65-2-.9.15-1.2-.9-1.5-1l-.6-.3c-.75-.6-.9-1.65-1.65-2.25-.6-.3-1.5.45-1.5-.75-3,.15-4.5-1.35-6-3-1.65.45-4.05,0-6,.15-1.35-.9-2.55-.45-4.35-.9-.75-.15-.45-1.2-1.5-1.2-1.35.6-2.55-.45-4.05-.6-1.65,1-3.45,1-5.1,1.65-.9.3-2.4,2.25-3,2.85l-3.9,4.65c.15,1.2-.45,1.65-.3,2.7-1.35,1-1.65,3.3-2.1,5.25a31.76,31.76,0,0,0,5.1-.3,8.55,8.55,0,0,1,1.95-.15c.45-.15.75-.45,1.2-.45,1.8-.15,3.75.15,5.55,0s3.75-.6,5.4.15c2.1-.9,5.4-.45,7.2-.3.3,0,.3-.3.75-.3s.3.3.75.3.6.45,1.2.3c4.5-.75,10.2.45,15.75-.45C328.67,62.1,328.37,60.75,327.62,60.45Z"/><path class="cls-1" d="M414.92,50.1c-.45.45-.45.15-.9.45s-.45.6-1,.75c-.15,0-.45.3-.75.15-1.65-.15-1.65-2.1-3.3-2.85-.9.3-1.95,0-2.85.15a20,20,0,0,0-2.7,1,5.71,5.71,0,0,1-1.5.45l-2.7,1.5c-.75.75-1.05,1.5-1.95,2.4-1.2.9-2.85,1.65-3.75,2.7-.45.6-.45,1.65-1.05,2.4-.15.45-.9.6-1.2,1l-.3.6c0,.3-.3.45-.45.6s.15.75,0,1.2-1.05,1.35-.75,2.55c-.3.45-.9.75-1.05,1.2s.15.9,0,1.2-.45.3-.45.45c-.3.6-.3,1.2-.6,1.8-.15.45-.6.9-.75,1.35s.15,1.2,0,2l-.6,1.2a16.23,16.23,0,0,1,0,2.7c-.15,1.35-.75,2.55-1,4.05a29,29,0,0,1-.15,3.45c0,.6-.45,1.2-.45,2-.15,1.5.75,3-.6,4.2.6,1.2.75,3.9-.15,5,1.5,4.2-.75,10.5.45,15.15.45,1.2,2.25.9,3.15,1.65,0,.6.75,1,.9,2a3.86,3.86,0,0,1-1.95,3.3c-.75.29-1.5-.15-3,.15a17.87,17.87,0,0,0-2.7,1.2,32.66,32.66,0,0,1-6,1.5l-3,.44c-1.2.31-2.4,1.06-3.3.91-1.95-.3-2.7-2.41-2.7-4.66,0-.89.45-1.79.3-2.69a15.93,15.93,0,0,0-.6-2.85,67.64,67.64,0,0,1,0-7.8c0-.75.3-1.5.3-2.1a12,12,0,0,1-.45-2.25,26.66,26.66,0,0,1-.75-4.2c0-.6-.15-1.5-.15-2.1a27.69,27.69,0,0,1,.6-3.45c0-.45-.3-.6-.3-1.2,0-.9.45-2.7.45-4.05-.15-1.2-.6-2.4-.75-3.6,0-.6.15-1.65.15-1.8-.15-.6-.45-.9-.45-1.35-.15-1.2-.15-2.85-.3-3.75,0-.3-.15-.9-.15-1.2a18.66,18.66,0,0,1,.6-2.4c.3-2-.15-4,0-6,.15-1.5.9-3,.9-4.35,0-.6-.15-1.35-.15-1.95s.3-1.35.3-2a6.76,6.76,0,0,1-.45-1.65c-.3-1.35.3-2.7.3-4.2a18.76,18.76,0,0,0-.45-2.85,6.08,6.08,0,0,0,0-1.65c0-.45-.45-.75-.45-1,0-.9.6-2.1.6-3.15,0-1.5-.45-3,.3-4.5,0-1.05-.75-1.5-1.2-2.25.75-1.65-.3-3.3.15-4.8a3,3,0,0,1,2.4-.9c1.5,0,1.95,1.05,2.7,1.65,1.95.6,3.75,0,5.85,0,1.05,0,2.25.3,3.15.3,1.5-.15,2.55-1.35,4.8-.6.75.45.6,1.2,1.2,2.1,0,.15.45.45.45.6,0,.45-.3.45-.3.6,0,.45.3.45.3.75-.3,1.65-1.05,3.15-.45,5.1,1.2,0,1.8-.9,2.55-1.65a11.46,11.46,0,0,0,1.35-1.35c.15-.15.15-.6.3-.75s.6-.15.75-.3c.45-.15.9-.9,1.5-1.35.6-.6,1.5-.9,1.95-1.65,1.8-.3,3.45-2.1,5.55-1.35.9-.9,3.45-2,4.65-.9.75.15.75-.75,1.2-.9,2.55.9,5.1-.9,7.5-.3.9.15,1.35.75,1.95,1.05a5.24,5.24,0,0,1,1.95.75c1.35,2.1.3,4.8.15,7.2-.15.6.15,1,.15,1.5,0,.9-.3,1.8-.3,2.7,0,2.25.3,4.5.3,6.75C415.22,49.5,415.22,49.8,414.92,50.1ZM398.57,36c-1.35,1-4.05.9-4.65,2.7-2.55,1.2-4.05,3.45-5.7,5.55l-.75.45c-.3.3-.3.6-.45.9-.45.6-1,.9-1.5,1.5-.3.15-.3.6-.6.9s-.45.45-.75.75l-.9,2c-.9-.3-.9.45-1.2.6a2.4,2.4,0,0,1-1.5.75c-3.3-.9-1.65-5.7-2.55-8.55a4.61,4.61,0,0,0,.3-3.15c0-1.2.3-3-.15-4.35a48.5,48.5,0,0,0-7.95.6v3.15c-.15.75-.75,1-.75,1.8a7.05,7.05,0,0,1,.3,3.9,25.65,25.65,0,0,0,.6,5.4,12.14,12.14,0,0,1,0,3.3c-.15,1.8.3,3.6.3,5.4,0,2.7-.9,5.7-.9,8.4,0,3.3-.3,8.55.3,11.4.3,1.65.45,3.15.6,4.65a34.11,34.11,0,0,1-.15,4.35c0,.9.15,2.25.15,2.85s-.15.9-.15,1.2a23.55,23.55,0,0,0,.3,4.95l.45,3.3c0,.75-.15,1.65-.15,2.4a25.14,25.14,0,0,1,.45,2.7c0,.9-.45,1.8-.45,2.7,0,2.1.9,4,1.05,6a9.21,9.21,0,0,0,4.5.15c.3,0,.6-.6.75-.75a4.77,4.77,0,0,1,1.35-.45c-.15-1.05-.9-2.1-.9-3.3-.15-.6.15-1,.15-1.8a8.55,8.55,0,0,0-.15-2c.15-1.2.75-2.4.9-3.75,0-.75-.3-1.5-.3-2.25,0-3.75-.15-6.6.75-9.6-.9-1.2,0-3.75.15-4.8a4.65,4.65,0,0,0-.3-1c.15-.6.45-1.2.6-2,0-.75-.3-1.5-.3-2.1s.6-1.5.75-2.25a33.15,33.15,0,0,0,.6-5.25,14.48,14.48,0,0,1,.45-2.7,17.81,17.81,0,0,1,1.2-2.4c.15-.3-.15-.9,0-1.2.15-.45.75-.9,1.05-1.35.75-1.8.75-3.45,1.8-4.8,0-3,1.8-4.2,2.7-5.85l.75-.9a19.55,19.55,0,0,0,2.85-3.3c1.35-.6,2-2,3.15-2.85.6-.45,1.8-1,2.25-1.5a4.11,4.11,0,0,1,1.95-1.35c.75-.3,1.35-.75,2.1-.6.45.15.75-.45,1-.45,1.2-.6,1.65-.3,2.85-.3,1.65,0,3.3-.75,4.95-.3.15-1.35-.15-2.55,0-3.6.15-1.5.9-2.7.3-4.35C406.52,33.3,401.87,36.3,398.57,36Z"/><path class="cls-1" d="M509,40.65c0,1.05.15,2.1.15,3.15,0,1.8-.45,4.05-.6,6.45-.15,2,.15,3.6-.6,5.4.45,1.65.15,3.75,0,6.45,0,.75.3,1.5.3,2.25,0,.15-.3.45-.3.9,0,.3.3.6.15,1,0,1-.6,1.8-.75,2.85a12.83,12.83,0,0,0,0,2.4l-.6,2.4a69.5,69.5,0,0,1-1,7.8c-.15.3-.45.45-.6.9-.3,1-.45,2.4-.75,3.6l-1.05,3.45c-.45,1-.9,3.6-1.35,5.25a16.82,16.82,0,0,1-.75,2,18.93,18.93,0,0,1-1.05,2.4l-.75,1.2c0,.45-.45.3-.45.45-.15.15-.15.45-.3.75-.15.15-.3.15-.45.45a37.74,37.74,0,0,0-2.25,3.6l-.45.45a3.27,3.27,0,0,0-.75,1.2,17.78,17.78,0,0,1-3.3,3.45c-.6.6-1.5,1.05-2.25,1.65-.15.15,0,.6-.15.75s-.6.15-.75.3c-.75.6-1.35,1.5-2.1,1.8a4.92,4.92,0,0,1-3.29.75c-1.66,1.8-4.8,2.1-7.66,2.69a3.14,3.14,0,0,1-1.64-1.5c-.91.16-1.2.91-2.1.91s-1.5-.45-2.25-.45c-1.2.6-2.55.29-4.5,0a7.87,7.87,0,0,1-2.7-.3c-.45,0-.75-.3-1.2-.45a6.85,6.85,0,0,0-3.9-.6c-.6-.9-1.95-.9-2.85-1.5-.3-.15-.6-.75-.9-.9s-1.2-.45-1.05-1c-.45,0-.75-.45-1.2-.75-.15-.3-1.05-.15-.6-1a3.12,3.12,0,0,1-1.95-.45c-.6-.3-.6-1.2-1.65-1-.3-.75-1.2-.75-1.2-1.65-1,0-1.35-.9-2.1-1-.75-1.65-2.4-2.55-3.9-3.75a8.7,8.7,0,0,1-1.8-1.5,14.15,14.15,0,0,1-1.65-2.7L435,98.1c-.3-.45-.3-.9-.6-1.2-.45-.45-.9-.45-1.2-.9l-.3-.6a5.58,5.58,0,0,1-1.35-3,5.87,5.87,0,0,1-1.2-1.5c.45-.9-.45-1.5-.6-2.4-.45-1.65-.3-3.6-.6-5.1A9,9,0,0,0,428,81c-.15-.75.45-.75.3-1.5-.15-.6-.75-.75-1-1.2a4.57,4.57,0,0,0-.75-3.45c.9-2.1-1.05-4-.45-6a5.32,5.32,0,0,0,.15-2.25,7.76,7.76,0,0,1,.3-3.15c.15-.6-.6-1.35-.75-2.1s.6-2.85.6-4.2c0-.75-.3-1.35-.15-1.95,0-.6.6-1.05.75-1.65-.45-2.25,0-3.9-.45-6-.15-.9.9-.45,1-.9.15-.9-.45-1-.45-1.8a14.83,14.83,0,0,0,1.35-3.6,9.8,9.8,0,0,1,0-2.1c0-.6.45-.9.45-1.5s-.15-1.2.15-2.1a3,3,0,0,1,.9-1.95c-.45-1.35-.9-3.3-.15-4.65,1.05-.6,2.55-.45,3.45-1.05.3.45,1.65,0,1.65.75.3-.75,1.05-.15,1.5-.3.6,0,1.2-.45,1.95-.45,1.95,0,4.05.15,5.85,0a3,3,0,0,1,.6,1.2c.6.9.75,1.65.9,3.6a79.35,79.35,0,0,1,0,10.35c0,.75.3,1.5.3,2.25a29.13,29.13,0,0,0-.3,3.6,10.32,10.32,0,0,0-.3,2,8.08,8.08,0,0,0,.45,1.5c.15,1.35.15,3.6.15,4.35-.3,1.65.45,3.15-.15,4.5,1.5,2.25,1.05,5.4,1.2,8.55.15,1.35.75,2.55.75,4.2,0,.3-.3.75-.3,1.2s.45,1,.45,1.65c0,2.25-.45,4.35.15,6.3a15.62,15.62,0,0,0,.9,2.4,13.68,13.68,0,0,0,.9,2.4,5.17,5.17,0,0,0,1.2,1.35,4.14,4.14,0,0,0,.9,1.2c.6.75,1.2,1.8,2.4,2,0,.75.45,1.2.6,1.8a21.38,21.38,0,0,1,2.4.45c.45.75,1.35,1,1.65,1.8a3.25,3.25,0,0,1,2.4.9c1.2-.45,2.25.6,3.9.6.6,0,1.8-.45,2.4-.45a2.18,2.18,0,0,0,1.5.15c1.65-.6,4.65-.9,6.15-1.8.29-.3.15-.6.45-.75s.89-.3,1.19-.75c.15-.15.15-.45.31-.75.75-.9,1.64-1.8,2.39-2.85a5.3,5.3,0,0,0,1.36-1.65,8.33,8.33,0,0,1,1.64-2.4,10.28,10.28,0,0,1,1.8-4.5c0-1.2,0-2.25.75-2.7-.3-.75.3-1.2.15-2.4.15-.6.75-.9,1-1.65.15-.45-.15-1.35.45-1.65-.9-2.1-.45-5.4.15-8,.15-.9.75-1.65.75-2.4s-.3-1.05-.15-1.5c.15-.6.45-1.2.6-2s-.3-1.65-.3-2.7c0-.6.3-1.35.3-2.1a20.71,20.71,0,0,0-.45-3c0-.75.3-1.5.3-2.4a23.23,23.23,0,0,0-.15-3.15c0-.75.3-1.5.3-2.4,0-.6-.15-1.35-.15-2,0-.9.75-1.8.3-2.85,0,0-.75-.45-.75-.75s.45-.6.3-.9a5.4,5.4,0,0,1-.75-1.35c0-.15-.15-.9-.15-.9,0-.45.3-.45.3-.9a7.91,7.91,0,0,1-.45-1.8c-.15-.15.15-.3.15-.75,0-.15-.3-.3-.15-.6,0-.45.3-.6.45-1.05s0-.6.3-.9c1.35-1.5,5.4-.6,8.55-1.05a4.77,4.77,0,0,1,1.35-.45c.75-.15,1.35.15,1.95,0,1.2-.15,2.55-1.05,3.9.15a3.46,3.46,0,0,1,4.8.3c.6.75.45,1.2.75,2.4a6.87,6.87,0,0,1,.15,2.55c-.15,1,.45,2.55.45,3.6S509,39.45,509,40.65Zm-6.15-8.1a86.08,86.08,0,0,0-10.35,1.5c-.45,1.65.6,3.3.75,5.1.3,2.55,0,6.45.15,8.85,0,.6-.3,1.2-.3,1.65a6.33,6.33,0,0,0,.45,1.8c0,.9-.15,1.8-.15,2.85a27.73,27.73,0,0,1,.15,3.45,21.24,21.24,0,0,1-1.05,3.3c0,.45.3,1.05.3,1.5-.15.75-.3.75-.75,1.5,1.05,1.35.15,3.45.15,5.55-.3,2.55-.15,5.25-.75,7.5-.15.6-.75,1.05-1.05,1.65,0,.3.3.45.3.75a3.6,3.6,0,0,1-1.05,1.8c.75,1.65-.75,2.4-.6,4.2-1.35,2.1-2.85,4.65-4.5,7A9.71,9.71,0,0,1,483,94.8c-.45.3-.45,1-.75,1.35-.3.6-1.05.9-1.5,1.5l-.44.9c-.31.3-.31.45-.75.75-.75.45-1.81.45-2.7.9-.91.3-1.5,1-2.41,1.2-.75-.15-.75-.75-1.5-.75-.14.75-.3,1.65-1.19,1.65-3,.6-8.7,1.65-11.1-.6a5.16,5.16,0,0,1-3.45-.45,31.3,31.3,0,0,1-4.65-3c-.45-.45-.6-1-1.05-1.35a3.43,3.43,0,0,1-2.1-.9c-.45-.3-.75-.45-.9-.75a14,14,0,0,0-1.5-1.5,23.9,23.9,0,0,1-1.95-2c-.75-2-2.1-3.75-2.7-6-.3-1,.15-2,0-3a4.4,4.4,0,0,0-.45-1.5c.45-.9.15-1.2.15-1.2V78.3c0-.6-.45-.9-.45-1.2s.3-.9.3-1.35a4.77,4.77,0,0,1-.45-1.35,7.23,7.23,0,0,1,0-1.8c-.3-2.85-.6-5.1-.75-7.35-.3-1.35-.15-2.7-.75-3.9.45-.3.15-1.05.6-1.35a16.82,16.82,0,0,1-.75-2,11.25,11.25,0,0,0,0-2.25c0-.75-.15-1.5-.15-2.25,0-.45.45-1,.6-1.65,0-1-.75-2.25-.75-3.3,0-.6.3-1.35.3-2A11.35,11.35,0,0,1,440,44.4a4.77,4.77,0,0,1,.45-1.35c.3-1.5-.15-2.55-.15-3.75,0-.45.3-.6.3-.9s-.3-.9-.3-1.2a25,25,0,0,0-.3-4.65,12.18,12.18,0,0,0-4.35.6,63.21,63.21,0,0,0-2.25,11.1c-.9,1-1.05,2.7-1.8,3.9-.15.9.45.9.45,1.65-.45.45-.15,1.65-.45,2.25.75,1.5,0,2.85-.15,4.05,0,.3.3.45.15,1,0,1.5-.6,3.45-.75,5.25.3.6.3,1.35.6,1.95-.75,1.2-.3,3.6-.3,5.1,0,.6-.3,1.2-.3,2,0,.3.3.6.45.9.75,2,.45,4.35,1.05,6.15a7.76,7.76,0,0,1,.9,2,18.76,18.76,0,0,1,.45,2.85c.3.9.9,1.8,1.2,2.7a12.4,12.4,0,0,1,.15,4c.45.9,1.8.75,1.35,2.25.9.15,1.2,1,1.65,1.5,1.35,1.35,2.7,2.55,2.85,4.65,1.35.75,3.3,1.65,4.05,2.55,1.35,1,1.65,2,2.7,2.4a18.28,18.28,0,0,0,6.15,4.35c1.5,2.1,3.75,3.15,6.6,4,.15,0,.3-.45.6-.3a2,2,0,0,0,1.35.75,46.13,46.13,0,0,0,9.75.75c.3,0,.59.15,1.2.15.3.15.75-.15,1.19-.15a11.69,11.69,0,0,0,4.36-.45l2.69-.9c.9-.3,1.36-.45,1.65-.9.46-.3,1-.3,1.21-.6s.14-.6.29-.75c.3-.45.9-.6,1.21-1a15.53,15.53,0,0,0,2.69-2.7c.6-.75,1.35-1.2,1.5-1.8.3-.45.15-.9.6-1.2.3-.3.9-.45,1.2-.9a9,9,0,0,1,1.2-2.4,3.88,3.88,0,0,0,1.05-1.65l.45-.75a20,20,0,0,0,1.65-3.6c.45-1.2.6-2.1,1.05-3.6a4.77,4.77,0,0,1,.45-1.35,19,19,0,0,0,.9-4.2c.45,0,.3-.9.45-1.2a1.36,1.36,0,0,0,.45-1.35c.15-.45.45-.6.6-1s-.3-1.35-.3-2.1l.6-1.65c.15-.9-.15-1.8,0-2.4a1.62,1.62,0,0,1,.6-.75c.15-.6-.15-1.05,0-1.5.15-.6.6-1.2.75-2a3.27,3.27,0,0,0,0-2.1,4.65,4.65,0,0,1,.3-1c0-1.65,0-4.2.15-6.45,0-.6.45-1.05.45-1.65.15-.3-.15-.6-.15-1.05,0,0,.45-.6.3-.9-.45-.9-.75-.75-.75-1.5,0-1.2.75-3.3.9-5.1,0-.3-.3-.45-.3-.75s.3-.45.3-.9V46.5c.15-1.2.75-2.7.3-3.75C502.36,39.9,503.86,35.85,502.81,32.55Z"/><path class="cls-1" d="M659.71,116.54a43,43,0,0,0-4.65,2.11,9.37,9.37,0,0,0-3.9,3c-1.2.14-1.65.6-2.4.45s-.9-.45-1.2-1.06l-.6-.44-.6-1.06a4.12,4.12,0,0,0-2-1.34,11.26,11.26,0,0,0-1.2-2.7c0-.3-.3-.45-.45-.6-.15-.45-.3-1.5-1.2-1.65a2.51,2.51,0,0,0-.45-1.8,13.24,13.24,0,0,0-3.3-3.15c.45-.75-.3-1.35-.6-2l-.9-1.65c-.3-.3-.6-.45-.75-.75-.45-.75-.75-1.8-1.65-2.25-.15-.6-.45-.9-.15-1.65-.3-.6-1-.45-1.5-.9a9.33,9.33,0,0,0-2.1-2.85c-.3-.3-.75-1.2-1.2-1.8a17,17,0,0,1-1.65-1.65,9.18,9.18,0,0,0-.75-1.8c-1-1.5-2.7-2.25-3.9-3.9a14.14,14.14,0,0,0-1.5-1.5,4.53,4.53,0,0,1-1.2-1.2c0-.15,0-.6-.15-.75a4.89,4.89,0,0,1-1.65-2.4c-.45-.9-1.35-1.2-1.65-2.25-3.3-.15-4.8-3.75-7.35-5.25-.45-.3-.9-.45-.75-1.2-.6,0-1-.15-1.2-.6-.9.45-.45,1.5-.6,2a16.23,16.23,0,0,0,0,2.7c.15,1.2.75,2.4.9,4,.15,1.5-.15,3.15-.15,4.65l.45,3a12.8,12.8,0,0,0,0,2.4c0,1.65.45,3.45.3,5.1,0,2.1-.3,3.6-.15,6,.15,1.65.9,2.7.9,3.9v2c-.15,1.35-.6,2.7.6,3.6-.75,1.5.45,2.25.15,4-.75.45-1.2,1.19-2.25,1.19-.75.16-.9-.44-1.35-.44-1.5-.3-3.15,0-4-.9a10.07,10.07,0,0,1-2.25.9c-2.25.44-5.7-.3-8,.15-.6.15-2,.15-3,.45-.6-1.2-1.5-2.1-1.65-3.45,0-1,.45-2.7.45-4a18.07,18.07,0,0,1-.15-5c-.15-.45.3-4.2.3-5.55s-.3-2.25.3-3.3c-.45-.75,0-1.5-.15-2.55-.15-2.1-.75-5.4-.75-7.65-.15-.9-.75-1.2-.9-2,.3-2.85-.3-5.85-.3-8.55,0-2.4.3-4.8.15-7.5a18.76,18.76,0,0,1-.45-2.85,11.28,11.28,0,0,0,0-2.25,10.51,10.51,0,0,0-.45-2.1c0-.6.3-1.35.3-2,0-1.95-.6-3.6-.6-6.15,0-.45.3-1,.3-1.65,0-.3-.45-.75-.45-1.2,0-1.2.6-2.55.6-3.9,0-.9-.6-1.95-.45-3.15-.6-.9.75-3.15.15-4.35.45-.15.45-.75.75-1.2-.15-2.85-.15-4.5-.15-7.5,0-.45.3-.75.3-1.2,0-.6-.45-.9-.45-1.5-.15-1.5.3-3,.15-4.5a7.91,7.91,0,0,1-.45-1.8,4.64,4.64,0,0,1,.3-1.2c0-.45-.3-.75-.3-1.2a15.69,15.69,0,0,0,.6-2.55c-.15-1.2-.9-1.5-1.2-2.55.45-.9.15-2.25.3-3.3a6,6,0,0,1,1-2.4c1.8,0,3.9.3,6.3.3.45,0,.75.15,1.2.15.6-.3.75,0,.9,0a20.33,20.33,0,0,0,3-.3,5.71,5.71,0,0,0,2,.15c.45,0,.3-.3.6-.3.9,0,1.65.3,2.55.3.9.15,1.5-.3,2.1.15.45.15.6.45.9,1.2a1.28,1.28,0,0,1,.45.75c.15.75-.45,1.8-.45,2.55-.15,1.5.45,3,.3,4.65,0,1-.45,1.95-.45,3.15-.15,1.8.15,4.05-.15,6.45l-.6,2.25-.3,2.1c-.15.9-.9,1.8-1.05,2.7,0,1.5,1.35,3,0,4.35a7.31,7.31,0,0,1,.45,1c0,.3-.3,1.05-.3,1.2a16.82,16.82,0,0,0,.75,1.95,8.18,8.18,0,0,0-.15,3.3,2.25,2.25,0,0,0,1.8-1.65c.75-.15.9-1.05,1.5-1.65.3-.45.9-.6,1.35-.9.3-.15.3-.6.6-.75l.75-.45c.15-.15,0-.45.15-.75l1.35-1.2c.15-.15,0-.45.15-.75a.9.9,0,0,0,.6-.15c.15-.15,0-.6.15-.75a.9.9,0,0,1,.6-.15c.15-.3,0-.6.15-.75l.6-.3c.15-.15,0-.45.15-.75,1.8-1.8,4.35-4,6.45-5.85.3-.15.3-.15.45-.45a2,2,0,0,1,1-.75c.15-.15.45-1.05,1.2-.9L624.31,24c.75,0,.6-.75,1.65-.45a20.51,20.51,0,0,1,2.7-3.6c.3-.6.75-.45,1.05-.6.45-.45.9-1.2,1.5-2,.15-.3,0-.45.15-.75.15,0,.45-.15.6-.15.3-.45.3-.9.75-1.2a11.21,11.21,0,0,0,1.65-2l.75-.9c.6-.75,1.5-1.2,1.5-2.25.6.15,1.8-1.2,3-1.35.75-.15,2.1.3,3.6.3,2.7.15,5.7-.15,9,.3a3.23,3.23,0,0,1,1.2,0,4.77,4.77,0,0,1,1.35.45c1,.3,2.25.3,3.45.6a5.57,5.57,0,0,0,1.35.3c.75,0,1.35-.3,1.8-.3l.6.6a3,3,0,0,1,1.8,1.5c.3,1.35-1.2,2.55-1.65,3.6-.9.15-1.5,1.05-2.1,1.65a20.17,20.17,0,0,0-2.1,1.65c-1.35,1.05-2.55,2.4-4.35,3a17.05,17.05,0,0,1-2.25,2.4c-.75.6-1.2,1.65-2.4,1.8a4.05,4.05,0,0,0-.75,1.65,25,25,0,0,0-3.45,3.45,17.19,17.19,0,0,0-3.3,3.3c-1.5.3-1.65,1.95-3.15,2.25a12.34,12.34,0,0,1-2.7,2.85,12.19,12.19,0,0,0-2.85,2.7c-.75-.15-.75.6-1.65.45-.45.6-.6,1.5-1,2.1-.9.15-1.2.9-1.65,1.35a3.5,3.5,0,0,0-1.5,1.8c-2.4,1-4.05,3.15-6.15,5.1-.75.75-1.65,1.2-1.8,1.95,0,1.2,2.1,2.85,3.15,3.9l3,3.75c.75.75,1.35,1.65,2.4,2,.15,1.2,1.2,1.65,1.8,2.4l1.2,1.8c.45.75,1.2,1.5,1.65,2.4a10.09,10.09,0,0,1,3.3,4.5c.75.15,1.2.75,2,1.2a3,3,0,0,1,1.2,1.2,19,19,0,0,0,1.65,2c.15.3.15.75.45,1A6.39,6.39,0,0,1,642,84a2.67,2.67,0,0,1,1.65,1.2c.45.6,1.5,1.2,2.1,2,.45.45.3,1.5,1.2,1.5.6,2.1,2.4,3,3.15,4.95a9,9,0,0,1,1.65.9c.15.6.6.75.45,1.5.9.15,1,.9,1.35,1.5.75,0,1.05.9,1.5,1.2l1.2,1.35c.15.3.15.6.45.9a4.53,4.53,0,0,0,1.2,1.2c.9,1.35,2,2.4,2.7,3.45a15.2,15.2,0,0,0,2.1,3,10.64,10.64,0,0,0,2.55.6c-.15,1,.9.75,1.35,1.2,1.2,1,.9,2.1.15,4C664.81,116.1,662,115.8,659.71,116.54Zm-4.5-7.64c-.15-.3-.15-.9-.45-1.2-.75-1.2-2.25-2.1-2.55-3.75-1.05-.45-1.5-1.35-2.1-2-.3-.15-.9-.3-.9-.45a10,10,0,0,0-2-2.25c0-.75-.45-1-.75-1.65a25.42,25.42,0,0,1-3.9-4.2,1.62,1.62,0,0,1-.3-1.2c-1.2-.9-1.95-2.25-2.85-3a13.06,13.06,0,0,1-1.65-1.35,3.76,3.76,0,0,1-.75-1.2,4.56,4.56,0,0,1-.9-1.65c-.15-.45-1.2-.3-1.2-1,0-1-.75-1.5-1.05-2-.15-.15-.15-.6-.3-.75a7,7,0,0,1-1.35-.9l-1.2-1.5c.15-.75-.3-.9-.3-1.5-.6-.6-1.2.3-2-.3.3-.9-.6-.75-.9-.9l-.45-1.35a2.69,2.69,0,0,1-.75-.9,19,19,0,0,0-1.65-2c-.3-2.7-2.55-3.9-4.2-5.25-.3-.15-.45-.45-.75-.75a10,10,0,0,1-2.55-2.4c-.15-.9-.6-1.35-.75-2.25-.6.3-.45-.3-.6-.45a5,5,0,0,0-1.8-.75,5.5,5.5,0,0,0-1.5-2.55,7.34,7.34,0,0,1-1.5-2.85,41.19,41.19,0,0,1,3.3-3.9,9,9,0,0,0,1.65-.9,1.62,1.62,0,0,1,.6-.75c.75-.75,1.5-1.2,2.1-1.8a7.11,7.11,0,0,0,1.5-1.5,11.31,11.31,0,0,1,2-.9,7.76,7.76,0,0,1,2.7-2.25c.9-2,2.4-2.85,4-3.9.3-.45.45-1.2.75-1.65,2.4-.6,2.85-3.45,5.4-3.9a3.6,3.6,0,0,1,1.05-1.8,1,1,0,0,0,.75-.45c.3-.3.15-.6.45-.9.45-.15.75-.75,1.5-.75,0-.9.9-1,1.5-1.65,1.8-1.65,3.15-3.45,5.1-4.65,1-2.7,3.6-3.75,5.25-5.7.9-.75,2.55-.6,2.7-2.1-.45-.9-1.35-.45-2.4-.6a12.32,12.32,0,0,0-3.45-.3c-1.65.15-4.5-.15-6.3.15-1.5.15-2.4,1.65-3.6,1-.6.6.15.9,0,1.65-1.5,1.35-2.4,3.15-4.5,3.9-.45.6-.45,2-1.5,2.25a4.63,4.63,0,0,1-3.9,3.6c-.3.75,0,1.2-.6,1.95-1.65,1.05-2.85,2.55-4.8,3.3-.3.9-1.2,1-1.8,1.65-1.5,2.4-3,4.8-6,5.85a5.71,5.71,0,0,1-.45,2.4c-2.1,1.2-2.85,3.75-5.25,4.5,0,1.35-1.35,1.5-1.5,2.7a22.48,22.48,0,0,0-3.6,3c-.6,1.8-1.5,3.45-3.3,3.3-1,0-2.55-1.5-2.85-2.85,0-.6.3-1.35.3-1.95,0-1.35-.15-2.7-.15-4.2,0-.75.3-1.65.3-2.4s-.45-1.2-.45-2c0-1.95.6-4,.6-6a26.55,26.55,0,0,0-.15-3.45,11,11,0,0,1,.6-2.1c-.3-.9,0-1.2,0-1.2.3-3.3,1.35-7,.45-9.45.75-1.5.15-3.75.6-4.65.3-.6,0-1,0-1.95,0-.3.45-.6,0-.9-2.25-.9-6.45-.45-8.85,0-.75,2.1.15,4.8-.3,7.35,0,.6-.45,1.05-.45,1.65.9,1.2.3,2.55.9,3.9a3.81,3.81,0,0,0-.75,1.95c.9,1.35.45,2.7.3,4.35A20.13,20.13,0,0,1,591,35a15.16,15.16,0,0,1-.45,2.55,11.25,11.25,0,0,0,0,2.25,15.85,15.85,0,0,0-.45,4.35c.15.6,0,.6,0,.9.15,2.1.45,3.6-.75,4.65a12,12,0,0,1,1.2,5.55c.15,1-.15,2.1,0,3.15a14.27,14.27,0,0,1,.6,2.7,21.83,21.83,0,0,0,0,3.15c0,.45.45,1,.45,1.5a21.12,21.12,0,0,1,.15,3.15c0,2.1-.75,4.2-.6,6.3,0,.75.45,1.35.45,2.1a12.5,12.5,0,0,1-.6,2.25c.9.6.6,2,.9,2.55l.6.3c.45,1.05-.45,2.55-.3,3.45,0,.9.75,2.1.9,3.15.15,1.35,0,2.4.15,3.6,0,.45-.15.9-.15,1.5a2.86,2.86,0,0,1,.45,1.2c.15.45,0,1,.3,1.5a8.48,8.48,0,0,0-.9,3.6,11,11,0,0,0,0,3.15c.45,2.25,0,5.25,1.35,6.75,3-.3,5.85.9,8.25,0a15.86,15.86,0,0,0,.3-4.65c-1.65-1.5-.6-3.3-.6-5.55,0-.6-.45-1.2-.45-1.8,0-.3.3-.75.3-1.2,0-1.8-.6-3.15.3-4.35-.3-1-.6-1.8-.15-2.55a9.87,9.87,0,0,1-.45-6.9c-.75-1.2-.15-3.3-.3-5.1,0-.45-.45-.6-.45-.9-.15-.6.45-.6.3-1.2-1.65-2,.15-5-.15-7.8A4,4,0,0,0,602,65.1c.75-.15.9-.75,1.35-1s.6-.9,1.5-1c1.35-.15,2.4.75,3.6,1.35.3,2.1,2.4,2.55,3,4.35,1.5.75,2.7,1.5,3.3,3,.75.15,1,.75,1.95.75.45,1,1.5,1.35,1.8,2.55,1.5.45,2.25,1.65,3.6,2.25.45,2,2.4,2.55,2.85,4.65,1.2,0,1.8,1.2,2.4,1.8l.9.45c0,.45.45.6.45.75a9.87,9.87,0,0,1,2.1,2.25,11.46,11.46,0,0,1,1.65,2.4l.75,1.2L634.51,93a1.65,1.65,0,0,1,.45.9c1.5,1.95,3.75,3.3,5.1,5.55l.6,1.35a44.71,44.71,0,0,0,3,4.8l1.05,1.2a9,9,0,0,1,1.35,2,5.54,5.54,0,0,1,.75,1.65,4.58,4.58,0,0,1,1.8,2.7c.9.75.9,1.65,1.65,1.8,1-.3,2-1.2,3-1.65.3-.15.75-.15.9-.3a9.16,9.16,0,0,0,3-1.35C657.31,110.25,655.66,109.5,655.21,108.9Z"/><path class="cls-1" d="M758.11,70.65c-.15.9.6,2.4-.15,3.15,1.2,1,.45,2.4.15,4-.15.9.15,2,0,2.55-.15.45-.6.9-.75,1.35-.3.45-.3,1.2-.75,1.2a6.74,6.74,0,0,1-.6,3.45l-.3,1.2c0,.3-.45.6-.45.9-.15.45.15,1,0,1.5s-.6.9-.75,1.35L752.71,96a21.68,21.68,0,0,1-2.85,5.25,8.48,8.48,0,0,1,0,2,11.89,11.89,0,0,0-2.55,2.85,8.81,8.81,0,0,1-1.5,2.4c-.75.9-1.8,1.35-2.7,2.25-1.05,0-.9.3-1.65,0a10.58,10.58,0,0,1-5.1,2.85,3.28,3.28,0,0,0-.75.45c-.45,0-.9-.15-1.2,0-1.2.3-2.4,1-3.9,1-.45,0-1-.3-1.5-.3-.75.15-1.35.6-2.25.75-1.5.3-3.3.15-5.1.3-.3,0-.45.3-.6.3s-.3-.3-.6-.3-.6.45-.9.45h-1c-.45,0-1-.15-1.35,0-1.2.15-2.25.9-4.2.6-.45-.15-.3.44-.75.44-2.4.16-6.15.61-8.1-.89a2.86,2.86,0,0,1-2,.14c-.45,0-.6-.29-1-.44h-.9c-2-.45-4.35-1-5.85-2.25a4.15,4.15,0,0,0-1.35-.15c-1.35-.75-2.1-1.8-4-2,0-.75-.6-.75-.45-1.5-.75.45-1-.45-1.5-.75l-1.5-.75a6.93,6.93,0,0,0-1-1c-.45-.3-1.2-.45-1.5-.75a6.54,6.54,0,0,1-1.2-1.5c-.3-.3-1.2-.6-.9-1.35l-2.1-1.8c-.15-.75-.6-1-.45-2-.45-.45-.75-.45-1.2-1l-.3-.6c-.6-.15-.3-.45-.45-.6l-1.2-1.65a27.34,27.34,0,0,1-.9-2.7c-.15-.45,0-.6-.15-1a3.44,3.44,0,0,1-.45-2.55c-.3-.6-1-.9-1.2-1.5-.3-1.5-.15-2.85-.45-4.2-.15-.9-1-1.65-.6-2.7-.6-.6-.75-1.65-1.35-2.1.3-1.2-.45-2.4-.45-3.9a13.31,13.31,0,0,1,.3-2.25V71a15.78,15.78,0,0,1,.9-3.15c.15-1,0-2.1.75-2.4-.75-2.55.9-4.5.9-7.05.45-.3.45-1.35.9-1.65,0-2.1,1-3.15,1.35-4.8,1-.45,1.35-1.5,1.95-2.4.3-.3.6-.3.75-.45.45-.3.45-1.65,1.5-1.5.3-.75,0-.45,0-1.35,1.2-.45,1.65-1.65,2.85-2.4l1.2-.45.9-.75a11.46,11.46,0,0,0,1.35-1.35,14.86,14.86,0,0,1,2.55-1.65,11.44,11.44,0,0,1,2.55-2c.3-.15.75-.75,1.2-.9a3.3,3.3,0,0,1,1.2-.15c.6-.3,1.8-1.35,2.7-.75,1.35-1.35,3.6-1.8,6.3-1.8.75.15.75-.6,1.2-.6,2-.15,3-.6,5.4-.45.75,0,1.5.3,2.1.3a14.48,14.48,0,0,0,2.7-.45c.6,0,1-.15,1.5-.15a9.65,9.65,0,0,1,3.6,0c.45.15,1,.6,1.5.6s1.2-.3,1.65-.3l1.65.6a5.71,5.71,0,0,0,1.5.45c.6.15,1.35,0,2,.15a7.41,7.41,0,0,1,2.4.75c.75.15,1.65.6,2.4.75,2.7.45,5-.15,7.5.9.45.15,1,.75,1.65,1,.15,0,.6-.15.75,0,.3.15.6.75.9.9.45.45,1.2.3.9,1.05,2.4.75,4,2.4,5.85,3.75a4.71,4.71,0,0,0,.9,2.4l2.1,2.25c.3.3.15.9.45,1.65a24.55,24.55,0,0,0,1.8,3.3c0,1.5.15,1.2.75,2.4.45,1,.9,2.85,2.25,3.45-.15,1.05.75,2.1.9,3.15a37.93,37.93,0,0,1,.15,4c0,.45-.3.9-.15,1.2,0,.75.3,1.5.3,2.25C758.41,69.9,758.11,70.2,758.11,70.65Zm-4.5-7.35c-1.05-.75-1.05-2.55-1.35-4.2-1-.9-1.2-2.7-1.65-4.35-.45-.75-1.5-1-1.05-2.7-.9,0-.6-.9-1.2-.9a23.29,23.29,0,0,0-3.15-3.45,7,7,0,0,0-3-3.75c-1.65-1.35-3.45-1.35-4.35-2.85-1.5-.15-2.7-.6-4.35-.3a16.82,16.82,0,0,0-2,.75,9.7,9.7,0,0,0-1.95.6c0-1.35-1.2-1.65-1.05-3.15a53,53,0,0,0-6.3-.9c-2.4-.3-4.8-.9-7-.75-.9,0-1.5.45-2.4.3-.75.15-.6-.45-1.2-.45-.3,0-.6.45-.75.45-.45,0-.6-.3-1.2-.3-.9,0-1.95.45-2.7.45-.45,0-1.05-.3-1.35-.3s-.6.45-.75.45h-.75a19.58,19.58,0,0,0-3.15.75,4.49,4.49,0,0,1-2.7.45c-1.5.9-3,2.1-5,2-.3.75-1.2,1.2-1.5,1.5-1.8,1-2.85,2.55-4.65,2.7a1.76,1.76,0,0,1-1.65,1.5c0,1.05-1,1.05-1.8,1.35A42.34,42.34,0,0,0,681,52.5c-.3.6-1.2.6-1.5,1.2.6.9-.9,1.8-1.2,2.55l-.3,3c-.15.45-.6.6-.75.9-.3.45-.15,1.2-.3,1.65a21.93,21.93,0,0,0-.75,3,1.59,1.59,0,0,1-.15,1.2,12.45,12.45,0,0,1-.75,3,9.74,9.74,0,0,0-.3,3.45c0,.9-.3,2.1-.3,2.85,0,.3.45.75.45,1.2a7.2,7.2,0,0,0,0,1.8c.15,1,1.05,2.1,1.35,3.15.3,1.2.15,2.55.45,3.9,0,.3.3.6.45.9A35,35,0,0,1,678.46,90a24.44,24.44,0,0,0,1.65,4.65c1.35,3,3.6,5.25,4.95,7.8a4.51,4.51,0,0,1,3,2.7c1.65.3,2.85,1.65,4.5,2.55.3.15.6,0,.75,0s.45.45.45.45c.45.3,1,.3,1.5.6.3.15.6.6.9.75a7.53,7.53,0,0,1,1.8.3c.9.45,1.5,1.5,2.55,1.65a27.73,27.73,0,0,0,3.45.15c.6.15,1,.6,1.65.75a11.66,11.66,0,0,0,2.4.3c.6,0,1-.45,1.65-.45s1.35.3,2,.3a5.71,5.71,0,0,1,1.5-.45,12.12,12.12,0,0,1,2.4-.15c.9-.15,2-.3,2.25-.3a1,1,0,0,0,.6.3c.75-.15,1.35-.6,1.95-.75.75,0,1.35.15,2,.15,2-1.2,5-.6,7.35-1l1.5-.75c.3-.15.75.15,1.2,0,.15,0,.3-.3.75-.45l2-.45c.6-.15,1.2-.6,2-.45.6-.75,1.8-1.05,2.7-1.65a8.32,8.32,0,0,1,1.2-.9,17.6,17.6,0,0,1,1.65-.75c1.35-2.25,3-4,3.6-7a9.05,9.05,0,0,0,1.2-1.2c0-1.95,1.05-3,1.8-4,.15-2.7,1.35-4,2.1-6,.45-.45.15-1.5.3-2.25,0-.45.9-.15.75-.9,0-2.4,1.2-4.5,1.5-7.05C754.36,71.85,752.86,67.35,753.61,63.3Zm-8.1,7.8c-.15.45,0,.45,0,.75s-.3,3.3-.45,3.3c.45.45-1.35,4.5-1.5,5.55-.45,2.7.15,5.4-1.65,7.5a11.28,11.28,0,0,1-1.5,5.1c-.3.3-.3.45-.6.6l-.75,1.2-1.2,2c-.3.45-1.05,1-1.5,1.65-.75,1.2-2.1,2.55-3.15,3.9a7.87,7.87,0,0,0-2.7,1.5l-1.8,1.2a15.71,15.71,0,0,1-1.65,1.2,5.05,5.05,0,0,1-1.8.9,7.88,7.88,0,0,1-3.15.9c-1.05.15-2.25-.45-3.3.15a7.17,7.17,0,0,0-4.35-.45c-1.35-.45-2-1-3.45-.45-3-2-6.75-2.25-10-4-.9-.15-.9-1-1.5-1.5a4.72,4.72,0,0,1-3.3-3c-2.25-1-3.6-3.15-5.1-5-.3-.75,0-.75-.3-1.65s-1.2-1.05-1.65-1.8c.3-.6-.3-.75-.45-1.35s0-1.35-.15-1.8l-.75-1.2a1.12,1.12,0,0,1-.15-.75c-.15,0-.45-.15-.6-.15-.15-.45,0-1-.15-1.5-.15-.3-.45-.3-.45-.45-.3-.9-.15-2.25-.9-3,.75-1.5-.75-2.55-.15-3.9.15-.75-.6-.6-.75-1.2.3-.6.45-1.65-.15-2,.9-.9-.3-2.7.75-4,.15-.75-.6-.9-.45-1.65.6-.15,0-1.35.75-1.2-.6-.9.15-1.65.3-2.4a4.05,4.05,0,0,0,0-1.35,10.08,10.08,0,0,1,.9-1.8,7.1,7.1,0,0,0,.9-3c.75-.15.75-.75,1-1l.45-.6a6.56,6.56,0,0,1,1-1.2c.3-.15.3-.15.45-.45s.75-.15.6-.9c1.2-.3,1.8-1.35,2.7-2.1a17.05,17.05,0,0,0,2.25-2.4c2.25-1.2,3.6-3.3,6.75-3.75.75-.15,1.2-1.05,1.8-1.35.3-.15.9-.15,1.35-.3.9-.15,2.25-1.2,3.3-1.35a8.37,8.37,0,0,0,1.95,0c.6,0,1.2-.15,1.65-.15s1,.6,1.65.6c1.65-.15,3.45-1.5,5.55-1.2s2.7,1.95,4.8,1.8a5.93,5.93,0,0,0,2.25,1.5,6.05,6.05,0,0,1,5.1-.15,2.37,2.37,0,0,0,.9.75c.9.45,1.95.45,2.7.9.6.75,2,1.35,2.1,2.1,1.35.15,1.35,1.5,2.55,1.8.3,1.05,1.2,1.65,1.65,2.55.15.3,0,.6.3.9l.45.45c.15.3,0,.45.15.75a14.64,14.64,0,0,1,1.2,3.45,1.17,1.17,0,0,0,0,.75,21.38,21.38,0,0,0,.45,2.4,9,9,0,0,0,.9,1.65C746.41,65.4,745.66,69,745.51,71.1Zm-4.8-3.9a7.2,7.2,0,0,0,0-1.8c-.3-2-1.35-3.6-1.8-5.85-.15-1.2.15-2.55-.3-3.9-.75-.3-.6-1.2-1.05-1.65-.45-.75-1.5-1-1.65-2a17.1,17.1,0,0,1-2.85-1.5,13.81,13.81,0,0,1-2.85-.3c-.9-.3-1.35-.9-2.1-1-1.5-.15-1.65.75-3.3.45-1-.45-1.35-1.65-2.25-2.25a4.32,4.32,0,0,0-1.95-.15c-.6-.15-.6-.9-1.5-.75-1.65.45-3.75,1.5-6,.6a4.39,4.39,0,0,0-1.8,1c0-.6-1.2-.15-1.65-.3-1.65,1-4,1.95-5.55,2.7-.45.15-.75,0-1.05.3-.6.3-1,1.2-1.5,1.65a17.11,17.11,0,0,1-1.65,1.65,5.44,5.44,0,0,1-1,.45c-1.8.9-2.7,2.7-4.35,3.45-.15,1.5-1.5,2.25-2.1,3.6-.45,1.05-.6,2.7-1,3.6l-.45,1.2c-.75,2.25,0,4.65-1.2,6.6.6.3.3,1.2.45,2,.3,1,.9,2,.45,3.15-.15.3-.6.15-.45.75.45.15.45.75.6,1.2a3.27,3.27,0,0,1,.75,1.2c.15.15-.15.45,0,.75.15.6,1,1.2.6,2.1.9.3.75,1.5,1.5,1.8-.45,1,1,2.1.6,3.9l.75.45c.15.3,0,.6.15,1,.45.45,1,.9,1,1.65,1.05.3,1.65,1.5,2.55,2.25.45.45.9.6,1.35,1,.9.6,1.35,1.2,2,1.65.15.15.3.45.45.45.6.3,1.35.3,1.95.6s1.05.9,1.5,1c1.5.6,3.45.3,4.8,1.8,1.65,0,2.55.75,4.5.6.75,0,1,.75,1.95.75a11.84,11.84,0,0,1,2-.45,14.86,14.86,0,0,1,2.7.3A12.41,12.41,0,0,0,725,101.7a4.11,4.11,0,0,1,2.7-1.2c.15-.9,1.05-1.35,1.65-2a8.25,8.25,0,0,0,2.25-2.4,19,19,0,0,1,1.5-1.8,41.61,41.61,0,0,0,3.3-5.55,15,15,0,0,0,1.5-3.15c.15-.3,0-.75,0-1.2.15-.75.75-1,.3-1.35a8.92,8.92,0,0,0,.6-3.6c1-1,.75-2.4,1-4.2.15-.9.75-1.65.75-2.4a32.7,32.7,0,0,0,.3-5.1C741,67.5,740.71,67.5,740.71,67.2Z"/><path class="cls-1" d="M900.76,111.75,900,113c-.75.6-1.2.45-2.25.75-.45.15-1.2,0-2,.15a14,14,0,0,1-2.4.6l-3,.3c-1.65.15-3.3.6-5.1.6-1.35.75-2.25.6-4.35.6-.45-.75-1.2-1.2-1.65-2a7.18,7.18,0,0,1,1.35-4l-.3-1.35c0-.3.15-.3.15-.6s.3-.3.15-.6a7.82,7.82,0,0,1,.15-3.15c0-.3.45-.75.45-1.2.45-2.7,0-5.85.15-8.7A11.9,11.9,0,0,0,882,93c0-.6-.3-1.2-.3-1.8.15-.75.75-1.5.9-2.1,0-.9-.75-1.8.3-2.4-.9-1.5-.45-3.3-.45-5.1,0-.6-.15-1.2-.15-1.65,0-2.55.6-5.25.45-7.8-.15-1.05-.75-2.25-.9-3.45a6.05,6.05,0,0,1,0-1.65,6.76,6.76,0,0,1-.45-1.65c-.15-1.05.15-2.1,0-3.15s-.45-1.65-.45-2.4.45-1.65.3-2.4a7.44,7.44,0,0,0-.45-2,6.77,6.77,0,0,0-.15-2c-.15-.6-.75-1-1.2-1.8l-.9-1.65-1.65-2.55c-.3-.45-.6-.45-1.2-.9,0-.15-.15-.45-.15-.6-.45-.15-.45.15-1,0-.3,0-.3-.3-.6-.45a8,8,0,0,0-1.95-.45,5.83,5.83,0,0,0-2.25.3c-.75.15-1.65.15-2.1.3s-.45.3-.75.45-.75,0-1.05.15a26.09,26.09,0,0,0-2.7,1.65l-2.4,1.65c-.3.15-.3.6-.6.75s-1.05.3-1.35.75c-.3.15-.45.45-.75.9-.15,0-.6.45-.75.75s-.3.9-1,.9c-.15,2.1-1.65,3.45-2.7,4.95-.15.3-.6.45-.75.75a16,16,0,0,0-1,2.85c0,.15-.45.45-.45.45-.15.3,0,.75-.15,1s-.45.3-.45.45.15.6,0,.75c-.3.6-1.2,1.2-1.5,2l-.3,1.8c-.15.6-.6.75-.75,1.2l-.3,1.8c0,.15-.3.15-.45.45s0,.6,0,.9c-.15.6-.6.9-.75,1.5l-.3,1.65c0,.15-.45.45-.45.45-.3.75,0,1.8-.9,2.25.15,2.25-1.5,4-1.8,6.45a10.63,10.63,0,0,1,.15,2.1c0,.75-.15,1.65-.15,2.25l-.6,1.65-.3,3.45c0,.45-.3.9-.3,1.35,0,.3.3.45.3.75-.15,1.35.6,2.7-.15,4.2.3.9,1.35,2.7.15,3.6a4.83,4.83,0,0,1,1.2,2c.15.9,0,2.1.15,3.15s1.35,2.1.9,3.9c-.3,1.35-1.65,1.5-2.7,2.4-.9-.6-2.25-.45-3.45-1-.15-.15-.3-.45-.6-.6a31.35,31.35,0,0,0-3.75.15,15.16,15.16,0,0,1-2.55.45c-.75,0-1.35-.45-2-.45-1.2-.15-2.1.45-3.15-.15-1.65-1.65-.75-5.85.45-7.5-.45-.3-.3-1-.75-1.35.9-.6.9-3,.75-4.2s.75-2,.9-3.15c0-.6-.3-1.2-.3-2l.6-10.8c0-.9.15-2.25.3-3.6,0-.3-.3-.3-.3-.6,0,0,.45-.75.6-1,0-1.5-.75-2.85.3-4.2.15-.45-.45-.6-.45-.9-.15-.45.15-.9,0-1.2a9.45,9.45,0,0,1-.9-2.7c0-.3.3-.45.3-.75a6.52,6.52,0,0,1-.6-1c0-.3.15-.75.15-1.2s-.6-1-.75-1.65c0-.45.3-.6.3-1,0-.9-.3-3.6-.9-4.5s-.3-1.5-.45-1.95c-.3-.9-.75-1.5-1.2-2.55-.15-.45-.45-.6-.6-1.35l-.9-2.25a22.06,22.06,0,0,0-3.6-5.1A9.5,9.5,0,0,1,816,46.5c-.6-.15-1,.15-1.8.15-.45.15-1.2-.3-1.65-.15a4.93,4.93,0,0,0-.9.45,23.81,23.81,0,0,0-3,1c-1.35.6-2.7.9-3.9,1.35-1.8.9-3.15,2.4-5,3.15-.9,1.2-1.35,3.15-3,3.75a3.48,3.48,0,0,1-.45,2.4c-.15.45-.45.75-.45,1.2l-.3,1.5c-.15,0-.45.3-.6.45s.15.45,0,.75c-.3.9-.6,2.55-1.65,3a3.67,3.67,0,0,1-.9,2.7c.15,2.55-.75,4.5-1.5,6.45s-.45,5.25-2,7.5c-.15.9.6,1,.45,2,.15,1-.75,1.2-.75,2.1a14.13,14.13,0,0,1-.75,10.2c.9,1,.45,1.8.45,3.45,0,.45.3.6.3.9-.15.6-.45,1.2-.3,1.65a7.91,7.91,0,0,0,.45,1.8c0,.45-.3.75-.3,1.35,0,.9,0,3,.15,4.5.15,2.25,1.65,4.5.75,6.75-4.2,2.55-9,0-14.55.15.3-.9-.75-.6-1.2-1a18.38,18.38,0,0,1-.3-2.85c0-.9.6-1.65.75-2.4,0-.45-.3-.9-.3-1.5.15-2.1.45-4.8.45-7.5a12.33,12.33,0,0,1,.3-4c-.9-2.1.3-4.65-.45-6.75.9-2.7,0-5.55.9-9,.15-.75-.75-.6-.75-1.2-.15-2-.15-3.75-.15-5.85,0-.6.3-1,.3-1.5A18.35,18.35,0,0,0,774,70.8c0-1,.15-2,.15-3l-.45-2.4a18.46,18.46,0,0,1-.45-4.35c0-.45.3-.9.3-1.2,0-.45-.3-.75-.45-1.2A10,10,0,0,1,773,56.7V51.9a7.2,7.2,0,0,0-.15-3.15c-.15-.6.15-.9-.15-1.8,0-.9-.3-1.35-.15-2s.3-1.2.15-1.8a15.69,15.69,0,0,0-.6-2.55c.15-.75.6-1,.75-1.65a11.38,11.38,0,0,1,.6-5.85,7.13,7.13,0,0,1,1.5-2.85c1.65-1.05,3.75.6,5.4,1.35,3.15-.3,6.9-.15,10.35-.3a24.43,24.43,0,0,1,1.65,2.55c0,1.65-.45,2.4.15,3.6,1.2.3,1.8-.45,2.7-.9.15,0,.6-.15.75-.15.75-.6,1.5-1.8,2.7-2,.45-.6,1.2-.75,1.5-1.35a7.54,7.54,0,0,0,1.95-.75L803,32c.45-.6.6-.45.75-.45.45-.3.75-1.05,1.2-1.2l1.8-.45,1.35-.45a15.61,15.61,0,0,1,3.3-.9c1.5-.15,3,.9,4.8.15.45,0,.75.45,1.2.75,1.35-.45,3.9-.3,4.8.6a4.06,4.06,0,0,1,2.25-.45c.9,0,2.25,1.5,3,1.95s1.8.45,2.7.75a.9.9,0,0,1,.15.6c.15,0,.45-.15.6,0,.3.45.6.3.6.45,1.2.6,3.6,2.25,4,3.3.6.9.6,2.25.9,3.3a9.11,9.11,0,0,0,1.05,1.5l.6,1.5c.6,1.05.9,2,1.35,2.85,1.8-.3,2.55-1.8,3.3-3.3.75-.3,1.65-.75,1.65-1.8,2.1-.15,1.8-2.4,4-2.4,0-.75.9-.75.9-1.65,2-.75,3.45-2.25,5.25-3.3,1.05-.6,2.7-1.2,4.05-2.1,1.95.3,4.2-.3,6.6-.6l6.75-.3a34.33,34.33,0,0,1,6.75.15c.75.15,1.65.6,2.4.75.9.3,1.95.3,2.7.6a6.19,6.19,0,0,1,1.65,1.05,10.42,10.42,0,0,0,1.95.75,5.87,5.87,0,0,0,1.2,1.5c.45.45.75.3.9.45s.3.6.45.75a13.44,13.44,0,0,0,2.85,2.25A2.82,2.82,0,0,0,894,40.2c.3,1.5,1.35,2.85,1.8,4.5l.3.6c.3,1.05.15,2.4.45,3.9,0,.3.3.6.45,1.2.15,1.2.3,2.55.6,3.9a10.9,10.9,0,0,1,.15,5c.6.9.6,2.55,1.35,3.3a18.22,18.22,0,0,0-.3,3.45c0,1.5.75,3.45-.15,4.35,2.1,2.7,1.05,6.75,1.2,11.1a26.5,26.5,0,0,1,.45,3.15c0,2-.6,4.35-.6,5.55,0,.45.3,1,.15,1.5s-.45,1.35-.45,1.95a12,12,0,0,0,.45,2.25c0,.45-.3.75-.3,1.35s.3,1,.15,1.5c0,.75-.45,1.5-.45,2.1s.15,1,.15,1.5v1.5c0,.6.45,1.5.45,2.1.15,1.35-.3,2.25.15,3.15.3.75.9.75.9,2A6.5,6.5,0,0,0,900.76,111.75Zm-7.2-40c0-.45-.15-1.2-.15-1.65a8.08,8.08,0,0,1-.45-1.5c0-.45.3-1,.3-1.5a29.13,29.13,0,0,1-.15-3.3c-.15-.3.15-.45.15-.75,0-.75-.6-1.5-.6-2.4a11.25,11.25,0,0,1,0-2.25,5.89,5.89,0,0,1-.9-2c0-1.8-.75-2.7-.6-5.1a10.55,10.55,0,0,1-1-6,15.48,15.48,0,0,0-4.35-4.95c-.3-.3-.3-.6-.6-.75-2.7-2-4.8-3.45-8.7-3.9-.9,0-2.1-.3-2.85-.3s-1.35.45-2,.45c-1.2.15-3-.3-3.45.15a4.27,4.27,0,0,0-2,0,57.38,57.38,0,0,1-6.45,1,4.93,4.93,0,0,1-3,1.2c-.45.9-1.5,1-2.25,1.35a13.12,13.12,0,0,0-1.5,1.2l-.9.45a11.09,11.09,0,0,0-3.45,3,6.93,6.93,0,0,1-1.05,1c-.3.3-.45,1.05-.75,1.35-1.2,1.35-3.3,2.55-3.9,4.05-.3.9.15,1.8-.15,3-.75,1.35-2,1.95-4.35,1.5-.45-.6-.75-.6-1.2-1.2,0-.6-.3-.6-.45-.75s0-.6-.15-.9a26.06,26.06,0,0,0-2-3c-.15-.75-.45-1.35-.6-2-.45-.6-1.2-1-1.2-1.95-1.5-1.2-2.25-3.15-2.55-5.7a3.39,3.39,0,0,1-1.65-1.2l-1-.45c-.15-.3-.6-.45-.6-.75-2.4-.3-3.15-1.8-4.8-2.4-.3,0-.75.15-1,0,0,0-.3-.45-.45-.45a4.18,4.18,0,0,1-1.5.15c-.45,0-.9-.15-1.35-.15-.75,0-1.5.15-2.25.15a18.66,18.66,0,0,0-2.4-.6c-.75,0-.6.45-.9,0-.15,0-2.85,1.2-3.45.75-1.2.6-1.8,2-3.6,1.8-1.05,1.5-3,1.95-4.5,2.85-1.05.6-2.1,1.65-3.6,1.35a14.24,14.24,0,0,0-1.5,2.55c-1.5.6-2.25,2.1-3.75,2.55a7.56,7.56,0,0,1-2.25,3c-1.35-1-2.1.3-3.6-.45a4.77,4.77,0,0,1-.6-4.05,17.07,17.07,0,0,1,.75-3.45l.6-1.35a5.39,5.39,0,0,0-.3-2.7c-.6-.45-1.65-.15-2.55-.3a8.44,8.44,0,0,0-2.4-.3c-1.35.9-2.7,1.05-3.3,2.1-.6,1.2-.6,4.65-.3,7.05,0,1.2.6,2.4.6,3.3a32.62,32.62,0,0,1-.15,3.9A12,12,0,0,1,779,54.9c0,.3-.15.45-.15.75s.15.45.15.75a1,1,0,0,0-.3.6,4.65,4.65,0,0,1,.3,1c0,.45-.3,1.05-.3,1.65.15,1.65.9,3.3,1.05,5.1.45,2.55,0,5,.15,7.5a12,12,0,0,0,.45,2.25c0,.3-.3.75-.3,1.2s.15,1,.15,1.35l.3,2.55c0,2.7.15,5.25,0,8.4v2.7c-.15,2-.45,3.9-.45,5.85,0,1.5.45,3,.45,4.35,0,1.2-.3,2.4-.3,3.6a9.9,9.9,0,0,0,.15,2.1c0,.9-.6,1.5-.6,2.4s.3,1.5.3,2.25c1.2.15,2.25.75,3.75.6a20.13,20.13,0,0,0-.15-3.15v-1.5c.3-.75-.45-.75-.45-1.2.75-1.2.45-2.4.3-3.6,1-1.2.15-2.25.6-3.6-.3-.6-.3-1.5-.6-1.95.75-.9.15-2.4.3-3.45a24,24,0,0,0,0-3.3c0-.3.3-.3.3-.6s-.3-.3-.3-.75.6-.9.6-1.35-.3-1-.3-1.5l.45-4.8c0-.6-.3-1.2-.3-1.65l.6-1.2c.15-.75-.15-1.2,0-1.8.15-.3.45-.6.45-.9a25.13,25.13,0,0,0,.9-4c1.05-.15.45-2,1.5-2.25,0-.45-.45-.6-.3-1.35,1.65-1.35.9-3.9,1.35-5.1a12.76,12.76,0,0,1,1.35-2.1,16.91,16.91,0,0,0,.45-2.7c.9-.3.75-1.65,1.8-1.95a3.45,3.45,0,0,1,1.2-2.55c0-1,.3-1.65.3-2.4a5.74,5.74,0,0,0,1.8-2.7,7.53,7.53,0,0,0,1.95-1.8h1.2a11,11,0,0,1,1.5-1.95c.3-.15.9,0,1.2-.15.15-.15.3-.45.6-.6.75-.3,1.35-.3,2.1-.6l1.2-.75c.45-.15,1.2,0,1.5-.45.9,0,1.2.45,1.95.6a3.26,3.26,0,0,1,2.4-1.65c2.1-.15,5.25-.6,6.75-.15,1.35.45,2.7.45,3.75.9.9.3,1.65,1.35,2.1,1.65s.75.3.9.6c.3.15.3.75.45,1.2.3.45.75.6,1.05.9.6,1.2,1,2.55,1.8,3.9a12.51,12.51,0,0,0,1.2,1.8l.45,1.65c0,.15.3.3.45.45l1.35,4.5c.45,1.5,1,3.15,1.35,4.65.45,1.95,0,3.9.9,5.55.15.75-.3.9-.3,1.35,1.2,2.25,1.2,5.85.9,9,0,1.5-.3,2.85-.3,4.35a42.15,42.15,0,0,1,.15,4.35c-.15,1.65-.6,3.45-.6,5.1s.3,3,.15,4.65c-.45,3.9-2.1,7.8-1.5,11.85,1.65-.6,4-.3,5.7-.9.45-1.5-.45-2.55-.75-3.9-.15-1.5.45-4.65,0-5.85a17,17,0,0,1-.45-3.75,3.28,3.28,0,0,1,.45-.75c.45-1.65-.15-2.55.9-3.45a28,28,0,0,1,.6-8c.45-2.1.75-5,2.55-6.15a37.16,37.16,0,0,1,.3-4.35l.6-1,.75-2.1.75-2.25a11.34,11.34,0,0,1,1.2-3,2.78,2.78,0,0,1,.9-2.4c.45-.75.3-2,1.2-2a5.73,5.73,0,0,1,1.5-3.6l.75-1.5c.6,0,.45-.3.6-.45a22.44,22.44,0,0,1,1.65-2c.3-.45.45-1.2.75-1.65.9-1.5,2.1-2.4,3-3.75l1.8-.75a11.46,11.46,0,0,1,1.65-2.4c.3-.15.75,0,1-.15s.45-.6.75-.75l1.65-.9c.3-.15.75,0,1.05-.15.15-.15.3-.6.6-.75l1-.3a11.63,11.63,0,0,1,5.55-.75c3-2,6.9.15,8.7,2.1.75-.15,1,.15,1.65.3.45.3.45.75.75,1.2.15.3.75.6.9,1a7.06,7.06,0,0,1,.45,1.35c.45.75,1.2,1.2,1.5,1.8a1.35,1.35,0,0,0,.15.75l1.35,2.4a7.54,7.54,0,0,1,.9,3.6,11.84,11.84,0,0,1,.45,2,22.15,22.15,0,0,1,.15,3.15,18.55,18.55,0,0,1,.3,2.7,9.72,9.72,0,0,0-.3,2.85,12.7,12.7,0,0,0,.6,2.55c.15.3-.3.45-.3.6a9.91,9.91,0,0,0,.75,2.25,26.79,26.79,0,0,1,.15,3.15c0,.45-.3.6-.3,1a37.15,37.15,0,0,1,.45,4c0,.75-.3,1.65-.3,2.4-.15,2.55.15,5.25,0,7.8-.15,2.7-.6,5.25-.9,7.5a9.83,9.83,0,0,1,0,2.1,24,24,0,0,1-.75,3.15c0,.75.45,1.2.45,2a19.29,19.29,0,0,1-.6,2.85,22.05,22.05,0,0,0,0,3.15c2.4,0,4.2-.6,6.45-.75a10.59,10.59,0,0,0,.9-3.6,11.84,11.84,0,0,1-.45-2,30.35,30.35,0,0,1,.6-3.9c0-.6-.3-1.35-.3-2,0-1.8.3-3.6.15-5.55,0-.6-.15-1.35-.15-2,0-1,.6-3.6,0-4a7.87,7.87,0,0,0,.3-2.55A72.23,72.23,0,0,0,893.56,71.7Z"/><path class="cls-1" d="M1001.26,70.65c-.15.9.6,2.4-.15,3.15,1.2,1,.45,2.4.15,4-.15.9.15,2,0,2.55-.15.45-.6.9-.75,1.35s-.3,1.2-.75,1.2a6.74,6.74,0,0,1-.6,3.45l-.3,1.2c0,.3-.45.6-.45.9-.15.45.15,1,0,1.5s-.6.9-.75,1.35L995.86,96a21.68,21.68,0,0,1-2.85,5.25,8.48,8.48,0,0,1,0,2,11.89,11.89,0,0,0-2.55,2.85,8.81,8.81,0,0,1-1.5,2.4c-.75.9-1.8,1.35-2.7,2.25-1,0-.9.3-1.65,0a10.58,10.58,0,0,1-5.1,2.85,3.28,3.28,0,0,0-.75.45c-.45,0-.9-.15-1.2,0-1.2.3-2.4,1-3.9,1-.45,0-1-.3-1.5-.3-.75.15-1.35.6-2.25.75-1.5.3-3.3.15-5.1.3-.3,0-.45.3-.6.3-.3,0-.3-.3-.6-.3s-.6.45-.9.45h-1.05c-.45,0-1-.15-1.35,0-1.2.15-2.25.9-4.2.6-.45-.15-.3.44-.75.44-2.4.16-6.15.61-8.1-.89a2.86,2.86,0,0,1-2,.14c-.45,0-.6-.29-1-.44h-.9c-2-.45-4.35-1-5.85-2.25a4.15,4.15,0,0,0-1.35-.15c-1.35-.75-2.1-1.8-4-2,0-.75-.6-.75-.45-1.5-.75.45-1-.45-1.5-.75l-1.5-.75a6.93,6.93,0,0,0-1-1c-.45-.3-1.2-.45-1.5-.75a6.54,6.54,0,0,1-1.2-1.5c-.3-.3-1.2-.6-.9-1.35l-2.1-1.8c-.15-.75-.6-1-.45-2-.45-.45-.75-.45-1.2-1l-.3-.6c-.6-.15-.3-.45-.45-.6l-1.2-1.65a27.34,27.34,0,0,1-.9-2.7c-.15-.45,0-.6-.15-1a3.44,3.44,0,0,1-.45-2.55c-.3-.6-1-.9-1.2-1.5-.3-1.5-.15-2.85-.45-4.2-.15-.9-1-1.65-.6-2.7-.6-.6-.75-1.65-1.35-2.1.3-1.2-.45-2.4-.45-3.9a13.31,13.31,0,0,1,.3-2.25V71a15.78,15.78,0,0,1,.9-3.15c.15-1,0-2.1.75-2.4-.75-2.55.9-4.5.9-7.05.45-.3.45-1.35.9-1.65,0-2.1,1-3.15,1.35-4.8,1-.45,1.35-1.5,1.95-2.4.3-.3.6-.3.75-.45.45-.3.45-1.65,1.5-1.5.3-.75,0-.45,0-1.35,1.2-.45,1.65-1.65,2.85-2.4l1.2-.45.9-.75a11.46,11.46,0,0,0,1.35-1.35,14.86,14.86,0,0,1,2.55-1.65,11.44,11.44,0,0,1,2.55-2c.3-.15.75-.75,1.2-.9a3.3,3.3,0,0,1,1.2-.15c.6-.3,1.8-1.35,2.7-.75,1.35-1.35,3.6-1.8,6.3-1.8.75.15.75-.6,1.2-.6,2-.15,3-.6,5.4-.45.75,0,1.5.3,2.1.3a14.48,14.48,0,0,0,2.7-.45c.6,0,1-.15,1.5-.15a9.65,9.65,0,0,1,3.6,0c.45.15,1,.6,1.5.6s1.2-.3,1.65-.3l1.65.6a5.71,5.71,0,0,0,1.5.45c.6.15,1.35,0,2,.15A7.41,7.41,0,0,1,972,35c.75.15,1.65.6,2.4.75,2.7.45,5-.15,7.5.9.45.15,1.05.75,1.65,1,.15,0,.6-.15.75,0,.3.15.6.75.9.9.45.45,1.2.3.9,1.05,2.4.75,4,2.4,5.85,3.75a4.71,4.71,0,0,0,.9,2.4L995,48c.3.3.15.9.45,1.65a24.55,24.55,0,0,0,1.8,3.3c0,1.5.15,1.2.75,2.4.45,1,.9,2.85,2.25,3.45-.15,1.05.75,2.1.9,3.15a37.93,37.93,0,0,1,.15,4c0,.45-.3.9-.15,1.2,0,.75.3,1.5.3,2.25C1001.56,69.9,1001.26,70.2,1001.26,70.65Zm-4.5-7.35c-1-.75-1-2.55-1.35-4.2-1-.9-1.2-2.7-1.65-4.35-.45-.75-1.5-1-1-2.7-.9,0-.6-.9-1.2-.9a23.29,23.29,0,0,0-3.15-3.45,7,7,0,0,0-3-3.75c-1.65-1.35-3.45-1.35-4.35-2.85-1.5-.15-2.7-.6-4.35-.3a16.82,16.82,0,0,0-1.95.75,9.7,9.7,0,0,0-2,.6c0-1.35-1.2-1.65-1-3.15a53,53,0,0,0-6.3-.9c-2.4-.3-4.8-.9-7-.75-.9,0-1.5.45-2.4.3-.75.15-.6-.45-1.2-.45-.3,0-.6.45-.75.45-.45,0-.6-.3-1.2-.3-.9,0-1.95.45-2.7.45-.45,0-1.05-.3-1.35-.3s-.6.45-.75.45h-.75a19.58,19.58,0,0,0-3.15.75,4.49,4.49,0,0,1-2.7.45c-1.5.9-3,2.1-4.95,2-.3.75-1.2,1.2-1.5,1.5-1.8,1-2.85,2.55-4.65,2.7a1.76,1.76,0,0,1-1.65,1.5c0,1.05-1,1.05-1.8,1.35a42.34,42.34,0,0,0-2.7,4.35c-.3.6-1.2.6-1.5,1.2.6.9-.9,1.8-1.2,2.55l-.3,3c-.15.45-.6.6-.75.9-.3.45-.15,1.2-.3,1.65a21.93,21.93,0,0,0-.75,3,1.59,1.59,0,0,1-.15,1.2,12.45,12.45,0,0,1-.75,3,9.74,9.74,0,0,0-.3,3.45c0,.9-.3,2.1-.3,2.85,0,.3.45.75.45,1.2a7.2,7.2,0,0,0,0,1.8c.15,1,1.05,2.1,1.35,3.15.3,1.2.15,2.55.45,3.9,0,.3.3.6.45.9A35,35,0,0,1,921.61,90a24.44,24.44,0,0,0,1.65,4.65c1.35,3,3.6,5.25,5,7.8a4.51,4.51,0,0,1,3,2.7c1.65.3,2.85,1.65,4.5,2.55.3.15.6,0,.75,0s.45.45.45.45c.45.3,1.05.3,1.5.6s.6.6.9.75a7.53,7.53,0,0,1,1.8.3c.9.45,1.5,1.5,2.55,1.65a27.73,27.73,0,0,0,3.45.15c.6.15,1,.6,1.65.75a11.66,11.66,0,0,0,2.4.3c.6,0,1.05-.45,1.65-.45.75,0,1.35.3,2,.3a5.71,5.71,0,0,1,1.5-.45,12.12,12.12,0,0,1,2.4-.15c.9-.15,2-.3,2.25-.3a1,1,0,0,0,.6.3c.75-.15,1.35-.6,2-.75s1.35.15,1.95.15c2-1.2,5-.6,7.35-1l1.5-.75c.3-.15.75.15,1.2,0,.15,0,.3-.3.75-.45l1.95-.45c.6-.15,1.2-.6,2-.45.6-.75,1.8-1.05,2.7-1.65a8.32,8.32,0,0,1,1.2-.9,17.6,17.6,0,0,1,1.65-.75c1.35-2.25,3-4,3.6-7a9.05,9.05,0,0,0,1.2-1.2c0-1.95,1-3,1.8-4,.15-2.7,1.35-4,2.1-6,.45-.45.15-1.5.3-2.25,0-.45.9-.15.75-.9,0-2.4,1.2-4.5,1.5-7.05C997.51,71.85,996,67.35,996.76,63.3Zm-8.1,7.8c-.15.45,0,.45,0,.75s-.3,3.3-.45,3.3c.45.45-1.35,4.5-1.5,5.55-.45,2.7.15,5.4-1.65,7.5a11.28,11.28,0,0,1-1.5,5.1c-.3.3-.3.45-.6.6l-.75,1.2-1.2,2c-.3.45-1,1-1.5,1.65-.75,1.2-2.1,2.55-3.15,3.9a7.87,7.87,0,0,0-2.7,1.5l-1.8,1.2a15.71,15.71,0,0,1-1.65,1.2,5.05,5.05,0,0,1-1.8.9,7.88,7.88,0,0,1-3.15.9c-1,.15-2.25-.45-3.3.15a7.17,7.17,0,0,0-4.35-.45c-1.35-.45-2-1-3.45-.45-3-2-6.75-2.25-10-4-.9-.15-.9-1-1.5-1.5a4.72,4.72,0,0,1-3.3-3c-2.25-1-3.6-3.15-5.1-5-.3-.75,0-.75-.3-1.65s-1.2-1.05-1.65-1.8c.3-.6-.3-.75-.45-1.35s0-1.35-.15-1.8l-.75-1.2a1.12,1.12,0,0,1-.15-.75c-.15,0-.45-.15-.6-.15-.15-.45,0-1-.15-1.5-.15-.3-.45-.3-.45-.45-.3-.9-.15-2.25-.9-3,.75-1.5-.75-2.55-.15-3.9.15-.75-.6-.6-.75-1.2.3-.6.45-1.65-.15-2,.9-.9-.3-2.7.75-4,.15-.75-.6-.9-.45-1.65.6-.15,0-1.35.75-1.2-.6-.9.15-1.65.3-2.4a4.05,4.05,0,0,0,0-1.35,10.08,10.08,0,0,1,.9-1.8,7.1,7.1,0,0,0,.9-3c.75-.15.75-.75,1-1l.45-.6a6.56,6.56,0,0,1,1-1.2c.3-.15.3-.15.45-.45s.75-.15.6-.9c1.2-.3,1.8-1.35,2.7-2.1a17.05,17.05,0,0,0,2.25-2.4c2.25-1.2,3.6-3.3,6.75-3.75.75-.15,1.2-1.05,1.8-1.35.3-.15.9-.15,1.35-.3.9-.15,2.25-1.2,3.3-1.35a8.37,8.37,0,0,0,2,0c.6,0,1.2-.15,1.65-.15s1,.6,1.65.6c1.65-.15,3.45-1.5,5.55-1.2s2.7,1.95,4.8,1.8a5.93,5.93,0,0,0,2.25,1.5,6.05,6.05,0,0,1,5.1-.15,2.37,2.37,0,0,0,.9.75c.9.45,1.95.45,2.7.9.6.75,2,1.35,2.1,2.1,1.35.15,1.35,1.5,2.55,1.8.3,1.05,1.2,1.65,1.65,2.55.15.3,0,.6.3.9l.45.45c.15.3,0,.45.15.75a14.64,14.64,0,0,1,1.2,3.45,1.17,1.17,0,0,0,0,.75,21.38,21.38,0,0,0,.45,2.4,9,9,0,0,0,.9,1.65C989.56,65.4,988.81,69,988.66,71.1Zm-4.8-3.9a7.2,7.2,0,0,0,0-1.8c-.3-2-1.35-3.6-1.8-5.85-.15-1.2.15-2.55-.3-3.9-.75-.3-.6-1.2-1-1.65-.45-.75-1.5-1-1.65-2a17.1,17.1,0,0,1-2.85-1.5,13.81,13.81,0,0,1-2.85-.3c-.9-.3-1.35-.9-2.1-1-1.5-.15-1.65.75-3.3.45-1.05-.45-1.35-1.65-2.25-2.25a4.32,4.32,0,0,0-2-.15c-.6-.15-.6-.9-1.5-.75-1.65.45-3.75,1.5-6,.6a4.39,4.39,0,0,0-1.8,1c0-.6-1.2-.15-1.65-.3-1.65,1-4,1.95-5.55,2.7-.45.15-.75,0-1,.3-.6.3-1.05,1.2-1.5,1.65a17.11,17.11,0,0,1-1.65,1.65,5.44,5.44,0,0,1-1,.45c-1.8.9-2.7,2.7-4.35,3.45-.15,1.5-1.5,2.25-2.1,3.6-.45,1.05-.6,2.7-1,3.6l-.45,1.2c-.75,2.25,0,4.65-1.2,6.6.6.3.3,1.2.45,2,.3,1,.9,2,.45,3.15-.15.3-.6.15-.45.75.45.15.45.75.6,1.2a3.27,3.27,0,0,1,.75,1.2c.15.15-.15.45,0,.75.15.6,1.05,1.2.6,2.1.9.3.75,1.5,1.5,1.8-.45,1,1,2.1.6,3.9l.75.45c.15.3,0,.6.15,1,.45.45,1,.9,1,1.65,1.05.3,1.65,1.5,2.55,2.25.45.45.9.6,1.35,1,.9.6,1.35,1.2,1.95,1.65.15.15.3.45.45.45.6.3,1.35.3,1.95.6s1.05.9,1.5,1c1.5.6,3.45.3,4.8,1.8,1.65,0,2.55.75,4.5.6.75,0,1,.75,1.95.75a11.84,11.84,0,0,1,2-.45,14.86,14.86,0,0,1,2.7.3,12.41,12.41,0,0,0,3.15-1.35,4.11,4.11,0,0,1,2.7-1.2c.15-.9,1.05-1.35,1.65-2a8.25,8.25,0,0,0,2.25-2.4,19,19,0,0,1,1.5-1.8,41.61,41.61,0,0,0,3.3-5.55,15,15,0,0,0,1.5-3.15c.15-.3,0-.75,0-1.2.15-.75.75-1,.3-1.35a8.92,8.92,0,0,0,.6-3.6c1.05-1,.75-2.4,1.05-4.2.15-.9.75-1.65.75-2.4a32.7,32.7,0,0,0,.3-5.1C984.16,67.5,983.86,67.5,983.86,67.2Z"/><path class="cls-1" d="M1067.26,50.1c-.45.45-.45.15-.9.45s-.45.6-1,.75c-.15,0-.45.3-.75.15-1.65-.15-1.65-2.1-3.3-2.85-.9.3-2,0-2.85.15a20,20,0,0,0-2.7,1,5.71,5.71,0,0,1-1.5.45l-2.7,1.5c-.75.75-1,1.5-2,2.4-1.2.9-2.85,1.65-3.75,2.7-.45.6-.45,1.65-1,2.4-.15.45-.9.6-1.2,1l-.3.6c0,.3-.3.45-.45.6s.15.75,0,1.2-1,1.35-.75,2.55c-.3.45-.9.75-1,1.2s.15.9,0,1.2-.45.3-.45.45c-.3.6-.3,1.2-.6,1.8-.15.45-.6.9-.75,1.35s.15,1.2,0,2l-.6,1.2a16.23,16.23,0,0,1,0,2.7c-.15,1.35-.75,2.55-1,4.05a29,29,0,0,1-.15,3.45c0,.6-.45,1.2-.45,2-.15,1.5.75,3-.6,4.2.6,1.2.75,3.9-.15,5,1.5,4.2-.75,10.5.45,15.15.45,1.2,2.25.9,3.15,1.65,0,.6.75,1,.9,2a3.86,3.86,0,0,1-2,3.3c-.75.29-1.5-.15-3,.15a17.87,17.87,0,0,0-2.7,1.2,32.66,32.66,0,0,1-6,1.5l-3,.44c-1.2.31-2.4,1.06-3.3.91-2-.3-2.7-2.41-2.7-4.66,0-.89.45-1.79.3-2.69a15.93,15.93,0,0,0-.6-2.85,67.64,67.64,0,0,1,0-7.8c0-.75.3-1.5.3-2.1a12,12,0,0,1-.45-2.25,26.66,26.66,0,0,1-.75-4.2c0-.6-.15-1.5-.15-2.1a27.69,27.69,0,0,1,.6-3.45c0-.45-.3-.6-.3-1.2,0-.9.45-2.7.45-4.05-.15-1.2-.6-2.4-.75-3.6,0-.6.15-1.65.15-1.8-.15-.6-.45-.9-.45-1.35-.15-1.2-.15-2.85-.3-3.75,0-.3-.15-.9-.15-1.2a18.66,18.66,0,0,1,.6-2.4c.3-2-.15-4,0-6,.15-1.5.9-3,.9-4.35,0-.6-.15-1.35-.15-1.95s.3-1.35.3-2a6.76,6.76,0,0,1-.45-1.65c-.3-1.35.3-2.7.3-4.2a18.76,18.76,0,0,0-.45-2.85,6.08,6.08,0,0,0,0-1.65c0-.45-.45-.75-.45-1,0-.9.6-2.1.6-3.15,0-1.5-.45-3,.3-4.5,0-1.05-.75-1.5-1.2-2.25.75-1.65-.3-3.3.15-4.8a3,3,0,0,1,2.4-.9c1.5,0,2,1.05,2.7,1.65,2,.6,3.75,0,5.85,0,1.05,0,2.25.3,3.15.3,1.5-.15,2.55-1.35,4.8-.6.75.45.6,1.2,1.2,2.1,0,.15.45.45.45.6,0,.45-.3.45-.3.6,0,.45.3.45.3.75-.3,1.65-1,3.15-.45,5.1,1.2,0,1.8-.9,2.55-1.65a11.46,11.46,0,0,0,1.35-1.35c.15-.15.15-.6.3-.75s.6-.15.75-.3c.45-.15.9-.9,1.5-1.35.6-.6,1.5-.9,2-1.65,1.8-.3,3.45-2.1,5.55-1.35.9-.9,3.45-2,4.65-.9.75.15.75-.75,1.2-.9,2.55.9,5.1-.9,7.5-.3.9.15,1.35.75,2,1.05a5.24,5.24,0,0,1,2,.75c1.35,2.1.3,4.8.15,7.2-.15.6.15,1,.15,1.5,0,.9-.3,1.8-.3,2.7,0,2.25.3,4.5.3,6.75C1067.56,49.5,1067.56,49.8,1067.26,50.1ZM1050.91,36c-1.35,1-4.05.9-4.65,2.7-2.55,1.2-4,3.45-5.7,5.55l-.75.45c-.3.3-.3.6-.45.9-.45.6-1,.9-1.5,1.5-.3.15-.3.6-.6.9s-.45.45-.75.75l-.9,2c-.9-.3-.9.45-1.2.6a2.4,2.4,0,0,1-1.5.75c-3.3-.9-1.65-5.7-2.55-8.55a4.61,4.61,0,0,0,.3-3.15c0-1.2.3-3-.15-4.35a48.5,48.5,0,0,0-8,.6v3.15c-.15.75-.75,1-.75,1.8a7.05,7.05,0,0,1,.3,3.9,25.65,25.65,0,0,0,.6,5.4,12.14,12.14,0,0,1,0,3.3c-.15,1.8.3,3.6.3,5.4,0,2.7-.9,5.7-.9,8.4,0,3.3-.3,8.55.3,11.4.3,1.65.45,3.15.6,4.65a34.11,34.11,0,0,1-.15,4.35c0,.9.15,2.25.15,2.85s-.15.9-.15,1.2a23.55,23.55,0,0,0,.3,4.95l.45,3.3c0,.75-.15,1.65-.15,2.4a25.14,25.14,0,0,1,.45,2.7c0,.9-.45,1.8-.45,2.7,0,2.1.9,4,1,6a9.21,9.21,0,0,0,4.5.15c.3,0,.6-.6.75-.75a4.77,4.77,0,0,1,1.35-.45c-.15-1.05-.9-2.1-.9-3.3-.15-.6.15-1,.15-1.8a8.55,8.55,0,0,0-.15-2c.15-1.2.75-2.4.9-3.75,0-.75-.3-1.5-.3-2.25,0-3.75-.15-6.6.75-9.6-.9-1.2,0-3.75.15-4.8a4.65,4.65,0,0,0-.3-1c.15-.6.45-1.2.6-2,0-.75-.3-1.5-.3-2.1s.6-1.5.75-2.25a33.15,33.15,0,0,0,.6-5.25,14.48,14.48,0,0,1,.45-2.7,17.81,17.81,0,0,1,1.2-2.4c.15-.3-.15-.9,0-1.2.15-.45.75-.9,1-1.35.75-1.8.75-3.45,1.8-4.8,0-3,1.8-4.2,2.7-5.85l.75-.9a19.55,19.55,0,0,0,2.85-3.3c1.35-.6,2-2,3.15-2.85.6-.45,1.8-1,2.25-1.5a4.11,4.11,0,0,1,2-1.35c.75-.3,1.35-.75,2.1-.6.45.15.75-.45,1-.45,1.2-.6,1.65-.3,2.85-.3,1.65,0,3.3-.75,5-.3.15-1.35-.15-2.55,0-3.6.15-1.5.9-2.7.3-4.35C1058.86,33.3,1054.21,36.3,1050.91,36Z"/><path class="cls-1" d="M1102.06,14c-.15.6-.75,1.05-1,1.5l-.3,1.5a18.6,18.6,0,0,1-1.5,3c-.9.3-1.8,1.35-2.7,1.65-.3.15-.75,0-1.2.3-1.2.45-2.7,1.35-4,1.35a7.43,7.43,0,0,1-2-.6l-3-.3c-.75-1.8-2.4-3-3-5.1l-1.35-1.5c0-1.5-.9-2.85-.9-4.35a7.21,7.21,0,0,1,.6-2.25l.45-2.55c.15-.3.6-.3.75-.6.15,0,.15-.45.3-.6.3-.3.9-.3,1.2-.75.15-.15-.15-.6,0-.75.75-.6.6-.9.75-1.2a12.93,12.93,0,0,1,2.7-2.1c1-.75,2.7-.45,4.65-.6.75,1.65,3,1.8,4,3.3h1.5c0,.45.3.45.6.75a10.49,10.49,0,0,1,3.6,4.65,1.63,1.63,0,0,1,.15.75C1102.66,9.9,1102.36,12.9,1102.06,14Zm.15,26.85c0,.9.45,1.65.45,2.55,0,1.35-.6,3-.6,4.5s0,2.55.15,4.2c0,.75.3.9,0,1.65-1.2,2.55,0,7.5,0,11-.15,1.95-.75,3.9-.9,6-.45,4.35-.3,9-.75,13.2-.15,1.2,0,2.4-.15,3.45-.15,2.7-.6,5.25-.9,7.65-.15,1.8.15,3.45.15,5.1,0,1,.15,1.8.15,2.7a12,12,0,0,1,.45,2.25,4.64,4.64,0,0,1-.3,1.2,3,3,0,0,0,.3.9c0,.45-.3.75-.3,1.2s.3.75.3,1a8.6,8.6,0,0,0-.6,2.1c0,1.65.45,3.15.15,4.65-1.2.6-2.25,1.5-4.35,1.05-1-.3-.9-2-1.65-2.7a7.85,7.85,0,0,1-3.45-1.2c-.75.3-2.25-.15-3.6-.3-1.5-.3-3-.15-3.75-.6-.15-.15-.15-.75-.6-.6-.6-.75-.3-2.25-1.05-2.85a14.74,14.74,0,0,0,.75-2.4c.3-1.8-.3-3.45-.15-5.4a7.74,7.74,0,0,1,.3-1.65c0-.15.3-.3.3-.75a6.24,6.24,0,0,1,0-2.4c0-.15.3-.3.3-.75,0-.3-.3-.45-.3-.6.15-.3.45-.3.6-.6s-.3-.9-.3-1.2c.45-2.1.6-6.3.75-7.65,0-.9.15-1.2.15-2.25.15-.3-.15-.6-.15-.75a85.24,85.24,0,0,0,.45-8.85c-.15-2,.3-3.75.3-5.55.15-1.95-.45-3.6.45-5.4-.75-1.8-.15-3.9-.15-5.7a42.15,42.15,0,0,1,.15-4.35,11.08,11.08,0,0,1,0-3.15v-1c.15-.9.3-1.8.3-2.1,0-.75-.45-1.35-.45-2a8.45,8.45,0,0,0,0-1.95c0-.3-.3-.45-.45-.75V41a7.92,7.92,0,0,1,.15-2c-.15-1-1.65-.9-1.95-1.65-.45-1.5-1.2-3.6.15-4.65.9-.45,1.8-.15,3.15,0a1.61,1.61,0,0,0,.9.3c.15,0,.45-.3.75-.15.6.15,1.35.6,2.1.75,3.9.45,11-1.35,12.45-.3.6.45.3,1.35.9,1.5A23.87,23.87,0,0,0,1102.21,40.8Zm-6.6-32.25a2.26,2.26,0,0,1-1.95-1.2c-.75-.3-1.05,0-1.65.15a6.22,6.22,0,0,0-1.65-1.8c-1.65.75-2.55,2.55-3.75,3.9a12.13,12.13,0,0,0,.75,4.05A7.49,7.49,0,0,0,1089,16.2c.45.6.75,1.35,1.35,1.65a5.85,5.85,0,0,0,4.35-1.05l1.5-1.05c.15-.15,0-.6.45-.45,0-2,1.35-3,.6-5.1A3.52,3.52,0,0,1,1095.61,8.55ZM1097,47.1c-.15-.45,0-.45,0-.75-.15-2.55-.3-5.1-.3-7.8-.45-.45-.9-.15-1.5,0-.9.3-.9-.6-1.65-.6-.75.6-3.15.3-3.15,1.2-.6,1.5.15,3,.15,4.35a1.9,1.9,0,0,1-.3.9c0,.45.3.6.3,1.05,0,1.95-.15,3.45-.15,4.8V53a37.68,37.68,0,0,0-.6,4c0,1.2.45,2.1.45,3.15,0,.6-.6,1.2-.6,1.8a5.13,5.13,0,0,1,.15,1.65v1.5c0,2.85.3,7.35,0,11.1v1.2c-.15.6-.45.9-.45,1.35s.15.6.15,1a26.94,26.94,0,0,1-.3,3.3l-.6,2.25c0,.3.3.75.3,1.2a7.15,7.15,0,0,1-.9,3.9c.75.3.3,1,.3,1.65a10.62,10.62,0,0,1,.15,2.25,17.55,17.55,0,0,0-.75,3,15.43,15.43,0,0,0,.15,2.55l.3,7.2a22.8,22.8,0,0,0,5.85.9c-.3-1.5.3-2.7.3-3.9,0-2.85-1.35-8.1.45-10.35a3.81,3.81,0,0,1-.6-2.55,10.48,10.48,0,0,1,.45-1.8c.3-1.65.15-3.6.45-5.1,0-.6.45-1.35.45-2,0-.45-.3-.6-.15-1V78a9.56,9.56,0,0,1,.3-1c0-.3-.45-.45-.45-.6-.15-.45.15-.75.15-1,.15-.45-.15-.9-.15-1.2s.15-.45.3-.75,0-.6,0-.75a10.48,10.48,0,0,0,.45-1.8c.15-.9,0-1.8.15-2.55.15-1.5,1-2.85,1-4.5,0-.6-.45-1.35-.45-2-.45-3.9.45-6.9.45-10.65A18,18,0,0,0,1097,47.1Z"/></g></g></svg>