<svg xmlns="http://www.w3.org/2000/svg" viewBox="0 0 441.12 148.5"><defs><style>.cls-1{fill:#231815;}</style></defs><g id="レイヤー_2" data-name="レイヤー 2"><g id="レイヤー_1-2" data-name="レイヤー 1"><path class="cls-1" d="M27.37,10.8a10.21,10.21,0,0,1-1.86-.06c-.18,0-.36-.18-.48-.18s-.54.06-.78.06a3.51,3.51,0,0,1-.78-.12h-.66a14,14,0,0,0-3.12.24v.54a.46.46,0,0,0,.12.3.46.46,0,0,1-.12.3c0,.24.06.42.06.66s-.12.48-.06.72a3.69,3.69,0,0,0,.18.66,15.19,15.19,0,0,0-.06,1.74,4.74,4.74,0,0,0,.18.78c.06.24,0,.54.06.78s.24.6.3,1,.06,1,.06,1.38a9.31,9.31,0,0,0-.24,1.26c0,.36.3.66.36,1.08a17.45,17.45,0,0,1,.06,1.8c0,.24.18.48.18.72s-.06.6,0,.84a4.55,4.55,0,0,0,.36,1.08,2.24,2.24,0,0,1,.06,1c0,.18-.12.36-.12.48s.18.48.18.72a21.1,21.1,0,0,0,.24,3.36c-.12.18-.06.54-.24.66a5.28,5.28,0,0,1,.3.9c0,.3-.12.54-.12.84a3,3,0,0,0,.18.78c0,.3-.12.54-.12.9s.06.54.06.78a13.52,13.52,0,0,1,0,1.56,2.15,2.15,0,0,0-.24.66c0,.36.06.84.06,1.26a2.6,2.6,0,0,1-.06.3c.06.18,0,.18-.06.24s.12.24.12.42a14.4,14.4,0,0,0-.24,1.44c0,.18.12.24.18.48l.3,1.08a2.21,2.21,0,0,1,.06.9c0,.24.24.6-.12.84a1.21,1.21,0,0,1,.54,1.44c-.12.54-.78.54-1.08.9-.24-.06-.42-.12-.48-.3A7.13,7.13,0,0,1,18,47.58l-1,.24c-.3,0-.6.06-.78-.12-.24.3-.6.24-1.26.3-.06,0-.12.12-.3.06-.36-.06-.36.06-.48.12s-.84,0-1.14.06a1.81,1.81,0,0,1-1.26-.06c-.6-.12-.36-1-.66-1.44.06-.48.54-.66.3-1.14a7.82,7.82,0,0,0,.6-.9c.12-.36.12-.9.24-1.2s0-.48,0-.9.18-1-.12-1.56a3.08,3.08,0,0,0,.18-1.44.35.35,0,0,0,.12-.3c0-.24-.18-.54-.18-.78s.24-.78.24-1.14-.18-.36-.18-.6.12-.6.12-.84a2.19,2.19,0,0,0-.18-.9c.18-.06,0-.42.18-.48A4.23,4.23,0,0,1,12.37,33a16.16,16.16,0,0,0-.18-2.4c0-.18-.12-.3-.18-.48-.06-1.14.54-2.4-.12-3.3.3-1.08-.12-2.7.12-3.66.06-.48-.36-.36-.3-.72a6.48,6.48,0,0,0-.12-1.86c-.36-.72-.12-2.46-.06-3.48a3.55,3.55,0,0,1-.36-.84,7,7,0,0,1,.24-1.92c.06-.54,0-1.14.06-1.5.06-.66-.18-1.56-.18-2.28-1,.06-1.92.24-2.88.3-.18,0-.24-.12-.42-.12L6.25,11a2.29,2.29,0,0,1-.6.18,16.29,16.29,0,0,1-1.74.06,7.25,7.25,0,0,1-3,.36c-.42-.66-.18-1.5-.24-2a4.87,4.87,0,0,1-.06-1c0-.18.12-.36.12-.48S.55,7.86.49,7.8A8.45,8.45,0,0,1,.55,6.54c0-.42-.42-.3-.36-.72.06-1.08-.6-2.7.24-3.54a2.11,2.11,0,0,1,1.38-.06c.18,0,.42.06.6.06a8.34,8.34,0,0,0,1.14.36c.24,0,.54-.12.84-.12s.72.12,1.08.12l.36.06a3.38,3.38,0,0,1,.42.06c.36,0,.78-.24,1.14-.24a12,12,0,0,1,1.44.24,3,3,0,0,0,.72-.12,1.29,1.29,0,0,0,.48,0,2.71,2.71,0,0,0,.66-.18c.24,0,.42.12.66.12s.24-.18.3-.18c.6-.12,1.32.12,1.86-.06.3,0,.36.24.6.3.42-.12.66-.24,1,.12a1.6,1.6,0,0,1,1.08-.42c.3-.06.78.24,1.32.18.3.18,1.2-.06,1.44.24l1-.18h.42a2.25,2.25,0,0,1,.6.06,4.19,4.19,0,0,1,.72.18,10.76,10.76,0,0,0,2,.06c1.08-.06,2.34-.42,3-.12a2.84,2.84,0,0,1,.66.78,3.17,3.17,0,0,1,.06.78c.06,1-.12,2.22-.06,3.36a12.56,12.56,0,0,0,.24,1.68C27.55,9.9,27.79,10.44,27.37,10.8Zm-2.7-5.88a3.26,3.26,0,0,1-1.32,0,5.26,5.26,0,0,1-1.74-.06c-.3-.12-.3-.42-.66-.42a5.79,5.79,0,0,0-1.08.18,1.08,1.08,0,0,0-1.26.06c-.36-.18-.72-.06-1.08-.12s-.48-.18-.66-.18-.36.12-.6.06-.18-.3-.36-.18-.12.18-.24.3c-.66.12-1.32-.3-1.92-.24-.42,0-.84.24-1.26.24-.12,0-.36-.12-.48-.12a16.42,16.42,0,0,1-2.4.06c-.3.06-.48.24-.78.24a5.84,5.84,0,0,1-1.44.12,5,5,0,0,0-.9-.24,3.42,3.42,0,0,1-.78.06,30.82,30.82,0,0,0-3.3-.06,9.77,9.77,0,0,1,.18,1.86c0,.18.18.3.18.48v.48c0,.24.06.48.06.66,0,.42-.18.84.06,1.2s.3-.18.42-.18.18,0,.3,0C4.75,8.88,6,9,6.91,8.82c.12-.06.18,0,.36,0a3,3,0,0,1,.78-.18c.72-.06,1.44,0,2.16-.06a4.2,4.2,0,0,1,.84-.18c.12,0,.3.12.48.12s.42-.12.6-.12c.36.06.54.3.66.3s.3.06.36.12c.6.48.3,1.2.36,2.16,0,.18.18.48.18.66s-.06.54,0,.78.18.36.18.6-.12.42-.12.66c0,1.56-.12,3.18,0,4.74,0,.42.18.78.18,1.2a5.28,5.28,0,0,0-.12,1,2.29,2.29,0,0,0,.18.6,3.42,3.42,0,0,0,.06.78,11.07,11.07,0,0,1,.24,1.38,14.59,14.59,0,0,1,0,1.62c0,1,.18,2,.18,3s0,2.1.06,2.94v.84a17.46,17.46,0,0,0,.24,1.86c0,.18-.12.3-.12.36s.12.24.12.42a17.83,17.83,0,0,0,0,1.8c.06.84,0,1.56,0,2.34s-.06,1.32-.06,1.92c.06,1.8-.18,3.54,0,5.28a14.58,14.58,0,0,0,1.62,0,7.46,7.46,0,0,1,1-.24,1.71,1.71,0,0,1,.78,0c.12,0,.12.18.18.18s.18-.06.3-.06.42-.18.66-.12c.18-1-.3-2.1-.3-3.06,0-.42.12-.84.12-1.26a6,6,0,0,1,.06-1.86c.36,0-.42-.18,0-.3.3-.78-.06-1.62-.06-2.52.06-.6.24-1.2.24-1.8a10.18,10.18,0,0,0-.06-2.34c0-.42-.12-.78-.12-1.2,0-.24.12-.54.12-.84s-.24-.6-.3-.9c-.06-.6.06-1.32-.06-2a1.91,1.91,0,0,0-.18-.54c-.06-.54,0-1.14-.06-1.68a5.87,5.87,0,0,1-.06-2,3,3,0,0,1-.24-.78c-.06-.24.06-.54,0-.84s-.18-.42-.18-.6a3.38,3.38,0,0,0,0-.78c0-.54-.24-1.14-.24-1.62,0-.18.12-.48.12-.72s-.3-.72-.36-1a2,2,0,0,1-.06-.6c-.12-.84-.12-2.16-.18-2.7a.74.74,0,0,1,.12-.3,4.19,4.19,0,0,0-.18-.72,3.15,3.15,0,0,1-.06-1,1.18,1.18,0,0,0,.12-.42,1.15,1.15,0,0,1-.18-.48l-.12-.6a4.23,4.23,0,0,1-.06-1.26,22.61,22.61,0,0,0,2.7-.18,14.09,14.09,0,0,1,1.56-.06,4.08,4.08,0,0,0,.9-.12,2,2,0,0,1,1.44.06c.3-.24,1-.12,1.38-.3-.06-.3.06-.66-.12-.84.3-.3.06-.78.06-1.14,0-.06.12-.18.06-.3A1.52,1.52,0,0,0,24.67,4.92Zm-2.58.24c.18-.06.18.12.18.3C22.09,5.28,22.09,5.22,22.09,5.16Z"/><path class="cls-1" d="M66.91,14.34c0,.12.12.18.12.3a1.11,1.11,0,0,0-.12.42c0,.12.06.18.06.3s-.12.18-.06.36.06.18.06.3-.18.36-.18.54.06.48.06.72-.18.36-.18.54a2.49,2.49,0,0,1-.06.6,10.58,10.58,0,0,0,0,1.38c0,.18.18.42.18.66.06.84-.12,1.8-.06,2.7a6.89,6.89,0,0,1,.06,1.08c0,.48-.24.9-.3,1.56a1.36,1.36,0,0,1,.06.24c0,.24-.18.9.06,1.26a2.6,2.6,0,0,1-.3.72,28.25,28.25,0,0,1-.18,3.18,6.76,6.76,0,0,1,.18,1.08c0,.18-.12.42-.12.66s.12.42.12.6-.18.36-.24.54a4.66,4.66,0,0,1-.3,1.86c-.24.42.18,1.38-.24,1.92a3.77,3.77,0,0,1,.06,1.44c0,.18.12.42.06.6,0,.42-.18.78-.18,1.14a16.33,16.33,0,0,0,.24,2.52c.06.18.06.36.36.3-.66.48.06,1,.06,1.56a.85.85,0,0,1-.12.36c0,.06-.06.36-.06.42a2.6,2.6,0,0,0-.3.06,1.63,1.63,0,0,1-.72.42c-.24,0-.48-.12-.78-.12a9.24,9.24,0,0,0-1.14.12,10.71,10.71,0,0,0-1.38.12c-.48.06-.84.36-1.26.36s-.18.36-.48.36c-.06.18-.48,0-.66.06-.48-.42-.9-1.44-.48-1.92-.36-1,.12-2.34-.12-3.6a4.75,4.75,0,0,0-1.56,1.14c-.24.18-.36.48-.66.66l-.24.06c-.06.12-.48.24-.66.48-.42.12-.84.06-1.26.18s-1,.3-1.74.42a5.4,5.4,0,0,1-2.16.36c-.18,0-.3-.12-.36-.12-.24,0-.36.18-.6.18a1.39,1.39,0,0,1-1-.12c-.18.3-1,.06-1.26-.12-.6.24-1.14-.06-1.74-.12-.36,0-.3-.36-.6-.42a10.74,10.74,0,0,1-2.76-.24c-.12-.3-.54-.36-.6-.78-.42.06-.42-.3-.72-.3a4.48,4.48,0,0,0-.66-.78c-.42,0-.48-.24-.9-.24-.12-.12-.18-.36-.36-.48s-.36-.36-.48-.42-.24.06-.3,0l-.84-.9a1.06,1.06,0,0,1-.48-.3c0-.36-.36-.36-.3-.84a2.1,2.1,0,0,1-.48-.3,4.23,4.23,0,0,1-.42-.54c-.12-.06-.12-.18-.24-.24s-.06-.6-.36-.78c0-.24-.24-.24-.48-.24A1.33,1.33,0,0,0,33.61,36c.12-.36-.12-.36-.06-.66-1.2-1.08-1.14-3.3-1.74-4.92a12.29,12.29,0,0,1,.36-3.36l.12-.3c.12-.18.06-.54.12-1l.18-1.14a2.13,2.13,0,0,0,.12-.6,3.86,3.86,0,0,1,.66-1.62c-.3-1.08.72-1.5.78-2.52A5.61,5.61,0,0,0,35,18.78l.66-1.14c.18-.24.48-.42.42-.78.24-.12.36-.36.72-.48v-.54c.66-.42,1-1.14,1.5-1.74a4.84,4.84,0,0,1,.84-.72c.18-.36.78-.42.84-.78a6.44,6.44,0,0,0,2.22-.72c.48-.06,1.08-.06,1.38-.36A2,2,0,0,0,45.19,11c1.2,0,2.28-.06,3.6,0,.6,0,1.26-.12,1.74-.06s.66-.06.9.18a1.22,1.22,0,0,1,1,.06,6.3,6.3,0,0,1,.78.12c.18,0,.36.18.48.18a2,2,0,0,0,.6,0l.3.24a1.25,1.25,0,0,1,.72.3c.06,0,.24,0,.3.06l.12.24a10.93,10.93,0,0,1,1.62.9c.12.06.12.24.3.36s.24.12.36.24a2.62,2.62,0,0,1,.48.6c.12.24.54.48.84.78.18.12.24.42.48.6s.66.48.66.84a6,6,0,0,0-.24-3.3c-.24-.48-.6-.6-.36-1.32a2.37,2.37,0,0,1,.6-.9,3.44,3.44,0,0,0,1.08.12,6,6,0,0,0,1,.12,11.51,11.51,0,0,1,3.18.36c.54-.18.9.12,1.38.24.06.3,0,.48.06.78s.12.36.06.6S66.91,14,66.91,14.34Zm-2-.42c-.24-.24-.84-.12-1-.42a1,1,0,0,0-.6-.18c-.24,0-.36.18-.6.18a9.28,9.28,0,0,0,.18,2.1c0,.42-.12,1-.12,1.5a4.56,4.56,0,0,1,.06.84,1.39,1.39,0,0,1-1.26,1c-.54-.06-.6-.6-1.14-.78-.18.18-.6.12-.78.24A5.31,5.31,0,0,1,58.75,17c-.42,0-.6-.24-.9-.42l-.36-.84c-.42-.18-.84-.36-1-.84-.78-.06-1.14-.6-1.62-1-.84-.12-1.2-.42-1.92-.54l-.78-.12c-1.44-.24-2.76-.12-4.14-.36-.3.24-.84.18-1.38.24l-1,.18a5.78,5.78,0,0,1-2,.24c-.24.12-.6.48-.78.06-.24.54-.84.72-1.56.78a2.74,2.74,0,0,1-1,.66c-.18.48-.72.84-1,1.14a7.28,7.28,0,0,0-.6.84c-.06.12-.3.24-.36.36s-.12.36-.24.48-.18.18-.18.18a4.09,4.09,0,0,1-.3.42l-.12.24c-.24.06-.18.18-.18.24s-.18.12-.18.18a6.85,6.85,0,0,0-.54,1,1.59,1.59,0,0,1-.3.36c-.06.12,0,.18-.06.3s-.18.12-.24.18l-.18.48a3.35,3.35,0,0,1-.3.48c-.12.3-.12.72-.24,1.08a5.49,5.49,0,0,1-.42.84c-.12.6-.06,1.38-.24,2.1s-.42,1.26-.48,1.86a6.65,6.65,0,0,0-.12,1.14A5.54,5.54,0,0,0,34,30.3c.06.3.3.54.36.84.12.48.06,1.14.18,1.56a1.31,1.31,0,0,0,.3.48c.18.42.42.84.54,1.2s.06.54.18.66a2.58,2.58,0,0,0,.54.6c.48.48,1,.84,1,1.5a7.13,7.13,0,0,1,1.62,1.68,1.24,1.24,0,0,1,.42.48l.24.12a3.28,3.28,0,0,1,.66.6l1.08.66.36.42c.12.06.24.06.3.12l.18.3.6.3a6.44,6.44,0,0,0,1.44.72c.9.24,1.74.36,2.76.54.6.06,1.2.24,1.74.3.24,0,.48-.06.72-.06a21,21,0,0,0,2.22-.24l1.32-.3a2.92,2.92,0,0,0,.72-.06c.18-.06.3-.24.48-.3a7.73,7.73,0,0,0,1.26-.36c.3-.3.48-.24.6-.36s.12-.18.18-.18c.36-.24.6-.66.9-.84.54-.36.9-.78,1.38-1.14.12-.24.12-.66.3-.84.54-.24.66-.72,1.38-.6a1.29,1.29,0,0,1,.78.72,13,13,0,0,1,.12,1.86l.18,1.74c0,.18-.12.24-.12.48a14.86,14.86,0,0,0,.12,1.74A8.74,8.74,0,0,0,63,44.4c.24-.06.48.12.66,0a4.23,4.23,0,0,0-.12-1.56c.36-.54,0-1.32.06-2a4.2,4.2,0,0,1,.18-.84c0-.12-.12-.18-.06-.42s.12-.18.18-.36a6.87,6.87,0,0,1-.06-1.92c.12-.12,0-.18,0-.24a3.75,3.75,0,0,1,.06-1.62c.06-.36.24-.66.3-1.08a18.94,18.94,0,0,0,.06-2.58c0-.36.12-.6.12-.9s-.18-.42-.18-.66a2.72,2.72,0,0,0,.12-.48,7.26,7.26,0,0,0,.12-2.22c.24-.12.06-.66.3-.66-.06-1.62-.06-3.18-.06-4.56v-.6c0-.18.12-.36.12-.54s-.18-.54-.18-.78c0-.78.12-1.86.06-2.46-.06-.18.06-.3.06-.36s-.06-.18-.06-.42a.76.76,0,0,0,.12-.36c0-.24-.12-.54-.12-.78A10.79,10.79,0,0,0,65,14.64C65,14.4,64.81,14.16,64.87,13.92Zm-4.5,15.3c0,.12-.18.24-.18.36l-.12,1c-.06.3-.3.6-.42,1s-.06.72-.18,1l-.24.12c-.06.12,0,.24-.06.48a2.43,2.43,0,0,0-.3.54c-.12.24-.12.48-.24.72s-.18.36-.3.54a4.78,4.78,0,0,1-.78.78c-.24,1.14-1.2,1.62-1.62,2.58-.12.12-.36.06-.6.06-.06.18,0,.48-.18.6-.48.3-1,.54-1.56.84-.18.06-.24,0-.3.06a10,10,0,0,1-2.76.84c-.36-.18-.72-.3-1,.06-.78-.36-2.4-.06-3-.66-.12.12-.42.12-.66.12a2.16,2.16,0,0,0-1.32-.42,10.1,10.1,0,0,0-1.44-.36,7.81,7.81,0,0,0-1.08-.9c-.18-.12-.3-.36-.48-.48l-1-.9-.3-.18a1.23,1.23,0,0,0-.48-.48,8.15,8.15,0,0,1-.72-.72,4.17,4.17,0,0,1-.3-.78c-.24-.3-.72-.36-1-.6-.18-.72-.84-1.32-1-2.28a8.53,8.53,0,0,1,.18-2.1c0-.12-.18-.42.06-.48a2.71,2.71,0,0,0-.18-.66c0-.18.12-.48.12-.72s-.06-.36-.06-.54a4.72,4.72,0,0,1,.24-1.2l.18-1.14c.06-.12.24-.18.3-.3s0-.18,0-.24l.24-.12c0-.06-.06-.24,0-.3s.36-.18.36-.36a9.43,9.43,0,0,1,.84-2.4c.24-.06.24-.42.6-.36-.12-.48.12-.6.18-.9A5,5,0,0,0,41.05,19a2.53,2.53,0,0,1,.72-.18c.18,0,.06-.36.18-.48.3-.12.54-.24.48-.54.72-.12,1-.72,1.68-.78l.78-.66c.12-.06.24,0,.3-.06.18-.3.3-.24.42-.3a2.21,2.21,0,0,1,.84-.48c.18,0,.24.12.42.12.36.06,1,0,1.44.06s.72.18,1.14.18c1.26.12,2.4-.06,3.18.54a3.42,3.42,0,0,0,.78.06l2.4,1.2c.36.72,1.14,1,1.62,1.56.18.18.54.12.78.24.18.48,1,.84,1.08,1.38.12.3-.06.72,0,1.08a5.9,5.9,0,0,0,.3,1l.12,1a12,12,0,0,1,.72,2.46c.06.18-.06.3-.06.54a3,3,0,0,0,.18.78A4.46,4.46,0,0,1,60.37,29.22Zm-1.86-2.94c-.06-.24-.36-.3-.48-.48a5.66,5.66,0,0,0-.36-1.38c.12-.54-.18-.78-.24-1.08A8.76,8.76,0,0,1,57.25,22c-.36-.18-.36-.42-.54-.6s-.24-.24-.3-.3l-.84-.9a2.78,2.78,0,0,0-1.14-.78c-.66-.3-1.14-.6-1.62-.84a6,6,0,0,0-1.56-.3,8.35,8.35,0,0,0-.78-.36,3.89,3.89,0,0,1-.84,0c-.24,0-.54-.18-.72-.18s-.3.36-.48.18-.6-.42-.78-.24c-.78.06-.9.36-1.44.66l-.48.18-.42.3c-.06,0-.18-.06-.3,0l-.18.18c-.3.18-.54.42-.78.54a4.13,4.13,0,0,0-.48.18,9.45,9.45,0,0,0-.6.78c-.24-.06-.24.18-.48.06,0,.36-.3.6-.48.78a2.52,2.52,0,0,1-.84.54c-.06.84-.72,1.08-.72,1.92a3.82,3.82,0,0,0-.6,1.08,11.18,11.18,0,0,0-.3,1.62c-.12.42-.36.72-.42,1.08,0-.06.06.3.12.36a10.18,10.18,0,0,1-.36,1.68c0,.3.18.66.18,1,0,.06-.12.12-.12.24a1.62,1.62,0,0,1,0,.78c.06.48.54,1,.36,1.56a11.09,11.09,0,0,0,1.62,1.14,7.77,7.77,0,0,0,2.1,2.1,3.52,3.52,0,0,0,1.14.78l.24.24a5.44,5.44,0,0,0,1.26.3c.24.06.6.24.78.3s.18.24.36.24a21.14,21.14,0,0,1,2.94.3,2,2,0,0,0,.84-.06,4.25,4.25,0,0,0,.9-.06,3.35,3.35,0,0,1,.48-.3c.12,0,.24.06.36,0s.6-.36.9-.06c.42-1,1.8-1,2-2.28.24.06.18-.18.42-.18,0-.42.3-.66.48-1l.42-.78c.06-.06.24.06.18-.18a3.29,3.29,0,0,1,.72-1.26c-.12-.42.18-.72.3-1a9.76,9.76,0,0,0,.54-3.3,3.67,3.67,0,0,0,.42-.84A2,2,0,0,1,58.51,26.28Z"/><path class="cls-1" d="M103,48.54a4,4,0,0,1-1.2.06,2.37,2.37,0,0,1-.84-.3,1.47,1.47,0,0,1-.9-.3c-.48.24-.84,0-1.26.18l-.78.36c-.06.06-.18-.06-.3,0s-.06.3-.48.3c-1,0-1.2-.9-2.16-1.14a7.24,7.24,0,0,0-1.44-1.26c-.12-.18-.12-.48-.3-.6s-.36-.12-.24-.48a17.33,17.33,0,0,1-2.52-2.1,16,16,0,0,1-1.56-1.86c-.18-.24-.6-.36-.42-.72-.42,0-.54-.36-.84-.6a1,1,0,0,1-.3-.12c-.06-.06,0-.18-.06-.24s-.42-.24-.36-.54c-.84-.3-1.08-1.2-1.86-1.56-.06-.3-.24-.42-.36-.72-.42-.06-.48-.42-1-.48,0-.36-.36-.48-.54-.66s-.42-.48-.66-.54c-.3.24-.12.66-.12,1.08,0,.18-.12.36-.12.6s.24.9-.24,1.14a20,20,0,0,1,.24,4c0,.18-.12.36-.12.48s.18.54.18.78-.12.48-.12.6.18.24.18.3-.06.3,0,.48a1.31,1.31,0,0,1,.18.3c0,.12-.12.18-.12.24A8.35,8.35,0,0,1,83,46c-.12.36-.42.54-.6.9,0,.42.3.48.48.66a1.55,1.55,0,0,1-.72,1.92c-1.26,0-1.92-.6-2.88-.9a17.3,17.3,0,0,1-3.54-.18c-.12-.36-.48-.54-.36-1.2a3.35,3.35,0,0,0,0-.78,1.21,1.21,0,0,1,.12-.36c0-.18-.18-.3-.18-.48a12.31,12.31,0,0,1,.18-3.6c0-.12.06-.36.06-.48a6.76,6.76,0,0,0-.18-1.08c0-.36.06-.78.06-1.14,0-.06-.12-.18-.12-.3s.24-.42.24-.6a9.26,9.26,0,0,0-.3-1c0-.3-.06-.72-.06-1,0-.6-.06-1.26-.06-1.8,0-.9.12-2.28.06-3.42,0-.06.06-.18.06-.24a.85.85,0,0,0-.24-.12c0-.18.12-.36.12-.6,0-.48-.3-1.38.12-1.8.06-.24-.12-.48-.12-.72a4.09,4.09,0,0,1,.12-1.14,3.39,3.39,0,0,1,0-.78.74.74,0,0,0-.12-.3,8.7,8.7,0,0,0,.36-1.14c0-.36-.12-.66-.12-1.08,0-.24.12-.6.12-.84a5.32,5.32,0,0,0,.12-.9c0-.36-.18-.78-.18-1.14a3,3,0,0,0,.12-.72c0-.18-.12-.3-.18-.54s.06-.48.06-.72a2.35,2.35,0,0,1-.3-.78c0-.18.12-.18.12-.24A4.57,4.57,0,0,0,75.07,16c-.06-.24.06-1.92.06-2.22,0-.78.06-1.56.06-2.28s-.36-1.56-.36-2.28a13,13,0,0,1,.24-1.5c0-.12-.12-.12-.12-.24s.12-.18.12-.3-.18-.36-.18-.48a6.17,6.17,0,0,1-.06-1.08,6.63,6.63,0,0,1-.18-1c0-.18.12-.24.12-.42a3.58,3.58,0,0,1,0-1.14c-.18-.3-.54.18-.66-.12s-.12-.42-.3-.48c-.06-.6.48-.6.3-1.26A2.49,2.49,0,0,1,76,1.32,3.47,3.47,0,0,1,78,1l.6-.3a16.47,16.47,0,0,0,3.06.18c.3.18.42.54.66.78-.18.48,0,.84.06,1.5a4.66,4.66,0,0,1,.12,1c0,.12-.18.36-.24.48a8.83,8.83,0,0,0,0,1.26c0,.06-.12.18-.12.36a21.82,21.82,0,0,0,.3,3.6,8.7,8.7,0,0,1,.18,1.92A9,9,0,0,0,82.51,13c.06.78.72,1.62.3,2.22.24.54.66,1.5.24,2,.06.24.24.36.3.48.06.36-.18.3-.18.48.42.48.06,1.56,0,2.34,0,.18.12.36.12.48s-.12.3-.12.42c0,.42.3.78.18,1.26A1.19,1.19,0,0,0,84,22a8.58,8.58,0,0,0,1.92-2c.3,0,.24-.3.6-.18a1,1,0,0,1,.36-.6c.18-.18.3-.18.3-.18s.06-.24.12-.3l.36-.18c.24-.12.24-.3.72-.3.18,0,.06-.36.3-.36.42-.12.54-.54,1.08-.54.12-.54.6-.66.78-1.14.18-.12.3-.3.6-.3l1.38-1.5A2.77,2.77,0,0,1,93,14c.24-.18.36-.48.66-.72L94,13c.06-.06.06-.24.18-.36a1.39,1.39,0,0,1,2-.36,5.06,5.06,0,0,1,2,.36c.54.12,1.08.12,1.32.6a3,3,0,0,1,2.16.06,2,2,0,0,1,.3,1.56c-.24.18-.36.54-.84.54-.24.18-.36.48-.6.66-.06.06-.24.06-.3.06-.18.18-.36.48-.6.72a3.37,3.37,0,0,0-.78.42c-.06.06-.06.24-.12.3s-.18.06-.3.12l-.18.24c-.12.06-.24.06-.3.12s0,.18-.12.3-.24,0-.24.06-.06.24-.12.3A3,3,0,0,1,96.19,20a4.63,4.63,0,0,1-1,1.14,1.16,1.16,0,0,0-.6.6c-.12.06-.36.06-.48.18-.18.6-.84.78-1.08,1.38-.24,0-.3.18-.48,0-.06.66-.6.78-1,1.08-.3.9-1.2,1.32-1.74,2-.24.18-.3-.06-.6,0-.24.3-.12.66-.3,1a9,9,0,0,1-.78.66c-.24.18-.3.42-.54.6.3.9,1.14,1.26,1.44,2.16.72.6,1.56,1,2.34,1.68a4.4,4.4,0,0,1,.78.6c.3.3.48.78.78,1.08a10,10,0,0,1,.72,1,6.81,6.81,0,0,1,1.5,1.44,3.75,3.75,0,0,1,1.08,1.26c1.44.6,1.86,2.16,3.18,2.88.12.78.72,1.08,1.26,1.5a5.93,5.93,0,0,0,.54,1.44c.06.24.3.18.48.3s.48.84,1,1a.76.76,0,0,0,.42.6,1.59,1.59,0,0,0,.06.78c.12.36.42.54.48.9C103.63,47.76,103.21,48.18,103,48.54Zm-3.6-4.32c-.12-.18-.54-.06-.66-.18a14.34,14.34,0,0,0-1.62-2c-.12-.12-.12-.3-.18-.42l-.42-.18c-.12-.3-.3-.24-.36-.3a2.77,2.77,0,0,1-.54-.9,2.48,2.48,0,0,1-.66-.42c-.12-.6-.72-.66-.66-1.32-.42-.06-.6-.3-1-.36a6.67,6.67,0,0,0-1.62-1.56,4.31,4.31,0,0,0-.84-1.2,10.48,10.48,0,0,0-1.74-1.56,5.63,5.63,0,0,1-.72-.54c-.48-.36-.84-.84-1.32-1.14a13.73,13.73,0,0,0-1.92-2.58c-.12-.12-.06-.48-.18-.6s-.42-.12-.24-.48c.24-1.14,1.32-1.44,2-2.1.3-.84,1.08-1.26,1.62-1.86a1.13,1.13,0,0,1,.66-.3c.06-.36.36-.48.42-.84.54-.36,1-1.08,1.5-1.44s.54-.54.84-.66c.48-.54,1-1,1.2-1.2s.12-.3.24-.42a2.31,2.31,0,0,1,.54-.54c.12-.06.24-.06.3-.12s.12-.24.24-.3.18,0,.24-.06c.24-.12.3-.36.42-.48s.18-.18.18-.18l.54-.36c.06-.06.06-.24.06-.3l.6-.48a8.13,8.13,0,0,1,1-1c.06-.12,0-.24.06-.3s.24-.06.3-.18.36-.36.12-.6-.18.3-.6.06-1.08-.24-1.5-.48c-.3.24-.6.3-.78.48a3.84,3.84,0,0,0-.84.9,4.11,4.11,0,0,1-1.14,1.14l-.24.12c0,.24-.12.12-.18.18s-.06.24-.18.36l-.42.3a8.82,8.82,0,0,0-.6.78,9.43,9.43,0,0,0-1.56,1.14c-.12.06-.36.06-.48.18-.42.24-.72.78-1.26.84-.12.06-.06.24-.12.36s-.3.12-.42.18-.3.42-.6.48c-.06.48-.54.72-.84,1s-.24.42-.42.6l-.3.18c-.12.12-.12.3-.18.36l-.54.48A5.21,5.21,0,0,1,83.35,26c.06.36-.24.48-.3.6-.3.54-.66,1.32-1.56,1a1,1,0,0,1-.48-.42c-.06-.06-.06-.3-.06-.36a2.19,2.19,0,0,1,0-1.08V25a6.16,6.16,0,0,0,.24-.84c0-.24-.18-.48-.18-.72a3.51,3.51,0,0,1-.12-.78c.06-1.8.3-3.9.18-5.76a2.53,2.53,0,0,1-.18-.72c-.06-.3.06-.66,0-1s-.24-.48-.3-.78-.06-.78-.06-.84.12-.24.12-.3c0-.24-.18-.36-.18-.6a3.39,3.39,0,0,0,0-.78,2.71,2.71,0,0,0-.18-.66,3.39,3.39,0,0,0,0-.78,2.6,2.6,0,0,1-.12-1.38,5.15,5.15,0,0,1-.12-3.3c-.18-.06-.24-.24-.18-.48A4.42,4.42,0,0,0,80,3.12a.33.33,0,0,0-.3-.18c-.6.66-1.92.3-2.82.3,0,.6.06,1.32.06,1.56A8.89,8.89,0,0,1,77,7c0,.12.12.12.12.3a28.39,28.39,0,0,0-.06,3.18c0,.12.12.24.18.36s-.06.48-.06.72a6.06,6.06,0,0,1,.18,1c0,.12-.06.18-.06.3s.06.3.06.3a17.31,17.31,0,0,0-.12,2.52c0,.72.18,1.32.12,2a2,2,0,0,1-.12,1c.24.12.24.48.3.66l.18.78a30.18,30.18,0,0,1,0,3.3c0,.48.12.66,0,1a4.26,4.26,0,0,0-.24,1.2,6,6,0,0,1-.3,1.5c.24,0,.18.36.24.48-.06.72.06,1.44-.06,2.28,0,.24-.12.48-.06.72s.12.54.12.78-.06.48-.06.72.24.78.24,1.14-.12.48-.12.78a19.61,19.61,0,0,0-.06,2.64,2.13,2.13,0,0,1,.18.66c.06.42-.06,1,0,1.44.06,1.5.54,3-.12,4.08.36.72-.06,1.56.24,2.52-.06.36-.3.6-.12,1,.9-.12,1.92,0,2.82-.12a8.89,8.89,0,0,0-.18-1.86c0-.24.18-.48.12-.66s-.12-.12-.18-.24,0-.24,0-.36a4.26,4.26,0,0,0-.06-1.74c.3-.48.06-.84.12-1.44a11.09,11.09,0,0,0,.06-1.38c0-.24.12-.48.12-.78,0-.6-.3-1.14.12-1.5a5.83,5.83,0,0,1-.24-1.86,11.72,11.72,0,0,1,.12-1.38c0-.12.18-.3.18-.48s.06-.42.12-.54a2,2,0,0,1,1.08-.6,7.43,7.43,0,0,0,1.08.84c.18.54.78,1,1.08,1.26s.18.24.42.3.24.54.54.3c0,.24.3.42.42.48s0,.24.06.3.36.12.48.24.18.3.3.36a3.85,3.85,0,0,0,1.5,1.08,5.12,5.12,0,0,0,.66.84c.42.48,1,.78,1.14,1.44.3.18.48.42.78.6,0,.3.18.42.24.72.54,0,.78.66,1.08.84.12.12.3.12.48.24A7.77,7.77,0,0,0,93.91,43c.36.24.6.54.9.72.12.12.36.18.42.3s.06.24.12.3l.18.18.36.48a6,6,0,0,0,.78.9c.06.06.36.06.48.12s.36.18.48.18c.36,0,.66-.3,1.08-.36a10.17,10.17,0,0,1,1.38-.06C100,45.12,99.43,44.94,99.43,44.22Z"/><path class="cls-1" d="M139.63,30.18c.06.54.24.78,0,1.26-.18.3-.78.42-.9.66a2.32,2.32,0,0,0-1.44.06c-.54-.42-1.8-.12-2.34-.54a1.56,1.56,0,0,1-.66.18,15.57,15.57,0,0,1-3.6-.36c-.84-.06-1.86-.06-2.58-.06a4.63,4.63,0,0,1-.9.12c-.6-.06-1.14-.42-1.74-.42a12.69,12.69,0,0,0-1.44.12,5.25,5.25,0,0,1-1-.12c-.12,0-.3.12-.42.12a1.41,1.41,0,0,0-.48-.12c-.54,0-1.08.24-1.5-.24a1.31,1.31,0,0,1-1,.3c-.36-.06-.6-.12-.72-.12s-.3.18-.3.18c-.24,0-.6-.24-.9.06-.12-.18-.6,0-.78-.18s-.18.18-.36.18c-.66-.3-1.2-.06-1.86-.06a10.35,10.35,0,0,0-2-.12,3.23,3.23,0,0,0,.24,2.58c.06.42-.12.6-.12.9.06.12.24.12.3.18s0,.24.06.3a8.23,8.23,0,0,1,1,1.08c.36.6,1,1.08,1.44,1.8a10,10,0,0,0,.72,1,4.41,4.41,0,0,1,1.56.84l.36.18a9.56,9.56,0,0,0,1.26.9,6.3,6.3,0,0,0,.78.12c.36.12.9.72,1.44.78a4.65,4.65,0,0,1,.54-.06,4.08,4.08,0,0,1,.9.12,2.16,2.16,0,0,0,1.44-.36,4.54,4.54,0,0,0,.9-.06c0-.06.06-.18.06-.24s.18.06.24,0,.12-.18.18-.18c.24-.06.54.12.78-.06a1.36,1.36,0,0,1,.6-.3,6,6,0,0,0,1.14-.72l.78-.48c.78-.48,1.26-1.5,2-2.16a3.92,3.92,0,0,1,.72-2,3,3,0,0,1,.54-1.74,1.59,1.59,0,0,1,1.08-.06l.78.42c.24.12.48.12,1,.3.12.06.24.18.36.18s.36,0,.6.06.24.18.36.18c.3.06.84-.12,1.14,0,.06.06.12.18.24.24a1,1,0,0,1,.54.48,2.3,2.3,0,0,1-.42,1.32c-.06.18-.12.54-.36.48-.06.3.12.36.06.72s-.24.36-.3.66a8.5,8.5,0,0,1-.42,1.32l-.42.48a2.24,2.24,0,0,1-.9.78c.18.36-.36.54-.48.72-.18.48-.66.78-1.2,1.14-.6.54-1.38.9-1.92,1.32l-.54.36a2.28,2.28,0,0,1-1,.66c-.18.12-.24.06-.42.12,0,0-.12.18-.18.18a9.43,9.43,0,0,1-1.38.24c0,.06-.24.18-.24.18l-1.8.36a2.43,2.43,0,0,1-1.26.18c-.18,0-.42-.12-.54-.12s-.54.42-.9.12c-.3-.12-.12.36-.48.24s-.9.12-1.38.06a3.16,3.16,0,0,1-.72-.18c-.24-.06-.3.12-.42.06s-.18-.18-.18-.18a14.4,14.4,0,0,1-2.4-.36c-.24-.06-.54,0-.66-.3a2.28,2.28,0,0,1-1.86-.72,2.71,2.71,0,0,1-.66-.18c-.48-.24-1.14-.42-1.44-1-.6,0-.84-.42-1.14-.72a1.82,1.82,0,0,1-1.5-.9,6.32,6.32,0,0,0-.9-.9c-.12-.12,0-.42-.18-.54-.66-.3-1-1-1.68-1.2-.12-.42-.54-.72-.78-1.08a2.51,2.51,0,0,1-.24-.6l-.42-.48c-.18-.54-.24-1.2-.42-1.8a1.15,1.15,0,0,1-.18-.48c-.06-.36,0-.72-.06-1s-.24-.48-.3-.72,0-.78-.06-1.26a6.76,6.76,0,0,1-.18-1.08c0-.54.12-1.14.12-1.74,0-.18-.06-.48-.06-.66.06-.42.36-.84.42-1.26a1.13,1.13,0,0,0-.12-.48c0-.18.18-.42.06-.6.18-.12.24-.48.3-.66a8.55,8.55,0,0,1,.18-1l.24-.18a.54.54,0,0,0,.06-.3l.24-.18c0-.12-.06-.3,0-.36a2.1,2.1,0,0,1,.3-.48l.18-.6c.12-.18.24-.24.3-.36s-.06-.36,0-.48.18-.06.24-.18l.3-1.2a2.07,2.07,0,0,1,.78-1.14c-.18-.18,0-.36,0-.54a4.57,4.57,0,0,0,1-1.68c.72-.48,1.14-1.32,1.86-1.86a2.77,2.77,0,0,1,.6-.3c.06-.06.06-.12.18-.18s.24-.06.3-.06a6.27,6.27,0,0,1,1.2-.9c.48-.18,1.68-.06,2.1-.6a2.93,2.93,0,0,0,1.38-.48,2.39,2.39,0,0,1,1.38-.36,3.78,3.78,0,0,0,1.62-.12,5.66,5.66,0,0,1,1.2-.18c.12,0,.3.12.48.12.66,0,1.2,0,2,.06.42,0,.78-.18,1.26-.18.06,0,.12.12.24.12a2.22,2.22,0,0,1,.9,0,3.23,3.23,0,0,1,.6.18c.42,0,.66.24,1,.42.18.12.48.12.66.24a3.67,3.67,0,0,1,.72.3c.48.18,1,.24,1.2.78.18.06.3,0,.48.12a6.09,6.09,0,0,1,1.08.78c.3.24.6.78,1,1,.06.24.24.36.3.66.66.36,1,1.08,1.8,1.38.24.54.66.84.72,1.5l.6.9c.06.18.36.42.42.66a3.75,3.75,0,0,0,.6,1.2,3.87,3.87,0,0,1,.66,1l.12,1,.3.78c.12.6,0,1.2.06,1.86l.18,1.44a3.69,3.69,0,0,0,.06.78c0,.24.18.42.18.6S139.63,30,139.63,30.18Zm-2.46-2.76a1.65,1.65,0,0,0,.12-.78c0-.24-.18-.6-.18-.78.12-.48.36-.24.12-.54s-.12-.84-.18-1a2.12,2.12,0,0,0-.48-.78c-.06-.18-.06-.3-.18-.42a3.56,3.56,0,0,0-.48-.48c0-.06.06-.24,0-.3-.24-.18-.18-.3-.24-.42a3.83,3.83,0,0,1-.48-.84c-.18-.18.12-.36,0-.72-.36.12-.36-.3-.48-.48l-.24-.18c-.12-.12-.12-.24-.18-.42-.84-.18-1.2-.78-1.86-1.2,0-.36-.3-.6-.42-.84a4.4,4.4,0,0,0-.6-.78c-.48-.48-1.38-.6-1.62-1.32-.6,0-.9-.36-1.44-.12a11.37,11.37,0,0,0-1.26-.54c-.18-.06-.3-.18-.48-.18s-.72,0-1.14-.06-.66-.12-1-.12a4.57,4.57,0,0,1-1.26.18c-.24,0-.42-.12-.66-.12l-1,.18-2,.24-1,.18-.3.18-.36.12a2.4,2.4,0,0,1-1.56.24c-.36.6-1.14.6-1.68,1-.18.24-.3.18-.36.24l-.42.3-.6.36c-.06.06-.18.06-.3.12-.36.3-.42.78-.9,1,0,.24-.18.36-.18.66-.3.06-.36.36-.48.54a11.3,11.3,0,0,0-.84,1.44,4.52,4.52,0,0,0-.36.78,5.94,5.94,0,0,0-.12,1.08c-.18.48-.72.84-.66,1.44-.54.3-.66,1.08-.9,1.62a1.57,1.57,0,0,0-.3.54,12.15,12.15,0,0,1-.36,2.52c.48.48.18,1.14.18,1.86,0,.48.12,1.08.18,1.62a3.17,3.17,0,0,0,.06.78,4.54,4.54,0,0,0,.06.9c0,.12.18.18.18.3s-.06.42,0,.54l.18.42a4.72,4.72,0,0,1,.48,1.56l.72.78a2.21,2.21,0,0,0,.6.66,2.44,2.44,0,0,1,.54.6c.06.12.24.06.42.12a6.5,6.5,0,0,0,.84.9l.18.3a2,2,0,0,0,.66.48,3.16,3.16,0,0,0,1,.6,2.4,2.4,0,0,0,.6.72c.3.18.72.18,1.08.42l.54.48c.24.18.6.18.66.48a6.3,6.3,0,0,1,1.38.42,1.63,1.63,0,0,0,.54,0c.3.12.48.3.78.3a2.34,2.34,0,0,0,1-.06s.18.18.18.24a2.56,2.56,0,0,0,1.2-.12c.78.6,2.4.24,3.3.12a.63.63,0,0,1,.36,0c.18-.06.24-.18.42-.18l1-.18c.3-.06.72,0,1-.06s.66-.36,1-.48c.06-.06.18,0,.3,0a5.22,5.22,0,0,0,.84-.48c.24-.24.42-.18.48-.24.24-.24.36-.48.6-.72l.6-.36.3-.18a17.11,17.11,0,0,1,1.56-1c.18-.54.66-.72.72-1.32a2.53,2.53,0,0,0,1.14-1.92c.24-.24.3-.36.18-.78-.18-.18-.66-.12-1-.12-.36-.18-.54-.42-1.08-.42a9.32,9.32,0,0,0-.3,1.38c-.06.18-.24.24-.3.48s0,.42-.12.66a1.07,1.07,0,0,0-.3.36l-.36.6-.6.72c-.48.48-.72,1-1.2,1.32-.12.12-.3.12-.48.24a2.61,2.61,0,0,0-.42.24l-1,.48c-.12.06-.24-.06-.3,0s-.12.12-.18.18l-1,.48c-.3.12-.48.36-1,.24-.3.36-.78.3-1.14.48l-.42.18c-.18,0-.36-.12-.6-.12s-.36.18-.54.18a11.9,11.9,0,0,1-3.3-.24c-.78-1-2.76-.9-3.24-2.1a2.48,2.48,0,0,1-.9-.42c-.12-.24-.3-.18-.36-.24-.48-.18-.66-.54-1.14-.66,0-.72-1.08-.84-.72-1.5-.36.06-.54-.12-.78-.18a2,2,0,0,0-.6-.78c-.06-.54-.6-.66-.54-1.32-.72-.06-.72-.84-1.14-1.26.06-.24.3-.3.3-.6a2.06,2.06,0,0,1-.72-1.32c-.06-.24.12-.48.12-.72s-.18-.6-.18-1c-.06-.84.3-1.62.12-2.34.54-.54,1.38-.42,2.52-.42.24,0,.36.06.54.06.84-.06,1.32,0,2,0s1.14.12,1.5.12.66-.12,1-.12.42.18.6.18.78-.18.9-.18a6.53,6.53,0,0,0,1.14-.06c.24,0,.6.12.84.12.78.06,1.38-.06,2-.06a.76.76,0,0,0,.36.12c.18,0,.36-.12.48-.12s.48.24.66.24c.42,0,.72-.18,1.08-.18s1,.18,1.56.24c.24,0,.54-.12.78-.12a8.24,8.24,0,0,1,1.62.36c.36,0,.36-.3.72-.3a25.87,25.87,0,0,0,4,.42,6,6,0,0,0,2.52,0A3.48,3.48,0,0,0,137.17,27.42Zm-3.36-1.2c-.06.42,0,.84-.42,1.14-1.2.18-2.76-.3-4,.18a3.52,3.52,0,0,0-1.86-.24c-.66.06-1.5-.12-2.22-.12a3,3,0,0,1-1.62-.12,1.42,1.42,0,0,1-1.38-.06,3.08,3.08,0,0,1-1.5.36c-.18,0-.36-.18-.48-.18a7.36,7.36,0,0,0-1,.06c-.12,0-.3-.12-.48-.12s-.84.18-1.14-.12c-.18,0-.3.18-.48.18s-.42-.06-.66,0-.72.3-1.08.36a15.21,15.21,0,0,0-1.56.06l-.48.18-.6.12a4.13,4.13,0,0,1-1.08.12c-.42-.06-.6-.48-.84-.78a2.15,2.15,0,0,1,.12-1.08c.12-.18.06-.66.12-1,0-.12.36-.18.12-.48l.36-.6a3.55,3.55,0,0,1,.84-2.1,3.51,3.51,0,0,0,.12-.78c0-.06.18-.12.18-.18s0-.3,0-.42a.36.36,0,0,0,.24-.06.81.81,0,0,1,.12-.48c.12-.18.42-.36.54-.6a2.89,2.89,0,0,0,.54-.66l.3-.24.66-1a10.7,10.7,0,0,1,2-.54c.24,0,.36-.3.6-.36.06-.06.3,0,.54-.12a6.53,6.53,0,0,1,1.38-.36c.3,0,.6.12,1,.12s.48-.06.66-.06c.48,0,.9.36,1.26.12l.6.3.48.3c.48.12,1,0,1.44.12l.48.18a1.19,1.19,0,0,0,.6.12,5.18,5.18,0,0,0,1,.6,6.34,6.34,0,0,0,1.14.36c.9.84,1.92,1.62,2.82,2.46a8.43,8.43,0,0,1,1.08,1c0,.18.12.12.18.18s.18.36.36.36c0,.48.36.84.54,1.32.12.12.06.24.12.36s.36.6.48.9A4.55,4.55,0,0,1,133.81,26.22Zm-2.76-2c-.18-.12,0-.3-.06-.48s-.54-.06-.3-.36c-.24-.24-.72-.3-.66-.78-.36.06-.48-.36-.6-.42l-.24-.12c-.3-.24-.36-.66-.66-.9s-.6.18-.6-.3a2.79,2.79,0,0,1-2.4-1.2,15.63,15.63,0,0,1-2.4.06c-.54-.36-1-.18-1.74-.36-.3-.06-.18-.48-.6-.48-.54.24-1-.18-1.62-.24a9,9,0,0,1-2,.66c-.36.12-1,.9-1.2,1.14l-1.56,1.86c.06.48-.18.66-.12,1.08-.54.42-.66,1.32-.84,2.1a12.71,12.71,0,0,0,2-.12,3.42,3.42,0,0,1,.78-.06c.18-.06.3-.18.48-.18.72-.06,1.5.06,2.22,0a5.18,5.18,0,0,1,2.16.06A6.75,6.75,0,0,1,124,25c.12,0,.12-.12.3-.12s.12.12.3.12.24.18.48.12c1.8-.3,4.08.18,6.3-.18C131.47,24.84,131.35,24.3,131.05,24.18Z"/><path class="cls-1" d="M166,20c-.18.18-.18.06-.36.18s-.18.24-.42.3c-.06,0-.18.12-.3.06-.66-.06-.66-.84-1.32-1.14a7.26,7.26,0,0,1-1.14.06,8,8,0,0,0-1.08.42,2.29,2.29,0,0,1-.6.18l-1.08.6c-.3.3-.42.6-.78,1a9.6,9.6,0,0,0-1.5,1.08c-.18.24-.18.66-.42,1-.06.18-.36.24-.48.42l-.12.24c0,.12-.12.18-.18.24s.06.3,0,.48-.42.54-.3,1c-.12.18-.36.3-.42.48s.06.36,0,.48-.18.12-.18.18c-.12.24-.12.48-.24.72s-.24.36-.3.54.06.48,0,.78l-.24.48a6.49,6.49,0,0,1,0,1.08c-.06.54-.3,1-.42,1.62a11.58,11.58,0,0,1-.06,1.38c0,.24-.18.48-.18.78-.06.6.3,1.2-.24,1.68a2.29,2.29,0,0,1-.06,2c.6,1.68-.3,4.2.18,6.06.18.48.9.36,1.26.66,0,.24.3.42.36.78a1.54,1.54,0,0,1-.78,1.32c-.3.12-.6-.06-1.2.06a7.58,7.58,0,0,0-1.08.48,12.75,12.75,0,0,1-2.4.6l-1.2.18c-.48.12-1,.42-1.32.36-.78-.12-1.08-1-1.08-1.86a6.61,6.61,0,0,0,.12-1.08,6.37,6.37,0,0,0-.24-1.14,27.06,27.06,0,0,1,0-3.12c0-.3.12-.6.12-.84a4.78,4.78,0,0,1-.18-.9,10.66,10.66,0,0,1-.3-1.68c0-.24-.06-.6-.06-.84a11.07,11.07,0,0,1,.24-1.38c0-.18-.12-.24-.12-.48s.18-1.08.18-1.62-.24-1-.3-1.44c0-.24.06-.66.06-.72-.06-.24-.18-.36-.18-.54-.06-.48-.06-1.14-.12-1.5,0-.12-.06-.36-.06-.48a7.46,7.46,0,0,1,.24-1c.12-.78-.06-1.62,0-2.4.06-.6.36-1.2.36-1.74,0-.24-.06-.54-.06-.78s.12-.54.12-.78a2.71,2.71,0,0,1-.18-.66,8.21,8.21,0,0,1,.12-1.68,7.5,7.5,0,0,0-.18-1.14,2.43,2.43,0,0,0,0-.66c0-.18-.18-.3-.18-.42,0-.36.24-.84.24-1.26a3.68,3.68,0,0,1,.12-1.8c0-.42-.3-.6-.48-.9.3-.66-.12-1.32.06-1.92a1.22,1.22,0,0,1,1-.36c.6,0,.78.42,1.08.66a7.65,7.65,0,0,0,2.34,0c.42,0,.9.12,1.26.12.6-.06,1-.54,1.92-.24.3.18.24.48.48.84,0,.06.18.18.18.24s-.12.18-.12.24.12.18.12.3a3.85,3.85,0,0,0-.18,2c.48,0,.72-.36,1-.66a4.58,4.58,0,0,0,.54-.54c.06-.06.06-.24.12-.3s.24-.06.3-.12.36-.36.6-.54.6-.36.78-.66c.72-.12,1.38-.84,2.22-.54.36-.36,1.38-.78,1.86-.36.3.06.3-.3.48-.36,1,.36,2-.36,3-.12.36.06.54.3.78.42a2.1,2.1,0,0,1,.78.3c.54.84.12,1.92.06,2.88-.06.24.06.42.06.6,0,.36-.12.72-.12,1.08,0,.9.12,1.8.12,2.7C166.09,19.8,166.09,19.92,166,20Zm-6.54-5.64c-.54.42-1.62.36-1.86,1.08a6.73,6.73,0,0,0-2.28,2.22l-.3.18c-.12.12-.12.24-.18.36s-.42.36-.6.6c-.12.06-.12.24-.24.36s-.18.18-.3.3l-.36.78c-.36-.12-.36.18-.48.24a1,1,0,0,1-.6.3c-1.32-.36-.66-2.28-1-3.42a1.84,1.84,0,0,0,.12-1.26,5.71,5.71,0,0,0-.06-1.74,19.4,19.4,0,0,0-3.18.24V15.9c-.06.3-.3.42-.3.72a2.82,2.82,0,0,1,.12,1.56,10.26,10.26,0,0,0,.24,2.16,4.86,4.86,0,0,1,0,1.32c-.06.72.12,1.44.12,2.16,0,1.08-.36,2.28-.36,3.36a28.37,28.37,0,0,0,.12,4.56c.12.66.18,1.26.24,1.86a13.64,13.64,0,0,1-.06,1.74c0,.36.06.9.06,1.14s-.06.36-.06.48a9.42,9.42,0,0,0,.12,2l.18,1.32c0,.3-.06.66-.06,1a10.06,10.06,0,0,1,.18,1.08c0,.36-.18.72-.18,1.08,0,.84.36,1.62.42,2.4a3.68,3.68,0,0,0,1.8.06c.12,0,.24-.24.3-.3a1.91,1.91,0,0,1,.54-.18,8.48,8.48,0,0,1-.36-1.32c-.06-.24.06-.42.06-.72a3.42,3.42,0,0,0-.06-.78c.06-.48.3-1,.36-1.5,0-.3-.12-.6-.12-.9a13,13,0,0,1,.3-3.84c-.36-.48,0-1.5.06-1.92a1.86,1.86,0,0,0-.12-.42c.06-.24.18-.48.24-.78s-.12-.6-.12-.84.24-.6.3-.9a13.26,13.26,0,0,0,.24-2.1,5.79,5.79,0,0,1,.18-1.08,7.13,7.13,0,0,1,.48-1c.06-.12-.06-.36,0-.48s.3-.36.42-.54a8,8,0,0,1,.72-1.92c0-1.2.72-1.68,1.08-2.34l.3-.36a7.82,7.82,0,0,0,1.14-1.32c.54-.24.78-.78,1.26-1.14.24-.18.72-.42.9-.6a1.64,1.64,0,0,1,.78-.54c.3-.12.54-.3.84-.24s.3-.18.42-.18c.48-.24.66-.12,1.14-.12a7.33,7.33,0,0,1,2-.12c.06-.54-.06-1,0-1.44.06-.6.36-1.08.12-1.74C162.61,13.32,160.75,14.52,159.43,14.4Z"/><path class="cls-1" d="M203.59,16.26c0,.42.06.84.06,1.26,0,.72-.18,1.62-.24,2.58a6.47,6.47,0,0,1-.24,2.16,9.15,9.15,0,0,1,0,2.58c0,.3.12.6.12.9,0,.06-.12.18-.12.36s.12.24.06.42c0,.42-.24.72-.3,1.14a5.13,5.13,0,0,0,0,1l-.24,1a27.8,27.8,0,0,1-.42,3.12c-.06.12-.18.18-.24.36-.12.42-.18,1-.3,1.44l-.42,1.38c-.18.42-.36,1.44-.54,2.1a6.73,6.73,0,0,1-.3.78,7.57,7.57,0,0,1-.42,1l-.3.48c0,.18-.18.12-.18.18s-.06.18-.12.3-.12.06-.18.18a15.09,15.09,0,0,0-.9,1.44l-.18.18a1.31,1.31,0,0,0-.3.48,7.11,7.11,0,0,1-1.32,1.38c-.24.24-.6.42-.9.66-.06.06,0,.24-.06.3s-.24.06-.3.12c-.3.24-.54.6-.84.72a2,2,0,0,1-1.32.3c-.66.72-1.92.84-3.06,1.08a1.28,1.28,0,0,1-.66-.6c-.36.06-.48.36-.84.36s-.6-.18-.9-.18a3,3,0,0,1-1.8,0,3.15,3.15,0,0,1-1.08-.12c-.18,0-.3-.12-.48-.18a2.77,2.77,0,0,0-1.56-.24c-.24-.36-.78-.36-1.14-.6-.12-.06-.24-.3-.36-.36s-.48-.18-.42-.42c-.18,0-.3-.18-.48-.3s-.42-.06-.24-.42a1.25,1.25,0,0,1-.78-.18c-.24-.12-.24-.48-.66-.42-.12-.3-.48-.3-.48-.66-.42,0-.54-.36-.84-.42-.3-.66-1-1-1.56-1.5a3.48,3.48,0,0,1-.72-.6,5.66,5.66,0,0,1-.66-1.08l-.42-.36c-.12-.18-.12-.36-.24-.48s-.36-.18-.48-.36l-.12-.24a2.23,2.23,0,0,1-.54-1.2,2.35,2.35,0,0,1-.48-.6c.18-.36-.18-.6-.24-1-.18-.66-.12-1.44-.24-2a3.59,3.59,0,0,0-.48-1c-.06-.3.18-.3.12-.6s-.3-.3-.42-.48a1.83,1.83,0,0,0-.3-1.38c.36-.84-.42-1.62-.18-2.4a2.13,2.13,0,0,0,.06-.9,3.1,3.1,0,0,1,.12-1.26c.06-.24-.24-.54-.3-.84s.24-1.14.24-1.68c0-.3-.12-.54-.06-.78s.24-.42.3-.66c-.18-.9,0-1.56-.18-2.4-.06-.36.36-.18.42-.36.06-.36-.18-.42-.18-.72a5.93,5.93,0,0,0,.54-1.44,3.92,3.92,0,0,1,0-.84c0-.24.18-.36.18-.6s-.06-.48.06-.84a1.19,1.19,0,0,1,.36-.78,2.5,2.5,0,0,1-.06-1.86c.42-.24,1-.18,1.38-.42.12.18.66,0,.66.3.12-.3.42-.06.6-.12s.48-.18.78-.18c.78,0,1.62.06,2.34,0a1.21,1.21,0,0,1,.24.48,2.62,2.62,0,0,1,.36,1.44,31.74,31.74,0,0,1,0,4.14c0,.3.12.6.12.9a11.65,11.65,0,0,0-.12,1.44,4.13,4.13,0,0,0-.12.78,3.23,3.23,0,0,0,.18.6c.06.54.06,1.44.06,1.74-.12.66.18,1.26-.06,1.8.6.9.42,2.16.48,3.42a12.1,12.1,0,0,1,.3,1.68c0,.12-.12.3-.12.48s.18.42.18.66a8.76,8.76,0,0,0,.06,2.52,6.25,6.25,0,0,0,.36,1,5.47,5.47,0,0,0,.36,1,2.07,2.07,0,0,0,.48.54,1.66,1.66,0,0,0,.36.48c.24.3.48.72,1,.78,0,.3.18.48.24.72a8.55,8.55,0,0,1,1,.18c.18.3.54.42.66.72a1.3,1.3,0,0,1,1,.36c.48-.18.9.24,1.56.24.24,0,.72-.18,1-.18a.87.87,0,0,0,.6.06,16.61,16.61,0,0,0,2.46-.72c.12-.12.06-.24.18-.3s.36-.12.48-.3.06-.18.12-.3c.3-.36.66-.72,1-1.14a2.12,2.12,0,0,0,.54-.66,3.43,3.43,0,0,1,.66-1,4.06,4.06,0,0,1,.72-1.8c0-.48,0-.9.3-1.08-.12-.3.12-.48.06-1,.06-.24.3-.36.42-.66s-.06-.54.18-.66a5.75,5.75,0,0,1,.06-3.18c.06-.36.3-.66.3-1s-.12-.42-.06-.6.18-.48.24-.78-.12-.66-.12-1.08c0-.24.12-.54.12-.84a8.28,8.28,0,0,0-.18-1.2c0-.3.12-.6.12-1a9.29,9.29,0,0,0-.06-1.26c0-.3.12-.6.12-1s-.06-.54-.06-.78.3-.72.12-1.14c0,0-.3-.18-.3-.3s.18-.24.12-.36a2.16,2.16,0,0,1-.3-.54c0-.06-.06-.36-.06-.36,0-.18.12-.18.12-.36a3.16,3.16,0,0,1-.18-.72c-.06-.06.06-.12.06-.3s-.12-.12-.06-.24.12-.24.18-.42,0-.24.12-.36c.54-.6,2.16-.24,3.42-.42a1.91,1.91,0,0,1,.54-.18c.3-.06.54.06.78,0,.48-.06,1-.42,1.56.06a1.38,1.38,0,0,1,1.92.12c.24.3.18.48.3,1a2.75,2.75,0,0,1,.06,1,11.8,11.8,0,0,0,.18,1.44C203.83,15.24,203.59,15.78,203.59,16.26ZM201.13,13a34.43,34.43,0,0,0-4.14.6c-.18.66.24,1.32.3,2,.12,1,0,2.58.06,3.54,0,.24-.12.48-.12.66a2.53,2.53,0,0,0,.18.72c0,.36-.06.72-.06,1.14a11.09,11.09,0,0,1,.06,1.38,8.5,8.5,0,0,1-.42,1.32c0,.18.12.42.12.6s-.12.3-.3.6c.42.54.06,1.38.06,2.22a23.08,23.08,0,0,1-.3,3c-.06.24-.3.42-.42.66s.12.18.12.3a1.44,1.44,0,0,1-.42.72c.3.66-.3,1-.24,1.68-.54.84-1.14,1.86-1.8,2.82a3.88,3.88,0,0,1-.6.9c-.18.12-.18.42-.3.54s-.42.36-.6.6l-.18.36c-.12.12-.12.18-.3.3s-.72.18-1.08.36-.6.42-1,.48-.3-.3-.6-.3c-.06.3-.12.66-.48.66-1.2.24-3.48.66-4.44-.24a2.06,2.06,0,0,1-1.38-.18A12.52,12.52,0,0,1,181,39.3c-.18-.18-.24-.42-.42-.54a1.37,1.37,0,0,1-.84-.36c-.18-.12-.3-.18-.36-.3a5.59,5.59,0,0,0-.6-.6,9.56,9.56,0,0,1-.78-.78,22.22,22.22,0,0,1-1.08-2.4c-.12-.42.06-.78,0-1.2a1.76,1.76,0,0,0-.18-.6c.18-.36.06-.48.06-.48v-.72c0-.24-.18-.36-.18-.48s.12-.36.12-.54a1.91,1.91,0,0,1-.18-.54,2.89,2.89,0,0,1,0-.72c-.12-1.14-.24-2-.3-2.94a6.53,6.53,0,0,0-.3-1.56c.18-.12.06-.42.24-.54a6.73,6.73,0,0,1-.3-.78,4.5,4.5,0,0,0,0-.9c0-.3-.06-.6-.06-.9s.18-.42.24-.66c0-.42-.3-.9-.3-1.32,0-.24.12-.54.12-.78a4.54,4.54,0,0,1,.06-.9,1.91,1.91,0,0,1,.18-.54,6,6,0,0,0-.06-1.5c0-.18.12-.24.12-.36s-.12-.36-.12-.48A10,10,0,0,0,176,13a4.87,4.87,0,0,0-1.74.24,25.29,25.29,0,0,0-.9,4.44c-.36.42-.42,1.08-.72,1.56-.06.36.18.36.18.66-.18.18-.06.66-.18.9.3.6,0,1.14-.06,1.62,0,.12.12.18.06.42,0,.6-.24,1.38-.3,2.1.12.24.12.54.24.78-.3.48-.12,1.44-.12,2,0,.24-.12.48-.12.78,0,.12.12.24.18.36.3.78.18,1.74.42,2.46a3.1,3.1,0,0,1,.36.78,7.5,7.5,0,0,1,.18,1.14c.12.36.36.72.48,1.08A5,5,0,0,1,174,36c.18.36.72.3.54.9.36.06.48.42.66.6a2.91,2.91,0,0,1,1.14,1.86,6.84,6.84,0,0,1,1.62,1c.54.42.66.78,1.08,1a7.31,7.31,0,0,0,2.46,1.74,4.74,4.74,0,0,0,2.64,1.62c.06,0,.12-.18.24-.12a.81.81,0,0,0,.54.3,18.45,18.45,0,0,0,3.9.3c.12,0,.24.06.48.06s.3-.06.48-.06a4.66,4.66,0,0,0,1.74-.18l1.08-.36c.36-.12.54-.18.66-.36s.42-.12.48-.24.06-.24.12-.3.36-.24.48-.42a6.11,6.11,0,0,0,1.08-1.08c.24-.3.54-.48.6-.72s.06-.36.24-.48.36-.18.48-.36a3.59,3.59,0,0,1,.48-1,1.55,1.55,0,0,0,.42-.66l.18-.3a8,8,0,0,0,.66-1.44c.18-.48.24-.84.42-1.44a1.91,1.91,0,0,1,.18-.54,7.6,7.6,0,0,0,.36-1.68c.18,0,.12-.36.18-.48a.54.54,0,0,0,.18-.54c.06-.18.18-.24.24-.42s-.12-.54-.12-.84l.24-.66c.06-.36-.06-.72,0-1a.65.65,0,0,1,.24-.3c.06-.24-.06-.42,0-.6s.24-.48.3-.78a1.31,1.31,0,0,0,0-.84,1.86,1.86,0,0,1,.12-.42c0-.66,0-1.68.06-2.58,0-.24.18-.42.18-.66s-.06-.24-.06-.42c0,0,.18-.24.12-.36-.18-.36-.3-.3-.3-.6,0-.48.3-1.32.36-2,0-.12-.12-.18-.12-.3s.12-.18.12-.36v-.9c.06-.48.3-1.08.12-1.5C201,16,201.55,14.34,201.13,13Z"/><path class="cls-1" d="M263.89,46.62a16.5,16.5,0,0,0-1.87.84,3.82,3.82,0,0,0-1.55,1.2c-.49.06-.67.24-1,.18s-.37-.18-.49-.42l-.24-.18-.23-.42a1.61,1.61,0,0,0-.79-.54,4.14,4.14,0,0,0-.48-1.08c0-.12-.11-.18-.18-.24s-.12-.6-.47-.66a1.06,1.06,0,0,0-.19-.72,5.09,5.09,0,0,0-1.31-1.26c.17-.3-.12-.54-.24-.78l-.37-.66a1.7,1.7,0,0,1-.3-.3c-.17-.3-.29-.72-.66-.9-.05-.24-.17-.36-.05-.66-.12-.24-.42-.18-.6-.36a3.77,3.77,0,0,0-.85-1.14c-.11-.12-.3-.48-.47-.72a5.82,5.82,0,0,1-.66-.66,5.5,5.5,0,0,0-.3-.72c-.42-.6-1.08-.9-1.56-1.56a5.66,5.66,0,0,0-.6-.6,1.81,1.81,0,0,1-.48-.48c0-.06,0-.24-.06-.3a2,2,0,0,1-.67-1c-.17-.36-.54-.48-.65-.9-1.32-.06-1.92-1.5-2.94-2.1-.18-.12-.36-.18-.3-.48-.24,0-.42-.06-.48-.24-.36.18-.18.6-.24.78a6.49,6.49,0,0,0,0,1.08c.06.48.3,1,.36,1.62s-.06,1.26-.06,1.86l.18,1.2a5.12,5.12,0,0,0,0,1c0,.66.18,1.38.12,2,0,.84-.12,1.44-.06,2.4.06.66.36,1.08.36,1.56v.78c-.06.54-.24,1.08.24,1.44-.3.6.18.9.06,1.62-.3.18-.48.48-.9.48s-.36-.18-.54-.18c-.6-.12-1.26,0-1.62-.36a4,4,0,0,1-.9.36c-.9.18-2.28-.12-3.18.06-.24.06-.78.06-1.2.18a4.18,4.18,0,0,1-.66-1.38c0-.42.18-1.08.18-1.62a7.23,7.23,0,0,1-.06-2c-.06-.18.12-1.68.12-2.22s-.12-.9.12-1.32c-.18-.3,0-.6-.06-1-.06-.84-.3-2.16-.3-3.06-.06-.36-.3-.48-.36-.78a32,32,0,0,0-.12-3.42c0-1,.12-1.92.06-3a7.5,7.5,0,0,1-.18-1.14,4.51,4.51,0,0,0,0-.9,4.2,4.2,0,0,0-.18-.84c0-.24.12-.54.12-.78,0-.78-.24-1.44-.24-2.46,0-.18.12-.42.12-.66s-.18-.3-.18-.48c0-.48.24-1,.24-1.56A7.06,7.06,0,0,1,234,16.8c-.24-.36.3-1.26.06-1.74.18-.06.18-.3.3-.48-.06-1.14-.06-1.8-.06-3,0-.18.12-.3.12-.48s-.18-.36-.18-.6c-.06-.6.12-1.2.06-1.8a3.16,3.16,0,0,1-.18-.72,1.85,1.85,0,0,1,.12-.48c0-.18-.12-.3-.12-.48a6.28,6.28,0,0,0,.24-1c-.06-.48-.36-.6-.48-1A4.71,4.71,0,0,0,234,3.66a2.4,2.4,0,0,1,.42-1c.72,0,1.56.12,2.52.12.18,0,.3.06.48.06s.3,0,.36,0a8.13,8.13,0,0,0,1.2-.12,2.28,2.28,0,0,0,.78.06c.18,0,.12-.12.24-.12.36,0,.66.12,1,.12s.6-.12.84.06.24.18.36.48a.51.51,0,0,1,.18.3c.06.3-.18.72-.18,1-.06.6.18,1.2.12,1.86,0,.42-.18.78-.18,1.26-.06.72.06,1.62-.06,2.58l-.24.9-.12.84c-.06.36-.36.72-.42,1.08,0,.6.54,1.2,0,1.74a2.93,2.93,0,0,1,.18.42c0,.12-.12.42-.12.48a6.73,6.73,0,0,0,.3.78,3.27,3.27,0,0,0-.06,1.32.9.9,0,0,0,.72-.66c.3-.06.36-.42.6-.66s.36-.24.54-.36.12-.24.24-.3l.3-.18c.06-.06,0-.18.06-.3l.54-.48c.06-.06,0-.18.06-.3a.37.37,0,0,0,.24-.06c.06-.06,0-.24.06-.3a.36.36,0,0,1,.24-.06c.06-.12,0-.24.06-.3l.24-.12c.06-.06,0-.18.06-.3.72-.72,1.73-1.62,2.58-2.34.11-.06.11-.06.18-.18a.78.78,0,0,1,.42-.3c0-.06.18-.42.47-.36l.54-.78c.31,0,.25-.3.67-.18A7.74,7.74,0,0,1,251.47,8c.12-.24.29-.18.42-.24s.36-.48.59-.78c.07-.12,0-.18.07-.3s.17-.06.24-.06c.12-.18.12-.36.3-.48a5.57,5.57,0,0,0,.66-.78l.3-.36c.24-.3.59-.48.59-.9.25.06.72-.48,1.21-.54.29-.06.83.12,1.43.12,1.08.06,2.28-.06,3.61.12a1.24,1.24,0,0,1,.47,0,1.81,1.81,0,0,1,.54.18c.42.12.9.12,1.38.24a2.33,2.33,0,0,0,.54.12c.3,0,.54-.12.72-.12l.24.24a1.2,1.2,0,0,1,.72.6c.12.54-.48,1-.65,1.44-.37.06-.61.42-.85.66a9.28,9.28,0,0,0-.84.66A6.08,6.08,0,0,1,261.43,9a7.53,7.53,0,0,1-.91,1c-.3.24-.47.66-1,.72a1.76,1.76,0,0,0-.3.66,9.39,9.39,0,0,0-1.37,1.38A6.93,6.93,0,0,0,256.56,14c-.59.12-.66.78-1.26.9a4.55,4.55,0,0,1-1.08,1.14,4.83,4.83,0,0,0-1.13,1.08c-.3-.06-.3.24-.66.18-.18.24-.25.6-.42.84-.37.06-.49.36-.66.54a1.4,1.4,0,0,0-.6.72,9.68,9.68,0,0,0-2.46,2c-.3.3-.66.48-.72.78,0,.48.84,1.14,1.26,1.56l1.2,1.5c.3.3.53.66,1,.78.06.48.48.66.72,1l.47.72a10.74,10.74,0,0,1,.67,1,4,4,0,0,1,1.32,1.8c.3.06.47.3.77.48a1.29,1.29,0,0,1,.49.48,6.52,6.52,0,0,0,.66.78c.05.12.05.3.17.42a2.29,2.29,0,0,1,.54.9,1.12,1.12,0,0,1,.67.48c.17.24.59.48.83.78s.13.6.48.6c.24.84,1,1.2,1.27,2a3.51,3.51,0,0,1,.65.36c.06.24.24.3.19.6.35.06.41.36.54.6.29,0,.42.36.59.48l.49.54a.84.84,0,0,0,.17.36,1.81,1.81,0,0,0,.48.48c.36.54.78,1,1.08,1.38a6.08,6.08,0,0,0,.84,1.2,4.37,4.37,0,0,0,1,.24c-.06.42.36.3.54.48.48.42.36.84.06,1.62C265.92,46.44,264.78,46.32,263.89,46.62Zm-1.81-3.06c-.06-.12-.06-.36-.18-.48-.3-.48-.89-.84-1-1.5a2.55,2.55,0,0,1-.84-.78c-.12-.06-.37-.12-.37-.18a4,4,0,0,0-.78-.9c0-.3-.18-.42-.3-.66a9.68,9.68,0,0,1-1.55-1.68.65.65,0,0,1-.12-.48,15.13,15.13,0,0,1-1.14-1.2,4.6,4.6,0,0,1-.66-.54,1.34,1.34,0,0,1-.3-.48,1.68,1.68,0,0,1-.36-.66c-.07-.18-.49-.12-.49-.42s-.3-.6-.42-.78-.05-.24-.12-.3a2.76,2.76,0,0,1-.53-.36l-.48-.6c0-.3-.13-.36-.13-.6-.24-.24-.47.12-.78-.12.12-.36-.23-.3-.35-.36l-.18-.54c-.24-.18-.24-.3-.31-.36a7.46,7.46,0,0,0-.65-.78c-.12-1.08-1-1.56-1.68-2.1-.13-.06-.18-.18-.3-.3a3.83,3.83,0,0,1-1-1c-.06-.36-.24-.54-.31-.9-.23.12-.17-.12-.23-.18a2,2,0,0,0-.73-.3,2.1,2.1,0,0,0-.59-1,2.94,2.94,0,0,1-.6-1.14,16.48,16.48,0,0,1,1.32-1.56,3.58,3.58,0,0,0,.66-.36.59.59,0,0,1,.24-.3c.3-.3.6-.48.84-.72a2.58,2.58,0,0,0,.59-.6A4.61,4.61,0,0,1,249,18a3,3,0,0,1,1.08-.9,3.69,3.69,0,0,1,1.62-1.56c.12-.18.18-.48.3-.66,1-.24,1.13-1.38,2.16-1.56.05-.36.23-.48.42-.72a.44.44,0,0,0,.3-.18c.12-.12.05-.24.17-.36s.3-.3.61-.3c0-.36.35-.42.59-.66a14.67,14.67,0,0,1,2-1.86c.42-1.08,1.44-1.5,2.1-2.28.36-.3,1-.24,1.08-.84-.18-.36-.54-.18-1-.24a4.93,4.93,0,0,0-1.38-.12c-.66.06-1.79-.06-2.51.06s-1,.66-1.45.42c-.24.24.07.36,0,.66-.59.54-1,1.26-1.79,1.56-.18.24-.18.78-.6.9a1.86,1.86,0,0,1-1.57,1.44c-.12.3,0,.48-.23.78a10.87,10.87,0,0,1-1.92,1.32c-.12.36-.48.42-.72.66A4.8,4.8,0,0,1,246,15.9a2.13,2.13,0,0,1-.19,1c-.83.48-1.13,1.5-2.09,1.8,0,.54-.54.6-.6,1.08a9,9,0,0,0-1.44,1.2c-.24.72-.6,1.38-1.32,1.32-.42,0-1-.6-1.14-1.14,0-.24.12-.54.12-.78,0-.54-.06-1.08-.06-1.68,0-.3.12-.66.12-1s-.18-.48-.18-.78c0-.78.24-1.62.24-2.4a10.62,10.62,0,0,0-.06-1.38,4.42,4.42,0,0,1,.24-.84c-.12-.36,0-.48,0-.48.12-1.32.54-2.82.18-3.78.3-.6.06-1.5.24-1.86s0-.42,0-.78c0-.12.18-.24,0-.36a7.84,7.84,0,0,0-3.54,0c-.3.84.06,1.92-.12,2.94,0,.24-.18.42-.18.66.36.48.12,1,.36,1.56a1.52,1.52,0,0,0-.3.78c.36.54.18,1.08.12,1.74a8.05,8.05,0,0,1,.06,1.26,6.06,6.06,0,0,1-.18,1,4.5,4.5,0,0,0,0,.9,6.34,6.34,0,0,0-.18,1.74c.06.24,0,.24,0,.36.06.84.18,1.44-.3,1.86a4.79,4.79,0,0,1,.48,2.22c.06.42-.06.84,0,1.26a5.71,5.71,0,0,1,.24,1.08,8.73,8.73,0,0,0,0,1.26c0,.18.18.42.18.6a8.45,8.45,0,0,1,.06,1.26c0,.84-.3,1.68-.24,2.52,0,.3.18.54.18.84a5,5,0,0,1-.24.9c.36.24.24.78.36,1l.24.12c.18.42-.18,1-.12,1.38s.3.84.36,1.26,0,1,.06,1.44c0,.18-.06.36-.06.6a1.15,1.15,0,0,1,.18.48c.06.18,0,.42.12.6a3.39,3.39,0,0,0-.36,1.44,4.41,4.41,0,0,0,0,1.26c.18.9,0,2.1.54,2.7,1.2-.12,2.34.36,3.3,0a6.34,6.34,0,0,0,.12-1.86c-.66-.6-.24-1.32-.24-2.22,0-.24-.18-.48-.18-.72s.12-.3.12-.48c0-.72-.24-1.26.12-1.74-.12-.42-.24-.72-.06-1a4,4,0,0,1-.18-2.76c-.3-.48-.06-1.32-.12-2,0-.18-.18-.24-.18-.36s.18-.24.12-.48c-.66-.78.06-2-.06-3.12a1.59,1.59,0,0,0,.3-1.26c.3-.06.36-.3.54-.42s.24-.36.6-.42c.54-.06,1,.3,1.44.54.12.84,1,1,1.2,1.74a2.37,2.37,0,0,1,1.32,1.2c.3.06.41.3.78.3.18.42.59.54.72,1,.6.18.9.66,1.44.9.18.78,1,1,1.14,1.86.48,0,.71.48,1,.72l.36.18c0,.18.18.24.18.3a3.9,3.9,0,0,1,.83.9,4.65,4.65,0,0,1,.67,1l.29.48.54.9a.6.6,0,0,1,.18.36,22.85,22.85,0,0,1,2,2.22l.24.54a17.86,17.86,0,0,0,1.21,1.92l.42.48a4.49,4.49,0,0,1,.54.78,2,2,0,0,1,.29.66,1.83,1.83,0,0,1,.72,1.08c.36.3.36.66.66.72a10.9,10.9,0,0,0,1.2-.66c.13-.06.3-.06.36-.12a3.57,3.57,0,0,0,1.2-.54C262.93,44.1,262.26,43.8,262.08,43.56Z"/><path class="cls-1" d="M303.24,28.26c-.06.36.24,1-.06,1.26.48.42.18,1,.06,1.62-.06.36.06.78,0,1s-.24.36-.3.54-.12.48-.3.48a2.7,2.7,0,0,1-.24,1.38l-.12.48c0,.12-.18.24-.18.36s.06.42,0,.6-.24.36-.3.54l-.72,1.86a8.67,8.67,0,0,1-1.14,2.1,3.39,3.39,0,0,1,0,.78,4.76,4.76,0,0,0-1,1.14,3.53,3.53,0,0,1-.6,1c-.3.36-.72.54-1.08.9-.42,0-.36.12-.66,0a4.23,4.23,0,0,1-2,1.14,1.31,1.31,0,0,0-.3.18c-.18,0-.36-.06-.48,0a5.93,5.93,0,0,1-1.56.42c-.18,0-.42-.12-.6-.12s-.54.24-.9.3c-.6.12-1.32.06-2,.12-.12,0-.18.12-.24.12s-.12-.12-.24-.12-.24.18-.36.18h-.42c-.18,0-.42-.06-.54,0a4.33,4.33,0,0,1-1.68.24c-.18-.06-.12.18-.3.18-1,.06-2.46.24-3.24-.36a1.17,1.17,0,0,1-.78.06c-.18,0-.24-.12-.42-.18h-.36a6.21,6.21,0,0,1-2.34-.9,1.63,1.63,0,0,0-.54-.06c-.54-.3-.84-.72-1.61-.78,0-.3-.24-.3-.19-.6-.3.18-.42-.18-.6-.3l-.59-.3a2.46,2.46,0,0,0-.43-.42c-.18-.12-.48-.18-.6-.3a2.91,2.91,0,0,1-.47-.6c-.12-.12-.49-.24-.36-.54l-.84-.72c-.07-.3-.25-.42-.18-.78-.19-.18-.31-.18-.48-.42l-.13-.24c-.24-.06-.12-.18-.17-.24l-.49-.66c-.12-.24-.17-.54-.35-1.08-.07-.18,0-.24-.07-.42a1.38,1.38,0,0,1-.17-1c-.12-.24-.42-.36-.49-.6-.11-.6-.05-1.14-.18-1.68-.05-.36-.41-.66-.24-1.08-.23-.24-.3-.66-.54-.84.12-.48-.17-1-.17-1.56a5.32,5.32,0,0,1,.12-.9v-1a5.71,5.71,0,0,1,.36-1.26c.06-.42,0-.84.3-1-.3-1,.35-1.8.35-2.82.19-.12.19-.54.37-.66,0-.84.41-1.26.54-1.92.41-.18.54-.6.78-1,.12-.12.23-.12.3-.18s.17-.66.59-.6c.12-.3,0-.18,0-.54.49-.18.66-.66,1.15-1l.47-.18.37-.3a6.87,6.87,0,0,0,.54-.54,5.86,5.86,0,0,1,1-.66,4.64,4.64,0,0,1,1-.78c.11-.06.3-.3.47-.36a1.38,1.38,0,0,1,.49-.06c.23-.12.71-.54,1.07-.3a3.52,3.52,0,0,1,2.52-.72c.3.06.3-.24.48-.24a11.63,11.63,0,0,1,2.16-.18c.3,0,.6.12.84.12a5.79,5.79,0,0,0,1.08-.18c.24,0,.42-.06.6-.06a3.86,3.86,0,0,1,1.44,0c.18.06.42.24.6.24s.48-.12.66-.12l.66.24a2.29,2.29,0,0,0,.6.18c.24.06.54,0,.78.06a3,3,0,0,1,1,.3c.3.06.66.24,1,.3,1.08.18,2-.06,3,.36.18.06.42.3.66.42.06,0,.24-.06.3,0s.24.3.36.36.48.12.36.42a7.83,7.83,0,0,1,2.34,1.5,1.88,1.88,0,0,0,.36,1l.84.9c.12.12.06.36.18.66a9.82,9.82,0,0,0,.72,1.32c0,.6.06.48.3,1s.36,1.14.9,1.38c-.06.42.3.84.36,1.26a15.17,15.17,0,0,1,.06,1.62c0,.18-.12.36-.06.48,0,.3.12.6.12.9S303.24,28.08,303.24,28.26Zm-1.8-2.94c-.42-.3-.42-1-.54-1.68-.42-.36-.48-1.08-.66-1.74-.18-.3-.6-.42-.42-1.08-.36,0-.24-.36-.48-.36a9.32,9.32,0,0,0-1.26-1.38,2.81,2.81,0,0,0-1.2-1.5c-.66-.54-1.38-.54-1.74-1.14a5.55,5.55,0,0,0-1.74-.12,6.73,6.73,0,0,0-.78.3,3.88,3.88,0,0,0-.78.24c0-.54-.48-.66-.42-1.26a21.2,21.2,0,0,0-2.52-.36,15.55,15.55,0,0,0-2.82-.3c-.36,0-.6.18-1,.12s-.24-.18-.48-.18-.24.18-.3.18-.24-.12-.48-.12-.78.18-1.08.18-.42-.12-.54-.12-.24.18-.3.18h-.3a7.39,7.39,0,0,0-1.25.3,1.83,1.83,0,0,1-1.09.18,3.39,3.39,0,0,1-2,.78c-.12.3-.47.48-.6.6-.71.42-1.13,1-1.86,1.08a.7.7,0,0,1-.65.6c0,.42-.43.42-.73.54-.35.6-.77,1.08-1.08,1.74-.11.24-.47.24-.6.48.25.36-.36.72-.47,1l-.12,1.2c-.07.18-.24.24-.31.36s0,.48-.11.66a10.59,10.59,0,0,0-.31,1.2.64.64,0,0,1-.05.48,5,5,0,0,1-.3,1.2A3.67,3.67,0,0,0,270,29c0,.36-.12.84-.12,1.14,0,.12.17.3.17.48a3.45,3.45,0,0,0,0,.72,13.64,13.64,0,0,0,.54,1.26c.12.48.07,1,.19,1.56,0,.12.11.24.18.36.17.48.29,1,.42,1.5a9.13,9.13,0,0,0,.66,1.86c.54,1.2,1.43,2.1,2,3.12a1.78,1.78,0,0,1,1.2,1.08c.67.12,1.14.66,1.8,1,.12.06.24,0,.3,0s.19.18.19.18c.17.12.42.12.59.24s.25.24.37.3a3,3,0,0,1,.71.12c.36.18.6.6,1,.66a11.09,11.09,0,0,0,1.38.06c.24.06.42.24.66.3a4.66,4.66,0,0,0,1,.12c.24,0,.42-.18.66-.18s.54.12.78.12a2.29,2.29,0,0,1,.6-.18,4.85,4.85,0,0,1,1-.06c.36-.06.78-.12.9-.12a.42.42,0,0,0,.24.12c.3-.06.54-.24.78-.3s.54.06.78.06c.78-.48,2-.24,2.94-.42l.6-.3c.12-.06.3.06.48,0s.12-.12.3-.18l.78-.18c.24-.06.48-.24.78-.18.24-.3.72-.42,1.08-.66a3.33,3.33,0,0,1,.48-.36,7,7,0,0,1,.66-.3,8.35,8.35,0,0,0,1.44-2.82,3.62,3.62,0,0,0,.48-.48,2.55,2.55,0,0,1,.72-1.62,6.66,6.66,0,0,1,.84-2.4c.18-.18.06-.6.12-.9s.36-.06.3-.36a26.42,26.42,0,0,1,.6-2.82C301.74,28.74,301.14,26.94,301.44,25.32Zm-3.24,3.12c-.06.18,0,.18,0,.3s-.12,1.32-.18,1.32c.18.18-.54,1.8-.6,2.22-.18,1.08.06,2.16-.66,3a4.51,4.51,0,0,1-.6,2c-.12.12-.12.18-.24.24l-.3.48-.48.78c-.12.18-.42.42-.6.66-.3.48-.84,1-1.26,1.56a3.15,3.15,0,0,0-1.08.6l-.72.48a6.28,6.28,0,0,1-.66.48,2,2,0,0,1-.72.36,3.15,3.15,0,0,1-1.26.36c-.42.06-.9-.18-1.32.06a2.87,2.87,0,0,0-1.74-.18c-.54-.18-.78-.42-1.38-.18-1.2-.78-2.7-.9-4-1.62-.37-.06-.37-.42-.61-.6a1.85,1.85,0,0,1-1.31-1.2,6.23,6.23,0,0,1-2-2c-.13-.3,0-.3-.13-.66s-.48-.42-.66-.72c.12-.24-.12-.3-.17-.54s0-.54-.07-.72l-.3-.48a.52.52,0,0,1-.05-.3c-.07,0-.19-.06-.25-.06-.06-.18,0-.42-.06-.6s-.18-.12-.18-.18c-.12-.36-.05-.9-.35-1.2.3-.6-.31-1-.07-1.56.07-.3-.24-.24-.29-.48.12-.24.17-.66-.07-.78.36-.36-.11-1.08.31-1.62.05-.3-.24-.36-.19-.66.24-.06,0-.54.31-.48-.24-.36.05-.66.11-1a1.39,1.39,0,0,0,0-.54,4.84,4.84,0,0,1,.36-.72,2.83,2.83,0,0,0,.37-1.2c.3-.06.3-.3.42-.42l.17-.24a2.62,2.62,0,0,1,.42-.48c.12-.06.12-.06.18-.18s.31-.06.24-.36c.49-.12.72-.54,1.08-.84a7.53,7.53,0,0,0,.91-1c.89-.48,1.43-1.32,2.69-1.5.3-.06.48-.42.73-.54s.35-.06.53-.12c.36-.06.9-.48,1.32-.54a3.35,3.35,0,0,0,.78,0c.24,0,.48-.06.66-.06s.42.24.66.24c.66-.06,1.38-.6,2.22-.48s1.08.78,1.92.72a2.37,2.37,0,0,0,.9.6,2.42,2.42,0,0,1,2-.06,1,1,0,0,0,.36.3c.36.18.78.18,1.08.36s.78.54.84.84c.54.06.54.6,1,.72.12.42.48.66.66,1,.06.12,0,.24.12.36l.18.18c.06.12,0,.18.06.3a5.86,5.86,0,0,1,.48,1.38.47.47,0,0,0,0,.3,8.55,8.55,0,0,0,.18,1,3.58,3.58,0,0,0,.36.66A9.09,9.09,0,0,1,298.2,28.44Zm-1.92-1.56a2.88,2.88,0,0,0,0-.72c-.12-.78-.54-1.44-.72-2.34a7.11,7.11,0,0,0-.12-1.56c-.3-.12-.24-.48-.42-.66s-.6-.42-.66-.78a6.84,6.84,0,0,1-1.14-.6,5.52,5.52,0,0,1-1.14-.12c-.36-.12-.54-.36-.84-.42-.6-.06-.66.3-1.32.18-.42-.18-.54-.66-.9-.9a1.73,1.73,0,0,0-.78-.06c-.24-.06-.24-.36-.6-.3a3.55,3.55,0,0,1-2.4.24,1.75,1.75,0,0,0-.72.42c0-.24-.48-.06-.66-.12-.66.42-1.62.78-2.22,1.08-.18.06-.29,0-.42.12s-.42.48-.6.66a6.79,6.79,0,0,1-.65.66,2.51,2.51,0,0,1-.43.18c-.72.36-1.07,1.08-1.74,1.38-.06.6-.6.9-.83,1.44s-.25,1.08-.42,1.44l-.19.48c-.3.9,0,1.86-.47,2.64.24.12.12.48.17.78s.37.78.18,1.26c-.06.12-.23.06-.18.3.18.06.18.3.24.48a1.09,1.09,0,0,1,.3.48c.06.06-.05.18,0,.3s.42.48.25.84c.35.12.29.6.59.72-.18.42.42.84.24,1.56l.3.18c.07.12,0,.24.07.42s.42.36.42.66c.42.12.65.6,1,.9.18.18.37.24.54.42a9,9,0,0,1,.78.66c.06.06.13.18.18.18.24.12.54.12.78.24s.42.36.6.42c.6.24,1.38.12,1.92.72.66,0,1,.3,1.8.24.3,0,.42.3.78.3a4.74,4.74,0,0,1,.78-.18,5.94,5.94,0,0,1,1.08.12,5,5,0,0,0,1.26-.54,1.64,1.64,0,0,1,1.08-.48c.06-.36.42-.54.66-.78a3.3,3.3,0,0,0,.9-1,7.62,7.62,0,0,1,.6-.72,16.64,16.64,0,0,0,1.32-2.22,6,6,0,0,0,.6-1.26c.06-.12,0-.3,0-.48s.3-.42.12-.54a3.57,3.57,0,0,0,.24-1.44c.42-.42.3-1,.42-1.68.06-.36.3-.66.3-1a13.08,13.08,0,0,0,.12-2C296.4,27,296.28,27,296.28,26.88Z"/><path class="cls-1" d="M360.3,44.7l-.3.48c-.3.24-.48.18-.9.3-.18.06-.48,0-.78.06a5.62,5.62,0,0,1-1,.24l-1.2.12c-.66.06-1.32.24-2,.24a3.07,3.07,0,0,1-1.74.24c-.18-.3-.48-.48-.66-.78a2.87,2.87,0,0,1,.54-1.62l-.12-.54c0-.12.06-.12.06-.24s.12-.12.06-.24a3.13,3.13,0,0,1,.06-1.26c0-.12.18-.3.18-.48a33.38,33.38,0,0,0,.06-3.48,4.76,4.76,0,0,0,.24-.54c0-.24-.12-.48-.12-.72s.3-.6.36-.84-.3-.72.12-1a3.85,3.85,0,0,1-.18-2c0-.24-.06-.48-.06-.66,0-1,.24-2.1.18-3.12-.06-.42-.3-.9-.36-1.38a2.42,2.42,0,0,1,0-.66,2.71,2.71,0,0,1-.18-.66c-.06-.42.06-.84,0-1.26s-.18-.66-.18-1,.18-.66.12-1a3,3,0,0,0-.18-.78,2.71,2.71,0,0,0-.06-.78c-.06-.24-.3-.42-.48-.72l-.36-.66-.66-1c-.12-.18-.24-.18-.48-.36,0-.06-.06-.18-.06-.24-.18-.06-.18.06-.42,0s-.12-.12-.24-.18a3.2,3.2,0,0,0-.78-.18,2.33,2.33,0,0,0-.9.12c-.3.06-.66.06-.84.12s-.18.12-.3.18-.3,0-.42.06a10.44,10.44,0,0,0-1.08.66l-1,.66c-.12.06-.12.24-.24.3s-.42.12-.54.3-.18.18-.3.36c-.06,0-.24.18-.3.3s-.12.36-.42.36a4,4,0,0,1-1.08,2c-.06.12-.24.18-.3.3a6.4,6.4,0,0,0-.42,1.14c0,.06-.18.18-.18.18s0,.3-.06.42-.18.12-.18.18.06.24,0,.3c-.12.24-.48.48-.6.78l-.12.72c-.06.24-.24.3-.3.48l-.12.72c0,.06-.12.06-.18.18s0,.24,0,.36-.24.36-.3.6l-.12.66c0,.06-.18.18-.18.18-.12.3,0,.72-.36.9.06.9-.6,1.62-.72,2.58a4.25,4.25,0,0,1,.06.84c0,.3-.06.66-.06.9l-.24.66-.12,1.38c0,.18-.12.36-.12.54s.12.18.12.3c-.06.54.24,1.08-.06,1.68.12.36.54,1.08.06,1.44a1.93,1.93,0,0,1,.48.78c.06.36,0,.84.06,1.26s.54.84.36,1.56c-.12.54-.66.6-1.08,1-.36-.24-.9-.18-1.38-.42-.06-.06-.12-.18-.24-.24a12.54,12.54,0,0,0-1.5.06,6.06,6.06,0,0,1-1,.18c-.3,0-.54-.18-.78-.18-.48-.06-.84.18-1.26-.06-.66-.66-.3-2.34.18-3-.18-.12-.12-.42-.3-.54.36-.24.36-1.2.3-1.68s.3-.78.36-1.26c0-.24-.12-.48-.12-.78l.24-4.32c0-.36.06-.9.12-1.44,0-.12-.12-.12-.12-.24s.18-.3.24-.42c0-.6-.3-1.14.12-1.68.06-.18-.18-.24-.18-.36s.06-.36,0-.48A3.78,3.78,0,0,1,331,28.5c0-.12.12-.18.12-.3a2.61,2.61,0,0,1-.24-.42c0-.12.06-.3.06-.48s-.24-.42-.3-.66.12-.24.12-.42a4.82,4.82,0,0,0-.36-1.8c-.24-.36-.12-.6-.18-.78-.12-.36-.3-.6-.48-1-.06-.18-.18-.24-.24-.54l-.36-.9a8.82,8.82,0,0,0-1.44-2,3.8,3.8,0,0,1-1.32-.54c-.24-.06-.42.06-.72.06s-.48-.12-.66-.06a2,2,0,0,0-.36.18,9.52,9.52,0,0,0-1.2.42c-.54.24-1.08.36-1.56.54-.72.36-1.26,1-2,1.26-.36.48-.54,1.26-1.2,1.5.13.3-.06.66-.18,1s-.18.3-.18.48l-.12.6c-.06,0-.18.12-.24.18s.06.18,0,.3c-.11.36-.24,1-.65,1.2A1.51,1.51,0,0,1,317,27.3a6,6,0,0,1-.59,2.58c-.31.78-.19,2.1-.79,3-.06.36.25.42.18.78s-.3.48-.3.84a5.65,5.65,0,0,1-.3,4.08c.36.42.18.72.18,1.38,0,.18.12.24.12.36s-.18.48-.12.66a3.16,3.16,0,0,0,.18.72c0,.18-.11.3-.11.54s0,1.2.05,1.8c.06.9.66,1.8.3,2.7-1.68,1-3.6,0-5.81.06.12-.36-.3-.24-.49-.42a7.35,7.35,0,0,1-.12-1.14,4,4,0,0,1,.31-1c0-.18-.12-.36-.12-.6.05-.84.17-1.92.17-3a4.94,4.94,0,0,1,.13-1.62c-.37-.84.12-1.86-.18-2.7.35-1.08,0-2.22.35-3.6.07-.3-.3-.24-.3-.48-.05-.78-.05-1.5-.05-2.34,0-.24.11-.42.11-.6a6.11,6.11,0,0,0-.18-1c0-.42.07-.78.07-1.2l-.19-1a7.39,7.39,0,0,1-.18-1.74c0-.18.13-.36.13-.48s-.13-.3-.18-.48a3.43,3.43,0,0,1-.07-.78V20.76a2.75,2.75,0,0,0-.05-1.26c-.07-.24.05-.36-.07-.72s-.12-.54-.05-.78.12-.48.05-.72a5.38,5.38,0,0,0-.24-1c.07-.3.24-.42.31-.66a4.54,4.54,0,0,1,.23-2.34,2.85,2.85,0,0,1,.61-1.14c.66-.42,1.5.24,2.16.54,1.26-.12,2.76-.06,4.13-.12a11.88,11.88,0,0,1,.67,1c0,.66-.19,1,.05,1.44.48.12.72-.18,1.08-.36.06,0,.24-.06.3-.06.3-.24.6-.72,1.08-.78.18-.24.48-.3.6-.54a3,3,0,0,0,.78-.3l.36-.18c.18-.24.24-.18.3-.18s.3-.42.48-.48l.72-.18.54-.18a6.24,6.24,0,0,1,1.32-.36c.6-.06,1.2.36,1.92.06.18,0,.3.18.48.3a2.34,2.34,0,0,1,1.92.24,1.62,1.62,0,0,1,.9-.18c.36,0,.9.6,1.2.78s.72.18,1.08.3a.36.36,0,0,1,.06.24c.06,0,.18-.06.24,0s.24.12.24.18a4.48,4.48,0,0,1,1.62,1.32,4.77,4.77,0,0,1,.36,1.32,3.64,3.64,0,0,0,.42.6l.24.6c.24.42.36.78.54,1.14.72-.12,1-.72,1.32-1.32.3-.12.66-.3.66-.72.84-.06.72-1,1.62-1,0-.3.36-.3.36-.66a15.38,15.38,0,0,0,2.1-1.32c.42-.24,1.08-.48,1.62-.84a10.53,10.53,0,0,0,2.64-.24l2.7-.12a13.73,13.73,0,0,1,2.7.06c.3.06.66.24,1,.3s.78.12,1.08.24a2.48,2.48,0,0,1,.66.42,4.17,4.17,0,0,0,.78.3,2.35,2.35,0,0,0,.48.6c.18.18.3.12.36.18s.12.24.18.3a5.38,5.38,0,0,0,1.14.9,1.13,1.13,0,0,0,.48.66c.12.6.54,1.14.72,1.8l.12.24c.12.42.06,1,.18,1.56,0,.12.12.24.18.48.06.48.12,1,.24,1.56a4.36,4.36,0,0,1,.06,2c.24.36.24,1,.54,1.32a7.29,7.29,0,0,0-.12,1.38c0,.6.3,1.38-.06,1.74.84,1.08.42,2.7.48,4.44a10.6,10.6,0,0,1,.18,1.26c0,.78-.24,1.74-.24,2.22,0,.18.12.42.06.6s-.18.54-.18.78a4.78,4.78,0,0,0,.18.9c0,.18-.12.3-.12.54s.12.42.06.6-.18.6-.18.84.06.42.06.6v.6c0,.24.18.6.18.84.06.54-.12.9.06,1.26s.36.3.36.78A2.6,2.6,0,0,0,360.3,44.7Zm-2.88-16c0-.18-.06-.48-.06-.66a3.23,3.23,0,0,1-.18-.6c0-.18.12-.42.12-.6a11.65,11.65,0,0,1-.06-1.32c-.06-.12.06-.18.06-.3,0-.3-.24-.6-.24-1a4.5,4.5,0,0,1,0-.9,2.36,2.36,0,0,1-.36-.78,16,16,0,0,1-.24-2,4.22,4.22,0,0,1-.42-2.4,6.19,6.19,0,0,0-1.74-2c-.12-.12-.12-.24-.24-.3a6.65,6.65,0,0,0-3.48-1.56c-.36,0-.84-.12-1.14-.12s-.54.18-.78.18c-.48.06-1.2-.12-1.38.06a1.71,1.71,0,0,0-.78,0,23,23,0,0,1-2.58.42,2,2,0,0,1-1.2.48c-.18.36-.6.42-.9.54a5.25,5.25,0,0,0-.6.48l-.36.18a4.44,4.44,0,0,0-1.38,1.2,2.77,2.77,0,0,1-.42.42c-.12.12-.18.42-.3.54-.48.54-1.32,1-1.56,1.62-.12.36.06.72-.06,1.2-.3.54-.78.78-1.74.6-.18-.24-.3-.24-.48-.48,0-.24-.12-.24-.18-.3s0-.24-.06-.36a10.42,10.42,0,0,0-.78-1.2c-.06-.3-.18-.54-.24-.78s-.48-.42-.48-.78a3.26,3.26,0,0,1-1-2.28,1.36,1.36,0,0,1-.66-.48l-.42-.18c-.06-.12-.24-.18-.24-.3-1-.12-1.26-.72-1.92-1-.12,0-.3.06-.42,0s-.12-.18-.18-.18a1.67,1.67,0,0,1-.6.06c-.18,0-.36-.06-.54-.06s-.6.06-.9.06a7.46,7.46,0,0,0-1-.24c-.3,0-.24.18-.36,0-.06,0-1.14.48-1.38.3-.48.24-.72.78-1.44.72-.42.6-1.2.78-1.8,1.14-.42.24-.84.66-1.44.54a5.7,5.7,0,0,0-.6,1c-.6.24-.9.84-1.5,1a3,3,0,0,1-.9,1.2c-.54-.42-.84.12-1.43-.18a1.88,1.88,0,0,1-.25-1.62,6.83,6.83,0,0,1,.3-1.38l.24-.54a2.15,2.15,0,0,0-.12-1.08c-.24-.18-.66-.06-1-.12a3.34,3.34,0,0,0-1-.12c-.53.36-1.07.42-1.31.84a6.75,6.75,0,0,0-.13,2.82c0,.48.25,1,.25,1.32a15.44,15.44,0,0,1-.07,1.56,4.13,4.13,0,0,1,.19.9c0,.12-.07.18-.07.3s.07.18.07.3a.42.42,0,0,0-.12.24,1.86,1.86,0,0,1,.12.42c0,.18-.12.42-.12.66,0,.66.35,1.32.42,2a25,25,0,0,1,.05,3,4.13,4.13,0,0,0,.19.9c0,.12-.12.3-.12.48s.05.42.05.54l.12,1c0,1.08.06,2.1,0,3.36V36.3c-.05.78-.17,1.56-.17,2.34,0,.6.17,1.2.17,1.74s-.12,1-.12,1.44a4.76,4.76,0,0,0,.07.84c0,.36-.24.6-.24,1s.12.6.12.9a5.48,5.48,0,0,0,1.5.24,9.35,9.35,0,0,0-.07-1.26v-.6c.12-.3-.18-.3-.18-.48a2.06,2.06,0,0,0,.13-1.44c.41-.48.05-.9.23-1.44-.11-.24-.11-.6-.23-.78.29-.36.05-1,.12-1.38a11.5,11.5,0,0,0,0-1.32c0-.12.11-.12.11-.24s-.11-.12-.11-.3.23-.36.23-.54-.12-.42-.12-.6l.18-1.92c0-.24-.12-.48-.12-.66l.25-.48c.05-.3-.07-.48,0-.72s.17-.24.17-.36a9.18,9.18,0,0,0,.37-1.62c.42-.06.17-.78.59-.9,0-.18-.17-.24-.12-.54.66-.54.36-1.56.54-2a5.86,5.86,0,0,1,.54-.84,6.76,6.76,0,0,0,.18-1.08c.36-.12.3-.66.73-.78a1.37,1.37,0,0,1,.47-1c0-.42.12-.66.12-1a2.29,2.29,0,0,0,.72-1.08,2.86,2.86,0,0,0,.78-.72h.48a4.4,4.4,0,0,1,.6-.78c.12-.06.36,0,.48-.06s.12-.18.24-.24c.3-.12.54-.12.84-.24l.48-.3c.18-.06.48,0,.6-.18.36,0,.48.18.78.24a1.3,1.3,0,0,1,1-.66,10.36,10.36,0,0,1,2.7-.06c.54.18,1.08.18,1.5.36s.66.54.84.66.3.12.36.24.12.3.18.48.3.24.42.36c.24.48.42,1,.72,1.56a5,5,0,0,0,.48.72l.18.66c0,.06.12.12.18.18l.54,1.8c.18.6.42,1.26.54,1.86.18.78,0,1.56.36,2.22.06.3-.12.36-.12.54a7,7,0,0,1,.36,3.6c0,.6-.12,1.14-.12,1.74a16.86,16.86,0,0,1,.06,1.74c-.06.66-.24,1.38-.24,2s.12,1.2.06,1.86c-.18,1.56-.84,3.12-.6,4.74.66-.24,1.62-.12,2.28-.36.18-.6-.18-1-.3-1.56a15.21,15.21,0,0,0,0-2.34,6.8,6.8,0,0,1-.18-1.5,1.31,1.31,0,0,1,.18-.3c.18-.66-.06-1,.36-1.38a11.22,11.22,0,0,1,.24-3.18c.18-.84.3-2,1-2.46a14.86,14.86,0,0,1,.12-1.74l.24-.42.3-.84.3-.9a4.53,4.53,0,0,1,.48-1.2,1.11,1.11,0,0,1,.36-1c.18-.3.12-.78.48-.78a2.29,2.29,0,0,1,.6-1.44l.3-.6c.24,0,.18-.12.24-.18a9,9,0,0,1,.66-.78c.12-.18.18-.48.3-.66.36-.6.84-1,1.2-1.5l.72-.3a4.58,4.58,0,0,1,.66-1c.12-.06.3,0,.42-.06s.18-.24.3-.3l.66-.36c.12-.06.3,0,.42-.06s.12-.24.24-.3l.42-.12a4.65,4.65,0,0,1,2.22-.3c1.2-.78,2.76.06,3.48.84.3-.06.42.06.66.12s.18.3.3.48.3.24.36.42a2.82,2.82,0,0,1,.18.54c.18.3.48.48.6.72a.54.54,0,0,0,.06.3l.54,1a3,3,0,0,1,.36,1.44,4.74,4.74,0,0,1,.18.78,8.86,8.86,0,0,1,.06,1.26,7.42,7.42,0,0,1,.12,1.08A3.89,3.89,0,0,0,354.9,26a5.08,5.08,0,0,0,.24,1c.06.12-.12.18-.12.24a4,4,0,0,0,.3.9,10.71,10.71,0,0,1,.06,1.26c0,.18-.12.24-.12.42a14.86,14.86,0,0,1,.18,1.62c0,.3-.12.66-.12,1-.06,1,.06,2.1,0,3.12s-.24,2.1-.36,3a3.93,3.93,0,0,1,0,.84,9.59,9.59,0,0,1-.3,1.26c0,.3.18.48.18.78a7.72,7.72,0,0,1-.24,1.14,8.82,8.82,0,0,0,0,1.26c1,0,1.68-.24,2.58-.3a4.24,4.24,0,0,0,.36-1.44,4.74,4.74,0,0,1-.18-.78,12.14,12.14,0,0,1,.24-1.56c0-.24-.12-.54-.12-.78,0-.72.12-1.44.06-2.22,0-.24-.06-.54-.06-.78,0-.42.24-1.44,0-1.62a3.15,3.15,0,0,0,.12-1A28.89,28.89,0,0,0,357.42,28.68Z"/><path class="cls-1" d="M400.5,28.26c-.06.36.24,1-.06,1.26.48.42.18,1,.06,1.62-.06.36.06.78,0,1s-.24.36-.3.54-.12.48-.3.48a2.7,2.7,0,0,1-.24,1.38l-.12.48c0,.12-.18.24-.18.36s.06.42,0,.6-.24.36-.3.54l-.72,1.86a8.67,8.67,0,0,1-1.14,2.1,3.39,3.39,0,0,1,0,.78,4.76,4.76,0,0,0-1,1.14,3.53,3.53,0,0,1-.6,1c-.3.36-.72.54-1.08.9-.42,0-.36.12-.66,0a4.23,4.23,0,0,1-2,1.14,1.31,1.31,0,0,0-.3.18c-.18,0-.36-.06-.48,0a5.93,5.93,0,0,1-1.56.42c-.18,0-.42-.12-.6-.12s-.54.24-.9.3c-.6.12-1.32.06-2,.12-.12,0-.18.12-.24.12s-.12-.12-.24-.12-.24.18-.36.18h-.42c-.18,0-.42-.06-.54,0a4.33,4.33,0,0,1-1.68.24c-.18-.06-.12.18-.3.18-1,.06-2.46.24-3.24-.36a1.17,1.17,0,0,1-.78.06c-.18,0-.24-.12-.42-.18h-.36a6.14,6.14,0,0,1-2.34-.9,1.66,1.66,0,0,0-.54-.06c-.54-.3-.84-.72-1.62-.78,0-.3-.24-.3-.18-.6-.3.18-.42-.18-.6-.3l-.6-.3a2.77,2.77,0,0,0-.42-.42c-.18-.12-.48-.18-.6-.3a2.62,2.62,0,0,1-.48-.6c-.12-.12-.48-.24-.36-.54l-.84-.72c-.06-.3-.24-.42-.18-.78-.18-.18-.3-.18-.48-.42l-.12-.24c-.24-.06-.12-.18-.18-.24l-.48-.66A9.2,9.2,0,0,1,367,37.5c-.07-.18,0-.24-.07-.42a1.37,1.37,0,0,1-.18-1c-.12-.24-.42-.36-.48-.6-.12-.6-.06-1.14-.18-1.68-.06-.36-.42-.66-.24-1.08-.24-.24-.3-.66-.54-.84.12-.48-.18-1-.18-1.56a5.32,5.32,0,0,1,.12-.9v-1a7.05,7.05,0,0,1,.36-1.26c.06-.42,0-.84.31-1-.31-1,.35-1.8.35-2.82.19-.12.19-.54.36-.66,0-.84.42-1.26.54-1.92.42-.18.54-.6.78-1,.12-.12.24-.12.3-.18s.18-.66.6-.6c.12-.3,0-.18,0-.54.48-.18.66-.66,1.14-1l.48-.18.36-.3a4.58,4.58,0,0,0,.54-.54,5.94,5.94,0,0,1,1-.66,4.58,4.58,0,0,1,1-.78c.12-.06.3-.3.48-.36a1.32,1.32,0,0,1,.48-.06c.24-.12.72-.54,1.08-.3a3.52,3.52,0,0,1,2.52-.72c.3.06.3-.24.48-.24a11.63,11.63,0,0,1,2.16-.18c.3,0,.6.12.84.12a5.79,5.79,0,0,0,1.08-.18c.24,0,.42-.06.6-.06a3.86,3.86,0,0,1,1.44,0c.18.06.42.24.6.24s.48-.12.66-.12l.66.24a2.29,2.29,0,0,0,.6.18c.24.06.54,0,.78.06a3,3,0,0,1,1,.3c.3.06.66.24,1,.3,1.08.18,2-.06,3,.36.18.06.42.3.66.42.06,0,.24-.06.3,0s.24.3.36.36.48.12.36.42a7.83,7.83,0,0,1,2.34,1.5,1.88,1.88,0,0,0,.36,1l.84.9c.12.12.06.36.18.66a9.82,9.82,0,0,0,.72,1.32c0,.6.06.48.3,1s.36,1.14.9,1.38c-.06.42.3.84.36,1.26a15.17,15.17,0,0,1,.06,1.62c0,.18-.12.36-.06.48,0,.3.12.6.12.9S400.5,28.08,400.5,28.26Zm-1.8-2.94c-.42-.3-.42-1-.54-1.68-.42-.36-.48-1.08-.66-1.74-.18-.3-.6-.42-.42-1.08-.36,0-.24-.36-.48-.36a9.32,9.32,0,0,0-1.26-1.38,2.81,2.81,0,0,0-1.2-1.5c-.66-.54-1.38-.54-1.74-1.14a5.55,5.55,0,0,0-1.74-.12,6.73,6.73,0,0,0-.78.3,3.88,3.88,0,0,0-.78.24c0-.54-.48-.66-.42-1.26a21.2,21.2,0,0,0-2.52-.36,15.55,15.55,0,0,0-2.82-.3c-.36,0-.6.18-1,.12s-.24-.18-.48-.18-.24.18-.3.18-.24-.12-.48-.12-.78.18-1.08.18-.42-.12-.54-.12-.24.18-.3.18h-.3a7.83,7.83,0,0,0-1.26.3,1.8,1.8,0,0,1-1.08.18,3.39,3.39,0,0,1-2,.78c-.12.3-.48.48-.6.6-.72.42-1.14,1-1.86,1.08a.71.71,0,0,1-.66.6c0,.42-.42.42-.72.54A16.94,16.94,0,0,0,369.66,21c-.12.24-.48.24-.6.48.24.36-.36.72-.48,1l-.12,1.2c-.06.18-.24.24-.3.36s-.06.48-.12.66a8.77,8.77,0,0,0-.3,1.2.64.64,0,0,1-.06.48,5.55,5.55,0,0,1-.29,1.2,3.71,3.71,0,0,0-.13,1.38c0,.36-.12.84-.12,1.14,0,.12.18.3.18.48a2.88,2.88,0,0,0,0,.72,13.64,13.64,0,0,0,.54,1.26c.12.48.06,1,.18,1.56,0,.12.12.24.18.36a14,14,0,0,1,.42,1.5,9.78,9.78,0,0,0,.66,1.86c.54,1.2,1.44,2.1,2,3.12a1.8,1.8,0,0,1,1.2,1.08c.66.12,1.14.66,1.8,1,.12.06.24,0,.3,0s.18.18.18.18c.18.12.42.12.6.24s.24.24.36.3a3,3,0,0,1,.72.12c.36.18.6.6,1,.66a11.09,11.09,0,0,0,1.38.06c.24.06.42.24.66.3a4.66,4.66,0,0,0,1,.12c.24,0,.42-.18.66-.18s.54.12.78.12a2.29,2.29,0,0,1,.6-.18,4.85,4.85,0,0,1,1-.06c.36-.06.78-.12.9-.12a.42.42,0,0,0,.24.12c.3-.06.54-.24.78-.3s.54.06.78.06c.78-.48,2-.24,2.94-.42l.6-.3c.12-.06.3.06.48,0s.12-.12.3-.18l.78-.18c.24-.06.48-.24.78-.18.24-.3.72-.42,1.08-.66a3.33,3.33,0,0,1,.48-.36,7,7,0,0,1,.66-.3,8.35,8.35,0,0,0,1.44-2.82,3.62,3.62,0,0,0,.48-.48A2.55,2.55,0,0,1,396.9,37a6.66,6.66,0,0,1,.84-2.4c.18-.18.06-.6.12-.9s.36-.06.3-.36a26.42,26.42,0,0,1,.6-2.82C399,28.74,398.4,26.94,398.7,25.32Zm-3.24,3.12c-.06.18,0,.18,0,.3s-.12,1.32-.18,1.32c.18.18-.54,1.8-.6,2.22-.18,1.08.06,2.16-.66,3a4.51,4.51,0,0,1-.6,2c-.12.12-.12.18-.24.24l-.3.48-.48.78c-.12.18-.42.42-.6.66-.3.48-.84,1-1.26,1.56a3.15,3.15,0,0,0-1.08.6l-.72.48a6.28,6.28,0,0,1-.66.48,2,2,0,0,1-.72.36,3.15,3.15,0,0,1-1.26.36c-.42.06-.9-.18-1.32.06A2.87,2.87,0,0,0,383,43.2c-.54-.18-.78-.42-1.38-.18-1.2-.78-2.7-.9-4-1.62-.36-.06-.36-.42-.6-.6a1.89,1.89,0,0,1-1.32-1.2,6.43,6.43,0,0,1-2-2c-.12-.3,0-.3-.12-.66s-.48-.42-.66-.72c.12-.24-.12-.3-.18-.54s0-.54-.06-.72l-.3-.48a.45.45,0,0,1-.06-.3c-.06,0-.18-.06-.24-.06-.06-.18,0-.42-.06-.6s-.18-.12-.18-.18c-.12-.36-.06-.9-.36-1.2.3-.6-.3-1-.06-1.56.06-.3-.24-.24-.3-.48.12-.24.18-.66-.06-.78.36-.36-.12-1.08.3-1.62.06-.3-.24-.36-.18-.66.24-.06,0-.54.3-.48-.24-.36.06-.66.12-1a1.62,1.62,0,0,0,0-.54,4,4,0,0,1,.36-.72,2.84,2.84,0,0,0,.36-1.2c.3-.06.3-.3.42-.42l.18-.24a2.62,2.62,0,0,1,.42-.48c.12-.06.12-.06.18-.18s.3-.06.24-.36c.48-.12.72-.54,1.08-.84a6.82,6.82,0,0,0,.9-1c.9-.48,1.44-1.32,2.7-1.5.3-.06.48-.42.72-.54s.36-.06.54-.12c.36-.06.9-.48,1.32-.54a3.35,3.35,0,0,0,.78,0c.24,0,.48-.06.66-.06s.42.24.66.24c.66-.06,1.38-.6,2.22-.48s1.08.78,1.92.72a2.37,2.37,0,0,0,.9.6,2.42,2.42,0,0,1,2-.06,1,1,0,0,0,.36.3c.36.18.78.18,1.08.36s.78.54.84.84c.54.06.54.6,1,.72.12.42.48.66.66,1,.06.12,0,.24.12.36l.18.18c.06.12,0,.18.06.3A5.86,5.86,0,0,1,395,23.4a.47.47,0,0,0,0,.3,8.55,8.55,0,0,0,.18,1,3.58,3.58,0,0,0,.36.66A9.09,9.09,0,0,1,395.46,28.44Zm-1.92-1.56a2.88,2.88,0,0,0,0-.72c-.12-.78-.54-1.44-.72-2.34a7.11,7.11,0,0,0-.12-1.56c-.3-.12-.24-.48-.42-.66s-.6-.42-.66-.78a6.84,6.84,0,0,1-1.14-.6,5.52,5.52,0,0,1-1.14-.12c-.36-.12-.54-.36-.84-.42-.6-.06-.66.3-1.32.18-.42-.18-.54-.66-.9-.9a1.73,1.73,0,0,0-.78-.06c-.24-.06-.24-.36-.6-.3a3.55,3.55,0,0,1-2.4.24,1.75,1.75,0,0,0-.72.42c0-.24-.48-.06-.66-.12-.66.42-1.62.78-2.22,1.08-.18.06-.3,0-.42.12s-.42.48-.6.66a6.84,6.84,0,0,1-.66.66,2.18,2.18,0,0,1-.42.18c-.72.36-1.08,1.08-1.74,1.38-.06.6-.6.9-.84,1.44s-.24,1.08-.42,1.44l-.18.48c-.3.9,0,1.86-.48,2.64.24.12.12.48.18.78s.36.78.18,1.26c-.06.12-.24.06-.18.3.18.06.18.3.24.48a1.31,1.31,0,0,1,.3.48c.06.06-.06.18,0,.3s.42.48.24.84c.36.12.3.6.6.72-.18.42.42.84.24,1.56l.3.18c.06.12,0,.24.06.42s.42.36.42.66c.42.12.66.6,1,.9.18.18.36.24.54.42.36.24.54.48.78.66.06.06.12.18.18.18.24.12.54.12.78.24s.42.36.6.42c.6.24,1.38.12,1.92.72.66,0,1,.3,1.8.24.3,0,.42.3.78.3a4.74,4.74,0,0,1,.78-.18,5.94,5.94,0,0,1,1.08.12,5,5,0,0,0,1.26-.54,1.64,1.64,0,0,1,1.08-.48c.06-.36.42-.54.66-.78a3.3,3.3,0,0,0,.9-1,7.62,7.62,0,0,1,.6-.72,16.64,16.64,0,0,0,1.32-2.22,6,6,0,0,0,.6-1.26c.06-.12,0-.3,0-.48s.3-.42.12-.54a3.57,3.57,0,0,0,.24-1.44c.42-.42.3-1,.42-1.68.06-.36.3-.66.3-1a13.08,13.08,0,0,0,.12-2C393.66,27,393.54,27,393.54,26.88Z"/><path class="cls-1" d="M426.9,20c-.18.18-.18.06-.36.18s-.18.24-.42.3c-.06,0-.18.12-.3.06-.66-.06-.66-.84-1.32-1.14a7.26,7.26,0,0,1-1.14.06,8,8,0,0,0-1.08.42,2.29,2.29,0,0,1-.6.18l-1.08.6c-.3.3-.42.6-.78,1a9.6,9.6,0,0,0-1.5,1.08c-.18.24-.18.66-.42,1-.06.18-.36.24-.48.42l-.12.24c0,.12-.12.18-.18.24s.06.3,0,.48-.42.54-.3,1c-.12.18-.36.3-.42.48s.06.36,0,.48-.18.12-.18.18c-.12.24-.12.48-.24.72s-.24.36-.3.54.06.48,0,.78l-.24.48a6.49,6.49,0,0,1,0,1.08c-.06.54-.3,1-.42,1.62a11.58,11.58,0,0,1-.06,1.38c0,.24-.18.48-.18.78-.06.6.3,1.2-.24,1.68a2.29,2.29,0,0,1-.06,2c.6,1.68-.3,4.2.18,6.06.18.48.9.36,1.26.66,0,.24.3.42.36.78a1.54,1.54,0,0,1-.78,1.32c-.3.12-.6-.06-1.2.06a7.58,7.58,0,0,0-1.08.48,12.75,12.75,0,0,1-2.4.6l-1.2.18c-.48.12-1,.42-1.32.36-.78-.12-1.08-1-1.08-1.86a6.61,6.61,0,0,0,.12-1.08,6.37,6.37,0,0,0-.24-1.14,27.06,27.06,0,0,1,0-3.12c0-.3.12-.6.12-.84a4.78,4.78,0,0,1-.18-.9,10.66,10.66,0,0,1-.3-1.68c0-.24-.06-.6-.06-.84a11.07,11.07,0,0,1,.24-1.38c0-.18-.12-.24-.12-.48s.18-1.08.18-1.62-.24-1-.3-1.44c0-.24.06-.66.06-.72-.06-.24-.18-.36-.18-.54-.06-.48-.06-1.14-.12-1.5,0-.12-.06-.36-.06-.48a7.46,7.46,0,0,1,.24-1c.12-.78-.06-1.62,0-2.4.06-.6.36-1.2.36-1.74,0-.24-.06-.54-.06-.78s.12-.54.12-.78a2.71,2.71,0,0,1-.18-.66,8.21,8.21,0,0,1,.12-1.68A7.5,7.5,0,0,0,406.8,19a2.43,2.43,0,0,0,0-.66c0-.18-.18-.3-.18-.42,0-.36.24-.84.24-1.26a3.68,3.68,0,0,1,.12-1.8c0-.42-.3-.6-.48-.9.3-.66-.12-1.32.06-1.92a1.22,1.22,0,0,1,1-.36c.6,0,.78.42,1.08.66a7.65,7.65,0,0,0,2.34,0c.42,0,.9.12,1.26.12.6-.06,1-.54,1.92-.24.3.18.24.48.48.84,0,.06.18.18.18.24s-.12.18-.12.24.12.18.12.3a3.85,3.85,0,0,0-.18,2c.48,0,.72-.36,1-.66a4.58,4.58,0,0,0,.54-.54c.06-.06.06-.24.12-.3s.24-.06.3-.12.36-.36.6-.54.6-.36.78-.66c.72-.12,1.38-.84,2.22-.54.36-.36,1.38-.78,1.86-.36.3.06.3-.3.48-.36,1,.36,2-.36,3-.12.36.06.54.3.78.42a2.1,2.1,0,0,1,.78.3c.54.84.12,1.92.06,2.88-.06.24.06.42.06.6,0,.36-.12.72-.12,1.08,0,.9.12,1.8.12,2.7C427,19.8,427,19.92,426.9,20Zm-6.54-5.64c-.54.42-1.62.36-1.86,1.08a6.73,6.73,0,0,0-2.28,2.22l-.3.18c-.12.12-.12.24-.18.36s-.42.36-.6.6c-.12.06-.12.24-.24.36s-.18.18-.3.3l-.36.78c-.36-.12-.36.18-.48.24a1,1,0,0,1-.6.3c-1.32-.36-.66-2.28-1-3.42a1.84,1.84,0,0,0,.12-1.26,5.71,5.71,0,0,0-.06-1.74,19.4,19.4,0,0,0-3.18.24V15.9c-.06.3-.3.42-.3.72a2.82,2.82,0,0,1,.12,1.56,10.26,10.26,0,0,0,.24,2.16,4.86,4.86,0,0,1,0,1.32c-.06.72.12,1.44.12,2.16,0,1.08-.36,2.28-.36,3.36a28.37,28.37,0,0,0,.12,4.56c.12.66.18,1.26.24,1.86a13.64,13.64,0,0,1-.06,1.74c0,.36.06.9.06,1.14s-.06.36-.06.48a9.42,9.42,0,0,0,.12,2l.18,1.32c0,.3-.06.66-.06,1a10.06,10.06,0,0,1,.18,1.08c0,.36-.18.72-.18,1.08,0,.84.36,1.62.42,2.4a3.68,3.68,0,0,0,1.8.06c.12,0,.24-.24.3-.3a1.91,1.91,0,0,1,.54-.18,8.48,8.48,0,0,1-.36-1.32c-.06-.24.06-.42.06-.72a3.42,3.42,0,0,0-.06-.78c.06-.48.3-1,.36-1.5,0-.3-.12-.6-.12-.9a13,13,0,0,1,.3-3.84c-.36-.48,0-1.5.06-1.92a1.86,1.86,0,0,0-.12-.42c.06-.24.18-.48.24-.78s-.12-.6-.12-.84.24-.6.3-.9a13.26,13.26,0,0,0,.24-2.1,5.79,5.79,0,0,1,.18-1.08,7.13,7.13,0,0,1,.48-1c.06-.12-.06-.36,0-.48s.3-.36.42-.54a8,8,0,0,1,.72-1.92c0-1.2.72-1.68,1.08-2.34l.3-.36a7.82,7.82,0,0,0,1.14-1.32c.54-.24.78-.78,1.26-1.14.24-.18.72-.42.9-.6a1.64,1.64,0,0,1,.78-.54c.3-.12.54-.3.84-.24s.3-.18.42-.18c.48-.24.66-.12,1.14-.12a7.33,7.33,0,0,1,2-.12c.06-.54-.06-1,0-1.44.06-.6.36-1.08.12-1.74C423.54,13.32,421.68,14.52,420.36,14.4Z"/><path class="cls-1" d="M440.82,5.58c-.06.24-.3.42-.42.6l-.12.6a7.44,7.44,0,0,1-.6,1.2c-.36.12-.72.54-1.08.66-.12.06-.3,0-.48.12a5.16,5.16,0,0,1-1.62.54,3,3,0,0,1-.78-.24l-1.2-.12c-.3-.72-1-1.2-1.2-2l-.54-.6c0-.6-.36-1.14-.36-1.74a2.88,2.88,0,0,1,.24-.9l.18-1c.06-.12.24-.12.3-.24s.06-.18.12-.24.36-.12.48-.3-.06-.24,0-.3c.3-.24.24-.36.3-.48a5.17,5.17,0,0,1,1.08-.84c.42-.3,1.08-.18,1.86-.24.3.66,1.2.72,1.62,1.32h.6c0,.18.12.18.24.3a4.2,4.2,0,0,1,1.44,1.86.65.65,0,0,1,.06.3A4.84,4.84,0,0,1,440.82,5.58Zm.06,10.74c0,.36.18.66.18,1,0,.54-.24,1.2-.24,1.8s0,1,.06,1.68c0,.3.12.36,0,.66-.48,1,0,3,0,4.38-.06.78-.3,1.56-.36,2.4-.18,1.74-.12,3.6-.3,5.28-.06.48,0,1-.06,1.38-.06,1.08-.24,2.1-.36,3.06-.06.72.06,1.38.06,2,0,.42.06.72.06,1.08a4.78,4.78,0,0,1,.18.9,1.85,1.85,0,0,1-.12.48,1.21,1.21,0,0,0,.12.36c0,.18-.12.3-.12.48s.12.3.12.42a3.44,3.44,0,0,0-.24.84,9.8,9.8,0,0,1,.06,1.86,2.24,2.24,0,0,1-1.74.42c-.42-.12-.36-.78-.66-1.08a3.14,3.14,0,0,1-1.38-.48,4.32,4.32,0,0,1-1.44-.12,7.09,7.09,0,0,1-1.5-.24c-.06-.06-.06-.3-.24-.24-.24-.3-.12-.9-.42-1.14a5.9,5.9,0,0,0,.3-1c.12-.72-.12-1.38-.06-2.16a3.1,3.1,0,0,1,.12-.66c0-.06.12-.12.12-.3a2.49,2.49,0,0,1,0-1c0-.06.12-.12.12-.3S433,38,433,38s.18-.12.24-.24-.12-.36-.12-.48c.18-.84.24-2.52.3-3.06,0-.36.06-.48.06-.9.06-.12-.06-.24-.06-.3a34.1,34.1,0,0,0,.18-3.54c-.06-.78.12-1.5.12-2.22s-.18-1.44.18-2.16a5.84,5.84,0,0,1-.06-2.28,16.86,16.86,0,0,1,.06-1.74,4.43,4.43,0,0,1,0-1.26v-.42c.06-.36.12-.72.12-.84,0-.3-.18-.54-.18-.78a3.38,3.38,0,0,0,0-.78c0-.12-.12-.18-.18-.3v-.3a3.17,3.17,0,0,1,.06-.78c-.06-.42-.66-.36-.78-.66-.18-.6-.48-1.44.06-1.86.36-.18.72-.06,1.26,0a.64.64,0,0,0,.36.12c.06,0,.18-.12.3-.06s.54.24.84.3c1.56.18,4.38-.54,5-.12.24.18.12.54.36.6A9.55,9.55,0,0,0,440.88,16.32Zm-2.64-12.9a.91.91,0,0,1-.78-.48c-.3-.12-.42,0-.66.06a2.49,2.49,0,0,0-.66-.72c-.66.3-1,1-1.5,1.56a4.85,4.85,0,0,0,.3,1.62,3,3,0,0,0,.66,1c.18.24.3.54.54.66a2.34,2.34,0,0,0,1.74-.42l.6-.42c.06-.06,0-.24.18-.18,0-.78.54-1.2.24-2A1.41,1.41,0,0,1,438.24,3.42Zm.54,15.42c-.06-.18,0-.18,0-.3-.06-1-.12-2-.12-3.12-.18-.18-.36-.06-.6,0s-.36-.24-.66-.24c-.3.24-1.26.12-1.26.48-.24.6.06,1.2.06,1.74a.76.76,0,0,1-.12.36c0,.18.12.24.12.42,0,.78-.06,1.38-.06,1.92v1.08a15.07,15.07,0,0,0-.24,1.62c0,.48.18.84.18,1.26,0,.24-.24.48-.24.72a2.05,2.05,0,0,1,.06.66V26c0,1.14.12,2.94,0,4.44V31c-.06.24-.18.36-.18.54s.06.24.06.42a10.78,10.78,0,0,1-.12,1.32l-.24.9c0,.12.12.3.12.48a2.86,2.86,0,0,1-.36,1.56c.3.12.12.42.12.66a4.25,4.25,0,0,1,.06.9,7,7,0,0,0-.3,1.2,6.17,6.17,0,0,0,.06,1l.12,2.88a9.12,9.12,0,0,0,2.34.36,6.34,6.34,0,0,1,.12-1.56c0-1.14-.54-3.24.18-4.14a1.53,1.53,0,0,1-.24-1,4.19,4.19,0,0,1,.18-.72c.12-.66.06-1.44.18-2,0-.24.18-.54.18-.78s-.12-.24-.06-.42V31.2a3.82,3.82,0,0,1,.12-.42c0-.12-.18-.18-.18-.24s.06-.3.06-.42-.06-.36-.06-.48.06-.18.12-.3,0-.24,0-.3a4.19,4.19,0,0,0,.18-.72c.06-.36,0-.72.06-1a15.81,15.81,0,0,0,.42-1.8c0-.24-.18-.54-.18-.78a33.26,33.26,0,0,1,.18-4.26A7.19,7.19,0,0,0,438.78,18.84Z"/><path class="cls-1" d="M16.81,107.58c4.5,0,7.62.48,10.56,3.06a12.75,12.75,0,0,1,4.08,9.66c0,1.56-.24,5.88-3.3,8.94-2.22,2.22-5.52,3.54-10.14,3.54H13V147.6H5.17v-40ZM13,126.06h3.18a8,8,0,0,0,5.1-1.26,6,6,0,0,0,2.16-4.68,5.51,5.51,0,0,0-2.22-4.56,9.39,9.39,0,0,0-5.52-1.26H13Z"/><path class="cls-1" d="M60.19,124.44a14,14,0,0,1,0,20.34c-2.22,2-5.58,3.66-10.5,3.66s-8.28-1.62-10.5-3.66a14,14,0,0,1,0-20.34c2.22-2,5.58-3.66,10.5-3.66S58,122.4,60.19,124.44ZM57,134.64A7.32,7.32,0,1,0,49.69,142,7.25,7.25,0,0,0,57,134.64Z"/><path class="cls-1" d="M70.21,121.62h7.32v3.9a8.76,8.76,0,0,1,3.24-3.6,8,8,0,0,1,4.32-1.14,9,9,0,0,1,3.12.6l-1,6.84a5.5,5.5,0,0,0-3.42-1,6,6,0,0,0-4.86,2.1c-1.38,1.74-1.44,4-1.44,5.76V147.6H70.21Z"/><path class="cls-1" d="M99.13,127.86V147.6H91.81V127.86H88.93v-6.24h2.88v-8.88h7.32v8.88h5v6.24Z"/><path class="cls-1" d="M115.45,127.86V147.6h-7.32V127.86h-2.76v-6.24h2.76v-7.14c0-2.4.18-6.48,3.42-9.18a9.73,9.73,0,0,1,6.42-2.16,9.4,9.4,0,0,1,4.2.9v6.66a5.08,5.08,0,0,0-3.3-1.08,2.9,2.9,0,0,0-2.64,1.32c-.6,1-.78,2.34-.78,4.5v6.18h6.72v6.24Z"/><path class="cls-1" d="M149.59,124.44a14,14,0,0,1,0,20.34c-2.22,2-5.58,3.66-10.5,3.66s-8.28-1.62-10.5-3.66a14,14,0,0,1,0-20.34c2.22-2,5.58-3.66,10.5-3.66S147.37,122.4,149.59,124.44Zm-3.18,10.2a7.32,7.32,0,1,0-7.32,7.32A7.25,7.25,0,0,0,146.41,134.64Z"/><path class="cls-1" d="M166.93,103.86V147.6h-7.32V103.86Z"/><path class="cls-1" d="M177.55,106.26a4.38,4.38,0,1,1-4.38,4.38A4.4,4.4,0,0,1,177.55,106.26Zm3.66,15.36v26h-7.32v-26Z"/><path class="cls-1" d="M212.22,124.44a14,14,0,0,1,0,20.34c-2.22,2-5.58,3.66-10.5,3.66s-8.27-1.62-10.5-3.66a14,14,0,0,1,0-20.34c2.23-2,5.58-3.66,10.5-3.66S210,122.4,212.22,124.44ZM209,134.64a7.32,7.32,0,1,0-7.32,7.32A7.24,7.24,0,0,0,209,134.64Z"/><path class="cls-1" d="M257,116.7a7.82,7.82,0,0,0-6.54-3.42c-4.2,0-5.52,2.64-5.52,4.68a3.37,3.37,0,0,0,1.26,2.7c1,.9,2.28,1.38,4.8,2.28,3.12,1.08,6.06,2.16,8.1,4a10.89,10.89,0,0,1,3.42,8.4c0,7.8-5.64,13.14-13.92,13.14a16.47,16.47,0,0,1-13.8-7.56l5.1-4.86a9.38,9.38,0,0,0,8.4,5.34c3.54,0,6.18-2.16,6.18-5.52a4.65,4.65,0,0,0-1.56-3.6c-1.5-1.38-3.9-2.16-6.18-2.94a19.26,19.26,0,0,1-6.66-3.48,9.31,9.31,0,0,1-3.18-7.44c0-5.88,4-11.76,12.84-11.76a15.39,15.39,0,0,1,11.34,4.68Z"/><path class="cls-1" d="M271.92,106.26a4.38,4.38,0,1,1-4.38,4.38A4.4,4.4,0,0,1,271.92,106.26Zm3.66,15.36v26h-7.32v-26Z"/><path class="cls-1" d="M289.86,127.86V147.6h-7.32V127.86h-2.88v-6.24h2.88v-8.88h7.32v8.88h5v6.24Z"/><path class="cls-1" d="M324.24,140.34c-.78,1.92-3.72,8.1-12.78,8.1a13.6,13.6,0,0,1-10-3.66,13.09,13.09,0,0,1-4.08-10.14,13.84,13.84,0,0,1,4-10.2,13.31,13.31,0,0,1,9.78-3.66c5.28,0,8.34,2.1,10.14,4.26,2.76,3.3,3.12,7.38,3.12,10.2v.6H305a7.67,7.67,0,0,0,1.26,4.38,6.18,6.18,0,0,0,5.22,2.46,6.7,6.7,0,0,0,6.06-3.42Zm-6.72-9.18a6.23,6.23,0,0,0-12.3,0Z"/></g></g></svg>