<svg xmlns="http://www.w3.org/2000/svg" viewBox="0 0 710.71 63.71"><defs><style>.cls-1{fill:none;stroke:#231815;}.cls-2{fill:#231815;}</style></defs><g id="レイヤー_2" data-name="レイヤー 2"><g id="text"><path class="cls-1" d="M.75,42.34A130.86,130.86,0,0,0,16.36,14.55l8.47,2.73a1.54,1.54,0,0,1,1.26,1.26.94.94,0,0,1-.77,1c-1.4.56-1.54.63-1.89,1.4A134.5,134.5,0,0,1,8.8,46.4ZM29.24,2.09l8.89.77c.28,0,1.47.14,1.47,1a1.58,1.58,0,0,1-.7,1c-.14.14-1.12.91-1.12,1.26V54c0,5.18-2.1,7.21-14,7.35L20,52.77c2.52.28,5.53.49,6.58.49a2.3,2.3,0,0,0,2.66-2.38ZM58,47A132.59,132.59,0,0,1,40.93,17.91l7.7-3.43A113.93,113.93,0,0,0,66,41.78Z"/><path class="cls-1" d="M128.92,58.65a43.49,43.49,0,0,1-8.33-9.52V61.59h-8V47.45a54.54,54.54,0,0,1-11.76,13.37l-6-5.18a48.64,48.64,0,0,0,14.7-15h-6.44V33.31h9.52V26.94l6.65.28A53.44,53.44,0,0,1,107.57,17V30.79h-8V17.35A60.78,60.78,0,0,1,88,27.36l4.62.63c1,.14,1.75.35,1.75,1,0,.35-.21.49-.42.7-1,.77-1.19,1-1.19,1.33v2.52h8.61V40.8H92.8a45.64,45.64,0,0,0,8.68,6.79l-5.25,5.6a14.15,14.15,0,0,1-3.43-4.06V61.59H84.89v-12a47.16,47.16,0,0,1-7.21,9.73l-6.58-5A40.37,40.37,0,0,0,83,40.8H73.55V33.52H84.89V29.46c-1,.56-2.73,1.54-6,3.08l-6-5.95a62.17,62.17,0,0,0,12.74-5.81,31.25,31.25,0,0,0,8.19-6.65h-17V7.27H99.52V1.11l7.63.28c1,.07,1.75.28,1.75,1,0,.28-.14.42-.35.63-.91.91-1,1-1,1.33V7.27h22.89v6.86H113.31c6.09,6,15,9.38,21.5,10.92l-6.59,6.86a63,63,0,0,1-6.37-3.08,4.14,4.14,0,0,1-.56.42c-.49.42-.7.7-.7,1.05v3h12.89v7.28H122.06A43.06,43.06,0,0,0,135,52.77Z"/><path class="cls-1" d="M221.81,62.15A71.46,71.46,0,0,1,193.39,50C187.72,56.2,179.74,60.19,172,63.13l-7.91-7a54.66,54.66,0,0,0,13.09-4.62A34.13,34.13,0,0,0,187,44.44,52.93,52.93,0,0,1,175.4,23.58l6.44-3.08H166.65V12.87h26.88c0-4.69-.07-7.14-.28-12.32l8.75.77c1.47.14,1.89.49,1.89,1s0,.42-1.12,1.33a1.32,1.32,0,0,0-.56,1.19c0,.28.07,1.82.07,2.17.07,1,.07,3,.07,5.88h24.71V20.5h-25c-.21,8.12-1.26,16.1-4.06,22.54,8.75,6.79,19.67,9.94,30.74,10.57ZM183.1,20.5a44,44,0,0,0,8.47,16.17,50.2,50.2,0,0,0,2.24-16.17Z"/><path class="cls-2" d="M297,23.24a10.33,10.33,0,0,1-1.86-.07c-.18,0-.36-.17-.48-.17s-.54.06-.78.06a3,3,0,0,1-.78-.13h-.66a15.23,15.23,0,0,0-3.12.24v.54a.43.43,0,0,0,.12.3.5.5,0,0,1-.12.31c0,.23.06.42.06.66s-.12.47-.06.71a3.69,3.69,0,0,0,.18.66,15.19,15.19,0,0,0-.06,1.74,4.52,4.52,0,0,0,.18.78c.06.24,0,.55.06.79s.24.59.3.95.06,1,.06,1.39a9.18,9.18,0,0,0-.24,1.25c0,.36.3.67.36,1.08a17.45,17.45,0,0,1,.06,1.8c0,.24.18.48.18.72s-.06.6,0,.84a4.55,4.55,0,0,0,.36,1.08,2.24,2.24,0,0,1,.06,1c0,.18-.12.36-.12.48s.18.48.18.72a21.1,21.1,0,0,0,.24,3.36c-.12.18-.06.54-.24.66a5.28,5.28,0,0,1,.3.9c0,.3-.12.54-.12.84a3,3,0,0,0,.18.78c0,.3-.12.54-.12.9s.06.54.06.78a13.52,13.52,0,0,1,0,1.56,2.15,2.15,0,0,0-.24.66c0,.36.06.84.06,1.26a2.6,2.6,0,0,1-.06.3c.06.18,0,.18-.06.24s.12.24.12.42a14.4,14.4,0,0,0-.24,1.44c0,.18.12.24.18.48.12.42.18.66.3,1.08a2.21,2.21,0,0,1,.06.9c0,.24.24.6-.12.84a1.21,1.21,0,0,1,.54,1.44c-.12.54-.78.54-1.08.9-.24-.06-.42-.12-.48-.3a7.13,7.13,0,0,1-2.52-.36c-.36.06-.6.18-1,.24s-.6.06-.78-.12c-.24.3-.6.24-1.26.3-.06,0-.12.12-.3.06-.36-.06-.36.06-.48.12s-.84,0-1.14.06a1.81,1.81,0,0,1-1.26-.06c-.6-.12-.36-1-.66-1.44.06-.48.54-.66.3-1.14a7.82,7.82,0,0,0,.6-.9c.12-.36.12-.9.24-1.2s0-.48,0-.9.18-1-.12-1.56A3.08,3.08,0,0,0,282,52a.35.35,0,0,0,.12-.3c0-.24-.18-.54-.18-.78s.24-.78.24-1.14-.18-.36-.18-.6.12-.6.12-.84a2.19,2.19,0,0,0-.18-.9c.18-.06,0-.42.18-.48a4.23,4.23,0,0,1-.12-1.56,16.16,16.16,0,0,0-.18-2.4c0-.18-.12-.3-.18-.48-.06-1.14.54-2.4-.12-3.3.3-1.08-.12-2.7.12-3.66.06-.48-.36-.36-.3-.72a6.48,6.48,0,0,0-.12-1.86c-.36-.72-.12-2.46-.06-3.48a3.38,3.38,0,0,1-.36-.84,7,7,0,0,1,.24-1.92c.06-.53,0-1.14.06-1.5.06-.66-.18-1.56-.18-2.27-1,.06-1.92.24-2.88.29-.18,0-.24-.12-.42-.12s-1.2.18-1.74.25a2.26,2.26,0,0,1-.6.17c-.54.12-1.14,0-1.74.07a7.42,7.42,0,0,1-3,.35c-.42-.66-.18-1.5-.24-2a4.77,4.77,0,0,1-.06-1c0-.18.12-.35.12-.48s-.18-.24-.24-.29a8.38,8.38,0,0,1,.06-1.26c0-.42-.42-.31-.36-.73.06-1.08-.6-2.69.24-3.53a2,2,0,0,1,1.38-.06c.18,0,.42.06.6.06.36.11.78.29,1.14.36s.54-.13.84-.13.72.13,1.08.13c.18.06.06,0,.36.06a4,4,0,0,1,.42,0c.36,0,.78-.24,1.14-.24a14.41,14.41,0,0,1,1.44.24,3,3,0,0,0,.72-.11,1.29,1.29,0,0,0,.48,0,3.24,3.24,0,0,0,.66-.18c.24,0,.42.11.66.11s.24-.18.3-.18c.6-.11,1.32.12,1.86-.06.3,0,.36.24.6.31.42-.13.66-.25,1,.11a1.6,1.6,0,0,1,1.08-.42c.3,0,.78.24,1.32.18.3.19,1.2,0,1.44.24.36,0,.66-.11,1-.18h.42a1.94,1.94,0,0,1,.6.07,4.08,4.08,0,0,1,.72.17,9.93,9.93,0,0,0,2,.07c1.08-.07,2.34-.42,3-.13a2.89,2.89,0,0,1,.66.79,3.09,3.09,0,0,1,.06.77c.06,1-.12,2.23-.06,3.36a12.32,12.32,0,0,0,.24,1.68C297.13,22.33,297.37,22.87,297,23.24Z"/><path class="cls-2" d="M336.49,26.77c0,.13.12.18.12.31a1.06,1.06,0,0,0-.12.42c0,.11.06.17.06.29s-.12.18-.06.37.06.17.06.29-.18.37-.18.55.06.47.06.71-.18.37-.18.54a2.49,2.49,0,0,1-.06.6,10.58,10.58,0,0,0,0,1.38c0,.19.18.43.18.66.06.84-.12,1.8-.06,2.7a6.89,6.89,0,0,1,.06,1.08c0,.48-.24.9-.3,1.56a1.65,1.65,0,0,1,.06.24c0,.24-.18.9.06,1.26a2.6,2.6,0,0,1-.3.72,28.25,28.25,0,0,1-.18,3.18,6.76,6.76,0,0,1,.18,1.08c0,.18-.12.42-.12.66s.12.42.12.6-.18.36-.24.54a4.66,4.66,0,0,1-.3,1.86c-.24.42.18,1.38-.24,1.92a3.77,3.77,0,0,1,.06,1.44c0,.18.12.42.06.6,0,.42-.18.78-.18,1.14a16.33,16.33,0,0,0,.24,2.52c.06.18.06.36.36.3-.66.48.06,1,.06,1.56a.85.85,0,0,1-.12.36c0,.06-.06.36-.06.42a2.6,2.6,0,0,0-.3.06,1.63,1.63,0,0,1-.72.42c-.24,0-.48-.12-.78-.12a9.24,9.24,0,0,0-1.14.12,10.71,10.71,0,0,0-1.38.12c-.48.06-.84.36-1.26.36s-.18.36-.48.36c-.06.18-.48,0-.66.06-.48-.42-.9-1.44-.48-1.92-.36-1,.12-2.34-.12-3.6a4.75,4.75,0,0,0-1.56,1.14c-.24.18-.36.48-.66.66-.12.06-.12,0-.24.06s-.48.24-.66.48c-.42.12-.84.06-1.26.18s-1,.3-1.74.42a5.4,5.4,0,0,1-2.16.36c-.18,0-.3-.12-.36-.12-.24,0-.36.18-.6.18a1.39,1.39,0,0,1-1-.12c-.18.3-1,.06-1.26-.12-.6.24-1.14-.06-1.74-.12-.36,0-.3-.36-.6-.42a10.74,10.74,0,0,1-2.76-.24c-.12-.3-.54-.36-.6-.78-.42.06-.42-.3-.72-.3a4.48,4.48,0,0,0-.66-.78c-.42,0-.48-.24-.9-.24-.12-.12-.18-.36-.36-.48s-.36-.36-.48-.42-.24.06-.3,0c-.36-.42-.6-.6-.84-.9a1.06,1.06,0,0,1-.48-.3c0-.36-.36-.36-.3-.84a2.1,2.1,0,0,1-.48-.3,4.23,4.23,0,0,1-.42-.54c-.12-.06-.12-.18-.24-.24s-.06-.6-.36-.78c0-.24-.24-.24-.48-.24a1.33,1.33,0,0,0-.84-1.26c.12-.36-.12-.36-.06-.66-1.2-1.08-1.14-3.3-1.74-4.92a12.29,12.29,0,0,1,.36-3.36,1.54,1.54,0,0,1,.12-.3c.12-.18.06-.54.12-1s.12-.78.18-1.14a2.07,2.07,0,0,0,.12-.59,3.85,3.85,0,0,1,.66-1.63c-.3-1.08.72-1.5.78-2.52a5.61,5.61,0,0,0,.84-1.14c.18-.29.42-.71.66-1.13.18-.25.48-.42.42-.79.24-.12.36-.36.72-.47v-.55c.66-.42,1-1.14,1.5-1.74a4.78,4.78,0,0,1,.84-.71c.18-.37.78-.42.84-.79a6.44,6.44,0,0,0,2.22-.71c.48-.07,1.08-.07,1.38-.37a2,2,0,0,0,1.62-.53c1.2,0,2.28-.07,3.6,0,.6,0,1.26-.13,1.74-.07s.66-.06.9.18a1.3,1.3,0,0,1,1,.06c.18.07.42,0,.78.12.18,0,.36.19.48.19a2.4,2.4,0,0,0,.6,0,1.3,1.3,0,0,0,.3.23,1.25,1.25,0,0,1,.72.3c.06,0,.24,0,.3.07s.06.17.12.24a10,10,0,0,1,1.62.89c.12.06.12.24.3.37s.24.11.36.24a2.34,2.34,0,0,1,.48.59c.12.25.54.49.84.78.18.13.24.42.48.6s.66.48.66.84a6,6,0,0,0-.24-3.3c-.24-.48-.6-.59-.36-1.32a2.45,2.45,0,0,1,.6-.9,3.33,3.33,0,0,0,1.08.13,7.25,7.25,0,0,0,1,.11,11.51,11.51,0,0,1,3.18.36c.54-.18.9.12,1.38.24.06.3,0,.48.06.79s.12.35.06.59S336.49,26.47,336.49,26.77Zm-8.4,11.94c-.06-.24-.36-.29-.48-.48a5.66,5.66,0,0,0-.36-1.38c.12-.54-.18-.78-.24-1.08a8.76,8.76,0,0,1-.18-1.32c-.36-.18-.36-.42-.54-.6s-.24-.24-.3-.3a10.39,10.39,0,0,0-.84-.89,2.71,2.71,0,0,0-1.14-.79c-.66-.29-1.14-.6-1.62-.84a5.62,5.62,0,0,0-1.56-.29,6.59,6.59,0,0,0-.78-.37,3.89,3.89,0,0,1-.84,0c-.24,0-.54-.18-.72-.18s-.3.36-.48.18-.6-.42-.78-.24c-.78.06-.9.37-1.44.66-.12.06-.36.13-.48.18s-.3.24-.42.3-.18-.06-.3,0l-.18.18c-.3.18-.54.42-.78.55a2.92,2.92,0,0,0-.48.17,9.45,9.45,0,0,0-.6.78c-.24-.06-.24.18-.48.06,0,.36-.3.6-.48.78a2.52,2.52,0,0,1-.84.54c-.06.84-.72,1.09-.72,1.92a4,4,0,0,0-.6,1.08,11.18,11.18,0,0,0-.3,1.62c-.12.42-.36.72-.42,1.08,0-.06.06.3.12.36a10.18,10.18,0,0,1-.36,1.68c0,.3.18.66.18,1,0,.06-.12.12-.12.24a1.62,1.62,0,0,1,0,.78c.06.48.54,1,.36,1.56a11.09,11.09,0,0,0,1.62,1.14,7.77,7.77,0,0,0,2.1,2.1,3.52,3.52,0,0,0,1.14.78l.24.24a5.44,5.44,0,0,0,1.26.3c.24.06.6.24.78.3s.18.24.36.24a21.14,21.14,0,0,1,2.94.3,2,2,0,0,0,.84-.06,4.25,4.25,0,0,0,.9-.06,3.35,3.35,0,0,1,.48-.3c.12,0,.24.06.36,0s.6-.36.9-.06c.42-1,1.8-1,2-2.28.24.06.18-.18.42-.18,0-.42.3-.66.48-1s.3-.6.42-.78.24.06.18-.18A3.29,3.29,0,0,1,327,45c-.12-.42.18-.72.3-1a9.76,9.76,0,0,0,.54-3.3,3.67,3.67,0,0,0,.42-.84A2,2,0,0,1,328.09,38.71Z"/><path class="cls-2" d="M372.61,61a4,4,0,0,1-1.2.06,2.37,2.37,0,0,1-.84-.3,1.47,1.47,0,0,1-.9-.3c-.48.24-.84,0-1.26.18l-.78.36c-.06.06-.18-.06-.3,0s-.06.3-.48.3c-1,0-1.2-.9-2.16-1.14a7.24,7.24,0,0,0-1.44-1.26c-.12-.18-.12-.48-.3-.6s-.36-.12-.24-.48a17.33,17.33,0,0,1-2.52-2.1,16,16,0,0,1-1.56-1.86c-.18-.24-.6-.36-.42-.72-.42,0-.54-.36-.84-.6a1,1,0,0,1-.3-.12c-.06-.06,0-.18-.06-.24s-.42-.24-.36-.54c-.84-.3-1.08-1.2-1.86-1.56-.06-.3-.24-.42-.36-.72-.42-.06-.48-.42-1-.48,0-.36-.36-.48-.54-.66s-.42-.48-.66-.54c-.3.24-.12.66-.12,1.08,0,.18-.12.36-.12.6s.24.9-.24,1.14a20,20,0,0,1,.24,4c0,.18-.12.36-.12.48s.18.54.18.78-.12.48-.12.6.18.24.18.3-.06.3,0,.48a1.31,1.31,0,0,1,.18.3c0,.12-.12.18-.12.24a8.35,8.35,0,0,1,.36.78c-.12.36-.42.54-.6.9,0,.42.3.48.48.66a1.55,1.55,0,0,1-.72,1.92c-1.26,0-1.92-.6-2.88-.9a17.3,17.3,0,0,1-3.54-.18c-.12-.36-.48-.54-.36-1.2a3.35,3.35,0,0,0,0-.78,1.21,1.21,0,0,1,.12-.36c0-.18-.18-.3-.18-.48a12.31,12.31,0,0,1,.18-3.6c0-.12.06-.36.06-.48a6.76,6.76,0,0,0-.18-1.08c0-.36.06-.78.06-1.14,0-.06-.12-.18-.12-.3s.24-.42.24-.6a9.26,9.26,0,0,0-.3-1c0-.3-.06-.72-.06-1,0-.6-.06-1.26-.06-1.8,0-.9.12-2.28.06-3.42,0-.06.06-.18.06-.24a.85.85,0,0,0-.24-.12c0-.18.12-.36.12-.6,0-.48-.3-1.38.12-1.8.06-.24-.12-.48-.12-.72a4.09,4.09,0,0,1,.12-1.14,3.39,3.39,0,0,1,0-.78.74.74,0,0,0-.12-.3,8.7,8.7,0,0,0,.36-1.14c0-.36-.12-.66-.12-1.08,0-.24.12-.59.12-.84a5.32,5.32,0,0,0,.12-.9c0-.35-.18-.77-.18-1.14a3,3,0,0,0,.12-.71c0-.19-.12-.31-.18-.55s.06-.48.06-.71-.3-.49-.3-.79.12-.18.12-.24a4.57,4.57,0,0,0-.18-1.26c-.06-.24.06-1.92.06-2.21,0-.79.06-1.57.06-2.29s-.36-1.55-.36-2.28a13.35,13.35,0,0,1,.24-1.5c0-.11-.12-.11-.12-.24s.12-.18.12-.29-.18-.37-.18-.48a6.29,6.29,0,0,1-.06-1.08,6.5,6.5,0,0,1-.18-1c0-.18.12-.24.12-.42a3.52,3.52,0,0,1,0-1.13c-.18-.31-.54.18-.66-.13s-.12-.42-.3-.48c-.06-.6.48-.6.3-1.26a2.59,2.59,0,0,1,1.86.06,3.4,3.4,0,0,1,2-.35,5.86,5.86,0,0,0,.6-.31,16.47,16.47,0,0,0,3.06.18c.3.19.42.55.66.79-.18.47,0,.84.06,1.5a4.65,4.65,0,0,1,.12,1c0,.13-.18.36-.24.49a8.69,8.69,0,0,0,0,1.25c0,.07-.12.18-.12.36a21.63,21.63,0,0,0,.3,3.6,8.76,8.76,0,0,1,.18,1.92,9.09,9.09,0,0,0-.12,1.27c.06.77.72,1.61.3,2.21.24.55.66,1.5.24,2.05.06.23.24.35.3.47.06.37-.18.3-.18.48.42.48.06,1.56,0,2.34,0,.18.12.36.12.48s-.12.3-.12.42c0,.42.3.78.18,1.26a1.16,1.16,0,0,0,.66-.66,8.38,8.38,0,0,0,1.92-2c.3,0,.24-.3.6-.18a1,1,0,0,1,.36-.6c.18-.18.3-.18.3-.18s.06-.24.12-.3a2.81,2.81,0,0,0,.36-.18c.24-.11.24-.29.72-.29.18,0,.06-.37.3-.37.42-.12.54-.54,1.08-.54.12-.54.6-.66.78-1.14.18-.11.3-.3.6-.3.3-.36.84-.89,1.38-1.49.12-.19.24-.24.42-.43s.36-.47.66-.72c.12-.12.3-.17.42-.3s.06-.24.18-.36a1.38,1.38,0,0,1,2-.35,5,5,0,0,1,2,.35c.54.12,1.08.12,1.32.6a3,3,0,0,1,2.16.06,2,2,0,0,1,.3,1.57c-.24.18-.36.53-.84.53-.24.18-.36.48-.6.66-.06.07-.24.07-.3.07-.18.17-.36.47-.6.71s-.54.18-.78.42c-.06.06-.06.24-.12.3s-.18.07-.3.12-.12.18-.18.24-.24.06-.3.13,0,.17-.12.29-.24,0-.24.06-.06.24-.12.31a3,3,0,0,1-1.38,1.31,4.63,4.63,0,0,1-1,1.14,1.16,1.16,0,0,0-.6.6c-.12.06-.36.06-.48.18-.18.61-.84.78-1.08,1.38-.24,0-.3.18-.48,0-.06.66-.6.78-1,1.08-.3.9-1.2,1.32-1.74,2-.24.18-.3-.06-.6,0-.24.3-.12.66-.3,1a9,9,0,0,1-.78.66c-.24.18-.3.42-.54.6.3.9,1.14,1.26,1.44,2.16.72.6,1.56,1,2.34,1.68a4.4,4.4,0,0,1,.78.6c.3.3.48.78.78,1.08a10,10,0,0,1,.72,1,6.81,6.81,0,0,1,1.5,1.44,3.75,3.75,0,0,1,1.08,1.26c1.44.6,1.86,2.16,3.18,2.88.12.78.72,1.08,1.26,1.5a5.93,5.93,0,0,0,.54,1.44c.06.24.3.18.48.3s.48.84,1,1a.76.76,0,0,0,.42.6,1.59,1.59,0,0,0,.06.78c.12.36.42.54.48.9C373.21,60.19,372.79,60.61,372.61,61Z"/><path class="cls-2" d="M409.21,42.61c.06.54.24.78,0,1.26-.18.3-.78.42-.9.66a2.32,2.32,0,0,0-1.44.06c-.54-.42-1.8-.12-2.34-.54a1.56,1.56,0,0,1-.66.18,15.57,15.57,0,0,1-3.6-.36c-.84-.06-1.86-.06-2.58-.06a4.63,4.63,0,0,1-.9.12c-.6-.06-1.14-.42-1.74-.42a12.69,12.69,0,0,0-1.44.12,5.25,5.25,0,0,1-1-.12c-.12,0-.3.12-.42.12a1.41,1.41,0,0,0-.48-.12c-.54,0-1.08.24-1.5-.24a1.31,1.31,0,0,1-1,.3c-.36-.06-.6-.12-.72-.12s-.3.18-.3.18c-.24,0-.6-.24-.9.06-.12-.18-.6,0-.78-.18s-.18.18-.36.18c-.66-.3-1.2-.06-1.86-.06a10.35,10.35,0,0,0-2-.12,3.23,3.23,0,0,0,.24,2.58c.06.42-.12.6-.12.9.06.12.24.12.3.18s0,.24.06.3a8.23,8.23,0,0,1,1,1.08c.36.6,1,1.08,1.44,1.8a10,10,0,0,0,.72,1,4.41,4.41,0,0,1,1.56.84,2,2,0,0,0,.36.18,9.56,9.56,0,0,0,1.26.9,6.3,6.3,0,0,0,.78.12c.36.12.9.72,1.44.78a4.65,4.65,0,0,1,.54-.06,4.08,4.08,0,0,1,.9.12,2.16,2.16,0,0,0,1.44-.36,4.54,4.54,0,0,0,.9-.06c0-.06.06-.18.06-.24s.18.06.24,0,.12-.18.18-.18c.24-.06.54.12.78-.06a1.36,1.36,0,0,1,.6-.3,6,6,0,0,0,1.14-.72l.78-.48c.78-.48,1.26-1.5,2-2.16a3.92,3.92,0,0,1,.72-2,3,3,0,0,1,.54-1.74,1.59,1.59,0,0,1,1.08-.06c.24.12.42.24.78.42s.48.12,1,.3c.12.06.24.18.36.18s.36,0,.6.06.24.18.36.18c.3.06.84-.12,1.14,0,.06.06.12.18.24.24a1,1,0,0,1,.54.48,2.3,2.3,0,0,1-.42,1.32c-.06.18-.12.54-.36.48-.06.3.12.36.06.72s-.24.36-.3.66a8.5,8.5,0,0,1-.42,1.32,3.43,3.43,0,0,1-.42.48,2.24,2.24,0,0,1-.9.78c.18.36-.36.54-.48.72-.18.48-.66.78-1.2,1.14-.6.54-1.38.9-1.92,1.32l-.54.36a2.28,2.28,0,0,1-1,.66c-.18.12-.24.06-.42.12,0,0-.12.18-.18.18a9.43,9.43,0,0,1-1.38.24c0,.06-.24.18-.24.18l-1.8.36a2.43,2.43,0,0,1-1.26.18c-.18,0-.42-.12-.54-.12s-.54.42-.9.12c-.3-.12-.12.36-.48.24s-.9.12-1.38.06A3.16,3.16,0,0,1,391,59c-.24-.06-.3.12-.42.06s-.18-.18-.18-.18a14.4,14.4,0,0,1-2.4-.36c-.24-.06-.54,0-.66-.3a2.28,2.28,0,0,1-1.86-.72,2.71,2.71,0,0,1-.66-.18c-.48-.24-1.14-.42-1.44-1-.6,0-.84-.42-1.14-.72a1.82,1.82,0,0,1-1.5-.9,6.32,6.32,0,0,0-.9-.9c-.12-.12,0-.42-.18-.54-.66-.3-1-1-1.68-1.2-.12-.42-.54-.72-.78-1.08a2.51,2.51,0,0,1-.24-.6c-.12-.18-.3-.3-.42-.48-.18-.54-.24-1.2-.42-1.8a1.15,1.15,0,0,1-.18-.48c-.06-.36,0-.72-.06-1s-.24-.48-.3-.72,0-.78-.06-1.26a6.76,6.76,0,0,1-.18-1.08c0-.54.12-1.14.12-1.74,0-.18-.06-.48-.06-.66.06-.42.36-.84.42-1.26a1.13,1.13,0,0,0-.12-.48c0-.18.18-.42.06-.6.18-.12.24-.48.3-.66a8.55,8.55,0,0,1,.18-1c.06-.06.18-.12.24-.18a.54.54,0,0,0,.06-.3c.06-.06.18-.12.24-.17s-.06-.31,0-.37a2.1,2.1,0,0,1,.3-.48c.06-.18.12-.42.18-.6s.24-.24.3-.36-.06-.36,0-.48.18-.06.24-.18c.12-.48.18-.78.3-1.2a2.07,2.07,0,0,1,.78-1.14c-.18-.18,0-.36,0-.53a4.62,4.62,0,0,0,1-1.69c.72-.47,1.14-1.31,1.86-1.86a2.8,2.8,0,0,1,.6-.29c.06-.07.06-.13.18-.19a.63.63,0,0,1,.3-.05,6.3,6.3,0,0,1,1.2-.91c.48-.17,1.68-.06,2.1-.59a3,3,0,0,0,1.38-.49,2.4,2.4,0,0,1,1.38-.35,4,4,0,0,0,1.62-.13,5.66,5.66,0,0,1,1.2-.18c.12,0,.3.12.48.12.66,0,1.2,0,2,.06.42,0,.78-.18,1.26-.18.06,0,.12.12.24.12a2.66,2.66,0,0,1,.9,0,2.7,2.7,0,0,1,.6.19c.42,0,.66.24,1,.42.18.11.48.11.66.24a3.62,3.62,0,0,1,.72.29c.48.18,1,.24,1.2.78.18.06.3,0,.48.12a6.09,6.09,0,0,1,1.08.78c.3.24.6.79,1,1,.06.24.24.36.3.66.66.37,1,1.08,1.8,1.38.24.54.66.84.72,1.5.18.24.36.54.6.9.06.18.36.42.42.67a3.71,3.71,0,0,0,.6,1.19,3.87,3.87,0,0,1,.66,1c.06.3.06.66.12,1s.24.6.3.78c.12.6,0,1.2.06,1.86.06.42.12,1,.18,1.44a3.69,3.69,0,0,0,.06.78c0,.24.18.42.18.6S409.21,42.43,409.21,42.61Zm-8.58-6c-.18-.11,0-.3-.06-.48s-.54-.06-.3-.36c-.24-.24-.72-.3-.66-.77-.36,0-.48-.37-.6-.42s-.18-.07-.24-.13c-.3-.24-.36-.66-.66-.9s-.6.18-.6-.3a2.79,2.79,0,0,1-2.4-1.2,15.63,15.63,0,0,1-2.4.06c-.54-.36-1-.18-1.74-.36-.3-.06-.18-.48-.6-.48-.54.24-1-.18-1.62-.24a9,9,0,0,1-2,.66c-.36.12-1,.9-1.2,1.14-.54.67-1.08,1.32-1.56,1.86.06.48-.18.66-.12,1.08-.54.42-.66,1.32-.84,2.1a12.71,12.71,0,0,0,2-.12,3.42,3.42,0,0,1,.78-.06c.18-.06.3-.18.48-.18.72-.06,1.5.06,2.22,0a5.18,5.18,0,0,1,2.16.06,6.75,6.75,0,0,1,2.88-.12c.12,0,.12-.12.3-.12s.12.12.3.12.24.18.48.12c1.8-.3,4.08.18,6.3-.18C401.05,37.27,400.93,36.73,400.63,36.61Z"/><path class="cls-2" d="M435.55,32.47c-.18.19-.18.06-.36.19s-.18.23-.42.29c-.06,0-.18.13-.3.06-.66-.06-.66-.84-1.32-1.14a6.23,6.23,0,0,1-1.14.06,9.61,9.61,0,0,0-1.08.42,2.29,2.29,0,0,1-.6.18c-.48.24-.66.36-1.08.6s-.42.6-.78,1a9.6,9.6,0,0,0-1.5,1.08c-.18.25-.18.66-.42,1-.06.18-.36.24-.48.42s-.06.18-.12.24-.12.18-.18.24.06.3,0,.48-.42.54-.3,1c-.12.18-.36.3-.42.48s.06.36,0,.48-.18.12-.18.18c-.12.24-.12.48-.24.72s-.24.36-.3.54.06.48,0,.78a3.56,3.56,0,0,1-.24.48,6.49,6.49,0,0,1,0,1.08c-.06.54-.3,1-.42,1.62a11.58,11.58,0,0,1-.06,1.38c0,.24-.18.48-.18.78-.06.6.3,1.2-.24,1.68a2.29,2.29,0,0,1-.06,2c.6,1.68-.3,4.2.18,6.06.18.48.9.36,1.26.66,0,.24.3.42.36.78a1.54,1.54,0,0,1-.78,1.32c-.3.12-.6-.06-1.2.06a7.58,7.58,0,0,0-1.08.48,12.75,12.75,0,0,1-2.4.6l-1.2.18c-.48.12-1,.42-1.32.36-.78-.12-1.08-1-1.08-1.86a6.61,6.61,0,0,0,.12-1.08,6.37,6.37,0,0,0-.24-1.14,27.06,27.06,0,0,1,0-3.12c0-.3.12-.6.12-.84a4.78,4.78,0,0,1-.18-.9,10.66,10.66,0,0,1-.3-1.68c0-.24-.06-.6-.06-.84a11.07,11.07,0,0,1,.24-1.38c0-.18-.12-.24-.12-.48s.18-1.08.18-1.62-.24-1-.3-1.44c0-.24.06-.66.06-.72-.06-.24-.18-.36-.18-.54-.06-.48-.06-1.14-.12-1.5,0-.12-.06-.36-.06-.48a7.46,7.46,0,0,1,.24-1c.12-.78-.06-1.62,0-2.4.06-.6.36-1.2.36-1.73,0-.25-.06-.55-.06-.79s.12-.54.12-.78a2.71,2.71,0,0,1-.18-.66,8.21,8.21,0,0,1,.12-1.68,7.5,7.5,0,0,0-.18-1.14,2.43,2.43,0,0,0,0-.66c0-.18-.18-.29-.18-.42,0-.36.24-.84.24-1.26a3.64,3.64,0,0,1,.12-1.79c0-.42-.3-.61-.48-.9.3-.67-.12-1.33.06-1.92a1.23,1.23,0,0,1,1-.37c.6,0,.78.42,1.08.66a7.65,7.65,0,0,0,2.34,0c.42,0,.9.13,1.26.13.6-.07,1-.55,1.92-.25.3.18.24.49.48.84,0,.07.18.18.18.24s-.12.18-.12.25.12.17.12.29a3.85,3.85,0,0,0-.18,2c.48,0,.72-.36,1-.66a3.93,3.93,0,0,0,.54-.54c.06-.05.06-.23.12-.3s.24-.06.3-.12.36-.36.6-.54.6-.35.78-.66c.72-.11,1.38-.84,2.22-.53.36-.37,1.38-.79,1.86-.37.3.06.3-.29.48-.36,1,.36,2-.35,3-.12.36.06.54.3.78.42a2.1,2.1,0,0,1,.78.3c.54.84.12,1.92.06,2.89-.06.23.06.42.06.59,0,.36-.12.72-.12,1.09,0,.89.12,1.79.12,2.69C435.67,32.23,435.67,32.35,435.55,32.47Z"/><path class="cls-2" d="M473.17,28.69c0,.42.06.84.06,1.26,0,.72-.18,1.63-.24,2.58a6.47,6.47,0,0,1-.24,2.16,9.15,9.15,0,0,1,0,2.58c0,.3.12.6.12.9,0,.06-.12.18-.12.36s.12.24.06.42c0,.42-.24.72-.3,1.14a5.13,5.13,0,0,0,0,1c-.06.3-.18.6-.24,1a27.8,27.8,0,0,1-.42,3.12c-.06.12-.18.18-.24.36-.12.42-.18,1-.3,1.44s-.24.84-.42,1.38-.36,1.44-.54,2.1a6.73,6.73,0,0,1-.3.78,7.57,7.57,0,0,1-.42,1,5.53,5.53,0,0,1-.3.48c0,.18-.18.12-.18.18s-.06.18-.12.3-.12.06-.18.18a15.09,15.09,0,0,0-.9,1.44l-.18.18a1.31,1.31,0,0,0-.3.48,7.11,7.11,0,0,1-1.32,1.38c-.24.24-.6.42-.9.66-.06.06,0,.24-.06.3s-.24.06-.3.12c-.3.24-.54.6-.84.72a2,2,0,0,1-1.32.3c-.66.72-1.92.84-3.06,1.08a1.28,1.28,0,0,1-.66-.6c-.36.06-.48.36-.84.36s-.6-.18-.9-.18a3,3,0,0,1-1.8,0,3.15,3.15,0,0,1-1.08-.12c-.18,0-.3-.12-.48-.18a2.77,2.77,0,0,0-1.56-.24c-.24-.36-.78-.36-1.14-.6-.12-.06-.24-.3-.36-.36s-.48-.18-.42-.42c-.18,0-.3-.18-.48-.3s-.42-.06-.24-.42a1.25,1.25,0,0,1-.78-.18c-.24-.12-.24-.48-.66-.42-.12-.3-.48-.3-.48-.66-.42,0-.54-.36-.84-.42-.3-.66-1-1-1.56-1.5a3.48,3.48,0,0,1-.72-.6A5.66,5.66,0,0,1,444,52a2.61,2.61,0,0,0-.42-.36c-.12-.18-.12-.36-.24-.48s-.36-.18-.48-.36-.06-.18-.12-.24a2.23,2.23,0,0,1-.54-1.2,2.35,2.35,0,0,1-.48-.6c.18-.36-.18-.6-.24-1-.18-.66-.12-1.44-.24-2a3.59,3.59,0,0,0-.48-1c-.06-.3.18-.3.12-.6s-.3-.3-.42-.48a1.83,1.83,0,0,0-.3-1.38c.36-.84-.42-1.62-.18-2.4a2.13,2.13,0,0,0,.06-.9,3.1,3.1,0,0,1,.12-1.26c.06-.24-.24-.54-.3-.84s.24-1.14.24-1.68a3.64,3.64,0,0,1-.06-.78c0-.24.24-.42.3-.66-.18-.9,0-1.56-.18-2.4-.06-.36.36-.18.42-.36.06-.35-.18-.42-.18-.72a5.93,5.93,0,0,0,.54-1.44,3.92,3.92,0,0,1,0-.84c0-.24.18-.35.18-.59s-.06-.49.06-.84a1.19,1.19,0,0,1,.36-.79,2.5,2.5,0,0,1-.06-1.86c.42-.24,1-.18,1.38-.42.12.18.66,0,.66.31.12-.31.42-.07.6-.13s.48-.18.78-.18c.78,0,1.62.07,2.34,0a1.25,1.25,0,0,1,.24.49,2.58,2.58,0,0,1,.36,1.43,31.89,31.89,0,0,1,0,4.15c0,.29.12.59.12.89a11.65,11.65,0,0,0-.12,1.45,3.92,3.92,0,0,0-.12.77,3.23,3.23,0,0,0,.18.6c.06.55.06,1.44.06,1.74-.12.66.18,1.26-.06,1.81.6.89.42,2.15.48,3.41a12.1,12.1,0,0,1,.3,1.68c0,.12-.12.3-.12.48s.18.42.18.66a8.76,8.76,0,0,0,.06,2.52,6.25,6.25,0,0,0,.36,1,5.47,5.47,0,0,0,.36,1,2.07,2.07,0,0,0,.48.54,1.66,1.66,0,0,0,.36.48c.24.3.48.72,1,.78,0,.3.18.48.24.72a8.55,8.55,0,0,1,1,.18c.18.3.54.42.66.72a1.3,1.3,0,0,1,1,.36c.48-.18.9.24,1.56.24.24,0,.72-.18,1-.18a.87.87,0,0,0,.6.06,16.61,16.61,0,0,0,2.46-.72c.12-.12.06-.24.18-.3s.36-.12.48-.3.06-.18.12-.3c.3-.36.66-.72,1-1.14a2.12,2.12,0,0,0,.54-.66,3.43,3.43,0,0,1,.66-1,4.06,4.06,0,0,1,.72-1.8c0-.48,0-.9.3-1.08-.12-.3.12-.48.06-1,.06-.24.3-.36.42-.66s-.06-.54.18-.66a5.75,5.75,0,0,1,.06-3.18c.06-.35.3-.66.3-1s-.12-.42-.06-.6.18-.48.24-.78-.12-.66-.12-1.08c0-.24.12-.54.12-.84a8.28,8.28,0,0,0-.18-1.2c0-.3.12-.6.12-1a9.36,9.36,0,0,0-.06-1.26c0-.3.12-.59.12-1s-.06-.54-.06-.78.3-.72.12-1.14c0,0-.3-.18-.3-.29s.18-.25.12-.37a2.16,2.16,0,0,1-.3-.54c0-.06-.06-.35-.06-.35,0-.19.12-.19.12-.37a3.09,3.09,0,0,1-.18-.71c-.06-.07.06-.13.06-.31s-.12-.11-.06-.24.12-.24.18-.42,0-.24.12-.36c.54-.59,2.16-.24,3.42-.42a1.88,1.88,0,0,1,.54-.17c.3-.07.54.05.78,0,.48-.07,1-.42,1.56.05a1.39,1.39,0,0,1,1.92.12c.24.3.18.49.3,1a2.79,2.79,0,0,1,.06,1,11.64,11.64,0,0,0,.18,1.43C473.41,27.67,473.17,28.21,473.17,28.69Z"/><path class="cls-2" d="M533.47,59.05a16.39,16.39,0,0,0-1.86.84,3.78,3.78,0,0,0-1.56,1.2c-.48.06-.66.24-1,.18s-.36-.18-.48-.42c-.06-.06-.18-.12-.24-.18a3.44,3.44,0,0,0-.24-.42,1.62,1.62,0,0,0-.78-.54,4.5,4.5,0,0,0-.48-1.08c0-.12-.12-.18-.18-.24s-.12-.6-.48-.66A1,1,0,0,0,526,57a5.3,5.3,0,0,0-1.32-1.26c.18-.3-.12-.54-.24-.78a6.54,6.54,0,0,0-.36-.66c-.12-.12-.24-.18-.3-.3-.18-.3-.3-.72-.66-.9-.06-.24-.18-.36-.06-.66-.12-.24-.42-.18-.6-.36a3.73,3.73,0,0,0-.84-1.14c-.12-.12-.3-.48-.48-.72a6.78,6.78,0,0,1-.66-.66,3.67,3.67,0,0,0-.3-.72c-.42-.6-1.08-.9-1.56-1.56a5.66,5.66,0,0,0-.6-.6,1.81,1.81,0,0,1-.48-.48c0-.06,0-.24-.06-.3a2,2,0,0,1-.66-1c-.18-.36-.54-.48-.66-.9-1.32-.06-1.92-1.5-2.94-2.1-.18-.12-.36-.18-.3-.48-.24,0-.42-.06-.48-.24-.36.18-.18.6-.24.78a6.49,6.49,0,0,0,0,1.08c.06.48.3,1,.36,1.62s-.06,1.26-.06,1.86c.06.42.12.78.18,1.2a5.12,5.12,0,0,0,0,1c0,.66.18,1.38.12,2,0,.84-.12,1.44-.06,2.4.06.66.36,1.08.36,1.56v.78c-.06.54-.24,1.08.24,1.44-.3.6.18.9.06,1.62-.3.18-.48.48-.9.48s-.36-.18-.54-.18c-.6-.12-1.26,0-1.62-.36a4,4,0,0,1-.9.36c-.9.18-2.28-.12-3.18.06-.24.06-.78.06-1.2.18a4.18,4.18,0,0,1-.66-1.38c0-.42.18-1.08.18-1.62a7.23,7.23,0,0,1-.06-2c-.06-.18.12-1.68.12-2.22s-.12-.9.12-1.32c-.18-.3,0-.6-.06-1-.06-.84-.3-2.16-.3-3.06-.06-.36-.3-.48-.36-.78a32,32,0,0,0-.12-3.42c0-1,.12-1.92.06-3a7.5,7.5,0,0,1-.18-1.14,4.51,4.51,0,0,0,0-.9,4.2,4.2,0,0,0-.18-.84c0-.24.12-.54.12-.78,0-.78-.24-1.44-.24-2.46,0-.18.12-.42.12-.66s-.18-.3-.18-.48c0-.47.24-1,.24-1.55a7.34,7.34,0,0,1-.18-1.26c-.24-.37.3-1.27.06-1.74.18-.07.18-.31.3-.49-.06-1.14-.06-1.8-.06-3,0-.18.12-.3.12-.48s-.18-.36-.18-.6c-.06-.6.12-1.19.06-1.79a3.16,3.16,0,0,1-.18-.72,1.82,1.82,0,0,1,.12-.49c0-.18-.12-.29-.12-.48a6.28,6.28,0,0,0,.24-1c-.06-.48-.36-.6-.48-1a4.78,4.78,0,0,0,.12-1.33,2.35,2.35,0,0,1,.42-.95c.72,0,1.56.11,2.52.11.18,0,.3.07.48.07s.3,0,.36,0a8.15,8.15,0,0,0,1.2-.13,2,2,0,0,0,.78.06c.18,0,.12-.11.24-.11.36,0,.66.11,1,.11s.6-.11.84.07.24.18.36.48a.48.48,0,0,1,.18.29c.06.31-.18.73-.18,1-.06.61.18,1.21.12,1.87,0,.42-.18.77-.18,1.26-.06.71.06,1.61-.06,2.58-.06.29-.18.6-.24.89s-.06.61-.12.84-.36.72-.42,1.08c0,.61.54,1.2,0,1.74a2.93,2.93,0,0,1,.18.42,4.76,4.76,0,0,1-.12.48,6.1,6.1,0,0,0,.3.78,3.27,3.27,0,0,0-.06,1.32.89.89,0,0,0,.72-.66c.3-.05.36-.42.6-.66s.36-.23.54-.36.12-.24.24-.3a1.31,1.31,0,0,1,.3-.18c.06-.05,0-.18.06-.29s.36-.31.54-.49,0-.18.06-.3a.42.42,0,0,0,.24-.05c.06-.07,0-.25.06-.31a.36.36,0,0,1,.24-.06c.06-.12,0-.24.06-.29s.18-.07.24-.13,0-.18.06-.29c.72-.73,1.74-1.63,2.58-2.34.12-.07.12-.07.18-.18a.88.88,0,0,1,.42-.31c.06-.06.18-.42.48-.35a9,9,0,0,0,.54-.79c.3,0,.24-.29.66-.18a8.52,8.52,0,0,1,1.08-1.43c.12-.25.3-.18.42-.25s.36-.48.6-.77c.06-.13,0-.18.06-.31s.18-.06.24-.06c.12-.18.12-.36.3-.47a4.23,4.23,0,0,0,.66-.79,1.55,1.55,0,0,1,.3-.35c.24-.31.6-.49.6-.91.24.07.72-.48,1.2-.53.3-.06.84.11,1.44.11,1.08.07,2.28-.06,3.6.13a1.29,1.29,0,0,1,.48,0,1.64,1.64,0,0,1,.54.18c.42.11.9.11,1.38.24a2.72,2.72,0,0,0,.54.11c.3,0,.54-.11.72-.11l.24.23a1.22,1.22,0,0,1,.72.61c.12.53-.48,1-.66,1.44-.36.06-.6.41-.84.66a6.92,6.92,0,0,0-.84.66A6,6,0,0,1,531,21.43a7.5,7.5,0,0,1-.9,1c-.3.23-.48.66-1,.71a1.62,1.62,0,0,0-.3.66,9.53,9.53,0,0,0-1.38,1.39,6.83,6.83,0,0,0-1.32,1.31c-.6.12-.66.78-1.26.9a4.93,4.93,0,0,1-1.08,1.14,4.88,4.88,0,0,0-1.14,1.08c-.3-.06-.3.24-.66.18-.18.24-.24.6-.42.84-.36.06-.48.36-.66.55a1.38,1.38,0,0,0-.6.71,9.52,9.52,0,0,0-2.46,2.05c-.3.29-.66.47-.72.77,0,.48.84,1.14,1.26,1.56s.78,1,1.2,1.5c.3.3.54.67,1,.78.06.48.48.66.72,1a7.49,7.49,0,0,1,.48.72c.18.3.48.6.66,1a4,4,0,0,1,1.32,1.8c.3.06.48.3.78.48a1.21,1.21,0,0,1,.48.48,7.6,7.6,0,0,0,.66.78c.06.12.06.3.18.42a2.56,2.56,0,0,1,.54.9,1.07,1.07,0,0,1,.66.48c.18.24.6.48.84.78s.12.6.48.6c.24.84,1,1.2,1.26,2a3.58,3.58,0,0,1,.66.36c.06.24.24.3.18.6.36.06.42.36.54.6.3,0,.42.36.6.48a3.88,3.88,0,0,0,.48.54c.06.12.06.24.18.36a1.81,1.81,0,0,0,.48.48c.36.54.78,1,1.08,1.38a6.08,6.08,0,0,0,.84,1.2,4.25,4.25,0,0,0,1,.24c-.06.42.36.3.54.48.48.42.36.84.06,1.62C535.51,58.87,534.37,58.75,533.47,59.05Z"/><path class="cls-2" d="M572.83,40.69c-.06.36.24,1-.06,1.26.48.42.18,1,.06,1.62-.06.36.06.78,0,1s-.24.36-.3.54-.12.48-.3.48A2.7,2.7,0,0,1,572,47c-.06.12-.06.3-.12.48s-.18.24-.18.36.06.42,0,.6-.24.36-.3.54c-.24.6-.48,1.2-.72,1.86a8.67,8.67,0,0,1-1.14,2.1,3.39,3.39,0,0,1,0,.78,4.76,4.76,0,0,0-1,1.14,3.53,3.53,0,0,1-.6,1c-.3.36-.72.54-1.08.9-.42,0-.36.12-.66,0a4.23,4.23,0,0,1-2,1.14,1.31,1.31,0,0,0-.3.18c-.18,0-.36-.06-.48,0a5.93,5.93,0,0,1-1.56.42c-.18,0-.42-.12-.6-.12s-.54.24-.9.3c-.6.12-1.32.06-2,.12-.12,0-.18.12-.24.12s-.12-.12-.24-.12-.24.18-.36.18H557c-.18,0-.42-.06-.54,0a4.33,4.33,0,0,1-1.68.24c-.18-.06-.12.18-.3.18-1,.06-2.46.24-3.24-.36a1.17,1.17,0,0,1-.78.06c-.18,0-.24-.12-.42-.18h-.36a6.14,6.14,0,0,1-2.34-.9,1.66,1.66,0,0,0-.54-.06c-.54-.3-.84-.72-1.62-.78,0-.3-.24-.3-.18-.6-.3.18-.42-.18-.6-.3s-.42-.18-.6-.3a2.77,2.77,0,0,0-.42-.42c-.18-.12-.48-.18-.6-.3a2.62,2.62,0,0,1-.48-.6c-.12-.12-.48-.24-.36-.54-.3-.24-.54-.48-.84-.72-.06-.3-.24-.42-.18-.78-.18-.18-.3-.18-.48-.42-.06-.06-.06-.18-.12-.24-.24-.06-.12-.18-.18-.24s-.3-.42-.48-.66a10.94,10.94,0,0,1-.36-1.08c-.06-.18,0-.24-.06-.42a1.37,1.37,0,0,1-.18-1c-.12-.24-.42-.36-.48-.6-.12-.6-.06-1.14-.18-1.68-.06-.36-.42-.66-.24-1.08-.24-.24-.3-.66-.54-.84.12-.48-.18-1-.18-1.56a5.32,5.32,0,0,1,.12-.9v-1a6.31,6.31,0,0,1,.36-1.26c.06-.42,0-.84.3-1-.3-1,.36-1.8.36-2.82.18-.12.18-.54.36-.66,0-.84.42-1.26.54-1.92.42-.18.54-.6.78-1,.12-.12.24-.12.3-.18s.18-.66.6-.6c.12-.29,0-.18,0-.53.48-.18.66-.67,1.14-1,.12-.06.36-.12.48-.18s.24-.18.36-.3a4.58,4.58,0,0,0,.54-.54,5.94,5.94,0,0,1,1-.66,4.55,4.55,0,0,1,1-.77c.12-.07.3-.31.48-.37a1.57,1.57,0,0,1,.48-.05c.24-.13.72-.55,1.08-.31a3.57,3.57,0,0,1,2.52-.72c.3.06.3-.23.48-.23a11.57,11.57,0,0,1,2.16-.19c.3,0,.6.12.84.12a6.79,6.79,0,0,0,1.08-.17c.24,0,.42-.07.6-.07a4.08,4.08,0,0,1,1.44,0,2.15,2.15,0,0,0,.6.24c.18,0,.48-.12.66-.12s.48.19.66.24a2.29,2.29,0,0,0,.6.18c.24.06.54,0,.78.06a2.76,2.76,0,0,1,1,.31c.3,0,.66.24,1,.29,1.08.19,2-.05,3,.37a5.74,5.74,0,0,1,.66.42c.06,0,.24-.07.3,0s.24.29.36.35.48.12.36.42a8.24,8.24,0,0,1,2.34,1.5,2,2,0,0,0,.36,1c.3.29.54.59.84.89.12.12.06.37.18.66a9.25,9.25,0,0,0,.72,1.32c0,.6.06.48.3,1s.36,1.13.9,1.37c-.06.42.3.84.36,1.26a15.17,15.17,0,0,1,.06,1.62c0,.18-.12.36-.06.48,0,.3.12.6.12.9S572.83,40.51,572.83,40.69Zm-7-1.38a2.88,2.88,0,0,0,0-.72c-.12-.78-.54-1.44-.72-2.34a7.11,7.11,0,0,0-.12-1.56c-.3-.11-.24-.48-.42-.66s-.6-.42-.66-.78a6.81,6.81,0,0,1-1.14-.59,5.43,5.43,0,0,1-1.14-.13c-.36-.11-.54-.36-.84-.42-.6-.06-.66.31-1.32.18-.42-.18-.54-.66-.9-.9a1.73,1.73,0,0,0-.78-.06c-.24-.06-.24-.36-.6-.3a3.55,3.55,0,0,1-2.4.24,1.75,1.75,0,0,0-.72.42c0-.24-.48-.06-.66-.11-.66.42-1.62.77-2.22,1.08-.18.05-.3,0-.42.11s-.42.48-.6.66a5.87,5.87,0,0,1-.66.66,2.18,2.18,0,0,1-.42.18c-.72.36-1.08,1.08-1.74,1.38-.06.6-.6.9-.84,1.44s-.24,1.08-.42,1.44A4.13,4.13,0,0,1,546,39c-.3.9,0,1.86-.48,2.64.24.12.12.48.18.78s.36.78.18,1.26c-.06.12-.24.06-.18.3.18.06.18.3.24.48a1.31,1.31,0,0,1,.3.48c.06.06-.06.18,0,.3s.42.48.24.84c.36.12.3.6.6.72-.18.42.42.84.24,1.56a1.31,1.31,0,0,1,.3.18c.06.12,0,.24.06.42s.42.36.42.66c.42.12.66.6,1,.9.18.18.36.24.54.42.36.24.54.48.78.66.06.06.12.18.18.18.24.12.54.12.78.24s.42.36.6.42c.6.24,1.38.12,1.92.72.66,0,1,.3,1.8.24.3,0,.42.3.78.3a4.74,4.74,0,0,1,.78-.18,5.94,5.94,0,0,1,1.08.12,5,5,0,0,0,1.26-.54,1.64,1.64,0,0,1,1.08-.48c.06-.36.42-.54.66-.78a3.3,3.3,0,0,0,.9-1,7.62,7.62,0,0,1,.6-.72A16.64,16.64,0,0,0,564.13,48a6,6,0,0,0,.6-1.26c.06-.12,0-.3,0-.48s.3-.42.12-.54a3.57,3.57,0,0,0,.24-1.44c.42-.42.3-1,.42-1.68.06-.36.3-.66.3-1a13.08,13.08,0,0,0,.12-2C566,39.43,565.87,39.43,565.87,39.31Z"/><path class="cls-2" d="M629.89,57.13a2.27,2.27,0,0,1-.3.48c-.3.24-.48.18-.9.3-.18.06-.48,0-.78.06a5.62,5.62,0,0,1-1,.24c-.36.06-.78.06-1.2.12-.66.06-1.32.24-2,.24a3.07,3.07,0,0,1-1.74.24c-.18-.3-.48-.48-.66-.78a2.87,2.87,0,0,1,.54-1.62c-.06-.18-.06-.36-.12-.54s.06-.12.06-.24.12-.12.06-.24a3.13,3.13,0,0,1,.06-1.26c0-.12.18-.3.18-.48a33.38,33.38,0,0,0,.06-3.48,4.76,4.76,0,0,0,.24-.54c0-.24-.12-.48-.12-.72s.3-.6.36-.84-.3-.72.12-1a3.85,3.85,0,0,1-.18-2c0-.24-.06-.48-.06-.66,0-1,.24-2.1.18-3.12-.06-.42-.3-.9-.36-1.38a2.42,2.42,0,0,1,0-.66,2.71,2.71,0,0,1-.18-.66c-.06-.42.06-.84,0-1.26s-.18-.66-.18-1,.18-.66.12-.95a3,3,0,0,0-.18-.79,2.71,2.71,0,0,0-.06-.78c-.06-.24-.3-.42-.48-.72s-.24-.47-.36-.66-.42-.66-.66-1c-.12-.18-.24-.18-.48-.36,0-.06-.06-.17-.06-.24-.18-.06-.18.07-.42,0s-.12-.11-.24-.18a3,3,0,0,0-.78-.17,2.15,2.15,0,0,0-.9.11,8.44,8.44,0,0,0-.84.13c-.12,0-.18.11-.3.18s-.3,0-.42,0a12.52,12.52,0,0,0-1.08.66c-.3.24-.66.42-1,.66-.12.06-.12.24-.24.3s-.42.12-.54.3-.18.19-.3.36c-.06,0-.24.18-.3.3s-.12.37-.42.37a4,4,0,0,1-1.08,2c-.06.12-.24.18-.3.3a6.7,6.7,0,0,0-.42,1.14c0,.06-.18.18-.18.18s0,.3-.06.42-.18.12-.18.18.06.24,0,.31c-.12.23-.48.47-.6.77s-.06.54-.12.72-.24.3-.3.48-.06.48-.12.72c0,.06-.12.06-.18.18s0,.24,0,.36-.24.36-.3.6-.06.48-.12.66-.18.18-.18.18c-.12.3,0,.72-.36.9.06.9-.6,1.62-.72,2.58a4.25,4.25,0,0,1,.06.84c0,.3-.06.66-.06.9s-.18.42-.24.66-.06.9-.12,1.38c0,.18-.12.36-.12.54s.12.18.12.3c-.06.54.24,1.08-.06,1.68.12.36.54,1.08.06,1.44a1.93,1.93,0,0,1,.48.78c.06.36,0,.84.06,1.26s.54.84.36,1.56c-.12.54-.66.6-1.08,1-.36-.24-.9-.18-1.38-.42-.06-.06-.12-.18-.24-.24a12.54,12.54,0,0,0-1.5.06,6.06,6.06,0,0,1-1,.18c-.3,0-.54-.18-.78-.18-.48-.06-.84.18-1.26-.06-.66-.66-.3-2.34.18-3-.18-.12-.12-.42-.3-.54.36-.24.36-1.2.3-1.68s.3-.78.36-1.26c0-.24-.12-.48-.12-.78.06-1,.18-2.82.24-4.32,0-.36.06-.9.12-1.44,0-.12-.12-.12-.12-.24s.18-.3.24-.42c0-.6-.3-1.14.12-1.68.06-.18-.18-.24-.18-.36s.06-.36,0-.48a3.78,3.78,0,0,1-.36-1.08c0-.12.12-.18.12-.3a2.61,2.61,0,0,1-.24-.42c0-.12.06-.3.06-.48s-.24-.42-.3-.66.12-.24.12-.42a4.82,4.82,0,0,0-.36-1.8c-.24-.35-.12-.6-.18-.78-.12-.36-.3-.6-.48-1-.06-.18-.18-.24-.24-.54s-.24-.59-.36-.9a8.55,8.55,0,0,0-1.44-2A4,4,0,0,1,596,31c-.24-.06-.42.06-.72.06s-.48-.12-.66-.06a3,3,0,0,0-.36.18,9.52,9.52,0,0,0-1.2.42c-.54.24-1.08.37-1.56.54-.72.36-1.26,1-2,1.26-.36.49-.54,1.26-1.2,1.5a1.39,1.39,0,0,1-.18,1c-.06.18-.18.3-.18.48s-.06.36-.12.6c-.06,0-.18.12-.24.18s.06.18,0,.3c-.12.36-.24,1-.66,1.2a1.47,1.47,0,0,1-.36,1.08,5.84,5.84,0,0,1-.6,2.58c-.3.78-.18,2.1-.78,3-.06.36.24.42.18.78s-.3.48-.3.84a5.65,5.65,0,0,1-.3,4.08c.36.42.18.72.18,1.38,0,.18.12.24.12.36s-.18.48-.12.66a3.16,3.16,0,0,0,.18.72c0,.18-.12.3-.12.54s0,1.2.06,1.8c.06.9.66,1.8.3,2.7-1.68,1-3.6,0-5.82.06.12-.36-.3-.24-.48-.42a7.35,7.35,0,0,1-.12-1.14c0-.36.24-.66.3-1s-.12-.36-.12-.6c.06-.84.18-1.92.18-3a4.93,4.93,0,0,1,.12-1.62c-.36-.84.12-1.86-.18-2.7.36-1.08,0-2.22.36-3.6.06-.3-.3-.24-.3-.48-.06-.78-.06-1.5-.06-2.34,0-.24.12-.42.12-.6a7.34,7.34,0,0,0-.18-1c0-.42.06-.78.06-1.2s-.12-.66-.18-1a7.39,7.39,0,0,1-.18-1.74c0-.18.12-.35.12-.48s-.12-.3-.18-.48a4,4,0,0,1-.06-.78V33.19a2.88,2.88,0,0,0-.06-1.26c-.06-.24.06-.35-.06-.72s-.12-.54-.06-.78.12-.48.06-.72a6.28,6.28,0,0,0-.24-1c.06-.3.24-.42.3-.66a4.56,4.56,0,0,1,.24-2.34,2.92,2.92,0,0,1,.6-1.14c.66-.42,1.5.24,2.16.54C583,25,584.47,25,585.85,25a8,8,0,0,1,.66,1c0,.66-.18.95.06,1.43.48.12.72-.18,1.08-.35.06,0,.24-.07.3-.07.3-.24.6-.72,1.08-.77.18-.24.48-.31.6-.55a3.41,3.41,0,0,0,.78-.29c.06-.07.3-.13.36-.19.18-.23.24-.18.3-.18s.3-.42.48-.48l.72-.18c.18-.05.36-.12.54-.18a6.91,6.91,0,0,1,1.32-.36c.6-.06,1.2.36,1.92.07.18,0,.3.18.48.29a2.38,2.38,0,0,1,1.92.24,1.71,1.71,0,0,1,.9-.18c.36,0,.9.6,1.2.78s.72.18,1.08.3a.39.39,0,0,1,.06.25c.06,0,.18-.07.24,0s.24.11.24.17a4.6,4.6,0,0,1,1.62,1.33,4.61,4.61,0,0,1,.36,1.31,4.18,4.18,0,0,0,.42.61c.06.17.18.42.24.59.24.42.36.78.54,1.15.72-.13,1-.73,1.32-1.32.3-.13.66-.31.66-.73.84-.06.72-1,1.62-1,0-.31.36-.31.36-.66a16.5,16.5,0,0,0,2.1-1.33c.42-.24,1.08-.48,1.62-.83a11.06,11.06,0,0,0,2.64-.25c.9-.06,1.86-.06,2.7-.12a13.73,13.73,0,0,1,2.7.06c.3.06.66.24,1,.31s.78.11,1.08.24a2.06,2.06,0,0,1,.66.42,4.11,4.11,0,0,0,.78.29,2.35,2.35,0,0,0,.48.6c.18.19.3.12.36.19s.12.24.18.29a5.38,5.38,0,0,0,1.14.9,1.1,1.1,0,0,0,.48.66c.12.6.54,1.15.72,1.8l.12.24c.12.42.06,1,.18,1.56,0,.12.12.24.18.48.06.49.12,1,.24,1.56a4.36,4.36,0,0,1,.06,2c.24.37.24,1,.54,1.32a7.29,7.29,0,0,0-.12,1.38c0,.6.3,1.38-.06,1.74.84,1.08.42,2.7.48,4.44a10.6,10.6,0,0,1,.18,1.26c0,.78-.24,1.74-.24,2.22,0,.18.12.42.06.6s-.18.54-.18.78a4.78,4.78,0,0,0,.18.9c0,.18-.12.3-.12.54s.12.42.06.6-.18.6-.18.84.06.42.06.6V54c0,.24.18.6.18.84.06.54-.12.9.06,1.26s.36.3.36.78A2.6,2.6,0,0,0,629.89,57.13Z"/><path class="cls-2" d="M670.09,40.69c-.06.36.24,1-.06,1.26.48.42.18,1,.06,1.62-.06.36.06.78,0,1s-.24.36-.3.54-.12.48-.3.48a2.7,2.7,0,0,1-.24,1.38c-.06.12-.06.3-.12.48s-.18.24-.18.36.06.42,0,.6-.24.36-.3.54c-.24.6-.48,1.2-.72,1.86a8.67,8.67,0,0,1-1.14,2.1,3.39,3.39,0,0,1,0,.78,4.76,4.76,0,0,0-1,1.14,3.53,3.53,0,0,1-.6,1c-.3.36-.72.54-1.08.9-.42,0-.36.12-.66,0a4.23,4.23,0,0,1-2,1.14,1.31,1.31,0,0,0-.3.18c-.18,0-.36-.06-.48,0a5.93,5.93,0,0,1-1.56.42c-.18,0-.42-.12-.6-.12s-.54.24-.9.3c-.6.12-1.32.06-2,.12-.12,0-.18.12-.24.12s-.12-.12-.24-.12-.24.18-.36.18h-.42c-.18,0-.42-.06-.54,0a4.33,4.33,0,0,1-1.68.24c-.18-.06-.12.18-.3.18-1,.06-2.46.24-3.24-.36a1.17,1.17,0,0,1-.78.06c-.18,0-.24-.12-.42-.18h-.36a6.14,6.14,0,0,1-2.34-.9,1.66,1.66,0,0,0-.54-.06c-.54-.3-.84-.72-1.62-.78,0-.3-.24-.3-.18-.6-.3.18-.42-.18-.6-.3s-.42-.18-.6-.3a2.77,2.77,0,0,0-.42-.42c-.18-.12-.48-.18-.6-.3a2.62,2.62,0,0,1-.48-.6c-.12-.12-.48-.24-.36-.54-.3-.24-.54-.48-.84-.72-.06-.3-.24-.42-.18-.78-.18-.18-.3-.18-.48-.42-.06-.06-.06-.18-.12-.24-.24-.06-.12-.18-.18-.24s-.3-.42-.48-.66a10.94,10.94,0,0,1-.36-1.08c-.06-.18,0-.24-.06-.42a1.37,1.37,0,0,1-.18-1c-.12-.24-.42-.36-.48-.6-.12-.6-.06-1.14-.18-1.68-.06-.36-.42-.66-.24-1.08-.24-.24-.3-.66-.54-.84.12-.48-.18-1-.18-1.56a5.32,5.32,0,0,1,.12-.9v-1a6.31,6.31,0,0,1,.36-1.26c.06-.42,0-.84.3-1-.3-1,.36-1.8.36-2.82.18-.12.18-.54.36-.66,0-.84.42-1.26.54-1.92.42-.18.54-.6.78-1,.12-.12.24-.12.3-.18s.18-.66.6-.6c.12-.29,0-.18,0-.53.48-.18.66-.67,1.14-1,.12-.06.36-.12.48-.18s.24-.18.36-.3a4.58,4.58,0,0,0,.54-.54,5.94,5.94,0,0,1,1-.66,4.55,4.55,0,0,1,1-.77c.12-.07.3-.31.48-.37a1.57,1.57,0,0,1,.48-.05c.24-.13.72-.55,1.08-.31a3.57,3.57,0,0,1,2.52-.72c.3.06.3-.23.48-.23a11.57,11.57,0,0,1,2.16-.19c.3,0,.6.12.84.12a6.79,6.79,0,0,0,1.08-.17c.24,0,.42-.07.6-.07a4.08,4.08,0,0,1,1.44,0,2.15,2.15,0,0,0,.6.24c.18,0,.48-.12.66-.12s.48.19.66.24a2.29,2.29,0,0,0,.6.18c.24.06.54,0,.78.06a2.76,2.76,0,0,1,1,.31c.3,0,.66.24,1,.29,1.08.19,2-.05,3,.37a5.74,5.74,0,0,1,.66.42c.06,0,.24-.07.3,0s.24.29.36.35.48.12.36.42a8.24,8.24,0,0,1,2.34,1.5,2,2,0,0,0,.36,1c.3.29.54.59.84.89.12.12.06.37.18.66a9.25,9.25,0,0,0,.72,1.32c0,.6.06.48.3,1s.36,1.13.9,1.37c-.06.42.3.84.36,1.26a15.17,15.17,0,0,1,.06,1.62c0,.18-.12.36-.06.48,0,.3.12.6.12.9S670.09,40.51,670.09,40.69Zm-7-1.38a2.88,2.88,0,0,0,0-.72c-.12-.78-.54-1.44-.72-2.34a7.11,7.11,0,0,0-.12-1.56c-.3-.11-.24-.48-.42-.66s-.6-.42-.66-.78a6.81,6.81,0,0,1-1.14-.59,5.43,5.43,0,0,1-1.14-.13c-.36-.11-.54-.36-.84-.42-.6-.06-.66.31-1.32.18-.42-.18-.54-.66-.9-.9a1.73,1.73,0,0,0-.78-.06c-.24-.06-.24-.36-.6-.3a3.55,3.55,0,0,1-2.4.24,1.75,1.75,0,0,0-.72.42c0-.24-.48-.06-.66-.11-.66.42-1.62.77-2.22,1.08-.18.05-.3,0-.42.11s-.42.48-.6.66a5.87,5.87,0,0,1-.66.66,2.18,2.18,0,0,1-.42.18c-.72.36-1.08,1.08-1.74,1.38-.06.6-.6.9-.84,1.44s-.24,1.08-.42,1.44a4.13,4.13,0,0,1-.18.48c-.3.9,0,1.86-.48,2.64.24.12.12.48.18.78s.36.78.18,1.26c-.06.12-.24.06-.18.3.18.06.18.3.24.48a1.31,1.31,0,0,1,.3.48c.06.06-.06.18,0,.3s.42.48.24.84c.36.12.3.6.6.72-.18.42.42.84.24,1.56a1.31,1.31,0,0,1,.3.18c.06.12,0,.24.06.42s.42.36.42.66c.42.12.66.6,1,.9.18.18.36.24.54.42.36.24.54.48.78.66.06.06.12.18.18.18.24.12.54.12.78.24s.42.36.6.42c.6.24,1.38.12,1.92.72.66,0,1,.3,1.8.24.3,0,.42.3.78.3a4.74,4.74,0,0,1,.78-.18,5.94,5.94,0,0,1,1.08.12,5,5,0,0,0,1.26-.54,1.64,1.64,0,0,1,1.08-.48c.06-.36.42-.54.66-.78a3.3,3.3,0,0,0,.9-1,7.62,7.62,0,0,1,.6-.72A16.64,16.64,0,0,0,661.39,48a6,6,0,0,0,.6-1.26c.06-.12,0-.3,0-.48s.3-.42.12-.54a3.57,3.57,0,0,0,.24-1.44c.42-.42.3-1,.42-1.68.06-.36.3-.66.3-1a13.08,13.08,0,0,0,.12-2C663.25,39.43,663.13,39.43,663.13,39.31Z"/><path class="cls-2" d="M696.49,32.47c-.18.19-.18.06-.36.19s-.18.23-.42.29c-.06,0-.18.13-.3.06-.66-.06-.66-.84-1.32-1.14a6.23,6.23,0,0,1-1.14.06,9.61,9.61,0,0,0-1.08.42,2.29,2.29,0,0,1-.6.18c-.48.24-.66.36-1.08.6s-.42.6-.78,1a9.6,9.6,0,0,0-1.5,1.08c-.18.25-.18.66-.42,1-.06.18-.36.24-.48.42s-.06.18-.12.24-.12.18-.18.24.06.3,0,.48-.42.54-.3,1c-.12.18-.36.3-.42.48s.06.36,0,.48-.18.12-.18.18c-.12.24-.12.48-.24.72s-.24.36-.3.54.06.48,0,.78a3.56,3.56,0,0,1-.24.48,6.49,6.49,0,0,1,0,1.08c-.06.54-.3,1-.42,1.62a11.58,11.58,0,0,1-.06,1.38c0,.24-.18.48-.18.78-.06.6.3,1.2-.24,1.68a2.29,2.29,0,0,1-.06,2c.6,1.68-.3,4.2.18,6.06.18.48.9.36,1.26.66,0,.24.3.42.36.78a1.54,1.54,0,0,1-.78,1.32c-.3.12-.6-.06-1.2.06a7.58,7.58,0,0,0-1.08.48,12.75,12.75,0,0,1-2.4.6l-1.2.18c-.48.12-1,.42-1.32.36-.78-.12-1.08-1-1.08-1.86a6.61,6.61,0,0,0,.12-1.08,6.37,6.37,0,0,0-.24-1.14,27.06,27.06,0,0,1,0-3.12c0-.3.12-.6.12-.84a4.78,4.78,0,0,1-.18-.9,10.66,10.66,0,0,1-.3-1.68c0-.24-.06-.6-.06-.84a11.07,11.07,0,0,1,.24-1.38c0-.18-.12-.24-.12-.48s.18-1.08.18-1.62-.24-1-.3-1.44c0-.24.06-.66.06-.72-.06-.24-.18-.36-.18-.54-.06-.48-.06-1.14-.12-1.5,0-.12-.06-.36-.06-.48a7.46,7.46,0,0,1,.24-1c.12-.78-.06-1.62,0-2.4.06-.6.36-1.2.36-1.73,0-.25-.06-.55-.06-.79s.12-.54.12-.78a2.71,2.71,0,0,1-.18-.66,8.21,8.21,0,0,1,.12-1.68,7.5,7.5,0,0,0-.18-1.14,2.43,2.43,0,0,0,0-.66c0-.18-.18-.29-.18-.42,0-.36.24-.84.24-1.26a3.64,3.64,0,0,1,.12-1.79c0-.42-.3-.61-.48-.9.3-.67-.12-1.33.06-1.92a1.23,1.23,0,0,1,1-.37c.6,0,.78.42,1.08.66a7.65,7.65,0,0,0,2.34,0c.42,0,.9.13,1.26.13.6-.07,1-.55,1.92-.25.3.18.24.49.48.84,0,.07.18.18.18.24s-.12.18-.12.25.12.17.12.29a3.85,3.85,0,0,0-.18,2c.48,0,.72-.36,1-.66a3.93,3.93,0,0,0,.54-.54c.06-.05.06-.23.12-.3s.24-.06.3-.12.36-.36.6-.54.6-.35.78-.66c.72-.11,1.38-.84,2.22-.53.36-.37,1.38-.79,1.86-.37.3.06.3-.29.48-.36,1,.36,2-.35,3-.12.36.06.54.3.78.42a2.1,2.1,0,0,1,.78.3c.54.84.12,1.92.06,2.89-.06.23.06.42.06.59,0,.36-.12.72-.12,1.09,0,.89.12,1.79.12,2.69C696.61,32.23,696.61,32.35,696.49,32.47Z"/><path class="cls-2" d="M710.41,18c-.06.24-.3.42-.42.6s-.06.42-.12.61a7.87,7.87,0,0,1-.6,1.2c-.36.11-.72.53-1.08.66-.12.06-.3,0-.48.11a5.18,5.18,0,0,1-1.62.55,3,3,0,0,1-.78-.24c-.42-.07-.78-.07-1.2-.13-.3-.71-1-1.2-1.2-2a5.26,5.26,0,0,0-.54-.59c0-.6-.36-1.15-.36-1.74a2.94,2.94,0,0,1,.24-.91c.06-.35.12-.84.18-1s.24-.13.3-.25.06-.17.12-.24.36-.11.48-.29-.06-.24,0-.3a.74.74,0,0,0,.3-.49,5.94,5.94,0,0,1,1.08-.84c.42-.29,1.08-.17,1.86-.24.3.66,1.2.73,1.62,1.32h.6c0,.18.12.18.24.31a4.2,4.2,0,0,1,1.44,1.86.63.63,0,0,1,.06.3A4.79,4.79,0,0,1,710.41,18Zm.06,10.74c0,.36.18.67.18,1,0,.54-.24,1.2-.24,1.81s0,1,.06,1.67c0,.3.12.36,0,.67-.48,1,0,3,0,4.37-.06.78-.3,1.56-.36,2.4-.18,1.74-.12,3.6-.3,5.28-.06.48,0,1-.06,1.38-.06,1.08-.24,2.1-.36,3.06-.06.72.06,1.38.06,2,0,.42.06.72.06,1.08a4.78,4.78,0,0,1,.18.9,1.85,1.85,0,0,1-.12.48,1.21,1.21,0,0,0,.12.36c0,.18-.12.3-.12.48s.12.3.12.42a3.44,3.44,0,0,0-.24.84,9.8,9.8,0,0,1,.06,1.86,2.24,2.24,0,0,1-1.74.42c-.42-.12-.36-.78-.66-1.08a3.14,3.14,0,0,1-1.38-.48,4.32,4.32,0,0,1-1.44-.12,7.09,7.09,0,0,1-1.5-.24c-.06-.06-.06-.3-.24-.24-.24-.3-.12-.9-.42-1.14a5.9,5.9,0,0,0,.3-1c.12-.72-.12-1.38-.06-2.16a3.1,3.1,0,0,1,.12-.66c0-.06.12-.12.12-.3a2.49,2.49,0,0,1,0-1c0-.06.12-.12.12-.3s-.12-.18-.12-.24.18-.12.24-.24-.12-.36-.12-.48c.18-.84.24-2.52.3-3.06,0-.36.06-.48.06-.9.06-.12-.06-.24-.06-.3a34.1,34.1,0,0,0,.18-3.54c-.06-.78.12-1.5.12-2.22s-.18-1.44.18-2.16a5.84,5.84,0,0,1-.06-2.28,16.57,16.57,0,0,1,.06-1.73,4.5,4.5,0,0,1,0-1.27v-.42c.06-.36.12-.72.12-.84,0-.3-.18-.54-.18-.78a3.29,3.29,0,0,0,0-.77c0-.13-.12-.18-.18-.31v-.29a3.21,3.21,0,0,1,.06-.79c-.06-.42-.66-.36-.78-.66-.18-.6-.48-1.44.06-1.86.36-.18.72-.06,1.26,0a.58.58,0,0,0,.36.12c.06,0,.18-.12.3-.05s.54.24.84.29c1.56.18,4.38-.54,5-.12.24.18.12.54.36.6A9.6,9.6,0,0,0,710.47,28.75Z"/></g></g></svg>