<svg xmlns="http://www.w3.org/2000/svg" viewBox="0 0 275.52 48.51"><defs><style>.cls-1{fill:#231815;}</style></defs><g id="レイヤー_2" data-name="レイヤー 2"><g id="text"><path class="cls-1" d="M3.3,13,8.58,26.35,14,12,19.2,26.35,24.66,13H28L19,34.27,13.8,20.08,8.52,34.27,0,13Z"/><path class="cls-1" d="M42.78,26.68A6.56,6.56,0,0,1,36,33.37a6.56,6.56,0,0,1-6.75-6.69A6.52,6.52,0,0,1,36,20,6.52,6.52,0,0,1,42.78,26.68Zm-3,0c0-2.88-1.89-4.05-3.75-4.05s-3.75,1.17-3.75,4.05c0,2.43,1.44,4,3.75,4S39.78,29.14,39.78,26.71Z"/><path class="cls-1" d="M45.84,20.35h2.94v1.14a5.08,5.08,0,0,1,1.23-1,3.4,3.4,0,0,1,1.8-.42,4.36,4.36,0,0,1,2.31.6l-1.2,2.67a2.66,2.66,0,0,0-1.5-.45,2.29,2.29,0,0,0-1.83.69,4.07,4.07,0,0,0-.81,2.91V33H45.84Z"/><path class="cls-1" d="M58.74,11.11V24.58l4.11-4.23h3.9L61.32,25.6,67.14,33H63.42l-4.14-5.4-.54.54V33H55.8V11.11Z"/><path class="cls-1" d="M74.58,23.68a2.12,2.12,0,0,0-1.8-1.08,1.25,1.25,0,0,0-.9.33,1,1,0,0,0-.27.66.81.81,0,0,0,.42.72c.18.12.36.18,1,.51l1.5.75a6.06,6.06,0,0,1,1.77,1.17,3.12,3.12,0,0,1,.93,2.34A4.19,4.19,0,0,1,76.11,32a4.51,4.51,0,0,1-3.54,1.41,4.35,4.35,0,0,1-2.73-.81,4.92,4.92,0,0,1-1.62-2.31l2.4-1.14a3.32,3.32,0,0,0,.69,1.2,1.8,1.8,0,0,0,1.29.48,1.77,1.77,0,0,0,1.2-.42,1.49,1.49,0,0,0,.42-1,1.36,1.36,0,0,0-.39-1,3.87,3.87,0,0,0-1.26-.78l-1.08-.51a6.23,6.23,0,0,1-1.74-1.08,2.75,2.75,0,0,1-.9-2.13,3.94,3.94,0,0,1,1.05-2.7A4.07,4.07,0,0,1,73,20a4,4,0,0,1,2.34.66,4.34,4.34,0,0,1,1.44,1.56Z"/><path class="cls-1" d="M145.68,43.16c-.3.3-.24.24-.48.36a1.47,1.47,0,0,1-.9.24c-.3-.12-.24-.6-.54-.78a2.28,2.28,0,0,0-1,.18l-.78.18-.42.18c-.06.06-.18-.06-.3,0a.83.83,0,0,1-.54.3,2.16,2.16,0,0,1-1.08.06,4.58,4.58,0,0,1-1.26.36c-.9.18-3.3.66-3.66-.3-.12-.24,0-.3,0-.36-.06-.3-.24-.6-.12-.9,0-.48.54-.36.6-.72-.06-.6-.36-1.62,0-2a3,3,0,0,1-.3-.78c.18-.12.12-.36.18-.48a5.4,5.4,0,0,0,.3-2.52,6.76,6.76,0,0,1-.18-1.08,10.59,10.59,0,0,1,0-1.38c0-1.08-.18-2.34-.18-3.54a12.51,12.51,0,0,1,0-1.5c.06-.6.3-1.5.36-2.4,0-.18-.06-.42-.06-.66s.12-.48.06-.66c0-.66-.12-1.32-.12-2s.06-1.32.06-2.1c0-.24-.12-.6-.12-.78a3,3,0,0,0,.24-.78,1.73,1.73,0,0,0-.06-.78c-.24-.06-.42.24-.6.48s-.24.66-.42.84a4.8,4.8,0,0,1-.78.78c-.12.12-.18.36-.3.48s-.36.12-.48.3a4.76,4.76,0,0,1-.9,1.5,5,5,0,0,0-.42.78,2.62,2.62,0,0,0-.54.66l-.18.36c-.18.3-.54.6-.78,1l-.24.42c-.18.12-.12.3-.18.36-.18.24-.42.42-.42.78-.3.06-.42.36-.48.72-.3.06-.18.54-.6.48-.24.24,0,.48-.3.6.12.36-.42.06-.48.24V30c-.24.12-.36.3-.6.36a1.41,1.41,0,0,1-.6,1.08c-.12.06-.12.18-.3.18.06.24-.24.3-.3.48a.63.63,0,0,1-.3.36c-.06.06-.06.18-.12.3a1.26,1.26,0,0,1-.36.24c-.12.12-.12.3-.24.42l-.6.54a8.59,8.59,0,0,1-.66.9,10.41,10.41,0,0,0-.9,1.2c-.12.12-.24.18-.3.3a11.54,11.54,0,0,1-.78,1,7.19,7.19,0,0,0-1,1.26l-.18.36c-.18.24-.3.78-.54,1.08s-.36.3-.48.48a9.74,9.74,0,0,1-1.8,2.34c0,.84-.84,1.5-1.5,1a5.38,5.38,0,0,1-.9-1.08c-.18-.36-.18-.72-.36-1.08-.12-.18-.24-.18-.42-.36,0-.06-.18-.24-.18-.24l-.18-.48c0-.06-.06-.24-.06-.3s-.3-.12-.42-.3L113,39.5a6.4,6.4,0,0,0-.54-1.14l-.36-.84a.3.3,0,0,1-.18-.36c-.06-.12-.24-.18-.3-.3a2.69,2.69,0,0,1-.06-.66,8.88,8.88,0,0,0-.48-.78c-.12-.3-.06-.6-.18-.9s-.3-.36-.36-.6-.06-.36-.12-.54a.69.69,0,0,0-.18-.42,2,2,0,0,0,0-.6,1.65,1.65,0,0,0-.6-1.08c-.06-.48-.24-.72-.36-1.26s-.42-1.32-.66-2c-.54-.48-.66-1.38-1.14-2a2.71,2.71,0,0,1-.06-.78c-.06-.36-.36-.54-.54-.84a2.53,2.53,0,0,1-.18-.72,3.35,3.35,0,0,1-.3-.48c-.18-.36-.12-.84-.54-1.08a.84.84,0,0,0-.3-1.08c-.42.36.06,1,.06,1.5a5.32,5.32,0,0,1-.18.84l-.12,1.38a9,9,0,0,0-.12,1.26c0,.12.06.3.06.48s-.06,1-.12,1.32-.3.6-.3.9a2.93,2.93,0,0,0,.06,1,3.16,3.16,0,0,1,.18.72,9.25,9.25,0,0,0-.12,1.44c0,.42.18.84-.24,1.26.06.24.36.3.3.66a.86.86,0,0,1-.3.66.81.81,0,0,1-.12.9,2.63,2.63,0,0,1,.12,1.44c0,.12-.06.18-.06.3s.12,1-.24,1.26a13.87,13.87,0,0,1,0,3.54c0,.18-.12.48-.06.54.06.42.42.66.42,1a2.44,2.44,0,0,1-.9,1.38c-.84,0-1.62-.36-2.7-.36-1.44-.06-2.94,0-4.44-.18a2,2,0,0,1-1.14-.42l-.12-.24c-.18-.06-.18,0-.36-.18s-.36-.18-.48-.42a3.48,3.48,0,0,1,.54-1.68,9.66,9.66,0,0,1,.24-2.22,3.23,3.23,0,0,0,.18-.6c.06-.24,0-.6.06-.9a3.69,3.69,0,0,1,.18-.66,1.21,1.21,0,0,1,.12-.36c0-.12-.12-.18-.12-.3l.24-.66a22.06,22.06,0,0,1,.36-3.48,1.77,1.77,0,0,1,.3-.78,5.17,5.17,0,0,1,.36-2.52,16.52,16.52,0,0,0,.12-2.58c.06-.3.24-.54.3-.78.12-.42,0-1,.36-1.26-.3-.42.12-.66.12-1.14,0-.12-.12-.18-.12-.3l.24-.3c0-.12-.06-.36,0-.48s.42-.6.42-1c0-.06-.12-.12-.12-.3.06-.36.18-.78.24-1.26.06-.72.24-1.74.36-2.76,0-.18.06-.18.06-.3s-.06-.18-.06-.3.24-.48.3-.84c0-.18-.12-.18-.12-.24s.18-.42.24-.66c.3-1.68.54-3.12.9-4.74a1.63,1.63,0,0,1,0-.54c0-.12.18-.18.18-.3a3.39,3.39,0,0,0,0-.78c.06-.24.24-.47.24-.66a17.16,17.16,0,0,1,.06-1.73c0-.25.06-.54.06-.73a1.12,1.12,0,0,0,.12-.35A10,10,0,0,0,101.4,2a10.58,10.58,0,0,1,0-1.38c-.12-.25.18-.18.12-.49.36-.3,1.08-.05,1.56.07.12.42.48.59.48,1.13l.48.6A3.06,3.06,0,0,0,104.28,3c.18.49.54,1.2.72,1.74a4.61,4.61,0,0,1,.18.79c.12.35.42.66.54,1s.06.59.12.77.18.18.18.31-.06.29,0,.42c.12.41.3.77.42,1.13s.3.91.48,1.26a9.06,9.06,0,0,0,.54,1.08c.36.78.72,1.56,1,2.34.24.6.36,1.2.66,1.86.06.24.3.36.18.6.84,1.2,1,2.94,1.86,4.14a14.57,14.57,0,0,0,1,3.36c.18.24,0,.24,0,.48.12.54.66.66.54,1.38.18.3.54.42.66.72.12,1.38,1,2,1.08,3.42a6,6,0,0,0,.6.66,2.81,2.81,0,0,0,.36,1.26,1.22,1.22,0,0,0,.72.9,4,4,0,0,0,.54-1.14,2.8,2.8,0,0,1,.3-.6l.48-1.14c.12-.18.12-.42.24-.54s.24-.3.36-.48a6.22,6.22,0,0,1,.24-.6c.06-.12.3-.24.36-.36s.06-.24.12-.3l.48-.66c.06-.24.18-.18.24-.18l.3-.48.48-.66a3.23,3.23,0,0,0,.18-.6c.06-.12.24,0,.3-.12s.06-.18.12-.24c.3-.48.54-1,.9-1.44s.72-.84,1.08-1.26l.72-.84a5.46,5.46,0,0,0,1.08-1.26,3.83,3.83,0,0,0,.78-.9c.42-.66,1.08-1.26,1.5-2l.72-1c.54-.42.72-1.32,1.5-1.56-.18-.18.06-.36.18-.54.3-.48.66-1.2,1-1.74,0-.24.12-.3.36-.3a1.17,1.17,0,0,0,.06-.48c.66-.3.84-1.26,1.56-1.56.42-.84,1.2-1.26,1.68-2.1.06-.06.18-.18.24-.18.06-.23,0-.3.18-.48a2.52,2.52,0,0,1,.42-.59,6.83,6.83,0,0,1,1.08-1.5c.06-.37-.12-.42-.06-.73l.66-.72c.12-.12.24-.12.3-.17A3.35,3.35,0,0,1,138.18,2a1.2,1.2,0,0,1,1.08.24c.3.3.12.59.24,1.26.06.35.24.71.36,1.25l.54,2.46a10.11,10.11,0,0,0,.18,1.33c.06.59.36,1.19.42,1.73s-.06,1.26.24,1.68c.06.3-.12.3-.18.48s.12.18.18.3a.65.65,0,0,1,.06.36,13.63,13.63,0,0,1,.24,2.46,2.71,2.71,0,0,1,.18.66,1.11,1.11,0,0,1,.12.42.42.42,0,0,0-.12.24c.06.3.3.54.36.78a3,3,0,0,0,.12.72,1.15,1.15,0,0,0,.18.48L142.5,20a3.23,3.23,0,0,1,.18.6,2.42,2.42,0,0,1,0,.66,4,4,0,0,1,.18,2.28c0,.3.3.36.36.66-.12.12.06.72.06.66-.3.24.18,1.14.18,1.56,0,.12-.12.24-.12.42.12,1.32.66,2.58.42,3.78.36.42.24,1,.42,1.62a2.47,2.47,0,0,1,.18.48c.18,1,0,2,.24,2.94a5.58,5.58,0,0,1,.3.6c.18.6,0,1.44.3,2.1.06.36-.12.42-.18.6a3.28,3.28,0,0,1,.54,1.68c.06.24.24.36.36.54A1.76,1.76,0,0,1,145.68,43.16ZM143,38.72c0-.18-.12-.24-.18-.42a1.66,1.66,0,0,1-.06-.54,7.25,7.25,0,0,1-.3-1.08,3.39,3.39,0,0,0,0-.78,2.29,2.29,0,0,0-.18-.6c0-.24.06-.48.06-.78a1.91,1.91,0,0,1-.18-.54c-.06-.3.06-.6,0-.78-.06-.36-.24-.66-.3-1a3.69,3.69,0,0,0,.06-.84,7,7,0,0,0-.3-.66c-.12-.54-.18-1.62-.24-2,0-.12.12-.12.12-.24a2.06,2.06,0,0,0-.3-1.32c.06-.72-.24-1.62-.12-2,.06-.12-.3-.54.18-.48.06-.36-.42-.3-.36-.78a10.81,10.81,0,0,0-.36-1.92,5.16,5.16,0,0,0,.06-1,7.25,7.25,0,0,0-.3-1.08,2,2,0,0,0-.06-.6,1.15,1.15,0,0,1-.18-.48c-.06-.18.06-.48,0-.66l-.24-.78a8.46,8.46,0,0,1-.42-2.82c-.18-1.2-.18-2-.36-2.64a6.16,6.16,0,0,1-.24-.84c-.12-.54-.12-1.2-.18-1.55a2.64,2.64,0,0,0-.18-.49,4.8,4.8,0,0,1-.06-.89,8.11,8.11,0,0,0-.48-1.69,2.41,2.41,0,0,0-1,.61c-.24.23-.3.71-.54,1-.06.12-.3.24-.36.42a2.13,2.13,0,0,0-.24.54c-.12,0-.3.18-.36.3-.66.66-1.26,1.38-1.8,2-.24.3-.42.66-.78.78-.06.42-.42.66-.6,1a10.29,10.29,0,0,1-.54,1.14c-.18.3-.6.54-.66.66s-.06.3-.12.42-.6.48-.72.66-.12.42-.3.54a4.48,4.48,0,0,1-.66.78c-.12.12-.24.36-.3.36-.24.24-.3.54-.54.78a.27.27,0,0,1-.18.18l-.3.42-.18.24-.12.24a7,7,0,0,1-1,1.2l-.3.18c-.12.12-.06.3-.12.42l-.3.18a4.85,4.85,0,0,1-1,1,4.21,4.21,0,0,1-.36.54,5.25,5.25,0,0,1-.48.6l-.18.48-.6.66c-.3.42-.6.48-.6.72a16.45,16.45,0,0,1-2.28,3,1.89,1.89,0,0,1-.6,1.2,2.27,2.27,0,0,1-.54.72c0,.42-.36.84-.48,1.2a4.7,4.7,0,0,1-.54,1.26c-.36.78-.66,1.68-1.08,2.4a6.52,6.52,0,0,0-.06,1.08c-.3.36-.36.66-.9.72a.66.66,0,0,1-.48,0c-.36-.12-.54-.54-.84-.78a2.28,2.28,0,0,0-.36-1.08,1.49,1.49,0,0,1-.06-.48l-.24-.12c-.06-.06,0-.18-.06-.3a7.17,7.17,0,0,1-.72-1.32,7.81,7.81,0,0,1-.48-1c-.06-.06,0-.18,0-.3s-.36-.42-.48-.66a3.66,3.66,0,0,1-.18-.78c0-.06-.18-.18-.18-.18a20.31,20.31,0,0,1-1-3.24c-.3-.18-.3-.6-.42-.9l-.6-.84c-.12-.42-.18-.9-.36-1.38a6.22,6.22,0,0,1-.24-.6,9.27,9.27,0,0,1-.36-1.38.85.85,0,0,0-.12-.24,13.14,13.14,0,0,0-.42-1.38,5.78,5.78,0,0,0-.6-1.08l-.54-1.2c-.06-.12,0-.36-.06-.48s-.36-.18-.3-.36c-.12-.6-.36-1.14-.42-1.56a4.36,4.36,0,0,0-.42-1,3,3,0,0,1-.24-.78s-.18-.12-.18-.18a4.17,4.17,0,0,1-.3-.78c0-.06-.18-.12-.18-.18l-.66-1.68c-.12-.18.12-.48.06-.84s-.54-.41-.6-.84a5.81,5.81,0,0,0-.18-.66c-.06-.18-.12-.18-.18-.29s0-.37-.06-.49-.3-.48-.36-.66-.18-.66-.48-.72c-.06.54-.3,1-.36,1.56,0,.24.12.54.12.78-.12,1.08-.48,2.16-.66,3.24-.18.9-.3,1.86-.48,2.64a25.47,25.47,0,0,1-.72,3.72,6.13,6.13,0,0,1-.18,1.74c-.12.9-.18,1.74-.3,2.46a1.32,1.32,0,0,0-.42,1c-.06.12,0,.3,0,.42a11.84,11.84,0,0,1-.36,2.28l-.12.78c-.06.3-.24.6-.3.9-.06.48,0,1-.06,1.5a10.86,10.86,0,0,1-.18,1.38c-.18,1-.42,1.74-.54,2.7a1,1,0,0,0-.12.3c0,.12.12.12.06.3s-.18.42-.18.66a5.16,5.16,0,0,1,.06,1c0,.3-.18.66-.18,1-.12.72-.06,1.5-.18,2.22,0,.24-.18.48-.18.66a11.72,11.72,0,0,0-.12,1.38c-.12.42-.36.72-.24,1.14.72.48,2.22.24,3.06.66.42-.3,1.26-.06,1.74-.24-.12-.42.18-.72.24-1.08a2.6,2.6,0,0,0-.06-.3c-.06-.18.06-.3.06-.36a5.54,5.54,0,0,0,.06-1.38c-.06-.48.06-.6,0-1.14,0-.24-.06-.48-.06-.72s.24-.72.3-1.14V35.9a4,4,0,0,0,.06-1.2c-.06-1.92.3-3.36.3-5V28a15.73,15.73,0,0,1,.06-1.74,2.8,2.8,0,0,1,.3-.6c.3-.48.18-.66.06-1.08-.48-1.56.42-3.3,0-4.62.36-1,.18-2.58.36-3.6,0-.3-.3-.3-.3-.66.3-.66.18-1.8,1.14-1.74.18,0,.24.12.36.24a3.48,3.48,0,0,1,.84,1.14c.18.42.06.9.24,1.38s.54.54.66.78l.12.42c.12.3.12.66.24,1s.36.42.48.66a6.51,6.51,0,0,1,.66,1.68,5.4,5.4,0,0,0,.18,1c0,.12.12.12.18.18.18.36.12.78.36,1,.06.3-.18.3-.12.66A5,5,0,0,1,110,26.18c.42.42.6,1.32.9,1.74s.42.78.66,1.08v.78c.24,0,.12.42.18.48a.65.65,0,0,1,.24.48c.24.66.42,1.38.66,2,.18.12.06.48.06.78a4.69,4.69,0,0,1,.84,1.74,8.71,8.71,0,0,0,.6,1.08l.24.78a13.12,13.12,0,0,0,1,1.8,5.44,5.44,0,0,0,.66,1c.12.18.24.48.54.48a23.26,23.26,0,0,0,2.4-3.72,1.84,1.84,0,0,0,.78-.72l1.2-1.56c.12-.06.24-.06.3-.18s.12-.24.18-.36a4.73,4.73,0,0,0,.72-.9l.42-.36c.18-.3.3-.36.36-.48l1-1.14.9-1.2c.24-.06.18-.24.18-.3l.3-.3.18-.3c.12-.06.18-.24.24-.36s.3-.24.36-.36c.24-.3.24-.84.72-.78a1.52,1.52,0,0,1,.3-.78c-.06-.3.24-.24.3-.3a5.35,5.35,0,0,1,1-1.62c.42-1,1.14-1.74,1.62-2.76a2.57,2.57,0,0,0,.84-1,1.8,1.8,0,0,0,.24-.48c.06-.12.18-.12.3-.24l.18-.48c.12-.12.24-.18.3-.3a1.59,1.59,0,0,0,.3-.36l.54-.78L133,18c.18-.3.3-.3.3-.36s.06-.36.12-.48.24-.24.3-.42,0-.18,0-.24l.24-.12.18-.48c.24-.18.12-.36.18-.48l.42-.3c-.06-.42.36-.66.48-1s.12-1.08.54-1.44,1.44-.06,1.74.3c.48.6.18,1.8.24,2.94a8.86,8.86,0,0,1,.06,1.26c-.06.36,0,1.08-.06,1.62-.06,1.2-.24,2.4-.24,3.6a15.73,15.73,0,0,0,.06,1.74c0,.42.06.9.06,1.38-.06,1-.24,1.86-.24,2.76a10.62,10.62,0,0,0,.06,1.38,11.8,11.8,0,0,0-.18,1.44,2.71,2.71,0,0,1,.18.66,2.13,2.13,0,0,0-.06.42,4.69,4.69,0,0,1-.06,2,5.08,5.08,0,0,1,.24,1.74c.06.66.18,1.38.18,2.1l-.24,1c0,.18.12.42.06.6V40a4.6,4.6,0,0,1-.36,2.4,4.43,4.43,0,0,0,1.56-.24l.6-.18a9.72,9.72,0,0,0,1.2-.18,6.9,6.9,0,0,0,1-.36,3.86,3.86,0,0,0,1.68-.42C143.1,40.28,143.1,39.5,143,38.72Z"/><path class="cls-1" d="M186.9,28.64c-.06.36.24,1-.06,1.26.48.42.18,1,.06,1.62-.06.36.06.78,0,1s-.24.36-.3.54-.12.48-.3.48a2.7,2.7,0,0,1-.24,1.38l-.12.48c0,.12-.18.24-.18.36s.06.42,0,.6-.24.36-.3.54l-.72,1.86a8.67,8.67,0,0,1-1.14,2.1,3.39,3.39,0,0,1,0,.78,4.76,4.76,0,0,0-1,1.14,3.53,3.53,0,0,1-.6,1c-.3.36-.72.54-1.08.9-.42,0-.36.12-.66,0a4.23,4.23,0,0,1-2,1.14,1.31,1.31,0,0,0-.3.18c-.18,0-.36-.06-.48,0a5.93,5.93,0,0,1-1.56.42c-.18,0-.42-.12-.6-.12s-.54.24-.9.3c-.6.12-1.32.06-2,.12-.12,0-.18.12-.24.12s-.12-.12-.24-.12-.24.18-.36.18h-.42c-.18,0-.42-.06-.54,0a4.33,4.33,0,0,1-1.68.24c-.18-.06-.12.18-.3.18-1,.06-2.46.24-3.24-.36a1.17,1.17,0,0,1-.78.06c-.18,0-.24-.12-.42-.18h-.36a6.14,6.14,0,0,1-2.34-.9,1.66,1.66,0,0,0-.54-.06c-.54-.3-.84-.72-1.62-.78,0-.3-.24-.3-.18-.6-.3.18-.42-.18-.6-.3l-.6-.3a2.77,2.77,0,0,0-.42-.42c-.18-.12-.48-.18-.6-.3a2.62,2.62,0,0,1-.48-.6c-.12-.12-.48-.24-.36-.54l-.84-.72c-.06-.3-.24-.42-.18-.78-.18-.18-.3-.18-.48-.42l-.12-.24c-.24-.06-.12-.18-.18-.24l-.48-.66a10.94,10.94,0,0,1-.36-1.08c-.06-.18,0-.24-.06-.42a1.37,1.37,0,0,1-.18-1c-.12-.24-.42-.36-.48-.6-.12-.6-.06-1.14-.18-1.68-.06-.36-.42-.66-.24-1.08-.24-.24-.3-.66-.54-.84.12-.48-.18-1-.18-1.56a5.32,5.32,0,0,1,.12-.9v-1A6.31,6.31,0,0,1,152,27.5c.06-.42,0-.84.3-1-.3-1,.36-1.8.36-2.82.18-.12.18-.54.36-.66,0-.84.42-1.26.54-1.92.42-.18.54-.6.78-1,.12-.12.24-.12.3-.18s.18-.66.6-.6c.12-.3,0-.18,0-.54.48-.18.66-.66,1.14-1l.48-.18.36-.3a4.58,4.58,0,0,0,.54-.54,5.94,5.94,0,0,1,1-.66,4.58,4.58,0,0,1,1-.78c.12-.06.3-.3.48-.36a1.32,1.32,0,0,1,.48-.06c.24-.12.72-.54,1.08-.3a3.52,3.52,0,0,1,2.52-.72c.3.06.3-.24.48-.24a11.63,11.63,0,0,1,2.16-.18c.3,0,.6.12.84.12a5.79,5.79,0,0,0,1.08-.18c.24,0,.42-.06.6-.06a3.86,3.86,0,0,1,1.44,0c.18.06.42.24.6.24s.48-.12.66-.12l.66.24a2.29,2.29,0,0,0,.6.18c.24.06.54,0,.78.06a3,3,0,0,1,1,.3c.3.06.66.24,1,.3,1.08.18,2-.06,3,.36.18.06.42.3.66.42.06,0,.24-.06.3,0s.24.3.36.36.48.12.36.42a7.83,7.83,0,0,1,2.34,1.5,1.88,1.88,0,0,0,.36,1l.84.9c.12.12.06.36.18.66a9.82,9.82,0,0,0,.72,1.32c0,.6.06.48.3,1s.36,1.14.9,1.38c-.06.42.3.84.36,1.26a15.17,15.17,0,0,1,.06,1.62c0,.18-.12.36-.06.48,0,.3.12.6.12.9S186.9,28.46,186.9,28.64Zm-1.8-2.94c-.42-.3-.42-1-.54-1.68-.42-.36-.48-1.08-.66-1.74-.18-.3-.6-.42-.42-1.08-.36,0-.24-.36-.48-.36a9.32,9.32,0,0,0-1.26-1.38,2.81,2.81,0,0,0-1.2-1.5c-.66-.54-1.38-.54-1.74-1.14a5.55,5.55,0,0,0-1.74-.12,6.73,6.73,0,0,0-.78.3,3.88,3.88,0,0,0-.78.24c0-.54-.48-.66-.42-1.26a21.2,21.2,0,0,0-2.52-.36,15.55,15.55,0,0,0-2.82-.3c-.36,0-.6.18-1,.12s-.24-.18-.48-.18-.24.18-.3.18-.24-.12-.48-.12-.78.18-1.08.18-.42-.12-.54-.12-.24.18-.3.18h-.3a7.83,7.83,0,0,0-1.26.3A1.8,1.8,0,0,1,163,16a3.39,3.39,0,0,1-2,.78c-.12.3-.48.48-.6.6-.72.42-1.14,1-1.86,1.08a.71.71,0,0,1-.66.6c0,.42-.42.42-.72.54a16.94,16.94,0,0,0-1.08,1.74c-.12.24-.48.24-.6.48.24.36-.36.72-.48,1l-.12,1.2c-.06.18-.24.24-.3.36s-.06.48-.12.66a8.77,8.77,0,0,0-.3,1.2.64.64,0,0,1-.06.48,5,5,0,0,1-.3,1.2,3.89,3.89,0,0,0-.12,1.38c0,.36-.12.84-.12,1.14,0,.12.18.3.18.48a2.88,2.88,0,0,0,0,.72,11.37,11.37,0,0,0,.54,1.26c.12.48.06,1,.18,1.56,0,.12.12.24.18.36a14,14,0,0,1,.42,1.5,9.78,9.78,0,0,0,.66,1.86c.54,1.2,1.44,2.1,2,3.12a1.8,1.8,0,0,1,1.2,1.08c.66.12,1.14.66,1.8,1,.12.06.24,0,.3,0s.18.18.18.18c.18.12.42.12.6.24s.24.24.36.3a3,3,0,0,1,.72.12c.36.18.6.6,1,.66a11.09,11.09,0,0,0,1.38.06c.24.06.42.24.66.3a4.66,4.66,0,0,0,1,.12c.24,0,.42-.18.66-.18s.54.12.78.12a2.29,2.29,0,0,1,.6-.18,4.85,4.85,0,0,1,1-.06c.36-.06.78-.12.9-.12a.42.42,0,0,0,.24.12c.3-.06.54-.24.78-.3s.54.06.78.06c.78-.48,2-.24,2.94-.42l.6-.3c.12-.06.3.06.48,0s.12-.12.3-.18l.78-.18c.24-.06.48-.24.78-.18.24-.3.72-.42,1.08-.66a3.33,3.33,0,0,1,.48-.36,7,7,0,0,1,.66-.3,8.35,8.35,0,0,0,1.44-2.82,3.62,3.62,0,0,0,.48-.48,2.55,2.55,0,0,1,.72-1.62,6.66,6.66,0,0,1,.84-2.4c.18-.18.06-.6.12-.9s.36-.06.3-.36a26.42,26.42,0,0,1,.6-2.82C185.4,29.12,184.8,27.32,185.1,25.7Zm-3.24,3.12c-.06.18,0,.18,0,.3s-.12,1.32-.18,1.32c.18.18-.54,1.8-.6,2.22-.18,1.08.06,2.16-.66,3a4.51,4.51,0,0,1-.6,2c-.12.12-.12.18-.24.24l-.3.48-.48.78c-.12.18-.42.42-.6.66-.3.48-.84,1-1.26,1.56a3.15,3.15,0,0,0-1.08.6l-.72.48a6.28,6.28,0,0,1-.66.48,2,2,0,0,1-.72.36,3.15,3.15,0,0,1-1.26.36c-.42.06-.9-.18-1.32.06a2.87,2.87,0,0,0-1.74-.18c-.54-.18-.78-.42-1.38-.18-1.2-.78-2.7-.9-4-1.62-.36-.06-.36-.42-.6-.6a1.89,1.89,0,0,1-1.32-1.2,6.43,6.43,0,0,1-2-2c-.12-.3,0-.3-.12-.66s-.48-.42-.66-.72c.12-.24-.12-.3-.18-.54s0-.54-.06-.72l-.3-.48a.45.45,0,0,1-.06-.3c-.06,0-.18-.06-.24-.06-.06-.18,0-.42-.06-.6s-.18-.12-.18-.18c-.12-.36-.06-.9-.36-1.2.3-.6-.3-1-.06-1.56.06-.3-.24-.24-.3-.48.12-.24.18-.66-.06-.78.36-.36-.12-1.08.3-1.62.06-.3-.24-.36-.18-.66.24-.06,0-.54.3-.48-.24-.36.06-.66.12-1a1.62,1.62,0,0,0,0-.54,4,4,0,0,1,.36-.72,2.84,2.84,0,0,0,.36-1.2c.3-.06.3-.3.42-.42l.18-.24a2.62,2.62,0,0,1,.42-.48c.12-.06.12-.06.18-.18s.3-.06.24-.36c.48-.12.72-.54,1.08-.84a6.82,6.82,0,0,0,.9-1c.9-.48,1.44-1.32,2.7-1.5.3-.06.48-.42.72-.54s.36-.06.54-.12c.36-.06.9-.48,1.32-.54a3.35,3.35,0,0,0,.78,0c.24,0,.48-.06.66-.06s.42.24.66.24c.66-.06,1.38-.6,2.22-.48s1.08.78,1.92.72a2.37,2.37,0,0,0,.9.6,2.42,2.42,0,0,1,2-.06,1,1,0,0,0,.36.3c.36.18.78.18,1.08.36s.78.54.84.84c.54.06.54.6,1,.72.12.42.48.66.66,1,.06.12,0,.24.12.36l.18.18c.06.12,0,.18.06.3a5.86,5.86,0,0,1,.48,1.38.47.47,0,0,0,0,.3,8.55,8.55,0,0,0,.18,1,3.58,3.58,0,0,0,.36.66A9.09,9.09,0,0,1,181.86,28.82Zm-1.92-1.56a2.88,2.88,0,0,0,0-.72c-.12-.78-.54-1.44-.72-2.34a7.11,7.11,0,0,0-.12-1.56c-.3-.12-.24-.48-.42-.66s-.6-.42-.66-.78a6.84,6.84,0,0,1-1.14-.6,5.52,5.52,0,0,1-1.14-.12c-.36-.12-.54-.36-.84-.42-.6-.06-.66.3-1.32.18-.42-.18-.54-.66-.9-.9a1.73,1.73,0,0,0-.78-.06c-.24-.06-.24-.36-.6-.3a3.55,3.55,0,0,1-2.4.24,1.75,1.75,0,0,0-.72.42c0-.24-.48-.06-.66-.12-.66.42-1.62.78-2.22,1.08-.18.06-.3,0-.42.12s-.42.48-.6.66a6.84,6.84,0,0,1-.66.66,2.18,2.18,0,0,1-.42.18c-.72.36-1.08,1.08-1.74,1.38-.06.6-.6.9-.84,1.44s-.24,1.08-.42,1.44L160,27c-.3.9,0,1.86-.48,2.64.24.12.12.48.18.78s.36.78.18,1.26c-.06.12-.24.06-.18.3.18.06.18.3.24.48a1.31,1.31,0,0,1,.3.48c.06.06-.06.18,0,.3s.42.48.24.84c.36.12.3.6.6.72-.18.42.42.84.24,1.56l.3.18c.06.12,0,.24.06.42s.42.36.42.66c.42.12.66.6,1,.9.18.18.36.24.54.42.36.24.54.48.78.66.06.06.12.18.18.18.24.12.54.12.78.24s.42.36.6.42c.6.24,1.38.12,1.92.72.66,0,1,.3,1.8.24.3,0,.42.3.78.3a4.74,4.74,0,0,1,.78-.18,5.94,5.94,0,0,1,1.08.12,5,5,0,0,0,1.26-.54,1.64,1.64,0,0,1,1.08-.48c.06-.36.42-.54.66-.78a3.3,3.3,0,0,0,.9-1,7.62,7.62,0,0,1,.6-.72,16.64,16.64,0,0,0,1.32-2.22,6,6,0,0,0,.6-1.26c.06-.12,0-.3,0-.48s.3-.42.12-.54a3.57,3.57,0,0,0,.24-1.44c.42-.42.3-1,.42-1.68.06-.36.3-.66.3-1a13.08,13.08,0,0,0,.12-2C180.06,27.38,179.94,27.38,179.94,27.26Z"/><path class="cls-1" d="M222.48,14.78a7.86,7.86,0,0,1-1,2.88l-.9,2-.12.42a1.37,1.37,0,0,0-.18,1,3.88,3.88,0,0,0-.54,1,4.33,4.33,0,0,0-.9,1.74,1.83,1.83,0,0,1-.48.48,5.18,5.18,0,0,1-.42,1.26,5.36,5.36,0,0,1-.54,1c-.06.12-.12.48-.36.42-.06.24.18.24.06.54-.54.78-.66,2-1.38,2.64a2.56,2.56,0,0,1-.36,1.08,4.18,4.18,0,0,0-.3.78c-.12.42-.18,1-.3,1.5a4.2,4.2,0,0,0-.48.6c0,.24-.06.48-.06.78-.18.12-.24.36-.48.48a1.31,1.31,0,0,1-.42,1.14c-.06.06-.18.6-.3.84a2.13,2.13,0,0,1-.18.66c-.18.24-.3.6-.6.78,0,1.08-.66,1.5-.66,2.52-.18.06-.24.24-.42.36s-.06.3-.18.48-.18.18-.18.18a3.51,3.51,0,0,0-.12.78l-.18.42c-.12.18-.06.36-.12.48s-.42.3-.54.54,0,.3-.06.48l-.6,1-.24.66c-.18.54-.36,1.5-.78,1.74a1.6,1.6,0,0,1-2-.6c0-.36-.24-.42-.18-.78,0-.18-.18-.24-.36-.24-.06-.18-.06-.3-.18-.36-.12-.3.06-.36.18-.48-.12-.36-.66-.3-.84-.6.12-.72-.48-.6-.36-1.26,0-.24-.3-.12-.42-.24s-.06-.24-.18-.36a21.12,21.12,0,0,1-.9-2,13.18,13.18,0,0,0-.84-1.08c-.24-.3-.42-.84-.78-1.26a6.6,6.6,0,0,0-.54-1.74c-.24-.6-.78-1-.9-1.68-.36-.24-.36-.72-.78-.9,0-.72-.54-1.14-.84-1.68-.18-.3-.18-.72-.54-1a7.22,7.22,0,0,0-.66-1.38c-.06-.18-.36-.42-.48-.66s-.06-.54-.18-.78c-.18-.54-.6-1-.6-1.56a3.67,3.67,0,0,1-.78-1.32,1.19,1.19,0,0,1-.36-.54,4.37,4.37,0,0,1-.54-1.5c-.06-.36,0-.9-.18-1.14-.06-.06-.18-.18-.18-.24s0-.48-.12-.66l-.24-.48-.18-.48c-.36-.72-1-1.32-1-2-.66-.54-.72-1.56-1.44-2a4,4,0,0,0-.9-1.56c-.06-.12-.06-.24-.12-.3s-.18-.06-.18-.24c-.3-.12-.9-.06-1.26-.18a3,3,0,0,1-.54-1.26c.18-.48.78-.54,1.44-.48.3-.06.54-.3.9-.36.6-.12,1.5-.06,2.22-.18a3.16,3.16,0,0,0,.72-.18c.18,0,.36.12.66.12.12,0,.3-.06.48-.06a9.65,9.65,0,0,0,1.32,0,9,9,0,0,1,1.2-.12c.06,0,.12.12.3.06s.72-.24,1-.18.3.24.48.42.06.12.18.3l.18.18c.06.18-.06.36,0,.6,0,.06.18.18.18.18.12.42.06,1.32.18,1.68a5.7,5.7,0,0,0,.54,1.26l.24.66a17.58,17.58,0,0,1,.72,2.94c.06.36.36.48.6.66a14.49,14.49,0,0,0,.72,2.1c0,.06.18.24.18.3s-.06.24,0,.36c.12.36.36.72.54,1.2s.3.78.48,1.26l.24.54a4.19,4.19,0,0,1,.18.72,2.29,2.29,0,0,1,.48.78,2.87,2.87,0,0,1,.42,1.74c.3.3.3.9.66,1.08-.06.78.54.9.54,1.68.42,0,.48-.42.6-.66a28.18,28.18,0,0,0,1-2.7c.12-.18.06-.18.12-.3a4.92,4.92,0,0,0,.24-.66c.06-.12.24-.18.3-.3s0-.36.06-.48l.24-.18c.06-.18.06-.54.18-.66.3-.3.3-.6.6-.6-.06-.42.18-.6.12-1a2.4,2.4,0,0,0,.54-1.38c.06-.06.12-.06.3-.06a2.49,2.49,0,0,1,.18-1c.12-.3.36-.48.42-.72.18-.48.06-1,.24-1.5,0-.18.12-.3.18-.48l.12-.48c0-.12.12-.24.18-.48A12.37,12.37,0,0,1,212,17.9c.06-.06.06-.24.12-.36a2.48,2.48,0,0,1,.42-.66c.06-.24.3-.42.36-.6l.12-.6c.06-.12.18-.24.18-.36a7.49,7.49,0,0,1,1-2.1c.18.06.3-.18.66-.18a3.21,3.21,0,0,0,1.08,0c.12,0,.24-.12.36-.18.3,0,.6.06,1,.06s.66-.12,1-.12.42.3.72.3c.06.06.54-.06.78-.06a3.38,3.38,0,0,0,.78,0c.36,0,.84-.3,1.44-.12a1.56,1.56,0,0,1,1,1.08C222.9,14.36,222.66,14.54,222.48,14.78Zm-3.18.12c-.36-.06-.72.12-1.08-.12a1.22,1.22,0,0,1-1.2-.06c-.12.48-1,.18-1.38.36-.18.3-.18.72-.3.9-.36.3-.24.78-.42,1.2-.24.6-.9,1.08-.84,1.86-.24.06-.24.36-.48.36.12.3-.24.6-.3.84l-.12.78a5.85,5.85,0,0,0-.3.66c.18.66-.36,1.14-.36,1.86-.24.18-.3.48-.48.66,0,.78-.42,1-.42,1.74a5.84,5.84,0,0,0-.9,1.44c-.18.12-.42.18-.42.48-.24.06.18.3-.12.48a4.35,4.35,0,0,0-.3.54c-.12.36-.3.66-.36.9s-.06.24-.12.36-.36.36-.42.6a12.41,12.41,0,0,1-.24,1.32c-.12.42-.54.84-.66,1.26s-.06,1.08-.24,1.56a3.35,3.35,0,0,0-.3.48,1.52,1.52,0,0,0-.12,1.14,2,2,0,0,1,0,.6,1.57,1.57,0,0,1-1.32.72c-.66-.06-1-1-1.32-1.5-.24-.18-.18-.3-.24-.36a9.16,9.16,0,0,1-1-1.32,2.13,2.13,0,0,1-.18-.66l-.3-.6c0-.12.06-.24.06-.36l-.24-.3c-.06-.24-.24-.48-.06-.66-.3-.06-.48-.18-.54-.42.06-.66-.3-1-.12-1.44-.3-.18-.3-.66-.42-.9s-.42-.54-.6-.9a3.33,3.33,0,0,1-.36-1.32c-.42-.18-.3-.66-.42-1l-.48-1a23.06,23.06,0,0,0-.84-2.16v-.48A4.61,4.61,0,0,1,198,19.64a1.45,1.45,0,0,1-.36-1.2c-.72-.6-.84-2.16-.72-3.3-.12-.06-.18-.24-.36-.3.06-.3-.12-.42-.18-.54a12.14,12.14,0,0,0-1.56.24,1.8,1.8,0,0,1-.9.72c-.18-.06-.42-.3-.66-.06a.87.87,0,0,0-.84-.36,3.15,3.15,0,0,0,.6,1.5c.12.12.24.36.3.36a2.43,2.43,0,0,1,.3.54l.54,1.14a4.7,4.7,0,0,1,.54,1.26A4.67,4.67,0,0,1,196,21.5c.3.84.42,2.16.66,2.82.12.24.12.48.18.54a1.23,1.23,0,0,1,.3.54,15.19,15.19,0,0,1,.72,1.38l.48,1.08c.36.78.72,1.44,1,2.16.18.36.54.72.48,1.2.54.24.84,1,1.14,1.44.06.12.06.3.18.42l.42.66a11.19,11.19,0,0,0,1.62,2.88c.3.78.54,1.74.9,2.52a14.86,14.86,0,0,1,1.14,1.56l.54,1.08.12.3a3.65,3.65,0,0,0,.54,1,2.47,2.47,0,0,1,.18.48,5.53,5.53,0,0,0,1,1.2,6.84,6.84,0,0,0,.72-2.7,3.14,3.14,0,0,0,.6-.66c-.06-.6.36-1.08.6-1.62l.24-.42c.06-.12,0-.3.06-.48s.42-.48.54-.72c.12-.42.06-.9.18-1.26.18-.6.66-1.14.54-1.74.36,0,.36-.48.48-.66a7.85,7.85,0,0,0,.6-1.26,3.64,3.64,0,0,0,.42-.84c.06-.12,0-.24,0-.3l.24-.18.18-1.08a7.52,7.52,0,0,1,1-2.22,6,6,0,0,0,.48-.84l.6-1.44a8.61,8.61,0,0,0,.84-2c.54-.24.54-1.14.78-1.5a3,3,0,0,0,.3-.78c.06,0,.18-.06.24-.06a1.22,1.22,0,0,1,.06-.3c.18-.3.18-.72.54-.9-.06-.36.12-.54.12-.84a2.35,2.35,0,0,0,.6-1c.12-.42.06-.66.18-1.08a8.38,8.38,0,0,1,.54-1c.18-.3.84-1,.6-1.14-.06-.06.24-.54.18-.6C219.72,15.08,219.54,14.9,219.3,14.9Z"/><path class="cls-1" d="M235.2,6c-.06.25-.3.42-.42.6l-.12.6a7.06,7.06,0,0,1-.6,1.2c-.36.12-.72.54-1.08.66-.12.06-.3,0-.48.12a5.16,5.16,0,0,1-1.62.54,2.64,2.64,0,0,1-.78-.24l-1.2-.12c-.3-.72-1-1.19-1.2-2l-.54-.6c0-.59-.36-1.13-.36-1.74a2.83,2.83,0,0,1,.24-.89l.18-1c.06-.12.24-.12.3-.23s.06-.19.12-.24.36-.13.48-.3-.06-.24,0-.31c.3-.23.24-.35.3-.48A5.5,5.5,0,0,1,229.5.63c.42-.3,1.08-.18,1.86-.25.3.67,1.2.72,1.62,1.33h.6c0,.17.12.17.24.3a4.22,4.22,0,0,1,1.44,1.85.67.67,0,0,1,.06.31A4.79,4.79,0,0,1,235.2,6Zm.06,10.74c0,.36.18.66.18,1,0,.54-.24,1.2-.24,1.8s0,1,.06,1.68c0,.3.12.36,0,.66-.48,1,0,3,0,4.38-.06.78-.3,1.56-.36,2.4-.18,1.74-.12,3.6-.3,5.28-.06.48,0,1-.06,1.38-.06,1.08-.24,2.1-.36,3.06-.06.72.06,1.38.06,2,0,.42.06.72.06,1.08a4.78,4.78,0,0,1,.18.9,1.85,1.85,0,0,1-.12.48,1.21,1.21,0,0,0,.12.36c0,.18-.12.3-.12.48s.12.3.12.42a3.44,3.44,0,0,0-.24.84,9.8,9.8,0,0,1,.06,1.86,2.24,2.24,0,0,1-1.74.42c-.42-.12-.36-.78-.66-1.08a3.14,3.14,0,0,1-1.38-.48,4.32,4.32,0,0,1-1.44-.12,7.09,7.09,0,0,1-1.5-.24c-.06-.06-.06-.3-.24-.24-.24-.3-.12-.9-.42-1.14a5.9,5.9,0,0,0,.3-1c.12-.72-.12-1.38-.06-2.16a3.1,3.1,0,0,1,.12-.66c0-.06.12-.12.12-.3a2.49,2.49,0,0,1,0-1c0-.06.12-.12.12-.3s-.12-.18-.12-.24.18-.12.24-.24-.12-.36-.12-.48c.18-.84.24-2.52.3-3.06,0-.36.06-.48.06-.9.06-.12-.06-.24-.06-.3a34.1,34.1,0,0,0,.18-3.54c-.06-.78.12-1.5.12-2.22s-.18-1.44.18-2.16a5.84,5.84,0,0,1-.06-2.28,16.86,16.86,0,0,1,.06-1.74,4.43,4.43,0,0,1,0-1.26v-.42c.06-.36.12-.72.12-.84,0-.3-.18-.54-.18-.78a3.38,3.38,0,0,0,0-.78c0-.12-.12-.18-.18-.3v-.3a3.17,3.17,0,0,1,.06-.78c-.06-.42-.66-.36-.78-.66-.18-.6-.48-1.44.06-1.86.36-.18.72-.06,1.26,0a.64.64,0,0,0,.36.12c.06,0,.18-.12.3-.06s.54.24.84.3c1.56.18,4.38-.54,5-.12.24.18.12.54.36.6A9.55,9.55,0,0,0,235.26,16.7ZM232.62,3.8a.91.91,0,0,1-.78-.48c-.3-.11-.42,0-.66.06a2.33,2.33,0,0,0-.66-.71c-.66.29-1,1-1.5,1.55a4.85,4.85,0,0,0,.3,1.62,2.9,2.9,0,0,0,.66,1c.18.24.3.54.54.66a2.34,2.34,0,0,0,1.74-.42l.6-.42c.06,0,0-.24.18-.17,0-.79.54-1.21.24-2A1.41,1.41,0,0,1,232.62,3.8Zm.54,15.42c-.06-.18,0-.18,0-.3-.06-1-.12-2-.12-3.12-.18-.18-.36-.06-.6,0s-.36-.24-.66-.24c-.3.24-1.26.12-1.26.48-.24.6.06,1.2.06,1.74a.76.76,0,0,1-.12.36c0,.18.12.24.12.42,0,.78-.06,1.38-.06,1.92v1.08a15.07,15.07,0,0,0-.24,1.62c0,.48.18.84.18,1.26,0,.24-.24.48-.24.72a2.05,2.05,0,0,1,.06.66v.6c0,1.14.12,2.94,0,4.44v.48c-.06.24-.18.36-.18.54s.06.24.06.42a10.78,10.78,0,0,1-.12,1.32l-.24.9c0,.12.12.3.12.48a2.86,2.86,0,0,1-.36,1.56c.3.12.12.42.12.66a4.25,4.25,0,0,1,.06.9,7,7,0,0,0-.3,1.2,6.17,6.17,0,0,0,.06,1l.12,2.88a9.12,9.12,0,0,0,2.34.36,6.34,6.34,0,0,1,.12-1.56c0-1.14-.54-3.24.18-4.14a1.53,1.53,0,0,1-.24-1,4.19,4.19,0,0,1,.18-.72c.12-.66.06-1.44.18-2,0-.24.18-.54.18-.78s-.12-.24-.06-.42V31.58a3.82,3.82,0,0,1,.12-.42c0-.12-.18-.18-.18-.24s.06-.3.06-.42-.06-.36-.06-.48.06-.18.12-.3,0-.24,0-.3a4.19,4.19,0,0,0,.18-.72c.06-.36,0-.72.06-1a15.81,15.81,0,0,0,.42-1.8c0-.24-.18-.54-.18-.78a33.26,33.26,0,0,1,.18-4.26A7.19,7.19,0,0,0,233.16,19.22Z"/><path class="cls-1" d="M275.39,30.56c.07.54.24.78,0,1.26-.18.3-.78.42-.89.66a2.35,2.35,0,0,0-1.45.06c-.54-.42-1.8-.12-2.34-.54a1.56,1.56,0,0,1-.66.18,15.44,15.44,0,0,1-3.59-.36c-.84-.06-1.87-.06-2.58-.06a4.63,4.63,0,0,1-.9.12c-.6-.06-1.15-.42-1.74-.42a13.05,13.05,0,0,0-1.45.12,5.48,5.48,0,0,1-1-.12c-.12,0-.29.12-.41.12a1.41,1.41,0,0,0-.48-.12c-.54,0-1.08.24-1.5-.24a1.31,1.31,0,0,1-1,.3c-.36-.06-.6-.12-.72-.12s-.3.18-.3.18c-.24,0-.6-.24-.9.06-.12-.18-.6,0-.78-.18s-.18.18-.36.18c-.66-.3-1.2-.06-1.86-.06a10.35,10.35,0,0,0-2-.12A3.23,3.23,0,0,0,248.7,34c.06.42-.12.6-.12.9.06.12.24.12.3.18s0,.24.06.3a8.23,8.23,0,0,1,1,1.08c.36.6,1,1.08,1.44,1.8a10,10,0,0,0,.72,1,4.41,4.41,0,0,1,1.56.84l.36.18a9.56,9.56,0,0,0,1.26.9,6,6,0,0,0,.78.12c.36.12.9.72,1.44.78A4.38,4.38,0,0,1,258,42a4.08,4.08,0,0,1,.9.12,2.11,2.11,0,0,0,1.43-.36,4.59,4.59,0,0,0,.91-.06c0-.06.05-.18.05-.24s.19.06.25,0,.12-.18.17-.18c.25-.06.54.12.79-.06a1.39,1.39,0,0,1,.59-.3,6,6,0,0,0,1.15-.72l.77-.48c.78-.48,1.27-1.5,2-2.16a3.84,3.84,0,0,1,.71-2,3.07,3.07,0,0,1,.54-1.74,1.59,1.59,0,0,1,1.08-.06l.79.42c.23.12.47.12,1,.3.11.06.23.18.35.18s.36,0,.61.06.23.18.35.18c.3.06.84-.12,1.15,0a.73.73,0,0,0,.23.24,1,1,0,0,1,.54.48,2.3,2.3,0,0,1-.42,1.32c-.06.18-.12.54-.35.48-.07.3.11.36,0,.72s-.24.36-.3.66a9.72,9.72,0,0,1-.41,1.32l-.42.48a2.27,2.27,0,0,1-.91.78c.18.36-.36.54-.47.72a2.83,2.83,0,0,1-1.2,1.14c-.61.54-1.38.9-1.92,1.32l-.54.36a2.35,2.35,0,0,1-1,.66c-.18.12-.25.06-.42.12,0,0-.12.18-.18.18a9.57,9.57,0,0,1-1.39.24c0,.06-.23.18-.23.18l-1.8.36a2.47,2.47,0,0,1-1.27.18c-.17,0-.42-.12-.54-.12s-.53.42-.89.12c-.3-.12-.12.36-.49.24s-.89.12-1.37.06a3.16,3.16,0,0,1-.72-.18c-.24-.06-.3.12-.42.06s-.18-.18-.18-.18a14.4,14.4,0,0,1-2.4-.36c-.24-.06-.54,0-.66-.3a2.28,2.28,0,0,1-1.86-.72,2.71,2.71,0,0,1-.66-.18c-.48-.24-1.14-.42-1.44-1-.6,0-.84-.42-1.14-.72a1.82,1.82,0,0,1-1.5-.9,6.32,6.32,0,0,0-.9-.9c-.12-.12,0-.42-.18-.54-.66-.3-1-1-1.68-1.2-.12-.42-.54-.72-.78-1.08a2.51,2.51,0,0,1-.24-.6l-.42-.48c-.18-.54-.24-1.2-.42-1.8a1.15,1.15,0,0,1-.18-.48c-.06-.36,0-.72-.06-1s-.24-.48-.3-.72,0-.78-.06-1.26a6.76,6.76,0,0,1-.18-1.08c0-.54.12-1.14.12-1.74,0-.18-.06-.48-.06-.66.06-.42.36-.84.42-1.26a1.13,1.13,0,0,0-.12-.48c0-.18.18-.42.06-.6.18-.12.24-.48.3-.66a8.55,8.55,0,0,1,.18-1l.24-.18a.54.54,0,0,0,.06-.3l.24-.18c0-.12-.06-.3,0-.36a2.1,2.1,0,0,1,.3-.48l.18-.6c.12-.18.24-.24.3-.36s-.06-.36,0-.48.18-.06.24-.18l.3-1.2a2.07,2.07,0,0,1,.78-1.14c-.18-.18,0-.36,0-.54a4.57,4.57,0,0,0,1-1.68c.72-.48,1.14-1.32,1.86-1.86a2.77,2.77,0,0,1,.6-.3c.06-.06.06-.12.18-.18s.24-.06.3-.06a6.27,6.27,0,0,1,1.2-.9c.48-.18,1.68-.06,2.1-.6a2.93,2.93,0,0,0,1.38-.48,2.39,2.39,0,0,1,1.38-.36,3.78,3.78,0,0,0,1.62-.12,5.56,5.56,0,0,1,1.2-.18c.12,0,.3.12.47.12.67,0,1.21,0,2,.06.42,0,.79-.18,1.26-.18.07,0,.12.12.24.12a2.28,2.28,0,0,1,.91,0,3.16,3.16,0,0,1,.59.18,2.21,2.21,0,0,1,1,.42c.18.12.47.12.65.24a3.75,3.75,0,0,1,.73.3c.47.18,1,.24,1.19.78.19.06.31,0,.49.12a6.48,6.48,0,0,1,1.08.78c.29.24.59.78,1,1,.07.24.24.36.3.66.66.36,1,1.08,1.81,1.38.23.54.65.84.71,1.5l.6.9c.07.18.36.42.42.66a3.59,3.59,0,0,0,.61,1.2,3.85,3.85,0,0,1,.65,1l.12,1,.3.78c.12.6,0,1.2.06,1.86l.18,1.44a3.69,3.69,0,0,0,.06.78c0,.24.18.42.18.6S275.39,30.38,275.39,30.56Zm-2.46-2.76a1.65,1.65,0,0,0,.12-.78c0-.24-.17-.6-.17-.78.12-.48.35-.24.12-.54s-.12-.84-.19-1a2.12,2.12,0,0,0-.48-.78c-.06-.18-.06-.3-.18-.42a3.06,3.06,0,0,0-.48-.48c0-.06.06-.24,0-.3-.24-.18-.17-.3-.24-.42a3.8,3.8,0,0,1-.47-.84c-.19-.18.12-.36,0-.72-.37.12-.37-.3-.49-.48l-.24-.18c-.11-.12-.11-.24-.18-.42-.84-.18-1.2-.78-1.85-1.2,0-.36-.31-.6-.42-.84a4,4,0,0,0-.61-.78c-.47-.48-1.38-.6-1.62-1.32-.59,0-.89-.36-1.43-.12a11.37,11.37,0,0,0-1.26-.54c-.19-.06-.31-.18-.48-.18s-.72,0-1.14-.06-.66-.12-1-.12a4.57,4.57,0,0,1-1.26.18c-.24,0-.42-.12-.66-.12l-1,.18-2,.24-1,.18-.3.18-.36.12a2.4,2.4,0,0,1-1.56.24c-.36.6-1.14.6-1.68,1-.18.24-.3.18-.36.24l-.42.3-.6.36c-.06.06-.18.06-.3.12-.36.3-.42.78-.9,1,0,.24-.18.36-.18.66-.3.06-.36.36-.48.54a11.3,11.3,0,0,0-.84,1.44,4.52,4.52,0,0,0-.36.78,5.94,5.94,0,0,0-.12,1.08c-.18.48-.72.84-.66,1.44-.54.3-.66,1.08-.9,1.62a1.57,1.57,0,0,0-.3.54,12.15,12.15,0,0,1-.36,2.52c.48.48.18,1.14.18,1.86,0,.48.12,1.08.18,1.62a3.17,3.17,0,0,0,.06.78,4.54,4.54,0,0,0,.06.9c0,.12.18.18.18.3s-.06.42,0,.54l.18.42a4.72,4.72,0,0,1,.48,1.56l.72.78a2.21,2.21,0,0,0,.6.66,2.44,2.44,0,0,1,.54.6c.06.12.24.06.42.12a6.5,6.5,0,0,0,.84.9l.18.3a2,2,0,0,0,.66.48,3.16,3.16,0,0,0,1,.6,2.4,2.4,0,0,0,.6.72c.3.18.72.18,1.08.42l.54.48c.24.18.6.18.66.48a6.3,6.3,0,0,1,1.38.42,1.63,1.63,0,0,0,.54,0c.3.12.48.3.78.3a2.34,2.34,0,0,0,1-.06s.18.18.18.24a2.56,2.56,0,0,0,1.2-.12c.78.6,2.4.24,3.29.12a.68.68,0,0,1,.37,0c.17-.06.24-.18.42-.18l1-.18c.29-.06.71,0,1-.06s.65-.36,1-.48c.05-.06.17,0,.29,0a4.81,4.81,0,0,0,.84-.48c.24-.24.42-.18.49-.24.24-.24.35-.48.59-.72l.61-.36.3-.18a15.76,15.76,0,0,1,1.55-1c.18-.54.66-.72.72-1.32a2.57,2.57,0,0,0,1.15-1.92.63.63,0,0,0,.17-.78c-.17-.18-.66-.12-1-.12-.36-.18-.54-.42-1.08-.42a12.83,12.83,0,0,0-.3,1.38c-.06.18-.24.24-.29.48s0,.42-.12.66a.85.85,0,0,0-.3.36l-.37.6-.59.72c-.49.48-.73,1-1.2,1.32-.13.12-.3.12-.49.24a2.61,2.61,0,0,0-.42.24l-1,.48c-.12.06-.23-.06-.3,0s-.12.12-.17.18l-1,.48c-.3.12-.47.36-1,.24-.3.36-.77.3-1.13.48l-.42.18c-.18,0-.37-.12-.6-.12s-.36.18-.54.18a11.9,11.9,0,0,1-3.3-.24c-.78-1-2.76-.9-3.24-2.1a2.48,2.48,0,0,1-.9-.42c-.12-.24-.3-.18-.36-.24-.48-.18-.66-.54-1.14-.66,0-.72-1.08-.84-.72-1.5-.36.06-.54-.12-.78-.18a2,2,0,0,0-.6-.78c-.06-.54-.6-.66-.54-1.32-.72-.06-.72-.84-1.14-1.26.06-.24.3-.3.3-.6a2.06,2.06,0,0,1-.72-1.32c-.06-.24.12-.48.12-.72s-.18-.6-.18-1c-.06-.84.3-1.62.12-2.34.54-.54,1.38-.42,2.52-.42.24,0,.36.06.54.06.84-.06,1.32,0,2,0s1.14.12,1.5.12.66-.12,1-.12.42.18.6.18.78-.18.9-.18a6.53,6.53,0,0,0,1.14-.06c.23,0,.6.12.84.12.78.06,1.38-.06,2-.06a.76.76,0,0,0,.36.12c.18,0,.36-.12.47-.12s.49.24.67.24c.41,0,.71-.18,1.08-.18s1,.18,1.55.24c.24,0,.54-.12.78-.12a8.19,8.19,0,0,1,1.63.36c.36,0,.36-.3.71-.3a26,26,0,0,0,4,.42,6,6,0,0,0,2.52,0A3.48,3.48,0,0,0,272.93,27.8Zm-3.35-1.2c-.07.42,0,.84-.42,1.14-1.2.18-2.77-.3-4,.18a3.56,3.56,0,0,0-1.87-.24c-.66.06-1.5-.12-2.21-.12a3,3,0,0,1-1.62-.12,1.42,1.42,0,0,1-1.38-.06,3.08,3.08,0,0,1-1.5.36c-.18,0-.36-.18-.48-.18a7.36,7.36,0,0,0-1,.06c-.12,0-.3-.12-.48-.12s-.84.18-1.14-.12c-.18,0-.3.18-.48.18s-.42-.06-.66,0-.72.3-1.08.36a15.21,15.21,0,0,0-1.56.06l-.48.18-.6.12a4.13,4.13,0,0,1-1.08.12c-.42-.06-.6-.48-.84-.78a2.15,2.15,0,0,1,.12-1.08c.12-.18.06-.66.12-1,0-.12.36-.18.12-.48l.36-.6a3.55,3.55,0,0,1,.84-2.1,3.51,3.51,0,0,0,.12-.78c0-.06.18-.12.18-.18s0-.3,0-.42a.36.36,0,0,0,.24-.06.81.81,0,0,1,.12-.48c.12-.18.42-.36.54-.6a2.89,2.89,0,0,0,.54-.66l.3-.24.66-1a10.7,10.7,0,0,1,2-.54c.24,0,.36-.3.6-.36.06-.06.3,0,.54-.12a6.53,6.53,0,0,1,1.38-.36c.3,0,.6.12,1,.12s.48-.06.66-.06c.48,0,.9.36,1.26.12l.6.3.48.3c.48.12,1,0,1.44.12l.48.18a1.17,1.17,0,0,0,.6.12,4.59,4.59,0,0,0,1,.6,6.23,6.23,0,0,0,1.13.36c.91.84,1.92,1.62,2.83,2.46a9.15,9.15,0,0,1,1.08,1c0,.18.12.12.17.18s.18.36.37.36c0,.48.35.84.54,1.32.12.12,0,.24.12.36s.35.6.47.9A4.53,4.53,0,0,1,269.58,26.6Zm-2.76-2c-.19-.12,0-.3-.07-.48s-.54-.06-.29-.36c-.25-.24-.72-.3-.67-.78-.36.06-.47-.36-.59-.42L265,22.4c-.3-.24-.37-.66-.67-.9s-.59.18-.59-.3a2.82,2.82,0,0,1-2.41-1.2,15.53,15.53,0,0,1-2.39.06c-.54-.36-1-.18-1.74-.36-.3-.06-.18-.48-.6-.48-.54.24-1-.18-1.62-.24a9,9,0,0,1-2,.66c-.36.12-1,.9-1.2,1.14l-1.56,1.86c.06.48-.18.66-.12,1.08-.54.42-.66,1.32-.84,2.1a12.71,12.71,0,0,0,2-.12,3.42,3.42,0,0,1,.78-.06c.18-.06.3-.18.48-.18.72-.06,1.5.06,2.22,0a5.18,5.18,0,0,1,2.16.06,6.75,6.75,0,0,1,2.88-.12c.12,0,.12-.12.3-.12s.12.12.29.12.25.18.49.12c1.8-.3,4.08.18,6.3-.18C267.24,25.22,267.12,24.68,266.82,24.56Z"/></g></g></svg>