<svg xmlns="http://www.w3.org/2000/svg" viewBox="0 0 373.43 61.92"><defs><style>.cls-1{fill:#231815;}</style></defs><g id="レイヤー_2" data-name="レイヤー 2"><g id="text"><path class="cls-1" d="M3.3,12.76,8.58,26.14,14,11.8,19.2,26.14l5.46-13.38H28L19,34.06,13.8,19.87,8.52,34.06,0,12.76Z"/><path class="cls-1" d="M42.78,26.47A6.56,6.56,0,0,1,36,33.16a6.56,6.56,0,0,1-6.75-6.69A6.52,6.52,0,0,1,36,19.81,6.52,6.52,0,0,1,42.78,26.47Zm-3,0c0-2.88-1.89-4.05-3.75-4.05s-3.75,1.17-3.75,4.05c0,2.43,1.44,4,3.75,4S39.78,28.93,39.78,26.5Z"/><path class="cls-1" d="M45.84,20.14h2.94v1.14A5.08,5.08,0,0,1,50,20.23a3.4,3.4,0,0,1,1.8-.42,4.36,4.36,0,0,1,2.31.6l-1.2,2.67a2.66,2.66,0,0,0-1.5-.45,2.29,2.29,0,0,0-1.83.69,4.07,4.07,0,0,0-.81,2.91v6.54H45.84Z"/><path class="cls-1" d="M58.74,10.9V24.37l4.11-4.23h3.9l-5.43,5.25,5.82,7.38H63.42l-4.14-5.4-.54.54v4.86H55.8V10.9Z"/><path class="cls-1" d="M74.58,23.47a2.12,2.12,0,0,0-1.8-1.08,1.25,1.25,0,0,0-.9.33,1,1,0,0,0-.27.66.81.81,0,0,0,.42.72c.18.12.36.18,1,.51l1.5.75a6.06,6.06,0,0,1,1.77,1.17,3.12,3.12,0,0,1,.93,2.34,4.19,4.19,0,0,1-1.11,2.88,4.51,4.51,0,0,1-3.54,1.41,4.35,4.35,0,0,1-2.73-.81A4.92,4.92,0,0,1,68.22,30l2.4-1.14a3.32,3.32,0,0,0,.69,1.2,1.8,1.8,0,0,0,1.29.48,1.77,1.77,0,0,0,1.2-.42,1.49,1.49,0,0,0,.42-1,1.36,1.36,0,0,0-.39-1,3.87,3.87,0,0,0-1.26-.78l-1.08-.51a6.23,6.23,0,0,1-1.74-1.08,2.75,2.75,0,0,1-.9-2.13A3.94,3.94,0,0,1,69.9,21,4.07,4.07,0,0,1,73,19.81a4,4,0,0,1,2.34.66A4.34,4.34,0,0,1,76.77,22Z"/><path class="cls-1" d="M140.22,28a19.55,19.55,0,0,1-.54,2.7l-.12,1c-.12.36-.36.66-.42,1a19.09,19.09,0,0,1-.24,2c-.06.18-.24.3-.3.48l-.18.6a11.79,11.79,0,0,0-1.32,3.06c-.18.06-.3.24-.54.3-.42,2-2,2.64-3,4.08a2,2,0,0,0-1,.72c-.66.06-.78.6-1.44.6a3.23,3.23,0,0,0-.72.54c-.24,0-.3.18-.6.06a7.62,7.62,0,0,1-1.62,1.08c-.72-.24-1,.24-1.5.42s-.78.06-1.32.18a1.31,1.31,0,0,0-.3.18c-.3,0-.6-.24-.78.06-.3.06-.3-.12-.48-.18-.36,0-.24.42-.6.36a3.8,3.8,0,0,0-1.92.36,5.82,5.82,0,0,1-1-.06,2.92,2.92,0,0,0-.72-.06c-.12,0-.24.12-.42.18s-.36-.12-.48-.12-.48.18-.66.18c-.54,0-1-.12-1.56-.12a2.25,2.25,0,0,0-.66.06,3.38,3.38,0,0,1-.72-.24,10,10,0,0,1-1.92-.12,3,3,0,0,1-.84-.48c-.72.12-1.14-.36-1.62-.54a7.82,7.82,0,0,1-1.26-.24.9.9,0,0,1-.42-.18,1.34,1.34,0,0,1-.54-.6c-.36.06-.48-.12-.78-.12a4.72,4.72,0,0,0-1.62-.9c-.06-.36-.54-.42-.78-.66a1.36,1.36,0,0,0-.06-.24c-.12-.06-.54.12-.42-.18a.81.81,0,0,1-.36-.42c-.18-.06-.66.12-.66-.06-.24,0-.24-.18-.3-.24a2.27,2.27,0,0,1-.78-.6,3.77,3.77,0,0,1-1.92-1.2c-.3.06-.42-.06-.66-.12,0-.36-.42-.36-.54-.66-.72,0-.72-.66-1.38-.72-.12-.24-.24-.6-.66-.6-.3-.84-1.08-1.32-1.68-2-.18-.18-.3-.48-.54-.6.12-.24-.18-.36-.18-.48-.18-.36-.12-1-.6-1.14.18-.3-.06-.66-.18-1a1.88,1.88,0,0,0-.36-1,3.42,3.42,0,0,0-.3-2,2.06,2.06,0,0,0-.18-1.38,11.09,11.09,0,0,0-.06-2c.06-1,.06-2,.18-3,0-.3.18-.3.18-.48V23c.06-.12.12-.36.12-.3,0-.12-.12-.12-.06-.24a2,2,0,0,1,.18-.36,13.55,13.55,0,0,1,.24-1.74,1.93,1.93,0,0,1,.48-.84c0-.3-.3-.3-.24-.72.54-.42.24-1.38.42-2.1a4,4,0,0,1,.42-1.08,4.29,4.29,0,0,1,.48-.9V14c.48-.48.54-1.44,1.14-1.8-.06-.42.3-.42.18-.84.3-.06.3-.3.42-.48s.3-.24.36-.42.18-.54.36-.72c.3-.48,1.08-.9,1.26-1.62.42,0,.54-.36.78-.6.12-.06.24,0,.3-.06.18-.24.48-.36.48-.42.24-.18.3-.48.54-.66s.24-.06.36-.18a9.13,9.13,0,0,0,1.32-1.32c.18,0,.24-.18.54-.06.36-.6,1-.48,1.5-.66l.6-.3c.06,0,.12-.18.18-.18s.24.06.36,0c.9-.3,2.1-.66,3.06-1.08a10.53,10.53,0,0,1,2-.6l.78-.18a2.8,2.8,0,0,1,.6-.3c.18-.06.54,0,.84-.06a15,15,0,0,1,3.48-.3c.18,0,.42.06.6.06a9.85,9.85,0,0,0,1.38-.12c.12-.06.6.18.84.18s.6-.06.9-.06.54.12.78.12c1.44,0,3.36-.24,4.5.3a6.31,6.31,0,0,0,1.08.48l.66.12c.24.06.42.3.66.42a4.64,4.64,0,0,1,1,.42c.12,0,.24.3.36.36l.42.12a15.8,15.8,0,0,1,2.1,1.56c.12.12.3.06.36.12s0,.36.18.3a4,4,0,0,1,1,.72c.48.18.78.66,1.14,1l.3.12.18.18c.06.06.24.06.3.12.24.24.42.66.66.9l.78.48.54.6a1.68,1.68,0,0,1,1.26.9.64.64,0,0,1-.12.36c0,.06-.06.3-.06.36-.3.6-.9.6-1.14,1.26-.12.12-.36.12-.48.18-.12.24-.36.36-.48.6a2.18,2.18,0,0,1-.54.48l-.36.3c-.06.18-.18.12-.18.18-.36.24-.66.84-1.2,1-.3.72-.66,1.32-1.8,1.14-.24-.18-.3-.54-.42-.78-.36,0-.48-.3-.72-.42s-.24-.12-.36-.18-.18-.3-.18-.3-.3-.12-.36-.24a1.71,1.71,0,0,1-.66-.78,6,6,0,0,1-1.68-1,5,5,0,0,1-.72-.48,5.27,5.27,0,0,0-.9-.72l-.66-.18a2.39,2.39,0,0,0-.24-.18c-.12-.06-.3,0-.42,0l-.48-.42-.48-.24a11.47,11.47,0,0,0-1.26-.36l-.84-.42c-.24-.12-.6-.18-.78-.42-.42.18-.72-.24-1-.3a2,2,0,0,0-.6,0l-.3-.24c-.24-.06-.48.06-.66,0a12.45,12.45,0,0,1-1.26-.48c-.54,0-1.08.42-1.26-.24-.24.06-.18.42-.48.48a1.78,1.78,0,0,0-1-.12,4.19,4.19,0,0,0-.72.18c-.12,0-.18-.12-.24-.12s-.42.06-.78.06-.9,0-1.2.06-.36.24-.54.3l-1.32.48a1.91,1.91,0,0,0-.54.18c-.72.3-1.26.84-1.86,1.08a4.26,4.26,0,0,1-.9.9,3.14,3.14,0,0,1-1,.72c-.06.3-.3.48-.36.78-.36,0-.36.3-.72.24.06.42-.12.48-.12.78a22.11,22.11,0,0,1-1.5,2,2,2,0,0,1-.42,1.26,8.29,8.29,0,0,1-.6,1.32c0,.06-.18.18-.18.18s.12.24.06.42-.12.12-.18.24a3.39,3.39,0,0,0,0,.78,13.56,13.56,0,0,1-.66,2.22,14.66,14.66,0,0,0-.42,2.34,12.54,12.54,0,0,0-.06,1.5,6.22,6.22,0,0,1,.24.6c.06.6-.12,1.26.3,1.68-.06.3.12.72,0,.78a3.58,3.58,0,0,1,.36.66.9.9,0,0,1,.18.42c.06.12-.06.3,0,.48.3.66,1,1,1.44,1.56,0,1.14,1.26,1.14,1.2,2.34a8.36,8.36,0,0,1,1.14.9c.36.3.78.48,1.14.78.12.12.18.36.36.54s.72.42.84,1a2.61,2.61,0,0,1,1.08.54,4.21,4.21,0,0,1,1,.6c1.32.12,2,.78,3.18,1.08a2.28,2.28,0,0,0,1.14.24c.3.42,1.08.3,1.32.72.12-.06.18-.12.24,0a1.23,1.23,0,0,1,1.14.24,3.43,3.43,0,0,1,1.92.12c.54-.36,1.56-.06,2.34-.12a3.66,3.66,0,0,1,.78-.18c.12-.06.3.06.48,0l.18-.18c.18-.06.18.06.3.06a17.69,17.69,0,0,0,2.7-.72c.18,0,.24-.18.42-.24s.36,0,.48-.12.24-.18.42-.24a3.3,3.3,0,0,0,.54-.42c.06,0,.18-.06.24-.06a2.93,2.93,0,0,0,.18-.42c.06-.06.24,0,.3-.06a1.78,1.78,0,0,1,.42-.48c.06-.06,0-.18.06-.3a.36.36,0,0,1,.24-.06l.18-.42c.24,0,.18-.12.18-.18l.42-.48c.12-.06.12-.24.36-.18.12-.24.18-.54.42-.66a4.73,4.73,0,0,1,.72-2.4c0-.3-.06-.48-.06-.78s.18-.42.18-.66-.12-.66.06-1A1.27,1.27,0,0,0,131,31c-.3,0-.36.18-.6.18a3.1,3.1,0,0,1-.66-.12c-.78,0-1.62.3-2.4.24-.36.06-.42-.24-.48-.48-.36-.06-.12.42-.48.3a1.78,1.78,0,0,1-1.56-.06c-1,.36-2.16.06-3.12.36a3.11,3.11,0,0,0-1.32-.42c-.36-.72-.12-1.44-.18-2.28a8.62,8.62,0,0,1-.12-1.44c0-.12.06-.36.06-.48s-.12-.24-.18-.36a.42.42,0,0,1,0-.3c-.06-.36-.24-.54-.18-.9a1.89,1.89,0,0,1,1-.66c.36-.06.6.18,1,.24.18,0,.24-.12.36-.12s.18.12.24.12c.24,0,.54-.24.72,0a1.56,1.56,0,0,1,1-.18c.48,0,.66.12,1,.12a3.69,3.69,0,0,0,.78-.06c.42,0,.84.12,1.26.12.18,0,.24-.06.36-.06s.18.06.42.06.18-.06.36-.06.24.12.36.12c.36-.06.66-.3,1-.3.18,0,.42.12.66.12a11.09,11.09,0,0,0,1.38-.06,13.69,13.69,0,0,0,1.62.12,6.48,6.48,0,0,0,1.14-.18,11.8,11.8,0,0,1,1.44.18c.24,0,.48-.12.72-.12.72,0,1.86.12,2.88.06.3.3.42.84,1,.9A7.58,7.58,0,0,0,140.22,28Zm-2.1-1.2c-1.14-.36-2.46.06-3.66-.36-.48.06-.84.3-1.2,0-.36-.06-.24.36-.66.24-.66-.18-1.26.18-1.74.18a7.25,7.25,0,0,0-1.08-.3c-.18-.06-.42.06-.66.06-.9,0-2.22.24-2.7-.06-.3.36-.9.06-1.2.06s-.3.12-.48.12L124,26.4a10.78,10.78,0,0,0-2.1.48,5.06,5.06,0,0,0,.3,2.52,5.71,5.71,0,0,1,1.74-.06,7.28,7.28,0,0,1,1.08-.06.66.66,0,0,0,.42.06,4.74,4.74,0,0,0,.78-.18c.24,0,.66.12,1,.12a9,9,0,0,0,1.32-.12c.3,0,.54.12.78.12a6.63,6.63,0,0,1,1-.18,2.89,2.89,0,0,1,.72,0c.84-.06,1.44,0,2.22-.06a2,2,0,0,1,.66,1.2,6.16,6.16,0,0,1-.24.84,2.43,2.43,0,0,0,0,.66,6.22,6.22,0,0,1-.24.6c0,.24.12.36.12.6a15.32,15.32,0,0,1-.54,2.7c-.12.36-.12.78-.24,1s-.36.18-.18.42c-.42.12-.6.54-.84.84a8.13,8.13,0,0,0-.6,1.26c-.48.18-.72.72-1.26.9.06.36-.12.48-.18.72-.42.12-.6.54-1,.72a16,16,0,0,1-3,1c-.42.36-1.26.72-1.74.24a6.1,6.1,0,0,1-1.86.54,6,6,0,0,1-2.34.12c-.36-.06-.54-.3-.84-.36-.3.12-.48.36-.9.42a4.12,4.12,0,0,1-3.18-.84,3.39,3.39,0,0,1-1.44-.42,3.42,3.42,0,0,1-1.74-.24c-.3-.12-.48-.42-.78-.48a6.67,6.67,0,0,1-1-.42,14.66,14.66,0,0,1-1.44-.6,2.07,2.07,0,0,1-.72-.42L107.4,40c-.6-.36-.78-.84-1.38-1.14a1.55,1.55,0,0,0-.42-.66l-.24-.12c-.06-.3-.3-.24-.42-.3a1.34,1.34,0,0,0-.54-.6l-.3-.18a3.64,3.64,0,0,1-.6-.42,8.42,8.42,0,0,1-.72-1.08l-.18-.36c-.12-.18-.3-.18-.36-.3a8.71,8.71,0,0,0-.6-1.08c-.36-.42-.84-.84-1.14-1.26-.12-.24-.12-.48-.24-.72s-.3-.48-.36-.66a3.51,3.51,0,0,1-.12-.78l-.24-.72a6.53,6.53,0,0,1-.3-1.56c0-.18-.3-.18-.24-.48a10.87,10.87,0,0,1-.06-2.4c.12-.72.18-1.14.54-1.44-.24-.6.12-1.14-.06-1.74.06-.3.3-.54.36-.9s.06-1,.18-1.5.48-1.2.42-1.86c.18-.18.24-.48.48-.66,0-.84.84-1.32.9-2.4.18-.12.42-.18.54-.36-.06-.78.84-1.44,1.08-2.28,1-.78,1.8-2,2.76-2.76a2.18,2.18,0,0,1,.42-.18.45.45,0,0,1,.12-.24c.24-.18.6-.3.78-.42a3.65,3.65,0,0,1,.84-.6,2.29,2.29,0,0,0,.6-.18,7,7,0,0,0,.9-.36l.18-.18a4.65,4.65,0,0,1,1.38-.36l2.34-.54c.24.24.48.12.78.12.84,0,1.74.06,2.7.06a16.86,16.86,0,0,1,1.74-.06l.48.24c.24.06.66.06.84.12s.12.18.18.18c.42.12.72,0,.9.12l.48.18c.06.06.12.06.3.12a22.48,22.48,0,0,0,3.18,1.14c.18.24.54.36.72.6a3,3,0,0,1,1.2.3.48.48,0,0,0,.36.3l1,.48c.06.06.18.06.3.12s.06.18.18.18a2.1,2.1,0,0,0,.48.3l.18.24c.06.06.18,0,.3.06s.12.3.24.42a3.35,3.35,0,0,1,.48.3,2.77,2.77,0,0,1,.42.42,3.35,3.35,0,0,0,.48.3c.12.12.12.3.24.36s.42.12.6.24c0,.18.12.18.18.18l.78.42c.36-.36.84-.9,1.26-1,.18-1,1.14-1,1.38-1.8,0-.36-.36-.48-.54-.72s-.3-.54-.66-.6c0-.24-.18-.36-.18-.66a1.06,1.06,0,0,1-.84-.48l-.3-.24-1-.6c-.12-.06-.24-.3-.3-.36s-.24-.06-.36-.12-.3-.36-.48-.48a5.19,5.19,0,0,0-.6-.42l-.24-.18a3.88,3.88,0,0,1-.9-.6c-.12-.12-.3-.3-.36-.3a10.09,10.09,0,0,0-2-.9l-.48-.12a.48.48,0,0,0-.36-.3,4.25,4.25,0,0,0-1-.42c-1.2-.24-2.4,0-3.78-.18l-.54-.3c-.24.42-.9.06-1.26.06-.18,0-.36.18-.54.18h-.24c-.24,0-1,.18-1.38.18-.18,0-.42-.18-.66-.24s-.6.06-.78-.18c-.3.42-.78.24-1.08.24-.12,0-.12.06-.3.12a3.4,3.4,0,0,0-1.08.18l-.18.18-.66.18c-.24.06-.48,0-.72.06s-.36.24-.54.3a11.69,11.69,0,0,1-1.38.36c-.36.54-1,.36-1.68.54-.12,0-.36.18-.54.24l-1.32.48a.76.76,0,0,1-.36.06l-.6.3a6.56,6.56,0,0,0-.9.48,2.72,2.72,0,0,1-1.14.66c-.12.3-.48.42-.72.66s-.72.66-1.08.9a3.56,3.56,0,0,0-.48.48,2.11,2.11,0,0,1-.6.48,6.53,6.53,0,0,1-1.56,2,1.47,1.47,0,0,1-.24.72L98.7,13l-.3.54a5.22,5.22,0,0,1-.48.84v.24a.45.45,0,0,0-.18.48c-.06,0-.18.24-.24.24A9.33,9.33,0,0,0,97,16.74a4.92,4.92,0,0,0-.12,1.32c-.12.42-.42.84-.54,1.26s0,1.2-.12,1.74c-.06.24-.24.42-.3.66s0,.6-.06.9-.24.48-.3.78c0,.12.12.3.12.36s-.12.24-.12.42a3,3,0,0,1-.24,1.44c.24.12.18.42.18.66,0,.66-.18,1.62-.24,2.22.36.48.24,1,.36,1.68a1.91,1.91,0,0,0,.18.54,12,12,0,0,0,.42,2l.12.42c0,.12.12.18.18.3s-.06.3,0,.48.12.18.18.3L97,35c.18.24.54.24.66.48s.18.12.24.18a7.65,7.65,0,0,0,.42.72c.12.12.36.12.42.18.12.36.36.42.36.72a4,4,0,0,1,1.62,1.38c.3-.18.42.18.6.3a2.18,2.18,0,0,0,.42.18l.12.24a6.75,6.75,0,0,0,1.32.48c.3.42.84.54,1.14.9a1.3,1.3,0,0,0,.72.12,2.62,2.62,0,0,1,.48.6,1.3,1.3,0,0,1,.72.12,5.48,5.48,0,0,0,1.38.9c.12.06.12.18.24.3s.36,0,.48.06.18.24.3.3.36.06.48.12.18.24.3.3l.48.12,1.26.48a2.84,2.84,0,0,0,1.32.42,3.9,3.9,0,0,0,2.1.84c.36,0,.48-.24.78-.3a1,1,0,0,0,.42.24,1.66,1.66,0,0,1,.84.12c.12,0,.18-.12.42-.12a13,13,0,0,0,1.5.24,1.91,1.91,0,0,0,.54-.18c.24-.06.48.06.72,0,.48,0,1-.12,1.38-.12s1,.06,1.44,0,.48-.18.78-.24a6.61,6.61,0,0,0,1.08-.12c.12,0,.24-.12.42-.18s.36,0,.54-.06l.48-.18A2.6,2.6,0,0,0,127,44.1a15.82,15.82,0,0,1,1.8-.6l1.26-.78c.06-.06.18,0,.3-.06l.36-.42c.12-.06.24,0,.3-.06.3-.18.42-.48.78-.48a14.26,14.26,0,0,0,2.4-2.64c.42-.66.84-1.44,1.14-2,.06-.18.24-.3.24-.36a2.24,2.24,0,0,0,.24-.66,2,2,0,0,1,.72-1c-.12-.6.18-.72.3-1.08a3.16,3.16,0,0,1,.12-1.14,10.25,10.25,0,0,1,.42-1.08c-.12-.18.06-.6.12-.66a1.09,1.09,0,0,1,.3-.66c-.3-.84.24-1.68.42-2.4C137.82,27.78,138.12,27.3,138.12,26.82Zm1-15.6.06-.06A.06.06,0,0,1,139.08,11.22Z"/><path class="cls-1" d="M167.58,20.22c-.18.18-.18.06-.36.18s-.18.24-.42.3c-.06,0-.18.12-.3.06-.66-.06-.66-.84-1.32-1.14a7.26,7.26,0,0,1-1.14.06,8,8,0,0,0-1.08.42,2.29,2.29,0,0,1-.6.18l-1.08.6c-.3.3-.42.6-.78,1a9.6,9.6,0,0,0-1.5,1.08c-.18.24-.18.66-.42,1-.06.18-.36.24-.48.42l-.12.24c0,.12-.12.18-.18.24s.06.3,0,.48-.42.54-.3,1c-.12.18-.36.3-.42.48s.06.36,0,.48-.18.12-.18.18c-.12.24-.12.48-.24.72s-.24.36-.3.54.06.48,0,.78l-.24.48a6.49,6.49,0,0,1,0,1.08c-.06.54-.3,1-.42,1.62a11.58,11.58,0,0,1-.06,1.38c0,.24-.18.48-.18.78-.06.6.3,1.2-.24,1.68a2.29,2.29,0,0,1-.06,2c.6,1.68-.3,4.2.18,6.06.18.48.9.36,1.26.66,0,.24.3.42.36.78a1.54,1.54,0,0,1-.78,1.32c-.3.12-.6-.06-1.2.06a7.58,7.58,0,0,0-1.08.48,12.75,12.75,0,0,1-2.4.6l-1.2.18c-.48.12-1,.42-1.32.36-.78-.12-1.08-1-1.08-1.86A6.61,6.61,0,0,0,148,46a6.37,6.37,0,0,0-.24-1.14,27.06,27.06,0,0,1,0-3.12c0-.3.12-.6.12-.84a4.78,4.78,0,0,1-.18-.9,10.66,10.66,0,0,1-.3-1.68c0-.24-.06-.6-.06-.84a11.07,11.07,0,0,1,.24-1.38c0-.18-.12-.24-.12-.48s.18-1.08.18-1.62-.24-1-.3-1.44c0-.24.06-.66.06-.72-.06-.24-.18-.36-.18-.54-.06-.48-.06-1.14-.12-1.5,0-.12-.06-.36-.06-.48a7.46,7.46,0,0,1,.24-1c.12-.78-.06-1.62,0-2.4.06-.6.36-1.2.36-1.74,0-.24-.06-.54-.06-.78s.12-.54.12-.78a2.71,2.71,0,0,1-.18-.66,8.21,8.21,0,0,1,.12-1.68,7.5,7.5,0,0,0-.18-1.14,2.43,2.43,0,0,0,0-.66c0-.18-.18-.3-.18-.42,0-.36.24-.84.24-1.26a3.68,3.68,0,0,1,.12-1.8c0-.42-.3-.6-.48-.9.3-.66-.12-1.32.06-1.92a1.22,1.22,0,0,1,1-.36c.6,0,.78.42,1.08.66a7.65,7.65,0,0,0,2.34,0c.42,0,.9.12,1.26.12.6-.06,1-.54,1.92-.24.3.18.24.48.48.84,0,.06.18.18.18.24s-.12.18-.12.24.12.18.12.3a3.85,3.85,0,0,0-.18,2c.48,0,.72-.36,1-.66a4.58,4.58,0,0,0,.54-.54c.06-.06.06-.24.12-.3s.24-.06.3-.12.36-.36.6-.54.6-.36.78-.66c.72-.12,1.38-.84,2.22-.54.36-.36,1.38-.78,1.86-.36.3.06.3-.3.48-.36,1,.36,2-.36,3-.12.36.06.54.3.78.42a2.1,2.1,0,0,1,.78.3c.54.84.12,1.92.06,2.88-.06.24.06.42.06.6,0,.36-.12.72-.12,1.08,0,.9.12,1.8.12,2.7C167.7,20,167.7,20.1,167.58,20.22ZM161,14.58c-.54.42-1.62.36-1.86,1.08a6.73,6.73,0,0,0-2.28,2.22l-.3.18c-.12.12-.12.24-.18.36s-.42.36-.6.6c-.12.06-.12.24-.24.36s-.18.18-.3.3l-.36.78c-.36-.12-.36.18-.48.24a1,1,0,0,1-.6.3c-1.32-.36-.66-2.28-1-3.42a1.84,1.84,0,0,0,.12-1.26,5.71,5.71,0,0,0-.06-1.74,19.4,19.4,0,0,0-3.18.24v1.26c-.06.3-.3.42-.3.72a2.82,2.82,0,0,1,.12,1.56,10.26,10.26,0,0,0,.24,2.16,4.86,4.86,0,0,1,0,1.32c-.06.72.12,1.44.12,2.16,0,1.08-.36,2.28-.36,3.36a28.37,28.37,0,0,0,.12,4.56c.12.66.18,1.26.24,1.86a13.64,13.64,0,0,1-.06,1.74c0,.36.06.9.06,1.14s-.06.36-.06.48a9.42,9.42,0,0,0,.12,2l.18,1.32c0,.3-.06.66-.06,1a10.06,10.06,0,0,1,.18,1.08c0,.36-.18.72-.18,1.08,0,.84.36,1.62.42,2.4a3.68,3.68,0,0,0,1.8.06c.12,0,.24-.24.3-.3a1.91,1.91,0,0,1,.54-.18,8.48,8.48,0,0,1-.36-1.32c-.06-.24.06-.42.06-.72a3.42,3.42,0,0,0-.06-.78c.06-.48.3-1,.36-1.5,0-.3-.12-.6-.12-.9a13,13,0,0,1,.3-3.84c-.36-.48,0-1.5.06-1.92a1.86,1.86,0,0,0-.12-.42c.06-.24.18-.48.24-.78s-.12-.6-.12-.84.24-.6.3-.9a13.26,13.26,0,0,0,.24-2.1,5.79,5.79,0,0,1,.18-1.08,7.13,7.13,0,0,1,.48-1c.06-.12-.06-.36,0-.48s.3-.36.42-.54a8,8,0,0,1,.72-1.92c0-1.2.72-1.68,1.08-2.34l.3-.36a7.82,7.82,0,0,0,1.14-1.32c.54-.24.78-.78,1.26-1.14.24-.18.72-.42.9-.6a1.64,1.64,0,0,1,.78-.54c.3-.12.54-.3.84-.24s.3-.18.42-.18c.48-.24.66-.12,1.14-.12a7.33,7.33,0,0,1,2-.12c.06-.54-.06-1,0-1.44.06-.6.36-1.08.12-1.74C164.22,13.5,162.36,14.7,161,14.58Z"/><path class="cls-1" d="M206.1,14.52c0,.12.11.18.11.3a1.09,1.09,0,0,0-.11.42c0,.12.05.18.05.3s-.11.18-.05.36.05.18.05.3-.17.36-.17.54.06.48.06.72-.19.36-.19.54a2.49,2.49,0,0,1-.06.6,10.58,10.58,0,0,0,0,1.38c0,.18.19.42.19.66.06.84-.13,1.8-.06,2.7a6.89,6.89,0,0,1,.06,1.08c0,.48-.25.9-.31,1.56a1.36,1.36,0,0,1,.06.24c0,.24-.17.9.06,1.26a2.93,2.93,0,0,1-.29.72,30.83,30.83,0,0,1-.19,3.18,5.83,5.83,0,0,1,.19,1.08c0,.18-.12.42-.12.66s.12.42.12.6-.19.36-.25.54a4.85,4.85,0,0,1-.29,1.86c-.25.42.18,1.38-.25,1.92a3.58,3.58,0,0,1,.06,1.44c0,.18.13.42.06.6,0,.42-.18.78-.18,1.14a16.29,16.29,0,0,0,.25,2.52c.06.18.06.36.35.3-.65.48.06,1,.06,1.56a.85.85,0,0,1-.12.36c0,.06-.05.36-.05.42a2.86,2.86,0,0,0-.31.06,1.59,1.59,0,0,1-.71.42c-.24,0-.48-.12-.79-.12a9.3,9.3,0,0,0-1.13.12,10.87,10.87,0,0,0-1.39.12c-.47.06-.83.36-1.25.36s-.18.36-.48.36c-.06.18-.48,0-.66.06-.48-.42-.9-1.44-.48-1.92-.36-1,.12-2.34-.12-3.6a4.75,4.75,0,0,0-1.56,1.14c-.24.18-.36.48-.66.66l-.24.06c-.06.12-.48.24-.66.48-.42.12-.84.06-1.26.18s-1,.3-1.74.42a5.4,5.4,0,0,1-2.16.36c-.18,0-.3-.12-.36-.12-.24,0-.36.18-.6.18a1.39,1.39,0,0,1-1-.12c-.18.3-1,.06-1.26-.12-.6.24-1.14-.06-1.74-.12-.36,0-.3-.36-.6-.42a10.74,10.74,0,0,1-2.76-.24c-.12-.3-.54-.36-.6-.78-.42.06-.42-.3-.72-.3a4.48,4.48,0,0,0-.66-.78c-.42,0-.48-.24-.9-.24-.12-.12-.18-.36-.36-.48s-.36-.36-.48-.42-.24.06-.3,0l-.84-.9a1.06,1.06,0,0,1-.48-.3c0-.36-.36-.36-.3-.84a2.1,2.1,0,0,1-.48-.3,4.23,4.23,0,0,1-.42-.54c-.12-.06-.12-.18-.24-.24s-.06-.6-.36-.78c0-.24-.24-.24-.48-.24a1.33,1.33,0,0,0-.84-1.26c.12-.36-.12-.36-.06-.66-1.2-1.08-1.14-3.3-1.74-4.92a12.29,12.29,0,0,1,.36-3.36l.12-.3c.12-.18.06-.54.12-1l.18-1.14a2.13,2.13,0,0,0,.12-.6,3.86,3.86,0,0,1,.66-1.62c-.3-1.08.72-1.5.78-2.52a5.61,5.61,0,0,0,.84-1.14l.66-1.14c.18-.24.48-.42.42-.78.24-.12.36-.36.72-.48V16c.66-.42,1-1.14,1.5-1.74a4.84,4.84,0,0,1,.84-.72c.18-.36.78-.42.84-.78a6.44,6.44,0,0,0,2.22-.72c.48-.06,1.08-.06,1.38-.36a2,2,0,0,0,1.62-.54c1.2,0,2.28-.06,3.6,0,.6,0,1.26-.12,1.74-.06s.66-.06.9.18a1.22,1.22,0,0,1,1,.06,6.3,6.3,0,0,1,.78.12c.18,0,.36.18.48.18a2,2,0,0,0,.6,0l.3.24a1.25,1.25,0,0,1,.72.3c.06,0,.24,0,.3.06l.12.24a10.93,10.93,0,0,1,1.62.9c.12.06.12.24.3.36s.24.12.36.24a2.62,2.62,0,0,1,.48.6c.12.24.54.48.84.78.18.12.24.42.48.6s.66.48.66.84a6,6,0,0,0-.24-3.3c-.24-.48-.6-.6-.36-1.32a2.37,2.37,0,0,1,.6-.9,3.44,3.44,0,0,0,1.08.12,6,6,0,0,0,1,.12,11.51,11.51,0,0,1,3.18.36c.54-.18.89.12,1.37.24.06.3,0,.48.06.78s.13.36.07.6S206.1,14.22,206.1,14.52Zm-2-.42c-.25-.24-.84-.12-1-.42a1.06,1.06,0,0,0-.6-.18c-.24,0-.36.18-.61.18a10,10,0,0,0,.19,2.1c0,.42-.12,1-.12,1.5a4.56,4.56,0,0,1,.06.84,1.4,1.4,0,0,1-1.26,1c-.54-.06-.6-.6-1.14-.78-.18.18-.6.12-.78.24a5.31,5.31,0,0,1-.84-1.38c-.42,0-.6-.24-.9-.42l-.36-.84c-.42-.18-.84-.36-1-.84-.78-.06-1.14-.6-1.62-1-.84-.12-1.2-.42-1.92-.54l-.78-.12c-1.44-.24-2.76-.12-4.14-.36-.3.24-.84.18-1.38.24l-1,.18a5.78,5.78,0,0,1-2,.24c-.24.12-.6.48-.78.06-.24.54-.84.72-1.56.78a2.74,2.74,0,0,1-1,.66c-.18.48-.72.84-1,1.14a7.28,7.28,0,0,0-.6.84c-.06.12-.3.24-.36.36s-.12.36-.24.48-.18.18-.18.18a4.09,4.09,0,0,1-.3.42l-.12.24c-.24.06-.18.18-.18.24s-.18.12-.18.18a6.85,6.85,0,0,0-.54,1,1.59,1.59,0,0,1-.3.36c-.06.12,0,.18-.06.3s-.18.12-.24.18l-.18.48a3.35,3.35,0,0,1-.3.48c-.12.3-.12.72-.24,1.08a5.49,5.49,0,0,1-.42.84c-.12.6-.06,1.38-.24,2.1s-.42,1.26-.48,1.86a6.65,6.65,0,0,0-.12,1.14,5.54,5.54,0,0,0-.06,1.38c.06.3.3.54.36.84.12.48.06,1.14.18,1.56a1.31,1.31,0,0,0,.3.48c.18.42.42.84.54,1.2s.06.54.18.66a2.58,2.58,0,0,0,.54.6c.48.48,1,.84,1,1.5A7.13,7.13,0,0,1,178,39a1.24,1.24,0,0,1,.42.48l.24.12a3.28,3.28,0,0,1,.66.6l1.08.66.36.42c.12.06.24.06.3.12l.18.3.6.3a6.44,6.44,0,0,0,1.44.72c.9.24,1.74.36,2.76.54.6.06,1.2.24,1.74.3.24,0,.48-.06.72-.06a21,21,0,0,0,2.22-.24L192,43a2.92,2.92,0,0,0,.72-.06c.18-.06.3-.24.48-.3a7.73,7.73,0,0,0,1.26-.36c.3-.3.48-.24.6-.36s.12-.18.18-.18c.36-.24.6-.66.9-.84.54-.36.9-.78,1.38-1.14.12-.24.12-.66.3-.84.54-.24.66-.72,1.38-.6A1.29,1.29,0,0,1,200,39a13,13,0,0,1,.12,1.86l.18,1.74c0,.18-.12.24-.12.48a14.86,14.86,0,0,0,.12,1.74,8.82,8.82,0,0,0,1.86-.24c.24-.06.48.12.65,0a4.48,4.48,0,0,0-.11-1.56c.36-.54,0-1.32,0-2a3.63,3.63,0,0,1,.19-.84c0-.12-.13-.18-.07-.42s.13-.18.19-.36c-.25-.66,0-1.26-.06-1.92.12-.12,0-.18,0-.24a3.6,3.6,0,0,1,.06-1.62c.06-.36.23-.66.29-1.08a17.53,17.53,0,0,0,.07-2.58c0-.36.12-.6.12-.9s-.19-.42-.19-.66a2.55,2.55,0,0,0,.13-.48,7.59,7.59,0,0,0,.12-2.22c.23-.12.06-.66.3-.66-.07-1.62-.07-3.18-.07-4.56v-.6c0-.18.13-.36.13-.54s-.19-.54-.19-.78c0-.78.13-1.86.06-2.46-.06-.18.07-.3.07-.36s-.07-.18-.07-.42a.73.73,0,0,0,.13-.36c0-.24-.13-.54-.13-.78a9.31,9.31,0,0,0,.37-1.32C204.18,14.58,204,14.34,204.06,14.1Zm-4.5,15.3c0,.12-.18.24-.18.36l-.12,1c-.06.3-.3.6-.42,1s-.06.72-.18,1l-.24.12c-.06.12,0,.24-.06.48a2.43,2.43,0,0,0-.3.54c-.12.24-.12.48-.24.72s-.18.36-.3.54a4.78,4.78,0,0,1-.78.78c-.24,1.14-1.2,1.62-1.62,2.58-.12.12-.36.06-.6.06-.06.18,0,.48-.18.6-.48.3-1,.54-1.56.84-.18.06-.24,0-.3.06a10,10,0,0,1-2.76.84c-.36-.18-.72-.3-1,.06-.78-.36-2.4-.06-3-.66-.12.12-.42.12-.66.12a2.16,2.16,0,0,0-1.32-.42,10.1,10.1,0,0,0-1.44-.36,7.81,7.81,0,0,0-1.08-.9c-.18-.12-.3-.36-.48-.48l-1-.9-.3-.18a1.23,1.23,0,0,0-.48-.48,8.15,8.15,0,0,1-.72-.72,4.17,4.17,0,0,1-.3-.78c-.24-.3-.72-.36-1-.6-.18-.72-.84-1.32-1-2.28a8.53,8.53,0,0,1,.18-2.1c0-.12-.18-.42.06-.48a2.71,2.71,0,0,0-.18-.66c0-.18.12-.48.12-.72s-.06-.36-.06-.54a4.72,4.72,0,0,1,.24-1.2l.18-1.14c.06-.12.24-.18.3-.3s0-.18,0-.24l.24-.12c0-.06-.06-.24,0-.3s.36-.18.36-.36a9.43,9.43,0,0,1,.84-2.4c.24-.06.24-.42.6-.36-.12-.48.12-.6.18-.9a5,5,0,0,0,1.2-1.32A2.53,2.53,0,0,1,181,19c.18,0,.06-.36.18-.48.3-.12.54-.24.48-.54.72-.12,1-.72,1.68-.78l.78-.66c.12-.06.24,0,.3-.06.18-.3.3-.24.42-.3a2.21,2.21,0,0,1,.84-.48c.18,0,.24.12.42.12.36.06,1,0,1.44.06s.72.18,1.14.18c1.26.12,2.4-.06,3.18.54a3.42,3.42,0,0,0,.78.06l2.4,1.2c.36.72,1.14,1,1.62,1.56.18.18.54.12.78.24.18.48,1,.84,1.08,1.38.12.3-.06.72,0,1.08a5.9,5.9,0,0,0,.3,1l.12,1a12,12,0,0,1,.72,2.46c.06.18-.06.3-.06.54a3,3,0,0,0,.18.78A4.46,4.46,0,0,1,199.56,29.4Zm-1.86-2.94c-.06-.24-.36-.3-.48-.48a5.66,5.66,0,0,0-.36-1.38c.12-.54-.18-.78-.24-1.08a8.76,8.76,0,0,1-.18-1.32c-.36-.18-.36-.42-.54-.6s-.24-.24-.3-.3l-.84-.9a2.78,2.78,0,0,0-1.14-.78c-.66-.3-1.14-.6-1.62-.84a6,6,0,0,0-1.56-.3,8.35,8.35,0,0,0-.78-.36,3.89,3.89,0,0,1-.84,0c-.24,0-.54-.18-.72-.18s-.3.36-.48.18-.6-.42-.78-.24c-.78.06-.9.36-1.44.66l-.48.18-.42.3c-.06,0-.18-.06-.3,0l-.18.18c-.3.18-.54.42-.78.54a4.13,4.13,0,0,0-.48.18,9.45,9.45,0,0,0-.6.78c-.24-.06-.24.18-.48.06,0,.36-.3.6-.48.78a2.52,2.52,0,0,1-.84.54c-.06.84-.72,1.08-.72,1.92a3.82,3.82,0,0,0-.6,1.08,11.18,11.18,0,0,0-.3,1.62c-.12.42-.36.72-.42,1.08,0-.06.06.3.12.36a10.18,10.18,0,0,1-.36,1.68c0,.3.18.66.18,1,0,.06-.12.12-.12.24a1.62,1.62,0,0,1,0,.78c.06.48.54,1,.36,1.56a11.09,11.09,0,0,0,1.62,1.14,7.77,7.77,0,0,0,2.1,2.1,3.52,3.52,0,0,0,1.14.78l.24.24a5.44,5.44,0,0,0,1.26.3c.24.06.6.24.78.3s.18.24.36.24a21.14,21.14,0,0,1,2.94.3,2,2,0,0,0,.84-.06,4.25,4.25,0,0,0,.9-.06,3.35,3.35,0,0,1,.48-.3c.12,0,.24.06.36,0s.6-.36.9-.06c.42-1,1.8-1,2-2.28.24.06.18-.18.42-.18,0-.42.3-.66.48-1l.42-.78c.06-.06.24.06.18-.18a3.29,3.29,0,0,1,.72-1.26c-.12-.42.18-.72.3-1a9.76,9.76,0,0,0,.54-3.3,3.67,3.67,0,0,0,.42-.84A2,2,0,0,1,197.7,26.46Z"/><path class="cls-1" d="M249.59,32.52c0,.12-.12.36-.12.54s.12.36.12.54a4.3,4.3,0,0,0-.3.84c-.18.6-.18,1.32-.36,2.1a4.64,4.64,0,0,1-.42,1c-.06.24,0,.36-.12.6a11.37,11.37,0,0,1-.6,1.26c-.12.3-.12.66-.48.72,0,.9-.6,1-.66,1.86A2,2,0,0,0,246,43.2a3,3,0,0,0-.78.72,13.06,13.06,0,0,0-2.1,2,1.38,1.38,0,0,0-1.08.78,2,2,0,0,0-1.08.42c-.3.12-.06-.3-.36-.18s-.12.3-.3.36l-.48.12-.84.36c-.18.06-.12.12-.48.18l-.84.3c-.12,0-.23-.06-.3-.06a.88.88,0,0,1-.12.24c-.12,0-.35-.12-.54-.12a7.5,7.5,0,0,0-1.67.06,10.13,10.13,0,0,1-2.1.24c-.36-.06-.36-.18-.54-.12s-.61-.24-.84-.3a1.23,1.23,0,0,0-.31.06,7.2,7.2,0,0,1-1.43-.18l-.36-.24-1.09-.12a9.84,9.84,0,0,1-1.25-.3l-.66-.12c-.18-.06-.3-.24-.48-.3-.36-.12-.84-.12-1.08-.48-.3-.12-.24.12-.54.06-.42-.36-1.38-.24-1.56-.78-.66.24-1.32-.36-1.74-.72-.6,1,.48,2.7-.18,4,.18.54.54,1,.18,1.56-.06.36.3.3.36.54v1.26c.06.42-.48.18-.54.48s.24.12.42.3a17.31,17.31,0,0,0,.24,3,1.43,1.43,0,0,0,.18.72c.18.54.66.78.72,1.26a2.49,2.49,0,0,1-.12,1,1.11,1.11,0,0,1-1.56.24c-1.62.24-2.94.78-4.56,1a2.26,2.26,0,0,1-1.44.6c-.18,0-.06.18-.12.24s-.3.24-.42.42-.12,0-.48.18c-.06,0-.06.18-.18.18a3.71,3.71,0,0,1-1.14-.42,1.41,1.41,0,0,0-.12-.48,1.27,1.27,0,0,1-.18-.42c0-.18.06-.84.12-1.26a2.26,2.26,0,0,1,.24-1,1.5,1.5,0,0,1-.18-.78,18.63,18.63,0,0,1,.36-2.94v-1.5c.12-1,.36-1.86.48-2.76,0-.12-.12-.12-.12-.24a1.77,1.77,0,0,0,.12-.54c0-.42.06-.9.06-1.56,0-.18-.12-.18-.12-.36s.12-.18.12-.3c0-.3-.18-.6-.18-.9,0-.12.06-.72.12-1.08a4.7,4.7,0,0,1,.3-.84,12.2,12.2,0,0,1-.12-2.52V40.68a10.17,10.17,0,0,0,.24-1.32c0-.36-.18-.72-.18-1.08s.12-.66.12-1c0-.12-.06-.48-.06-.66a20.84,20.84,0,0,0,.3-2.34,4.25,4.25,0,0,0,.06-.84c-.06-1-.06-1.74-.06-2.82,0-.18.12-.36.12-.48,0-.3-.18-.54-.18-.78s.12-.36.12-.6-.12-.48-.06-.66a5.25,5.25,0,0,1,.12-1c0-.48-.24-.9.12-1.38-.12-.24-.06-.42-.12-.66a2,2,0,0,0,0-.6,2.71,2.71,0,0,0-.18-.66c0-.3.06-.54.06-.78-.06-.42-.24-.9-.3-1.38-.06-1.44.12-2.94,0-4.26a1.21,1.21,0,0,1,.12-.36,6.76,6.76,0,0,0-.18-1.08,23.11,23.11,0,0,0-.48-2.94,1,1,0,0,1,1.56-.42c.12.06.12.36.36.42a9.8,9.8,0,0,0,2.52-.48,2,2,0,0,0,.6-.06c.06,0,.18-.18.18-.18s.3,0,.42,0a2.13,2.13,0,0,1,.66-.18,1.9,1.9,0,0,1,1.26.78c-.12.48-.06.9-.18,1.38a2.71,2.71,0,0,1-.18.66c-.06.3.06.72,0,1a4.55,4.55,0,0,0-.36,1.08c.42-.12.66-.48,1.08-.54.48-.66,1.38-.9,2-1.44.36-.06.48-.12.66.12.36-.24.36-.54.72-.78a10,10,0,0,0,1-.36,2.48,2.48,0,0,0,.9-.42c.36.12.72-.18,1.08-.3a5.71,5.71,0,0,1,1.08-.24,7.58,7.58,0,0,1,1.13-.18,10.28,10.28,0,0,1,2.23-.36,13.38,13.38,0,0,1,1.38.24,4.33,4.33,0,0,1,2.39.66c.3.06.3-.18.61-.12l.48.24.48.18c.17.12.11.24.17.3s.18,0,.3.12.3.3.42.36.54.12.78.24a7.31,7.31,0,0,0,2,.72,4.4,4.4,0,0,0,.78.6l.72.48c.18.12.42.18.42.42.3-.06.3.06.54.06,0,.3.42.18.48.42s.12.18.36.42l.3.18c.06.06.06.18.12.3.42.48.48.78.9,1.08.24.12.48.6.66.9l.48.48a5.35,5.35,0,0,1,1,1.26l.18.48c.06.12.24.24.3.42a1.26,1.26,0,0,0,.24.66,5.81,5.81,0,0,1,.42.54s.18.12.18.18-.06.24,0,.3.24.18.24.3-.06.36,0,.54a2.18,2.18,0,0,1,.18.42,6.73,6.73,0,0,1,.3.78c.06.42-.24.9.18,1.26a6.84,6.84,0,0,0,.12,1.56C249.71,30.6,249.59,31.56,249.59,32.52Zm-2.4-4.5c0-.12.12-.18.12-.3s-.24-.24-.24-.3a4.54,4.54,0,0,0,.06-.9c-.12-.36-.48-.72-.36-1.14-.06-.18-.3-.18-.42-.3s-.06-.36-.18-.48l-.54-.78-.48-.9-.3-.42c-.06-.18-.06-.42-.18-.54s-.12-.18-.18-.24l-.36-.36c-.06-.06-.24-.06-.3-.12s0-.24-.06-.3-.24-.06-.3-.06c-.24-.24-.42-.54-.6-.72-.24-.36-.36-.9-.72-1.2-.12-.06-.3,0-.36-.06l-.12-.24c-.06,0-.18.06-.3,0l-.36-.18-.48-.12-.18-.3-.42-.18-.24-.3a1.41,1.41,0,0,0-.6-.3c-.06,0-.12-.18-.18-.18-.6-.24-1.26-.24-1.86-.48-.17-.06-.42-.24-.65-.36A1.17,1.17,0,0,1,236,16c-.11-.06,0-.42-.3-.3a8,8,0,0,0-3.48-.84c-.42-.42-1-.3-1.49-.24s-.84.12-1.08.18-.48.06-.6.12a.58.58,0,0,1-.6.18l-1.86.54a3.16,3.16,0,0,0-.72.18,6.25,6.25,0,0,0-1.08.6l-.78.3c-.24.24-.36.18-.54.3a10.44,10.44,0,0,0-1.08.66c-.06.06-.18,0-.3.06-.3.18-.42.6-.84.54-.24.3-.3.72-.78.66a1.13,1.13,0,0,1-.24.6c-.36.3-.36.72-.66.78-2.1.24-1.74-1.74-1.68-3.54a7.24,7.24,0,0,0,.06-2.52,13,13,0,0,1-2.64.6c.06.72,0,1.44.06,2.16s.24,1.38-.06,1.86c.48.66-.06,2.4.12,3,.06.06.06.18.12.36.42,1.8.18,4.26.24,6.12-.12.3,0,.3,0,.36,0,.78.06,1.38.06,2a13,13,0,0,0-.24,1.5c0,.48.18,1,.18,1.5a.84.84,0,0,0-.24.24v.3a5.32,5.32,0,0,0-.12.9c0,.24.18.48.18.78a3.92,3.92,0,0,1-.12.66,3.39,3.39,0,0,1,0,.78,2.71,2.71,0,0,0-.18.66,3.42,3.42,0,0,0,.06.78c.12,1.8-.24,3.48.06,5.1a4,4,0,0,0-.3,1.56,5.05,5.05,0,0,0,.18,1.08c-.06.36-.48.36-.42.84a4.13,4.13,0,0,1,.42,2.64l-.12,1.26c-.12,1-.48,1.86-.54,2.7,0,.18.06.48.06.66s0,.3,0,.3a3.35,3.35,0,0,1-.24,1.26c0,.18.12.42.12.66a7.88,7.88,0,0,0-.06,1.68c.9-.06,1.86-.66,2.76-.72a1.32,1.32,0,0,1,1,.12c0-.48.66-.36,1-.54.06-.36-.18-.6-.18-1,0-.18.12-.36.12-.54s-.18-.54-.18-.78.18-.42.24-.66-.12-.36-.12-.54v-.36c0-.78-.06-1.44-.12-2.22-.06-.42,0-1-.06-1.38s-.24-.66-.3-1.08,0-1-.06-1.56l-.18-3.06a.78.78,0,0,1,.06-.48,4.13,4.13,0,0,0-.18-.48c0-.18.18-.18.12-.42s-.18-.18-.18-.3.06-.3,0-.48-.3-.48-.18-.78c.24-.54,1.14-.66,1.68-.54a2.32,2.32,0,0,1,.84,1.5c.42.06.9.54,1.14.66s.6.3.54.6a12.78,12.78,0,0,1,2.1.84l.78.12a3.67,3.67,0,0,1,.72.3l1,.42a7.12,7.12,0,0,0,1.86.42,2.71,2.71,0,0,0,.66.18c.66.18,1.32.06,2,.18s1.2.36,1.79.42c.12,0,.25-.12.31-.12s.23.12.29.12a6.73,6.73,0,0,0,1.26-.24,7.29,7.29,0,0,1,1.62,0,2.4,2.4,0,0,0,1.08-.24c.24,0,.18-.18.18-.18s.3.06.43,0c.35-.18.59-.42.89-.54s.72-.24,1.08-.42l.36-.24c.24-.12.42-.06.6-.18a4,4,0,0,1,1.56-1.26c0-.18.12-.18.18-.24l.42-.48.18-.18c.06-.12.06-.24.12-.3s.24-.12.3-.18a3.35,3.35,0,0,1,.3-.48c.06-.12.24-.06.3-.12s0-.3.18-.3c.06-.72.54-1,.54-1.8.36-.24.36-.66.48-1.08l.24-.24a5.2,5.2,0,0,1,.12-.6,1.79,1.79,0,0,0,.3-.84,6.69,6.69,0,0,0,.18-.78,12.69,12.69,0,0,0,.12-1.44,9.34,9.34,0,0,0,.36-.9,9.52,9.52,0,0,0,.06-3.18c-.12-.48.3-.36.3-.66A5,5,0,0,1,247.19,28ZM244,31.44a14.62,14.62,0,0,1,.06,1.62c0,.18-.18.36-.18.6s0,.42-.06.54-.12.36-.18.6a9.24,9.24,0,0,1-.42,1.62,13.72,13.72,0,0,1-.9,1.44c-.06.06-.18.06-.24.18a2.3,2.3,0,0,1-.48.66,3.35,3.35,0,0,1-.3.48,2.24,2.24,0,0,0-.36.42c-.12.12-.12.3-.3.48a1,1,0,0,0-.42.18c-.12.06-.24.24-.3.24s-.36.06-.48.12a6.89,6.89,0,0,1-.6.48.8.8,0,0,0-.3.18,11.37,11.37,0,0,0-1.26.54.45.45,0,0,1-.3.06l-.11.24c-.07,0-.25-.06-.36,0s-.19.18-.19.18c-.24.06-.48,0-.72.06a3,3,0,0,1-.78.36,7.86,7.86,0,0,1-1.25.06c-.37.06-.73.24-1.08.3-.19,0-.36-.12-.67-.12a4.59,4.59,0,0,1-1.25-.06,1.91,1.91,0,0,1-.54-.18l-1.26-.3c-.12.06-.36-.12-.43-.12a3.82,3.82,0,0,1-.83.06c-.54-.06-1.08-.36-1.62-.42a4,4,0,0,0-2.64-1c-.24-.24-.48-.42-.42-.66-.42-.06-.42.12-.72-.06-.06-.36-.72-.48-.36-1-.54.12-.36-.54-.66-.66-.48-.42-.54-1.26-1.14-1.62.12-.36-.24-.54-.36-.84a2,2,0,0,0,0-.6.51.51,0,0,0-.18-.3c-.06-.24,0-.6-.06-.84-.06-.54-.24-1-.24-1.5a1.85,1.85,0,0,1,.12-.48c-.12-.24,0-.36,0-.36a2.29,2.29,0,0,1-.18-.6,2.29,2.29,0,0,1-.18-.6c-.06-.12.12-.42.12-.66a11.79,11.79,0,0,1,0-2.52c.06-.18.12-.18.24-.36a2.86,2.86,0,0,1,.48-1.08c0-1,.66-1.32.72-2.22.6-.24.6-1.08,1.32-1.2,0-.66.54-.66.72-1.14.12-.18.42-.12.54-.3s.54-.36.72-.66a1.76,1.76,0,0,0,.6-.18c.3-.24.72-.42.84-.84a5.63,5.63,0,0,1,.9-.36,20.41,20.41,0,0,1,1.68-1.26,10.3,10.3,0,0,1,1.86-.9c.42-.12,1.14.36,1.56.42a4.91,4.91,0,0,0,1.26-.18c.48,0,1.2.06,1.73.12.31.12,1.21.06,1.44.18s.37.18.54.3c.37.18.48.3.9.48a5.17,5.17,0,0,0,.85.42c.17.06.17.3.29.48.66,0,.72.54,1.21.72.11.18.29.3.29.6.3-.18.3.12.48.3a1.94,1.94,0,0,1,.78.78l.18.18c.18.3.42.84.66,1.2a7.6,7.6,0,0,0,.66.78c.06.06,0,.18.06.3s.12.06.18.18,0,.36.3.42c.12.24.06.42.18.66a3.35,3.35,0,0,1,.3.48,5.4,5.4,0,0,0,.18,1l.12,1a4,4,0,0,1,.36,1,3.35,3.35,0,0,1,0,.78c0,.18.12.48.12.66A7,7,0,0,0,244,31.44Zm-2.16-3.66a5,5,0,0,1-.42-1.56,1.92,1.92,0,0,1-.6-1.14,4.5,4.5,0,0,1-.9-1.2,5.77,5.77,0,0,1-.84-1.26,4.93,4.93,0,0,1-1.44-1.2,8,8,0,0,1-.66-.6c-.11-.12-.42-.12-.59-.24l-.48-.3c-.07,0-.13-.18-.19-.18-.35-.18-.71,0-.83-.3a24.51,24.51,0,0,0-3,.12,7.84,7.84,0,0,1-.67-.42c-.23-.12-.35-.42-.71-.36s-.3.12-.48.18c-.48.18-.48.12-.78.36l-.36.24-.12.24c-.06.06-.24,0-.3.06a1.84,1.84,0,0,1-.36.3c-.3.06-.3-.18-.54-.12-.12.78-1,.66-1.38,1.26-.3-.12-.36.18-.66.18a2.2,2.2,0,0,1-.78.72c-.24.18-.42.48-.72.36a1.2,1.2,0,0,1-.78.9c0,.42-.42.48-.42,1-.18,0-.42.36-.48.42-.18.3-.24.54-.42.9-.24.6-.84,1.2-.72,1.8a.75.75,0,0,1-.48.36,5.31,5.31,0,0,1,.18,2c0,.3.18.6.18.84s-.12.48-.12.72c0,.54.24,1.14.24,1.74,0,.3-.18.6-.12,1a4.75,4.75,0,0,1,.72,1.68,2.72,2.72,0,0,1,1,1.62,6.13,6.13,0,0,1,1.08,1.08,9.73,9.73,0,0,1,2.4.66l.36.18c.12.06.18.24.3.3l.48.12c.72.24,1.5.06,2.34.24.18.06.36.24.53.3l.43.12c.12.06.05.18.24.18a8.36,8.36,0,0,1,1.19-.24c.12,0,.31.12.49.12s.24-.18.36-.18.54.06.71,0,.25-.18.36-.18a5.85,5.85,0,0,0,1-.3,6.4,6.4,0,0,0,2.28-.9c.66-.06.84-.6,1.56-.54-.06-.42.3-.42.42-.66.3-.06.36-.42.66-.48.18-.54.6-.78.78-1.26.24,0,.24-.24.42-.24-.18-.48.3-.78.42-1.2a10.75,10.75,0,0,0,.12-1.44A12.29,12.29,0,0,0,242,32a16,16,0,0,0,.12-3.3Z"/><path class="cls-1" d="M284.39,31.14a14.72,14.72,0,0,1-.06,3.66,6.22,6.22,0,0,1-.24.6,3.39,3.39,0,0,1,0,.78,1.91,1.91,0,0,0-.18.54c-.12.66,0,1.38-.06,2s-.24,1.32-.24,1.92c0,.36.06.72.06,1.08.06,1-.3,2-.18,2.82.12.54.72,1.14.6,1.74a2.13,2.13,0,0,1-1.92,1,3.92,3.92,0,0,1-.66-.12c-.18,0-.3.12-.48.12a21.64,21.64,0,0,1-4.14-1,4.77,4.77,0,0,0-.84-1,9.45,9.45,0,0,1,.06-2.22c0-.12.18-.18.18-.36a2.18,2.18,0,0,0,0-.9,2.2,2.2,0,0,1,.54-1.2c-.48-.54.12-1.2.12-1.74a6.41,6.41,0,0,1,.06-1.5,1.15,1.15,0,0,0,.18-.48c0-.06-.06-.24-.06-.36a2.13,2.13,0,0,1,.12-.6,9,9,0,0,1,.12-1.26c0-.24.18-.48.18-.72s-.06-.42-.06-.6c0-.42.3-1,0-1.38.24-.24.18-.78.3-1.14a2.93,2.93,0,0,0,.24-1.14c0-.18-.06-.42-.06-.6A24.26,24.26,0,0,0,278,25.5a4.78,4.78,0,0,0-.18-.9,2.12,2.12,0,0,0-.06-.36c0-.18.12-.24.06-.42s-.12-.6-.12-.84-.06-.72-.12-.9c-.06-.36-.36-.66-.42-1a9.72,9.72,0,0,1-.18-1.2,6.28,6.28,0,0,0-.66-.48,4.2,4.2,0,0,1-.6-.48c-.54-.48-.9-1.08-2.1-.9a3.23,3.23,0,0,0-.6.18l-2.4.12a12.56,12.56,0,0,0-1.68.24l-.48.12c-.54.18-.78.6-1.14.9l-.6.48c-.24.18-.35.42-.6.48-.18.3-.18.78-.6.78a7.88,7.88,0,0,1-.9,2.1c-.12.18-.12.36-.23.54-.13.36-.31.66-.48,1.08a8.56,8.56,0,0,0-.42,1.8l-.25.6c-.06.54.06,1.08-.29,1.44a20.17,20.17,0,0,1-.06,3.12,16.84,16.84,0,0,0-.36,1.8,9.47,9.47,0,0,0-.12,2.64,5.36,5.36,0,0,1-.37,2.52c.18.24.12.72.24,1,.13.48-.35.36-.29.78.17.12,0,.54.29.6.25.36.13.84.25,1.44.05.18.17.3.17.42a2.44,2.44,0,0,1,0,1.14c.19.48.73.84.73,1.38,0,.24-.31.54-.31.84a4,4,0,0,1-.71.42c-.31,0-.54-.18-1-.24a4.85,4.85,0,0,0-1-.12c-.79,0-1.62.18-2.4.24a6.63,6.63,0,0,0-1.86.06c-.24-.24-.3-.6-.66-.78.12-1.44-.06-2.64.36-3.6.06-.18-.12-.24-.18-.36-.12-.36.18-.84.12-1.44a2.6,2.6,0,0,1,.06-.3.85.85,0,0,0-.24-.12c0-.18.06-.42.06-.6a4.2,4.2,0,0,1-.18-.84c-.12-1.32,0-2.94,0-4.86v-.3c.06-.42-.18-.72-.18-1.14,0-.18.12-.42.12-.6s-.19-.48-.19-.78c0-.54.13-1.08.13-1.62a5.08,5.08,0,0,1,.06-.78c.06-.72.12-1.62.12-2.4a11.53,11.53,0,0,1,.06-2c.06-.9.24-2.94.36-3.72a18.23,18.23,0,0,0,.06-2.64v-.84c.06-.72-.06-1.38-.06-2,0-.24.12-.54.12-.78A12,12,0,0,0,256,13a4.51,4.51,0,0,0,0-.9,2.13,2.13,0,0,0-.18-.66c-.06-1,.18-2.1-.3-3,.12-1.38,0-2.76.12-4.2.06-1.08.12-2.28.12-3.54.72-.6,1.8-.48,2.82-.54A14.51,14.51,0,0,1,260,0c.17,0,.23.12.36.12a5.25,5.25,0,0,1,1.37-.06c.48-.12.25.42.67.42s.29.3.48.36c-.25.54,0,1.2-.13,1.86-.06.12-.23.24-.23.36s.11.18.11.3c-.11.78-.36,2.52-.42,3.66s-.06,2.46-.06,3.12a26.31,26.31,0,0,0-.06,3.66c.06.42.25.66.06,1.08A2.06,2.06,0,0,0,262,16c.42.12.59-.54,1-.9a2.87,2.87,0,0,0,.42-.18c.17-.12.41-.54.65-.72s.24-.12.43-.18a1.62,1.62,0,0,1,.47-.48,6.7,6.7,0,0,0,1-.6c.18-.12.3-.36.49-.48s.29,0,.41-.06l.3-.18c.66-.24,1.32-.42,2.16-.66l.24-.18a8.28,8.28,0,0,0,1.2-.18l1.56-.24c.48,0,1.14.12,1.74.12.84.06,1.86.06,2.7.18l.66.24a2,2,0,0,1,.9.3,5.83,5.83,0,0,1,1.32,1.38c.06.06,0,.18.06.3s.24,0,.3.06.06.24.06.3.18.12.24.24.18.72.66.78a4.58,4.58,0,0,0,.66,1A7.06,7.06,0,0,1,282,17a6.5,6.5,0,0,1,.48,1.14c.06.24,0,.54.06.78,0,.06.18.12.18.18s.06.24.12.3l.42,1.2c.06.12,0,.3,0,.48s.18.18.18.18l.12.66a20.9,20.9,0,0,1,.6,2.64c.12.9-.12,1.86-.06,2.82a5.71,5.71,0,0,1,.24,1.08c-.12.48.12,1.92.06,2.34Zm-2.22.06a2.81,2.81,0,0,1-.06-1.56,13.28,13.28,0,0,0-.36-2,8,8,0,0,1,.18-2.7,2.25,2.25,0,0,1-.24-1.68c.06-.36-.42-.3-.42-.66a.9.9,0,0,0,.12-.6c-.54-.36-.54-1-.72-1.62-.06-.36-.3-.6-.18-.9-.54-.6-.54-1.68-.84-2.52-.36-.36-.6-.84-1-1.08-.72-1-1.2-2.22-2.64-2.52-.3.06-.48,0-.6-.18-.18.42-.54.18-.78.18s-.12.06-.3.06a10.36,10.36,0,0,0-1.8-.12,9.72,9.72,0,0,1-1.2.18c-1,.12-1.62.6-2.7.48a1.78,1.78,0,0,0-.48.42c-.06,0-.24-.06-.3,0l-.3.24c-.12.12-.36.12-.48.18s-.18.24-.3.3-.3.12-.48.18-.18.24-.3.3-.36,0-.48.18c-.11.48-.48.54-.72.78s-.78.84-1.08,1.14a1.37,1.37,0,0,0-.42.54c-.42.42-.77.66-1,.84l-.12.42a2.48,2.48,0,0,1-.59.48,2.43,2.43,0,0,0-.31-.06c-.06.06-.06.18-.18.24s-.42-.06-.65-.06c-.61-.42-.73-1.44-.84-2.34,0-.36-.06-.72-.06-1,0-.54.29-1.08.29-1.68,0-.24-.06-.54-.06-.78l.25-.84c-.25-.12-.19-.3-.19-.48a4.23,4.23,0,0,1,.3-2.16c-.3-.18-.17-1.2-.11-1.74s0-1.92.06-2.58c0-.18,0-.36,0-.6a4.82,4.82,0,0,1,.49-2.28c-.37.06-.12-.42-.18-.6s.06-.66-.13-.78c-.6-.18-1.37.24-2.1.06-.05.48-.35,1-.42,1.5s-.05,1.14-.05,1.5c0,.12-.12.36-.06.48,0,.42.24.9.24,1.44,0,.12-.13.3-.13.48a8.77,8.77,0,0,0,.07,1.26c0,.24-.12.36-.12.6s.18.18.18.24a2,2,0,0,1,0,.6,25.73,25.73,0,0,1,.41,3c.07.42-.06.84,0,1.26a9.13,9.13,0,0,0,.19,1.26,1.86,1.86,0,0,1-.12.42,55.51,55.51,0,0,1-.13,5.58c-.06.6-.29,1.14-.35,1.74-.24,1.86.12,3.78-.13,5.7a3,3,0,0,1-.11.72c-.12,2.28.3,4.56.18,6.36-.07.18.06.3.06.48a18.07,18.07,0,0,0-.06,1.92,6.76,6.76,0,0,1,.18,1.08c0,.12-.06.18-.06.3-.06.48.18.66-.24,1,.47.48.3,1.26.24,1.86a2.18,2.18,0,0,0,.06,1.14c.06.24.17.36.12.6a5.29,5.29,0,0,0,1.26-.18c.48-.06,1.2.12,1.25-.24s-.11-.84-.17-1.26a3.39,3.39,0,0,0,0-.78c-.06-.54-.42-1-.42-1.38.36-.6,0-1.86.23-2.4a.75.75,0,0,0,0-.66c0-.18.13-.36.13-.42s-.13-.3-.13-.36.19-.18.13-.42-.19-.48-.19-.78c-.06-1.2.37-2.4.37-3.78l.42-.66c-.31-.42.05-1,.05-1.44a3.21,3.21,0,0,1-.17-.66,5.25,5.25,0,0,1,.12-1,11.36,11.36,0,0,1,.42-2c.29-1.2.65-2.28.83-3.3.25-.06.13-.54.48-.42a2.55,2.55,0,0,1,.67-1.56,8.41,8.41,0,0,1,.77-1.44,10.11,10.11,0,0,1,1-1.14,10,10,0,0,1,1.08-1.14,3.34,3.34,0,0,1,1.14-.54A11.91,11.91,0,0,1,269,16.2a6.73,6.73,0,0,1,.78-.3,11,11,0,0,0,1.26.12c.48,0,1-.12,1.56-.12,1.14-.06,2.1-.06,3.12-.06a4.26,4.26,0,0,1,1.14,1.38c.18-.12.24.12.36.24l.48.18c.12.06.18.24.3.3s.36.12.48.18.06.3.18.42a1.62,1.62,0,0,1,.54.66l.18.42a1.58,1.58,0,0,0,.18,1.14,2,2,0,0,1,.06.6,6.06,6.06,0,0,1,.42.9c0,.24-.06.6-.06.84.06.78.42,1.62.42,2.34.06.24-.06.48-.06.78-.06.6,0,1.08-.06,1.62-.06.3-.18.54-.24.78a9.6,9.6,0,0,1,.18,1.38c0,.24-.18.36-.18.48,0,.48-.12.72-.12,1-.06.54,0,1.08-.06,1.62,0,.36-.18.66-.18,1s0,.78-.06,1.2c0,.24-.18.48-.18.72s0,.66-.06,1c0,.18-.18.48-.18.72s.06.24.06.42-.18,1-.18,1.08a9.69,9.69,0,0,1-.18,2c-.18,1.08-.78,2.22-.24,3.3a6.1,6.1,0,0,0,2.22.42c0-.24.3-.3.18-.72-.3-.18-.18-.66-.24-.9s.42-.54.48-1c0-.06-.06-.3-.06-.48a3.16,3.16,0,0,1,.12-1.14,1,1,0,0,0,0-.42c.12-.72.42-1.32.06-1.8.06-.6.36-1.2.42-1.68,0-.24-.12-.6-.12-.84.06-.72.3-1.38.36-1.86,0-.12-.12-.36-.12-.48Z"/><path class="cls-1" d="M299.75,5.76c-.06.24-.3.42-.42.6l-.12.6a7.44,7.44,0,0,1-.6,1.2c-.36.12-.71.54-1.08.66-.11.06-.3,0-.48.12a5.1,5.1,0,0,1-1.61.54,3,3,0,0,1-.79-.24l-1.19-.12c-.31-.72-1-1.2-1.21-2l-.53-.6c0-.6-.37-1.14-.37-1.74a2.92,2.92,0,0,1,.25-.9l.17-1c.06-.12.25-.12.31-.24s.06-.18.11-.24.37-.12.49-.3-.06-.24,0-.3c.3-.24.24-.36.3-.48a4.7,4.7,0,0,1,1.08-.84c.42-.3,1.07-.18,1.86-.24.29.66,1.19.72,1.61,1.32h.6c0,.18.12.18.25.3a4.25,4.25,0,0,1,1.43,1.86.65.65,0,0,1,.06.3A4.84,4.84,0,0,1,299.75,5.76Zm.06,10.74c0,.36.18.66.18,1,0,.54-.24,1.2-.24,1.8s0,1,.06,1.68c0,.3.12.36,0,.66-.48,1,0,3,0,4.38-.06.78-.3,1.56-.36,2.4-.18,1.74-.12,3.6-.3,5.28-.06.48,0,1-.06,1.38-.06,1.08-.24,2.1-.36,3.06-.06.72.06,1.38.06,2,0,.42.06.72.06,1.08a4.78,4.78,0,0,1,.18.9,1.85,1.85,0,0,1-.12.48A1.21,1.21,0,0,0,299,43c0,.18-.12.3-.12.48s.12.3.12.42a3.44,3.44,0,0,0-.24.84,9.8,9.8,0,0,1,.06,1.86,2.23,2.23,0,0,1-1.74.42c-.42-.12-.36-.78-.65-1.08a3.18,3.18,0,0,1-1.39-.48,4.25,4.25,0,0,1-1.43-.12,7.09,7.09,0,0,1-1.5-.24c-.06-.06-.06-.3-.24-.24-.24-.3-.13-.9-.42-1.14a5,5,0,0,0,.29-1c.13-.72-.11-1.38,0-2.16a3,3,0,0,1,.11-.66c0-.06.13-.12.13-.3a2.49,2.49,0,0,1,0-1c0-.06.12-.12.12-.3s-.12-.18-.12-.24.18-.12.23-.24-.11-.36-.11-.48c.17-.84.23-2.52.3-3.06,0-.36.06-.48.06-.9.06-.12-.06-.24-.06-.3a34.1,34.1,0,0,0,.18-3.54c-.06-.78.12-1.5.12-2.22a5.21,5.21,0,0,1,.17-2.16,6,6,0,0,1-.06-2.28,16.86,16.86,0,0,1,.06-1.74,4.43,4.43,0,0,1,0-1.26v-.42a7.07,7.07,0,0,0,.13-.84c0-.3-.19-.54-.19-.78a3.38,3.38,0,0,0,0-.78c0-.12-.11-.18-.17-.3v-.3a3.17,3.17,0,0,1,.06-.78c-.06-.42-.66-.36-.78-.66-.18-.6-.48-1.44.06-1.86.35-.18.72-.06,1.25,0a.68.68,0,0,0,.37.12c.06,0,.17-.12.3-.06s.54.24.83.3c1.56.18,4.38-.54,5-.12.24.18.12.54.36.6A9.55,9.55,0,0,0,299.81,16.5ZM297.17,3.6a.88.88,0,0,1-.77-.48c-.31-.12-.42,0-.67.06a2.24,2.24,0,0,0-.66-.72c-.65.3-1,1-1.49,1.56a4.61,4.61,0,0,0,.3,1.62,2.85,2.85,0,0,0,.66,1c.17.24.29.54.53.66a2.31,2.31,0,0,0,1.74-.42l.61-.42c.06-.06,0-.24.17-.18,0-.78.54-1.2.24-2A1.41,1.41,0,0,1,297.17,3.6ZM297.71,19c-.06-.18,0-.18,0-.3-.06-1-.12-2-.12-3.12-.17-.18-.36-.06-.6,0s-.36-.24-.66-.24c-.3.24-1.26.12-1.26.48-.24.6.06,1.2.06,1.74a.8.8,0,0,1-.11.36c0,.18.11.24.11.42,0,.78-.06,1.38-.06,1.92v1.08c-.05.54-.24,1.08-.24,1.62s.19.84.19,1.26c0,.24-.25.48-.25.72a1.8,1.8,0,0,1,.06.66v.6c0,1.14.13,2.94,0,4.44v.48c-.06.24-.18.36-.18.54s.06.24.06.42a13,13,0,0,1-.11,1.32l-.25.9c0,.12.13.3.13.48a2.85,2.85,0,0,1-.37,1.56c.31.12.12.42.12.66a4.25,4.25,0,0,1,.06.9,7,7,0,0,0-.29,1.2,6.17,6.17,0,0,0,.06,1l.11,2.88a9.13,9.13,0,0,0,2.35.36,6.37,6.37,0,0,1,.11-1.56c0-1.14-.54-3.24.18-4.14a1.53,1.53,0,0,1-.24-1,4.19,4.19,0,0,1,.18-.72c.13-.66.06-1.44.19-2,0-.24.17-.54.17-.78s-.12-.24-.06-.42V31.38a3.82,3.82,0,0,1,.12-.42c0-.12-.18-.18-.18-.24s.06-.3.06-.42-.06-.36-.06-.48.06-.18.12-.3,0-.24,0-.3a4.19,4.19,0,0,0,.18-.72c.06-.36,0-.72.06-1a13.93,13.93,0,0,0,.42-1.8c0-.24-.18-.54-.18-.78a35.18,35.18,0,0,1,.18-4.26A7.19,7.19,0,0,0,297.71,19Z"/><path class="cls-1" d="M336.59,42.84a6.56,6.56,0,0,1-1.5,1.32c-.42.24-.78.6-1.38.9l-1.14.6c-.18.06-.18.18-.3.24s-.3,0-.48.12a4.52,4.52,0,0,0-.78.36,10.82,10.82,0,0,0-1.26.48,13.71,13.71,0,0,1-3.72.36,13.56,13.56,0,0,1-1.56.06A13.27,13.27,0,0,1,323,47h-.42c-.24-.06-.9-.06-1.26-.12l-.48-.24a9,9,0,0,1-1.26-.12c-.12,0-.18-.12-.36-.18a1.28,1.28,0,0,0-.48,0l-.3-.24c-.12-.06-.24,0-.36-.06a15.19,15.19,0,0,0-1.38-.72L316,45a6.22,6.22,0,0,1-.6-.24,4.53,4.53,0,0,0-1.44-.48c-.66-.78-1.56-1.32-2-2.28-.36-.36-.9-.66-1.26-1.08-.06-.12,0-.24-.06-.3l-.42-.3c-.06-.12,0-.24-.06-.3s-.42-.24-.6-.42,0-.24-.06-.3c-.24,0-.18-.12-.18-.18a2.56,2.56,0,0,1-.66-.72l-.12-.24-.48-.6c0-.06-.18-.18-.18-.24s.06-.18,0-.24l-.42-.9a3.28,3.28,0,0,1-.36-1.08l-.12-.6c-.12-.42-.48-1.5-.06-2.1a4.36,4.36,0,0,1-.24-1.5c0-.12.18-.3.18-.48s-.06-.3-.06-.48c0-.36.12-.36,0-.78a12.3,12.3,0,0,1-.06-2.22,4,4,0,0,0,.24-.66c.06-.18-.06-.42,0-.6l.18-.24c.18-.72.3-1.56.54-2.34.12-.36.18-.84.6-1-.36-.42.18-1.32.54-1.62a4.3,4.3,0,0,1,.3-1.26,3.79,3.79,0,0,0,.24-.54c0-.12.18-.06.18-.24.12-.48.42-.6.72-1s.66-1.2,1.08-1.74c.24,0,.3-.12.6-.06.18-.18.12-.6.3-.78h.6a4.65,4.65,0,0,1,2.46-1.74c.36-.48,1-.72,1.44-1.14.84-.06,1-.72,1.8-.78a3.05,3.05,0,0,0,.78-.54,5.4,5.4,0,0,0,1-.18c.48-.12.9-.42,1.38-.54a4.55,4.55,0,0,1,1-.06,29.73,29.73,0,0,1,3.3-.06c.66.54,1.68.24,2.4.84a6.1,6.1,0,0,1,2,.36,5.86,5.86,0,0,1,1,.42,1,1,0,0,1,.66.66c.9.12,1.38.9,1.92,1.5a4,4,0,0,1,.84.9l.18.3a5.66,5.66,0,0,1,.6.6A6.73,6.73,0,0,0,337.19,17c0,.36.18.48.12.9.24.12.48.24.48.6v1a1.63,1.63,0,0,1-.48.6c0,.72-.54.9-.66,1.5-.66.42-1,1.08-1.74,1.44-.48-.06-.78-.24-1.2-.12,0-.24-.12-.36-.24-.6-.24-.48-.36-1.14-.66-1.68l-1-.78c-.18-.12-.48-.18-.66-.3s-.3-.48-.6-.3c-.18-.18-.3-.48-.48-.66-1.2-.18-2.58-.18-3.24-.78a3.37,3.37,0,0,1-2-.36,12.09,12.09,0,0,1-2.16.18,2.52,2.52,0,0,0-1.14.06,11.41,11.41,0,0,0-2.16.72,8.82,8.82,0,0,1-.78.6,3.1,3.1,0,0,0-.78.36A1.86,1.86,0,0,0,317,20a5.63,5.63,0,0,1-.6.84c-.12.18-.3.24-.48.48s-.6,1-1.08,1.32a.8.8,0,0,1-.42.78c.12.9-.54,1.08-.42,2a2,2,0,0,0-.48,1l-.12.42a7.14,7.14,0,0,0-.42,1.62.46.46,0,0,0,.06.36,18.91,18.91,0,0,0-.24,2.34c.06.54.24,1.2.36,1.86a11.88,11.88,0,0,0,.36,1.56c.06.12.18.18.24.36s.12.36.24.48.12.12.18.24l.24.36a7.53,7.53,0,0,1,.66,1l.48.78c.18.18.54.12.48.48a2.66,2.66,0,0,1,1.32.6l1,.54A7.74,7.74,0,0,0,320,40c.12,0,.24-.12.48-.06s.6.18.84.18l1.56.18c.54,0,1.08-.18,1.56.12a10.63,10.63,0,0,1,1-.36c.36-.12.78-.18,1.08-.3s.18-.18.3-.3.3,0,.42-.06.18-.24.3-.3a8.33,8.33,0,0,1,1.56-.6c.36-.18.66-.54,1.08-.6.18-.42.72-.42,1.14-.84a2.36,2.36,0,0,1,.78-.36c.3-.3.42-.78.84-1a1.42,1.42,0,0,0,1,.24l1.32,1.92c.06.18.06.3.18.42s.24.06.24.12.06.42.18.66c.48.12.66.48,1.2.54.12.42.72.66.84,1.26A1.73,1.73,0,0,1,336.59,42.84ZM334.07,17.1a2.09,2.09,0,0,0-.84-.78c.06-.72-.66-.66-.6-1.38-.3.12-.36-.06-.54-.18a6,6,0,0,1-1.26-1.2c-.72-.06-1-.48-1.62-.6a8.66,8.66,0,0,1-2.4-.54,2.13,2.13,0,0,1-.9.06,4.41,4.41,0,0,0-1.5-.42c-.12,0-.54.18-.6.18-.42.12-.72-.06-1.14,0a3.35,3.35,0,0,0-1.26.24l-.54.18c-.3.12-.54.36-.84.48s-.42,0-.6.06a1.76,1.76,0,0,1-.6.18.85.85,0,0,1-.48.36,4.4,4.4,0,0,0-.78.6c-.06.06-.18,0-.3.06a4.49,4.49,0,0,1-1.74,1,3.25,3.25,0,0,1-1.32.9c0,.06-.06.18-.06.24a4.2,4.2,0,0,1-1,.54,17.68,17.68,0,0,1-1.26,2.1l-.54.66a4.74,4.74,0,0,1-.18.78,4.23,4.23,0,0,1-.42.54c-.18.48-.12,1.08-.6,1.38a9.46,9.46,0,0,1-.3,1.5,1.76,1.76,0,0,1-.24.48,6.76,6.76,0,0,1-.18,1.08,6.67,6.67,0,0,0-.42,1,6.87,6.87,0,0,0-.06,1.92v.72c0,1,.12,1.68.12,2.52,0,.12-.12.18-.12.24,0,.36.3.9,0,1.26a4,4,0,0,1,.36,1.2,4.36,4.36,0,0,1,.36,1.26A11.43,11.43,0,0,1,311,38a12.12,12.12,0,0,1,1.56,1.38c.6.54,1,1.14,1.38,1.5.12.12.3.12.42.18l.18.3a2.13,2.13,0,0,1,.24.54,1.36,1.36,0,0,0,.24.06c.42.48,1,.54,1.8.84a3.22,3.22,0,0,1,.66.3l.6.18a.36.36,0,0,0,.06.24l.78.18a.51.51,0,0,0,.3.18,3.05,3.05,0,0,0,.84.24l1.26.42c.42.12.9-.06,1.26.3.6-.3,1.26.18,1.62.12.12,0,.18-.06.3-.06.42.06.84.3,1.08.3s.36-.06.6-.06a12.13,12.13,0,0,0,1.62-.18c.42-.06.84,0,1.14-.06.54-.12,1.14-.54,1.68-.72l1.26-.48A3.69,3.69,0,0,0,333,43l.9-.54c.3-.3.9-.66,1-1.08-.18-.6-.72-1-1.08-1.44s-.54-.84-.84-1.2a35.44,35.44,0,0,0-3.36,2L329,41c-.24.12-.54.06-.78.18s-.42.48-.66.6c-.72.06-1.44.48-2.16.6l-.78.12a13.71,13.71,0,0,1-2.22,0,15.06,15.06,0,0,1-4.14-.54l-1.08-.54a6.52,6.52,0,0,0-2-.9c-1-.9-2-1.62-2.46-3.06a2.49,2.49,0,0,1-1-1.56.9.9,0,0,1-.18-.42c-.06-.12,0-.3,0-.48s-.18-.24-.18-.36l-.18-.66a8.32,8.32,0,0,1-.42-2.94,10.67,10.67,0,0,0,.12-1.86,4.76,4.76,0,0,1,.48-2.88c.06-.18.06-.42.3-.54-.12-.66.36-1.14.48-1.68.12-.3,0-.66.06-1s.3-.9.36-1.14l.24-.18c.06-.12.06-.24.12-.3l.36-.48c.24-.24.36-.54.48-.66a.65.65,0,0,1,.3-.06c.06-.06.06-.24.12-.3a3.48,3.48,0,0,1,.72-.6,1.57,1.57,0,0,1,.6-1c.18-.18.12-.48.3-.66.6.12.54-.36,1-.48l.66-.12c.18-.42.78-.36,1-.66a4.42,4.42,0,0,1,1-.66,4.55,4.55,0,0,1,1-.18c.78-.18,1.26-.48,1.86-.06,0-.36.36-.06.48-.12a2.13,2.13,0,0,0,.66-.18,13,13,0,0,1,2.16.06l.36.24c.18,0,.36.06.48.06a14.76,14.76,0,0,0,2.34.54,4,4,0,0,0,1.44.24,3,3,0,0,0,1.32.6,2.88,2.88,0,0,0,1.44.84c0,.24.24.18.42.3a11.26,11.26,0,0,1,1.08,1.44c.18.18.3.48.6.42s.18-.66.48-.78C335.15,18.36,334.91,17.46,334.07,17.1Z"/><path class="cls-1" d="M372.83,48.72a4,4,0,0,1-1.2.06,2.37,2.37,0,0,1-.84-.3,1.47,1.47,0,0,1-.9-.3c-.48.24-.84,0-1.26.18l-.78.36c-.06.06-.18-.06-.3,0s-.06.3-.48.3c-1,0-1.2-.9-2.16-1.14a7.24,7.24,0,0,0-1.44-1.26c-.12-.18-.12-.48-.3-.6s-.36-.12-.24-.48a17.33,17.33,0,0,1-2.52-2.1,16,16,0,0,1-1.56-1.86c-.18-.24-.6-.36-.42-.72-.42,0-.54-.36-.84-.6a1,1,0,0,1-.3-.12c-.06-.06,0-.18-.06-.24s-.42-.24-.36-.54c-.84-.3-1.08-1.2-1.86-1.56-.06-.3-.24-.42-.36-.72-.42-.06-.48-.42-1-.48,0-.36-.36-.48-.54-.66s-.42-.48-.66-.54c-.3.24-.12.66-.12,1.08,0,.18-.12.36-.12.6s.24.9-.24,1.14a20,20,0,0,1,.24,4c0,.18-.12.36-.12.48s.18.54.18.78-.12.48-.12.6.18.24.18.3-.06.3,0,.48a1.31,1.31,0,0,1,.18.3c0,.12-.12.18-.12.24a8.35,8.35,0,0,1,.36.78c-.12.36-.42.54-.6.9,0,.42.3.48.48.66a1.55,1.55,0,0,1-.72,1.92c-1.26,0-1.92-.6-2.88-.9a17.3,17.3,0,0,1-3.54-.18c-.12-.36-.48-.54-.36-1.2a3.35,3.35,0,0,0,0-.78,1.21,1.21,0,0,1,.12-.36c0-.18-.18-.3-.18-.48a12.31,12.31,0,0,1,.18-3.6c0-.12.06-.36.06-.48a6.76,6.76,0,0,0-.18-1.08c0-.36.06-.78.06-1.14,0-.06-.12-.18-.12-.3s.24-.42.24-.6a9.26,9.26,0,0,0-.3-1c0-.3-.06-.72-.06-1,0-.6-.06-1.26-.06-1.8,0-.9.12-2.28.06-3.42,0-.06.06-.18.06-.24a.85.85,0,0,0-.24-.12c0-.18.12-.36.12-.6,0-.48-.3-1.38.12-1.8.06-.24-.12-.48-.12-.72a4.09,4.09,0,0,1,.12-1.14,3.39,3.39,0,0,1,0-.78.74.74,0,0,0-.12-.3,8.7,8.7,0,0,0,.36-1.14c0-.36-.12-.66-.12-1.08,0-.24.12-.6.12-.84a5.32,5.32,0,0,0,.12-.9c0-.36-.18-.78-.18-1.14a3,3,0,0,0,.12-.72c0-.18-.12-.3-.18-.54s.06-.48.06-.72a2.35,2.35,0,0,1-.3-.78c0-.18.12-.18.12-.24a4.57,4.57,0,0,0-.18-1.26c-.06-.24.06-1.92.06-2.22,0-.78.06-1.56.06-2.28s-.36-1.56-.36-2.28a13,13,0,0,1,.24-1.5c0-.12-.12-.12-.12-.24s.12-.18.12-.3-.18-.36-.18-.48a6.17,6.17,0,0,1-.06-1.08,6.63,6.63,0,0,1-.18-1c0-.18.12-.24.12-.42a3.58,3.58,0,0,1,0-1.14c-.18-.3-.54.18-.66-.12s-.12-.42-.3-.48c-.06-.6.48-.6.3-1.26a2.49,2.49,0,0,1,1.86.06,3.47,3.47,0,0,1,2-.36l.6-.3a16.47,16.47,0,0,0,3.06.18c.3.18.42.54.66.78-.18.48,0,.84.06,1.5a4.66,4.66,0,0,1,.12,1c0,.12-.18.36-.24.48a8.83,8.83,0,0,0,0,1.26c0,.06-.12.18-.12.36a21.82,21.82,0,0,0,.3,3.6,8.7,8.7,0,0,1,.18,1.92,9,9,0,0,0-.12,1.26c.06.78.72,1.62.3,2.22.24.54.66,1.5.24,2,.06.24.24.36.3.48.06.36-.18.3-.18.48.42.48.06,1.56,0,2.34,0,.18.12.36.12.48s-.12.3-.12.42c0,.42.3.78.18,1.26a1.19,1.19,0,0,0,.66-.66,8.58,8.58,0,0,0,1.92-2c.3,0,.24-.3.6-.18a1,1,0,0,1,.36-.6c.18-.18.3-.18.3-.18s.06-.24.12-.3l.36-.18c.24-.12.24-.3.72-.3.18,0,.06-.36.3-.36.42-.12.54-.54,1.08-.54.12-.54.6-.66.78-1.14.18-.12.3-.3.6-.3l1.38-1.5a2.77,2.77,0,0,1,.42-.42c.24-.18.36-.48.66-.72l.42-.3c.06-.06.06-.24.18-.36a1.39,1.39,0,0,1,2-.36,5.06,5.06,0,0,1,2,.36c.54.12,1.08.12,1.32.6a3,3,0,0,1,2.16.06,2,2,0,0,1,.3,1.56c-.24.18-.36.54-.84.54-.24.18-.36.48-.6.66-.06.06-.24.06-.3.06-.18.18-.36.48-.6.72a3.37,3.37,0,0,0-.78.42c-.06.06-.06.24-.12.3s-.18.06-.3.12l-.18.24c-.12.06-.24.06-.3.12s0,.18-.12.3-.24,0-.24.06-.06.24-.12.3A3,3,0,0,1,366,20.22a4.63,4.63,0,0,1-1,1.14,1.16,1.16,0,0,0-.6.6c-.12.06-.36.06-.48.18-.18.6-.84.78-1.08,1.38-.24,0-.3.18-.48,0-.06.66-.6.78-1,1.08-.3.9-1.2,1.32-1.74,2-.24.18-.3-.06-.6,0-.24.3-.12.66-.3,1a9,9,0,0,1-.78.66c-.24.18-.3.42-.54.6.3.9,1.14,1.26,1.44,2.16.72.6,1.56,1,2.34,1.68a4.4,4.4,0,0,1,.78.6c.3.3.48.78.78,1.08a10,10,0,0,1,.72,1,6.81,6.81,0,0,1,1.5,1.44A3.75,3.75,0,0,1,366,38c1.44.6,1.86,2.16,3.18,2.88.12.78.72,1.08,1.26,1.5a5.93,5.93,0,0,0,.54,1.44c.06.24.3.18.48.3s.48.84,1,1a.76.76,0,0,0,.42.6,1.59,1.59,0,0,0,.06.78c.12.36.42.54.48.9C373.43,47.94,373,48.36,372.83,48.72Zm-3.6-4.32c-.12-.18-.54-.06-.66-.18a14.34,14.34,0,0,0-1.62-2c-.12-.12-.12-.3-.18-.42l-.42-.18c-.12-.3-.3-.24-.36-.3a2.77,2.77,0,0,1-.54-.9,2.48,2.48,0,0,1-.66-.42c-.12-.6-.72-.66-.66-1.32-.42-.06-.6-.3-1-.36a6.67,6.67,0,0,0-1.62-1.56,4.31,4.31,0,0,0-.84-1.2A10.48,10.48,0,0,0,359,34a5.63,5.63,0,0,1-.72-.54c-.48-.36-.84-.84-1.32-1.14A13.73,13.73,0,0,0,355,29.76c-.12-.12-.06-.48-.18-.6s-.42-.12-.24-.48c.24-1.14,1.32-1.44,2-2.1.3-.84,1.08-1.26,1.62-1.86a1.13,1.13,0,0,1,.66-.3c.06-.36.36-.48.42-.84.54-.36,1-1.08,1.5-1.44s.54-.54.84-.66c.48-.54,1-1,1.2-1.2s.12-.3.24-.42a2.31,2.31,0,0,1,.54-.54c.12-.06.24-.06.3-.12s.12-.24.24-.3.18,0,.24-.06c.24-.12.3-.36.42-.48s.18-.18.18-.18l.54-.36c.06-.06.06-.24.06-.3l.6-.48a8.13,8.13,0,0,1,1-1c.06-.12,0-.24.06-.3s.24-.06.3-.18.36-.36.12-.6-.18.3-.6.06-1.08-.24-1.5-.48c-.3.24-.6.3-.78.48a3.84,3.84,0,0,0-.84.9A4.11,4.11,0,0,1,362.87,17l-.24.12c0,.24-.12.12-.18.18s-.06.24-.18.36l-.42.3a8.82,8.82,0,0,0-.6.78,9.43,9.43,0,0,0-1.56,1.14c-.12.06-.36.06-.48.18-.42.24-.72.78-1.26.84-.12.06-.06.24-.12.36s-.3.12-.42.18-.3.42-.6.48c-.06.48-.54.72-.84,1s-.24.42-.42.6l-.3.18c-.12.12-.12.3-.18.36l-.54.48a5.21,5.21,0,0,1-1.38,1.62c.06.36-.24.48-.3.6-.3.54-.66,1.32-1.56,1a1,1,0,0,1-.48-.42c-.06-.06-.06-.3-.06-.36a2.19,2.19,0,0,1,0-1.08V25.2a6.16,6.16,0,0,0,.24-.84c0-.24-.18-.48-.18-.72a3.51,3.51,0,0,1-.12-.78c.06-1.8.3-3.9.18-5.76a2.53,2.53,0,0,1-.18-.72c-.06-.3.06-.66,0-1s-.24-.48-.3-.78-.06-.78-.06-.84.12-.24.12-.3c0-.24-.18-.36-.18-.6a3.39,3.39,0,0,0,0-.78,2.71,2.71,0,0,0-.18-.66,3.39,3.39,0,0,0,0-.78A2.6,2.6,0,0,1,350,9.3a5.15,5.15,0,0,1-.12-3.3c-.18-.06-.24-.24-.18-.48a4.42,4.42,0,0,0,.12-2.22.33.33,0,0,0-.3-.18c-.6.66-1.92.3-2.82.3,0,.6.06,1.32.06,1.56a8.89,8.89,0,0,1,.06,2.16c0,.12.12.12.12.3a28.39,28.39,0,0,0-.06,3.18c0,.12.12.24.18.36s-.06.48-.06.72a6.06,6.06,0,0,1,.18,1c0,.12-.06.18-.06.3s.06.3.06.3a17.31,17.31,0,0,0-.12,2.52c0,.72.18,1.32.12,2a2,2,0,0,1-.12,1c.24.12.24.48.3.66l.18.78a30.18,30.18,0,0,1,0,3.3c0,.48.12.66,0,1a4.26,4.26,0,0,0-.24,1.2,6,6,0,0,1-.3,1.5c.24,0,.18.36.24.48-.06.72.06,1.44-.06,2.28,0,.24-.12.48-.06.72s.12.54.12.78-.06.48-.06.72.24.78.24,1.14-.12.48-.12.78a19.61,19.61,0,0,0-.06,2.64,2.13,2.13,0,0,1,.18.66c.06.42-.06,1,0,1.44.06,1.5.54,3-.12,4.08.36.72-.06,1.56.24,2.52-.06.36-.3.6-.12,1,.9-.12,1.92,0,2.82-.12a8.89,8.89,0,0,0-.18-1.86c0-.24.18-.48.12-.66s-.12-.12-.18-.24,0-.24,0-.36a4.26,4.26,0,0,0-.06-1.74c.3-.48.06-.84.12-1.44a11.09,11.09,0,0,0,.06-1.38c0-.24.12-.48.12-.78,0-.6-.3-1.14.12-1.5a5.83,5.83,0,0,1-.24-1.86,11.72,11.72,0,0,1,.12-1.38c0-.12.18-.3.18-.48s.06-.42.12-.54a2,2,0,0,1,1.08-.6,7.43,7.43,0,0,0,1.08.84c.18.54.78,1,1.08,1.26s.18.24.42.3.24.54.54.3c0,.24.3.42.42.48s0,.24.06.3.36.12.48.24.18.3.3.36a3.85,3.85,0,0,0,1.5,1.08,5.12,5.12,0,0,0,.66.84c.42.48,1,.78,1.14,1.44.3.18.48.42.78.6,0,.3.18.42.24.72.54,0,.78.66,1.08.84.12.12.3.12.48.24a7.77,7.77,0,0,0,1.86,1.86c.36.24.6.54.9.72.12.12.36.18.42.3s.06.24.12.3l.18.18.36.48a6,6,0,0,0,.78.9c.06.06.36.06.48.12s.36.18.48.18c.36,0,.66-.3,1.08-.36a10.17,10.17,0,0,1,1.38-.06C369.83,45.3,369.23,45.12,369.23,44.4Z"/></g></g></svg>