<svg xmlns="http://www.w3.org/2000/svg" viewBox="0 0 221.66 48.37"><defs><style>.cls-1{fill:#231815;}</style></defs><g id="レイヤー_2" data-name="レイヤー 2"><g id="text"><path class="cls-1" d="M3.3,13.13,8.58,26.51,14,12.17,19.2,26.51l5.46-13.38H28L19,34.43,13.8,20.24,8.52,34.43,0,13.13Z"/><path class="cls-1" d="M42.78,26.84A6.56,6.56,0,0,1,36,33.53a6.56,6.56,0,0,1-6.75-6.69A6.52,6.52,0,0,1,36,20.18,6.52,6.52,0,0,1,42.78,26.84Zm-3,0c0-2.88-1.89-4.05-3.75-4.05S32.28,24,32.28,26.87c0,2.43,1.44,4,3.75,4S39.78,29.3,39.78,26.87Z"/><path class="cls-1" d="M45.84,20.51h2.94v1.14a5.08,5.08,0,0,1,1.23-1,3.4,3.4,0,0,1,1.8-.42,4.36,4.36,0,0,1,2.31.6l-1.2,2.67a2.66,2.66,0,0,0-1.5-.45,2.29,2.29,0,0,0-1.83.69,4.07,4.07,0,0,0-.81,2.91v6.54H45.84Z"/><path class="cls-1" d="M58.74,11.27V24.74l4.11-4.23h3.9l-5.43,5.25,5.82,7.38H63.42l-4.14-5.4-.54.54v4.86H55.8V11.27Z"/><path class="cls-1" d="M74.58,23.84a2.12,2.12,0,0,0-1.8-1.08,1.25,1.25,0,0,0-.9.33,1,1,0,0,0-.27.66.81.81,0,0,0,.42.72c.18.12.36.18,1,.51l1.5.75a6.06,6.06,0,0,1,1.77,1.17,3.12,3.12,0,0,1,.93,2.34,4.19,4.19,0,0,1-1.11,2.88,4.51,4.51,0,0,1-3.54,1.41,4.35,4.35,0,0,1-2.73-.81,4.92,4.92,0,0,1-1.62-2.31l2.4-1.14a3.32,3.32,0,0,0,.69,1.2A1.8,1.8,0,0,0,72.6,31a1.77,1.77,0,0,0,1.2-.42,1.49,1.49,0,0,0,.42-1,1.36,1.36,0,0,0-.39-1,3.87,3.87,0,0,0-1.26-.78l-1.08-.51a6.23,6.23,0,0,1-1.74-1.08,2.75,2.75,0,0,1-.9-2.13,3.94,3.94,0,0,1,1.05-2.7A4.07,4.07,0,0,1,73,20.18a4,4,0,0,1,2.34.66,4.34,4.34,0,0,1,1.44,1.56Z"/><path class="cls-1" d="M145.08,6a15.25,15.25,0,0,1-.72,1.75,14.62,14.62,0,0,1-.6,2.69l-.12.48c-.06.18-.18.24-.18.36-.18.72-.06,1.26-.24,1.86l-.24.3a1.28,1.28,0,0,1,0,.48l-.18.78-.12.84c-.06.18-.18.12-.24.3s.06.24,0,.36a1.31,1.31,0,0,1-.18.3c-.06.12,0,.3,0,.42l-.24.24c0,.12.06.3,0,.42a3.35,3.35,0,0,0-.3.48l-.12.66a29.47,29.47,0,0,1-.6,3l-.12.3-.24.48c-.12.24-.24,1.14-.42,1.62a6.26,6.26,0,0,1-.3,1.26l-.12.48c0,.12-.18.12-.18.24a12.1,12.1,0,0,1-.3,1.68,1.26,1.26,0,0,0-.24.36c-.06.18.06.42,0,.6s-.18.24-.18.36a12.63,12.63,0,0,1-.36,1.44c-.06.18-.18.3-.18.42a3.92,3.92,0,0,0,0,.84,9.93,9.93,0,0,1-.36,1.26,11.07,11.07,0,0,1-.24,1.38,11.43,11.43,0,0,1-.6,1.68,2.47,2.47,0,0,0-.18.48,2.89,2.89,0,0,0,0,.72l-.24.36a28.22,28.22,0,0,1-.72,3.06c.12.3.12.72.24,1a4.48,4.48,0,0,1-.42.72,4.78,4.78,0,0,1-.18.9,4.35,4.35,0,0,0-.72,1.5c-.12.3-.42.36-.48.66a4.73,4.73,0,0,0-.12,1.2c.06.18-.18.18-.24.3-.24.3-.18.72-.78.9-1,.42-1.8-1.32-2.28-2a10.55,10.55,0,0,1-1.5-2,8.41,8.41,0,0,1-.72-1.08,3,3,0,0,1-.48-.72,10.78,10.78,0,0,1-1-1.86,11.07,11.07,0,0,1-2-3.12,1.57,1.57,0,0,0-.18-.48c-.06-.12-.24-.18-.3-.3a12.7,12.7,0,0,0-.66-1.26c-.06-.12-.06-.3-.18-.42a2.89,2.89,0,0,0-.54-.66c.06-.48-.3-.66-.48-.9.06-.3-.18-.36,0-.6a10.26,10.26,0,0,1-.66-.84,3.66,3.66,0,0,0-.18-.78l-.42-1.08c-.06-.12-.06-.24-.12-.3a4,4,0,0,1-.36-.72c-.06-.12.06-.36,0-.54-.24-.18-.12-.3-.18-.42a11.43,11.43,0,0,0-.54-1.74c0-.06.06-.24,0-.3s-.3-.24-.36-.48,0-.48-.06-.66-.24-.36-.3-.54.06-.24,0-.36a2.64,2.64,0,0,1-.36-.72c-.24-.72-.42-1.5-.72-2.22.06-.6.12-.9-.18-1.26-.48.18-.48.78-.6,1.26a11.2,11.2,0,0,1-.42,1.32c-.24.66-.6,1.2-.9,1.86a2.43,2.43,0,0,0-.3.54c-.12.36-.12.84-.24,1.14s-.54.84-.72,1.26c-.36.6-.6,1.2-1,1.8a13.34,13.34,0,0,0-1.14,1.62c-.18.48-.24,1-.42,1.5-.12.3-.24.78-.42,1.14a4.52,4.52,0,0,1-1.32,2.28c-.06.18,0,.36-.06.6-.06,0-.18.12-.24.18s.06.24,0,.36-.24.24-.3.3a8.35,8.35,0,0,1-.36.78c-.06,0-.18.06-.24.06-.12.24.06.42-.18.66s-.24.18-.3.3a9.71,9.71,0,0,1-.6,1.08c-.06.06-.12.18-.24.24a2.5,2.5,0,0,1-.36.48c-.12.12-.18.54-.3.78s-.36.54-.54.9c0,.06-.06.18-.06.24A3.51,3.51,0,0,0,106.8,44c-.18.18-.24.48-.48.6-.12.36.18.36.18.66-.54.42-.36,1.32-.66,2,0,.06-.18.12-.3.24s-.06.42-.3.6a.78.78,0,0,1-1.14,0c-.06-.12-.06-.24-.12-.3s-.24-.06-.24-.12a2.77,2.77,0,0,1-.3-.6l-.3-.6c-.12-.3-.06-.72-.18-1l-.42-1.2c-.06-.12.06-.3,0-.36s-.18-.12-.18-.24a2.55,2.55,0,0,1-.12-.66,3.58,3.58,0,0,0-.36-.66c0-.3,0-.6.12-.72-.06-.18-.18-.18-.3-.48.12-.18,0-.3-.06-.48s0-.42-.06-.66c-.06-.06-.18-.12-.24-.24s.12-.24-.06-.24c0-.36-.06-.72.12-.9-.06-.24-.3-.48-.36-.78s.06-.72-.3-.9c.12-.66-.42-1.26-.6-1.92a9.6,9.6,0,0,1-.18-1.38L99.78,33a2.69,2.69,0,0,1-.06-.66c-.12-.42-.48-.84-.36-1.2,0-.06-.54-.66-.18-.9a3.44,3.44,0,0,1-.6-1.14c-.06-.24.06-.48-.06-.78s-.24-.3-.3-.48L98.1,26l-.18-.84c-.06-.3,0-.72-.06-1l-.18-.36-.12-.42a3,3,0,0,1-.24-.78c-.12-.36,0-.72-.12-1s-.18-.3-.18-.42a5.25,5.25,0,0,0-.36-1.68A1.49,1.49,0,0,0,96.6,19c-.06-.12-.18-.18-.18-.3s.06-.3,0-.48-.18-.12-.18-.24a1,1,0,0,0,0-.42c0-.12-.06-.24-.06-.36l-.48-1.5a3.5,3.5,0,0,0-.24-1.08c-.12-.18-.42-.42-.48-.66a5.4,5.4,0,0,1-.18-1,1.19,1.19,0,0,0-.36-.78,3.73,3.73,0,0,0-.72-2,4.85,4.85,0,0,0-.66-1.62c-.06-.12,0-.3-.06-.48a1.61,1.61,0,0,1-.3-.29,2.53,2.53,0,0,1-.36-.67,3,3,0,0,1-.18-.78l-.3-.59a4.61,4.61,0,0,0-.18-.79,1.88,1.88,0,0,1-.24-1.26A2.89,2.89,0,0,1,91,2.58,1.61,1.61,0,0,1,90.78,2c0-.24.12-.42,0-.59a10.14,10.14,0,0,1,2-.24c.24,0,.42.17.6.17h.36c.3,0,.48-.24.9-.24.18,0,.36.12.6.12C96.6,1.21,98.4,1,99.72.84a2.62,2.62,0,0,1,1.26.91c.24.54,0,1.5.24,2.21.12.49.24,1.2.42,1.8A7,7,0,0,1,102,7c0,.06.12.12.06.3s-.12.12,0,.48c.06.06.18.12.18.18.06.24-.06.48,0,.66.12.54.48.9.54,1.38s0,.84.12,1.26c.12.9.72,1.8.42,2.82-.06.18.12.18.18.3s.12.72.24,1.08.24.42.3.66,0,.54.06.78l.48,1.38a3.69,3.69,0,0,0,.18.66c.06.18.24.42.24.6s0,.72.06,1.08.36.48.12.78a3.48,3.48,0,0,1,.6,1.44l.12.3a11,11,0,0,1,.36,1.38c.06.3.3.66.36,1a3.49,3.49,0,0,0,.18,1.14c0,.06.18.18.18.24s-.06.18,0,.3a3.83,3.83,0,0,0,.48.84c.24-.06.18-.36.3-.54a2.8,2.8,0,0,1,.3-.6l.18-.66.12-.66c.06-.18.24-.18.3-.3l.12-.42c.18-.42.3-1,.48-1.62a9.79,9.79,0,0,1,.54-1.14l.6-1c.24-.42.36-1,.78-1.26a3.78,3.78,0,0,1,.54-1.44s.18-.12.18-.18c.12-.24.18-.6.54-.66a2.65,2.65,0,0,1,.36-1l1-1.8c0-.06,0-.24.06-.3a3.69,3.69,0,0,0,.54-.78,1,1,0,0,1,.3-.36c0-.06-.06-.18,0-.3l.36-.84c.18-.36.18-.72.36-1.08a8.88,8.88,0,0,0,.48-.78c.12-.3.12-.66.24-1s.24-.6.3-.9a6.68,6.68,0,0,1,.12-1c.06-.3.24-.6.3-.9.18-.66.24-1.32.42-2A3.28,3.28,0,0,1,118,2.88a2,2,0,0,1,1.56.18c.24.24.24.78.66.85-.12.3.06.59.18.89a4.52,4.52,0,0,0,.36.78c0,.06.18.18.18.18.12.49.18,1.14.66,1.38l.24,1,.12.48c0,.13.24.18.24.3s0,.36.12.48c.3.3.3,1,.66,1.08a5.15,5.15,0,0,0,.18,1c-.06.3.3.36.42.54s.06.42.12.54a15.21,15.21,0,0,1,.72,1.86,2.28,2.28,0,0,1,.3,1c.48.66.48,1.8,1,2.46.12.42,0,.6.12.9a5.48,5.48,0,0,0,.48.78c.12.3.12.66.24,1l.36.66a4.33,4.33,0,0,0,.54,1.2,2,2,0,0,1,.18.48c.24.6.66,1.32,1,2,.12.24.18.72.36,1.08l.72,1.26c.06.06.24.12.3.3s.12.84.6.66-.06-.48,0-.84c.3-.42.12-1,.24-1.44a9.27,9.27,0,0,1,.42-1.38l.3-1.44c.12-.48.12-1,.24-1.56s.24-.78.3-1.26,0-1,.06-1.44a5.32,5.32,0,0,1,.18-.84l.12-.9c.12-.36.42-.66.54-1l.12-1.38a3.63,3.63,0,0,0,0-1.14c.42-.42.36-1.08.6-1.62.06-.12.18-.06.24-.18s-.06-.24,0-.3l.48-1.62.24-.48a17.31,17.31,0,0,1,.24-1.74c0-.18.24-.35.3-.48s-.06-.29,0-.42.18-.18.18-.18c.06-.23-.06-.54,0-.77a4.54,4.54,0,0,1,.3-.55.88.88,0,0,1,.42-.48c0-.35-.24-.47-.18-.89.3,0,.12-.25.3-.37.42-.36,1.38-.24,2.22-.24.54-.06.9-.18,1.26.12a7.91,7.91,0,0,1,2.46-.18c.54,0,1,.18,1.44.18.66,0,1.26-.35,1.8,0,.18.3.12.72.42.91A7.9,7.9,0,0,1,145.08,6Zm-3.48-.66a27.78,27.78,0,0,1-3.24.06,1.91,1.91,0,0,0-.72.66c-.18.24-.12.78-.48.84-.06.31.12.36.06.66a8.79,8.79,0,0,0-.42,1.68c-.06.18-.18.3-.18.48s0,.42-.06.66a4.64,4.64,0,0,1-.42,1c-.06.24,0,.48-.06.66s-.42.42-.54.66a1.32,1.32,0,0,0-.06.48,15.65,15.65,0,0,0-.48,2.52l-.3.6c-.06.24,0,.54-.18.78-.18.42-.24,1-.42,1.44-.06.3.24.3.18.66-.36.24-.36.84-.36,1.08a5.12,5.12,0,0,0,0,1c-.06.36-.24.72-.3,1.14s-.12,1.08-.24,1.62l-.12.6-.12.84c-.06.3-.24.6-.3.9a7.23,7.23,0,0,0,0,1.14,10.24,10.24,0,0,1-.42,1.26c-.06.18,0,.42-.06.6l-.3.48a5.29,5.29,0,0,0-.42,1.74c0,.42.24.84.18,1.26a1.66,1.66,0,0,1-.3.54c-.18.3-.18.48-.42.6-1.14.66-2.1-.6-1.8-1.68,0-.3-.36-.18-.36-.54-.06-.84-.66-1.2-.6-2.22-.12-.18-.42-.24-.48-.48,0-.42-.24-.48-.18-.9-.12-.3-.48-.36-.6-.66-.78-1.8-1.68-3.54-2.46-5.28-.18-.18-.06-.54-.12-.78-.42-.6-.48-1.56-.78-2l-.12-.3a5.92,5.92,0,0,1-.78-2.58,1.93,1.93,0,0,1-.6-1.62c-.54-.48-.6-1.5-.9-2a6.79,6.79,0,0,1-.24-.9c-.06-.18-.24-.3-.3-.42s.06-.24,0-.36-.12-.12-.18-.18a2,2,0,0,0-.48-1,6.36,6.36,0,0,0-1.26-2.64c-.36.66-.36,1.62-.84,2.1.36.72-.18,1.44-.42,2l-.42,1c-.24.42-.66.6-.78,1s.24.18.18.48a4.15,4.15,0,0,0-.6,1.14,1,1,0,0,0-.12.3c-.18.3-.3.66-.6.78a2.52,2.52,0,0,1-.42,1.14l-.42.66a2.35,2.35,0,0,1-.3.78,4.53,4.53,0,0,0-.6,1c-.12.12-.24.12-.48.12.24.3.06.54,0,.84a9.71,9.71,0,0,1-.6,1.08c-.12.18-.12.42-.24.6s-.3.24-.36.42a3.38,3.38,0,0,0-.24.72,3.61,3.61,0,0,1-.42.84c-.18.36-.18.78-.48,1a3.08,3.08,0,0,1-.42,1.44c-.06.12,0,.3,0,.36l-.24.3-.18.78a24.34,24.34,0,0,0-1.14,3.54c-.06.3-.18.54-.24.78s.12.24.12.3c0,.3-.3.72-.24,1.08-.48.24-.48.6-.9.72-.72.36-.9-.18-1.32-.6.12-.6-.18-1-.24-1.56s0-1-.06-1.44a14.77,14.77,0,0,0-.84-2.16c-.06-.18,0-.36-.06-.6s-.24-.24-.3-.36a1.85,1.85,0,0,1-.06-.6,1.92,1.92,0,0,1-.18-1.26,1.19,1.19,0,0,1-.36-.78,4.71,4.71,0,0,1-.12-.84c0-.18-.24-.48-.24-.6-.3-.72-.36-1.38-.66-2,.18-.3,0-.36,0-.78-.24-.18-.12-.6-.24-.78a9.54,9.54,0,0,1-.72-3.06c-.6-.48-.48-1.2-.6-2a2.61,2.61,0,0,1-.24-.42c-.12-.54,0-1.26-.12-1.8a6.25,6.25,0,0,0-.3-.72c-.18-.54-.3-1.08-.42-1.56a8.67,8.67,0,0,1-.24-1.74c-.12-.59-.36-1.08-.48-1.56l-.18-.84a19.54,19.54,0,0,0-.9-3.23c-.54-.07-.66-.13-1.08,0a4.87,4.87,0,0,0-2.22.18c-.36-.36-.9-.06-1.44-.06-.18.49.18.84.06,1.45a3,3,0,0,1,.66,1.31c.18.42.48.84.66,1.26a4,4,0,0,1,.24.9c.06.12.18.18.18.37A4.4,4.4,0,0,1,96,9.9c.06,0,.18.12.24.18a7.42,7.42,0,0,0,.12,1.08l.42.66.36.78c.06.24,0,.54.06.78a.37.37,0,0,1,.18.3,1.29,1.29,0,0,1,0,.48c.24.12.36.36.3.78.72.78.72,2.28,1.14,3.42v.78c.54.48.36,1.26.42,1.86l.24.36c.06.18,0,.3.06.48s.18.24.18.42v.36a5.37,5.37,0,0,0,.54,1.74,6.46,6.46,0,0,0,.12,2.16,6.73,6.73,0,0,1,.3.78c.06.18-.06.48,0,.66a1.27,1.27,0,0,0,.18.42c.06.18,0,.42.06.6l.54,1.32a2.47,2.47,0,0,1,.18.48,4.74,4.74,0,0,1,.18.78c.06.06.18.12.24.24l.12,1.08.36,1.62a3.54,3.54,0,0,1,.24,1.56c.42.3.42,1,.6,1.44,0,.06.12.18.18.24l.18.66c.06.36,0,.78.06,1.14a5.57,5.57,0,0,1,.24.78,2,2,0,0,1,0,.6,1.27,1.27,0,0,1,.18.42l.18.84a5.28,5.28,0,0,1,.3.9c.18.06.24-.18.3-.3a3.84,3.84,0,0,0,.36-1c.12-.18.06-.42.12-.54s.3-.36.42-.6.06-.3.12-.36a8.55,8.55,0,0,0,.78-1.68A6.69,6.69,0,0,0,108,37c.12-.12.12-.3.24-.48s.3-.24.36-.36.24-.78.6-.84a7.84,7.84,0,0,1,.72-1.62c.3-.6.48-1.14.72-1.74.12-.3.18-.6.3-.84l.3-.9c.12-.24.3-.48.42-.78a5.9,5.9,0,0,0,.3-1l.3-.24c.12-.18.12-.3.24-.42s.18-.18.3-.3c.42-.54.48-1.38,1.08-1.8-.06-.48.36-.84.48-1.26a6.34,6.34,0,0,0,.36-1.14,6.4,6.4,0,0,0,.42-1.14c.12,0,.18-.18.18-.36.42-.12.42-.66.48-1a1.25,1.25,0,0,0,.12-.78c.12-.18.3-.12.3-.42-.06-.9.6-1.2.66-2a1.45,1.45,0,0,1,.6-.36c.06-.3-.24-.24-.24-.42a13.54,13.54,0,0,0,.66-1.32c.12-.48.12-1.08.48-1.38a9,9,0,0,1,1.26-.12c.66.24.6,1.14.72,1.8s.36.9.12,1.38a6,6,0,0,1,.6,2.22c.12.72.3,1.62.42,2l.3.9c.06.36.18.54.24.9.18.54.36.84.48,1.26.06.24,0,.54.06.78a.51.51,0,0,1,.18.3c.18.42.36.72.48,1.08s.06.6.18.84c.12.42.54.66.36,1.2a5.61,5.61,0,0,1,.72,1.74A4.08,4.08,0,0,1,125,32a1.42,1.42,0,0,1,.48.54c0,.18.12.24.18.24s-.06.18,0,.24a1.67,1.67,0,0,1,.42.78,2.35,2.35,0,0,1,.48.6,7,7,0,0,1,.3.66l.84,1.68a3.5,3.5,0,0,0,.66.9,30.35,30.35,0,0,0,1.56,2.64,2.35,2.35,0,0,1,.48.6c.06.12,0,.24.12.36l.24.3.48.6c.18.18.24.42.48.6s.3.6.54.84.54.6.78.54c.3-.54-.06-1.2.06-1.74.06-.36.36-.54.48-.9.06-.06,0-.24,0-.36s.18-.12.24-.18l.12-1c0-.18.06-.24.06-.42s-.12-.3-.06-.48a6.4,6.4,0,0,1,.42-1.14,33.71,33.71,0,0,0,.9-3.3l.24-.72.12-.78a4.74,4.74,0,0,0,.18-.78c.06-.36,0-.72.06-1.08s.24-.42.3-.66l.12-.84a7.66,7.66,0,0,0,.42-1.68,3.51,3.51,0,0,0,.54-1.74,1.62,1.62,0,0,1,.48-.42c-.18-.9.42-1.56.36-2.64.3-.3.18-.72.3-1.14,0-.06.18-.24.18-.3a8.06,8.06,0,0,0,.42-1.62c.12-.6.3-1.08.42-1.56a3,3,0,0,0,.3-.78c.06-.24,0-.6.06-.84s.24-.54.3-.78c.12-.54.06-1,.3-1.14a2,2,0,0,1,.24-1,7.13,7.13,0,0,1,.42-1.38,3,3,0,0,1-.18-.78,2.67,2.67,0,0,0,.48-1.79A5.14,5.14,0,0,0,142,8.46a5.9,5.9,0,0,1,.3-1c.12-.36.12-.71.24-1.08s.3-.59.18-1C142.38,5.22,142,5.34,141.6,5.34Z"/><path class="cls-1" d="M181.74,30.72c0,.54.24.78,0,1.26-.18.3-.78.42-.91.66a2.3,2.3,0,0,0-1.43.06c-.54-.42-1.8-.12-2.34-.54a1.56,1.56,0,0,1-.66.18,15.57,15.57,0,0,1-3.6-.36c-.84-.06-1.86-.06-2.58-.06a4.63,4.63,0,0,1-.9.12c-.6-.06-1.14-.42-1.74-.42a12.69,12.69,0,0,0-1.44.12,5.25,5.25,0,0,1-1-.12c-.12,0-.3.12-.42.12a1.41,1.41,0,0,0-.48-.12c-.54,0-1.08.24-1.5-.24a1.31,1.31,0,0,1-1,.3c-.36-.06-.6-.12-.72-.12s-.3.18-.3.18c-.24,0-.6-.24-.9.06-.12-.18-.6,0-.78-.18s-.18.18-.36.18c-.66-.3-1.2-.06-1.86-.06a10.35,10.35,0,0,0-2-.12A3.23,3.23,0,0,0,155,34.2c.06.42-.12.6-.12.9.06.12.24.12.3.18s0,.24.06.3a8.23,8.23,0,0,1,1,1.08c.36.6,1,1.08,1.44,1.8a10,10,0,0,0,.72,1,4.41,4.41,0,0,1,1.56.84l.36.18a9.56,9.56,0,0,0,1.26.9,6.3,6.3,0,0,0,.78.12c.36.12.9.72,1.44.78a4.65,4.65,0,0,1,.54-.06,4.08,4.08,0,0,1,.9.12,2.16,2.16,0,0,0,1.44-.36,4.54,4.54,0,0,0,.9-.06c0-.06.06-.18.06-.24s.18.06.24,0,.12-.18.18-.18c.24-.06.54.12.78-.06a1.36,1.36,0,0,1,.6-.3,6,6,0,0,0,1.14-.72l.78-.48c.78-.48,1.26-1.5,2-2.16a3.92,3.92,0,0,1,.72-2A3,3,0,0,1,174.6,34a1.59,1.59,0,0,1,1.08-.06l.78.42c.24.12.48.12,1,.3.12.06.24.18.36.18s.36,0,.6.06.24.18.36.18c.3.06.84-.12,1.14,0,.06.06.12.18.24.24a1,1,0,0,1,.54.48,2.3,2.3,0,0,1-.42,1.32c-.06.18-.12.54-.36.48-.06.3.12.36.06.72s-.24.36-.3.66a8.5,8.5,0,0,1-.42,1.32l-.42.48a2.24,2.24,0,0,1-.9.78c.18.36-.36.54-.48.72-.18.48-.66.78-1.2,1.14-.6.54-1.38.9-1.92,1.32l-.54.36a2.28,2.28,0,0,1-1,.66c-.18.12-.24.06-.42.12,0,0-.12.18-.18.18a9.43,9.43,0,0,1-1.38.24c0,.06-.24.18-.24.18l-1.8.36a2.43,2.43,0,0,1-1.26.18c-.18,0-.42-.12-.54-.12s-.54.42-.9.12c-.3-.12-.12.36-.48.24s-.9.12-1.38.06a3.16,3.16,0,0,1-.72-.18c-.24-.06-.3.12-.42.06s-.18-.18-.18-.18a14.4,14.4,0,0,1-2.4-.36c-.24-.06-.54,0-.66-.3A2.28,2.28,0,0,1,158,45.6a2.71,2.71,0,0,1-.66-.18c-.48-.24-1.14-.42-1.44-1-.6,0-.84-.42-1.14-.72a1.82,1.82,0,0,1-1.5-.9,6.32,6.32,0,0,0-.9-.9c-.12-.12,0-.42-.18-.54-.66-.3-1-1-1.68-1.2-.12-.42-.54-.72-.78-1.08a2.51,2.51,0,0,1-.24-.6L149,38c-.18-.54-.24-1.2-.42-1.8a1.15,1.15,0,0,1-.18-.48c-.06-.36,0-.72-.06-1s-.24-.48-.3-.72,0-.78-.06-1.26a6.76,6.76,0,0,1-.18-1.08c0-.54.12-1.14.12-1.74,0-.18-.06-.48-.06-.66.06-.42.36-.84.42-1.26a1.13,1.13,0,0,0-.12-.48c0-.18.18-.42.06-.6.18-.12.24-.48.3-.66a8.55,8.55,0,0,1,.18-1l.24-.18a.54.54,0,0,0,.06-.3l.24-.18c0-.12-.06-.3,0-.36a2.1,2.1,0,0,1,.3-.48l.18-.6c.12-.18.24-.24.3-.36s-.06-.36,0-.48.18-.06.24-.18l.3-1.2a2.07,2.07,0,0,1,.78-1.14c-.18-.18,0-.36,0-.54a4.57,4.57,0,0,0,1-1.68c.72-.48,1.14-1.32,1.86-1.86a2.77,2.77,0,0,1,.6-.3c.06-.06.06-.12.18-.18s.24-.06.3-.06a6.27,6.27,0,0,1,1.2-.9c.48-.18,1.68-.06,2.1-.6A2.93,2.93,0,0,0,160,13.2a2.39,2.39,0,0,1,1.38-.36,3.78,3.78,0,0,0,1.62-.12,5.66,5.66,0,0,1,1.2-.18c.12,0,.3.12.48.12.66,0,1.2,0,2,.06.42,0,.78-.18,1.26-.18.06,0,.12.12.24.12a2.22,2.22,0,0,1,.9,0,3.23,3.23,0,0,1,.6.18c.42,0,.66.24,1,.42.18.12.48.12.66.24a3.67,3.67,0,0,1,.72.3c.48.18,1,.24,1.2.78.18.06.3,0,.48.12a6.09,6.09,0,0,1,1.08.78c.3.24.6.78,1,1,.06.24.24.36.3.66.66.36,1,1.08,1.8,1.38.24.54.66.84.72,1.5l.6.9c.06.18.36.42.42.66a3.75,3.75,0,0,0,.6,1.2,4.16,4.16,0,0,1,.66,1l.12,1,.3.78c.12.6,0,1.2.06,1.86l.18,1.44a3.69,3.69,0,0,0,.06.78c0,.24.17.42.17.6S181.74,30.54,181.74,30.72ZM179.28,28a1.65,1.65,0,0,0,.12-.78c0-.24-.18-.6-.18-.78.12-.48.36-.24.12-.54s-.12-.84-.18-1a2.12,2.12,0,0,0-.48-.78c-.06-.18-.06-.3-.18-.42a3.56,3.56,0,0,0-.48-.48c0-.06.06-.24,0-.3-.24-.18-.18-.3-.24-.42a3.83,3.83,0,0,1-.48-.84c-.18-.18.12-.36,0-.72-.36.12-.36-.3-.48-.48l-.24-.18c-.12-.12-.12-.24-.18-.42-.84-.18-1.2-.78-1.86-1.2,0-.36-.3-.6-.42-.84a4.4,4.4,0,0,0-.6-.78c-.48-.48-1.38-.6-1.62-1.32-.6,0-.9-.36-1.44-.12a11.37,11.37,0,0,0-1.26-.54c-.18-.06-.3-.18-.48-.18s-.72,0-1.14-.06-.66-.12-1-.12a4.57,4.57,0,0,1-1.26.18c-.24,0-.42-.12-.66-.12l-1,.18-2,.24-1,.18-.3.18-.36.12a2.4,2.4,0,0,1-1.56.24c-.36.6-1.14.6-1.68,1-.18.24-.3.18-.36.24l-.42.3-.6.36c-.06.06-.18.06-.3.12-.36.3-.42.78-.9,1,0,.24-.18.36-.18.66-.3.06-.36.36-.48.54a11.3,11.3,0,0,0-.84,1.44,4.52,4.52,0,0,0-.36.78,5.94,5.94,0,0,0-.12,1.08c-.18.48-.72.84-.66,1.44-.54.3-.66,1.08-.9,1.62a1.57,1.57,0,0,0-.3.54,12.15,12.15,0,0,1-.36,2.52c.48.48.18,1.14.18,1.86,0,.48.12,1.08.18,1.62a3.17,3.17,0,0,0,.06.78,4.54,4.54,0,0,0,.06.9c0,.12.18.18.18.3s-.06.42,0,.54l.18.42a4.72,4.72,0,0,1,.48,1.56l.72.78a2.21,2.21,0,0,0,.6.66,2.44,2.44,0,0,1,.54.6c.06.12.24.06.42.12a6.5,6.5,0,0,0,.84.9l.18.3a2,2,0,0,0,.66.48,3.16,3.16,0,0,0,1,.6,2.4,2.4,0,0,0,.6.72c.3.18.72.18,1.08.42l.54.48c.24.18.6.18.66.48a6.3,6.3,0,0,1,1.38.42,1.63,1.63,0,0,0,.54,0c.3.12.48.3.78.3a2.34,2.34,0,0,0,1-.06s.18.18.18.24a2.56,2.56,0,0,0,1.2-.12c.78.6,2.4.24,3.3.12a.63.63,0,0,1,.36,0c.18-.06.24-.18.42-.18l1-.18c.3-.06.72,0,1-.06s.66-.36,1-.48c.06-.06.18,0,.3,0a5.22,5.22,0,0,0,.84-.48c.24-.24.42-.18.48-.24.24-.24.36-.48.6-.72l.6-.36.3-.18A17.11,17.11,0,0,1,176,41c.18-.54.66-.72.72-1.32a2.53,2.53,0,0,0,1.14-1.92c.24-.24.3-.36.18-.78-.18-.18-.66-.12-1-.12-.36-.18-.54-.42-1.08-.42a9.32,9.32,0,0,0-.3,1.38c-.06.18-.24.24-.3.48s0,.42-.12.66a1.07,1.07,0,0,0-.3.36l-.36.6-.6.72c-.48.48-.72,1-1.2,1.32-.12.12-.3.12-.48.24a2.61,2.61,0,0,0-.42.24l-1,.48c-.12.06-.24-.06-.3,0s-.12.12-.18.18l-1,.48c-.3.12-.48.36-1,.24-.3.36-.78.3-1.14.48l-.42.18c-.18,0-.36-.12-.6-.12s-.36.18-.54.18a11.9,11.9,0,0,1-3.3-.24c-.78-1-2.76-.9-3.24-2.1a2.48,2.48,0,0,1-.9-.42c-.12-.24-.3-.18-.36-.24-.48-.18-.66-.54-1.14-.66,0-.72-1.08-.84-.72-1.5-.36.06-.54-.12-.78-.18a2,2,0,0,0-.6-.78c-.06-.54-.6-.66-.54-1.32-.72-.06-.72-.84-1.14-1.26.06-.24.3-.3.3-.6a2.06,2.06,0,0,1-.72-1.32c-.06-.24.12-.48.12-.72s-.18-.6-.18-1c-.06-.84.3-1.62.12-2.34.54-.54,1.38-.42,2.52-.42.24,0,.36.06.54.06.84-.06,1.32,0,2,0s1.14.12,1.5.12.66-.12,1-.12.42.18.6.18.78-.18.9-.18a6.53,6.53,0,0,0,1.14-.06c.24,0,.6.12.84.12.78.06,1.38-.06,2-.06a.76.76,0,0,0,.36.12c.18,0,.36-.12.48-.12s.48.24.66.24c.42,0,.72-.18,1.08-.18s1,.18,1.56.24c.24,0,.54-.12.78-.12a8.24,8.24,0,0,1,1.62.36c.36,0,.36-.3.72-.3a25.87,25.87,0,0,0,4,.42,6,6,0,0,0,2.52,0A3.48,3.48,0,0,0,179.28,28Zm-3.36-1.2c-.06.42,0,.84-.42,1.14-1.2.18-2.76-.3-4,.18a3.52,3.52,0,0,0-1.86-.24c-.66.06-1.5-.12-2.22-.12a3,3,0,0,1-1.62-.12,1.42,1.42,0,0,1-1.38-.06,3.08,3.08,0,0,1-1.5.36c-.18,0-.36-.18-.48-.18a7.36,7.36,0,0,0-1,.06c-.12,0-.3-.12-.48-.12s-.84.18-1.14-.12c-.18,0-.3.18-.48.18s-.42-.06-.66,0-.72.3-1.08.36a15.21,15.21,0,0,0-1.56.06l-.48.18-.6.12a4.13,4.13,0,0,1-1.08.12c-.42-.06-.6-.48-.84-.78a2.15,2.15,0,0,1,.12-1.08c.12-.18.06-.66.12-1,0-.12.36-.18.12-.48l.36-.6a3.55,3.55,0,0,1,.84-2.1,3.51,3.51,0,0,0,.12-.78c0-.06.18-.12.18-.18s0-.3,0-.42a.36.36,0,0,0,.24-.06.81.81,0,0,1,.12-.48c.12-.18.42-.36.54-.6a2.89,2.89,0,0,0,.54-.66l.3-.24.66-1a10.7,10.7,0,0,1,2-.54c.24,0,.36-.3.6-.36.06-.06.3,0,.54-.12a6.53,6.53,0,0,1,1.38-.36c.3,0,.6.12,1,.12s.48-.06.66-.06c.48,0,.9.36,1.26.12l.6.3.48.3c.48.12,1,0,1.44.12l.48.18a1.19,1.19,0,0,0,.6.12,5.18,5.18,0,0,0,1,.6,6.34,6.34,0,0,0,1.14.36c.9.84,1.92,1.62,2.82,2.46a8.43,8.43,0,0,1,1.08,1c0,.18.12.12.18.18s.18.36.36.36c0,.48.36.84.54,1.32.12.12.06.24.12.36s.36.6.48.9A4.55,4.55,0,0,1,175.92,26.76Zm-2.76-2c-.18-.12,0-.3-.06-.48s-.54-.06-.3-.36c-.24-.24-.72-.3-.66-.78-.36.06-.48-.36-.6-.42l-.24-.12c-.3-.24-.36-.66-.66-.9s-.6.18-.6-.3a2.79,2.79,0,0,1-2.4-1.2,15.63,15.63,0,0,1-2.4.06c-.54-.36-1-.18-1.74-.36-.3-.06-.18-.48-.6-.48-.54.24-1-.18-1.62-.24a9,9,0,0,1-2,.66c-.36.12-1,.9-1.2,1.14l-1.56,1.86c.06.48-.18.66-.12,1.08-.54.42-.66,1.32-.84,2.1a12.71,12.71,0,0,0,2-.12,3.42,3.42,0,0,1,.78-.06c.18-.06.3-.18.48-.18.72-.06,1.5.06,2.22,0a5.18,5.18,0,0,1,2.16.06,6.75,6.75,0,0,1,2.88-.12c.12,0,.12-.12.3-.12s.12.12.3.12.24.18.48.12c1.8-.3,4.08.18,6.3-.18C173.58,25.38,173.46,24.84,173.16,24.72Z"/><path class="cls-1" d="M221.64,30.06a3.33,3.33,0,0,1-.54,2.1,16.32,16.32,0,0,1-1,3.84l-.3.9a11,11,0,0,1-.78,1c-.24.3-.36.78-.84,1-.18,1.2-1.14,1.68-1.56,2.64-.36.06-.42.36-.9.3l-.42.66a8.65,8.65,0,0,1-2.28,1.68c-.6.36-1.26.6-1.86.9-.06.06-.18.12-.24.24a6.22,6.22,0,0,1-.6.24,2.43,2.43,0,0,1-1.68.36,2,2,0,0,1-1.26.36c-.3,0-.42.3-.66.36-1.26.12-2.34.48-3.48.06a3.81,3.81,0,0,1-1.38.24c-.24,0-.48.24-1,.18a1.25,1.25,0,0,1-.78-.42c-.12.18-.24,0-.3,0a6,6,0,0,1-1.14-.12,2.67,2.67,0,0,1-1.08-.6c-.12-.24-.24-.18-.24-.24-.54-.36-1.2-.78-1.74-1.2-.42.72.12,1.8-.42,2.34-.9.48-2.7.54-3.3-.24-.72.12-1.26-.48-1.68-.06-.3-.24-.78-.3-1.14-.54-.42-.06-.06-.84-.72-.66-.06-.36.18-.42.12-.78a4.56,4.56,0,0,1-.48-1.26c0-.48.24-1.08.24-1.62,0-.3-.12-.6-.12-.9a3.51,3.51,0,0,0,.12-.78,3.23,3.23,0,0,0-.18-.6c0-.18.06-.48.06-.66a4.59,4.59,0,0,1-.06-2.22c.12-.42-.36-.3-.3-.66-.06-.6.12-1.08.06-1.68a3.69,3.69,0,0,1-.18-.66c0-.3.12-.48.12-.78,0-.66-.24-1.26-.24-1.92a2.13,2.13,0,0,1,.06-.42.46.46,0,0,0-.06-.36c0-.3.12-.54.12-.78,0-.72-.18-1.68-.24-2.64,0-.12.12-.18.12-.3a3,3,0,0,1-.18-.78,5.78,5.78,0,0,1,0-1c0-.54-.18-1,.12-1.44a4.46,4.46,0,0,1-.12-2.52,2.47,2.47,0,0,0,.18-.48c.06-.18-.06-.36.06-.54s.24-.12.18-.36-.18-.48-.18-.78a3.81,3.81,0,0,0,.12-1.44c0-.24-.18-.48-.18-.66s.12-.3.12-.48a8.45,8.45,0,0,0-.06-1.2,7.49,7.49,0,0,1,.12-1.26c-.12-.18,0-.18,0-.3s-.12-.12,0-.36a3.48,3.48,0,0,1,.24-.78c-.12-.18-.06-.48-.18-.6.78-2,.12-4.38.48-6.53a1.22,1.22,0,0,1,.36-.79c-.3-.78.24-2,.06-2.82a4.72,4.72,0,0,0,.36-.84c0-.18.12-.18.12-.3.24,0,.6,0,.6.25.3,0,.18-.3.48-.18.3-.07.3.3.54.35.24-.3.66,0,1,0a5.23,5.23,0,0,0,1-.19c.72-.06,1.38,0,2-.06,0,.13.24.18.36.3s0,.24.06.3l.24.12c.06.24,0,.84.06,1.32a1.69,1.69,0,0,0,.18.6,2.42,2.42,0,0,0,0,.66c.06.42.18.72.24,1a15.08,15.08,0,0,1-.06,1.61c.06.73.3,1.32.36,2,.12,1.68-.12,3.36,0,4.86a1.15,1.15,0,0,0,.48-.18l.78-.48a4.05,4.05,0,0,1,.9-.48c.78-.3,1.92-.42,2.88-.72l.6-.18c.18-.06.18,0,.3-.06a6.43,6.43,0,0,1,1.38-.18c.42,0,.78-.06,1.14-.06s.42-.12.66.18c1.14-.59,3.06.06,4.38.3.24.48,1,.36,1.26.9a4.28,4.28,0,0,1,1.86,1c.54,0,.66.24,1,.42a2.61,2.61,0,0,1,1,.6l.18.3c.18.12.54.18.72.3s.18.42.42.48a2.33,2.33,0,0,0,.66,1.26c.18.24.6.54.78.78s.06.42.18.6l.3.42.24.36a2.47,2.47,0,0,1,.18.48l.78,1.2.84,1.56a24.84,24.84,0,0,0,.9,2.46c-.12.6.24,1.2.35,1.86.07.36,0,.78.07,1.26a5.62,5.62,0,0,1,.24,1A16.83,16.83,0,0,1,221.64,30.06Zm-2.46-2.16a6,6,0,0,1-.18-2.28c-.48-.54-.24-1.32-.54-2a3.56,3.56,0,0,0-.48-.66,4.52,4.52,0,0,0-.36-.78l-.42-.72c-.36-.54-.48-1.14-.78-1.62-.24-.18-.12-.36-.18-.42a1.07,1.07,0,0,1-.3-.36c-.18-.18-.12-.36-.18-.42-.24-.18-.18-.18-.24-.3s-.24-.18-.3-.3a2.47,2.47,0,0,1-.18-.48c-.24-.3-.6-.48-.84-.78s-.54-.66-.78-.9l-.66-.42-1.14-.66c-.66-.36-1.26-.72-1.92-1-.24-.24-.72-.18-.9-.3-.3-.36-.78-.36-1.44-.42a11.92,11.92,0,0,0-6.06.3,2,2,0,0,1-.6,0c-.3.06-.54.3-.78.36s-.36-.06-.48,0a1.9,1.9,0,0,1-.72.48,8.35,8.35,0,0,1-.78.36c-.18.18-.36.54-.48.66a6,6,0,0,1-.66.6c-.12.12-.36.24-.42.48-.3.12-.24.6-.42.84-.24.42-1,.48-1.56.24-.12-.06-.18-.42-.24-.6s-.18-.06-.24-.18a5.35,5.35,0,0,1,.18-1.32c0-.3-.12-.6-.12-.9,0-.78.12-1.56.18-2.4V10.68c0-1.68-.12-3.54-.24-4.85a6.66,6.66,0,0,0-.12-1.15l-.24-1c-.12-.9.12-1.74-.72-1.56a3.33,3.33,0,0,0-1,.61c-.24-.18-.42-.49-1-.42a35.9,35.9,0,0,0-.6,5.75c0,.36-.12.72-.12,1s.18.6.18,1a7.72,7.72,0,0,1-.24,1.14c-.24,1.5-.3,3.12-.48,4.74a1.81,1.81,0,0,1,.3,1,10.75,10.75,0,0,1-.18,2c0,.18.12.36.12.6-.06.66-.36,1.08-.42,1.62-.06.18.06.24.06.48s-.12.3-.12.48.12.3.12.48-.12.42-.12.6.24.54.24.84c.12.84,0,1.8.06,2.76l.24,2.7c0,.18-.12.42-.12.66s.18.54.18.78-.12.48-.12.66c0,.42.18.78.18,1.2a11.56,11.56,0,0,0,.06,1.44c.06.78.24,1.92.24,2.4,0,.18-.12.18-.12.42a2.71,2.71,0,0,0,.18.66,18.07,18.07,0,0,1-.06,3.12c0,.42.18.9.18,1.32a3.77,3.77,0,0,0,.12,1.86,9,9,0,0,0,2.7.54,1.26,1.26,0,0,0,.24-.66c0-.12.18-.12.18-.18a9.41,9.41,0,0,0,.12-1.74,2.26,2.26,0,0,1,.3-1c.18-.24.24-.3.42-.36.42-.18.6.06,1.26.12.42.42.36,1,.66,1.44s.72.72.9.9c.36.3,1,.48,1,1,.9-.18,1.26.42,1.92.54a.24.24,0,0,0,.3-.06,6.45,6.45,0,0,0,1.92-.06c1-.12,2,0,2.64-.06a10.1,10.1,0,0,0,1.44-.36,3,3,0,0,0,.78-.18l1.08-.24c.06,0,.24-.18.3-.18a3.66,3.66,0,0,1,.78-.18c1-.36,1.92-.9,2.76-1.2a3.72,3.72,0,0,1,.9-.84c.18-.06.12-.18.18-.24s.18-.06.3-.18a3.62,3.62,0,0,0,.48-.48c.3-.24.48-.24.6-.54.42-.3.48-.36.6-.54a3.35,3.35,0,0,1,.3-.48c.18-.42.42-.48.6-.78l.3-.6a15.62,15.62,0,0,1,1.5-2c0-1.2.66-2,.9-3a4.81,4.81,0,0,1,.54-1.8c-.06-.66-.24-1.68.06-2C219.48,28.26,219.24,28.14,219.18,27.9Zm-1.32,2.28v.66c0,.06-.18.24-.12.36a9.46,9.46,0,0,1-.18,2.64c-.12.36-.54.6-.78.84a1.17,1.17,0,0,1,0,.9,10,10,0,0,1-1,2c-.18.3-.18.42-.3.48l-.18.3-.18.3-.54.66a7.6,7.6,0,0,1-.66.78l-.48.42-.42.12a6,6,0,0,0-1.5,1.2c-.36.12-.78.18-1.26.36a10.87,10.87,0,0,1-2.52.42c-.18.06-.3.06-.36.12-.36.12-2,.3-2.46-.06-.06-.12-.3-.06-.24-.3-.36-.06-.24.36-.6.3A4.86,4.86,0,0,1,202.2,42a12.58,12.58,0,0,1-1.56-.78c-.06-.12-.18-.06-.36-.12s-.24-.3-.36-.42a16.71,16.71,0,0,0-1.86-1.2c-.18-.54-.72-.78-1.2-1.08-.3-.6-.84-1-1.2-1.68-.12-.18-.18-.48-.3-.66-.24-.42-.72-.78-.66-1.38-.24-.18-.24-.42-.36-.66a1.31,1.31,0,0,0-.18-.3A8.41,8.41,0,0,0,193.8,32a12.45,12.45,0,0,1-.36-1.44,10.72,10.72,0,0,1-.36-2.22,7.39,7.39,0,0,0,.12-1.2l.12-1a9,9,0,0,0,.78-2.46c.48-.42.42-1.08.72-1.56a.8.8,0,0,1,.18-.3c.3-.06.36-.48.48-.66a1.29,1.29,0,0,0,.6-1A9.5,9.5,0,0,0,197.46,19c.12-.06.12-.18.24-.3l.6-.66a1.66,1.66,0,0,1,.48-.36c.36-.18.6-.6.9-.84.42.06.66-.48,1.08-.66a3.18,3.18,0,0,1,1-.24,12.79,12.79,0,0,1,1.92-.48,3.36,3.36,0,0,1,1.08-.06,3.23,3.23,0,0,1,.6.18c.18.12.48.06.66.12.48.18.9.72,1.62.84.3,0,.24-.42.48-.48a3.07,3.07,0,0,1,1.92.78,12,12,0,0,0,1.14.72c.12.06.54.12.6.24s.24.18.36.3c.36.18.84.78,1.44.78.18.54.78.6,1.14,1,.18.3.54.48.48.84.36.3.6.72,1,1,0,.24.12.36.06.66a3.58,3.58,0,0,1,.72,1.68l.36,1.38a9.79,9.79,0,0,0,.48,1.74c-.24.36.12.78.12,1.26A16.65,16.65,0,0,1,217.86,30.18ZM215.64,29a3,3,0,0,1,.12-.72c-.36-.3-.12-.78-.18-1.26a1.91,1.91,0,0,0-.18-.54c-.06-.3,0-.48-.06-.72a2.48,2.48,0,0,1-.24-1.32c-.3-.18-.36-.54-.48-.84a1.18,1.18,0,0,1-.36-1,2.61,2.61,0,0,1-.84-1.26c-.66,0-.72-.54-1.26-.6-.06-.24-.3-.36-.48-.48s-.24-.42-.48-.54a1.91,1.91,0,0,1-.84-.12c-.12,0-.18-.18-.3-.3l-.48-.18a1.07,1.07,0,0,0-.36-.3,2.21,2.21,0,0,0-2.22-.12c-.42-.12-.3-.66-.72-.72-.24-.06-1-.06-1.2-.42a5.21,5.21,0,0,0-1.56.24c-.24.06-.36.18-.6.18s-.6.06-.78.12c-.6.18-1,.78-1.56.84a5.69,5.69,0,0,1-1.2,1.2,6.27,6.27,0,0,1-1.26,1.26c-.36.6-1,1.44-1.32,2.1l-.48.84a2.1,2.1,0,0,0-.3.48c-.06.12,0,.36-.06.48s-.18.3-.18.42a15.2,15.2,0,0,0-.48,2.88,5.29,5.29,0,0,0,.66,2.7c-.18.48.18.78.24,1.08l.12.6.24.36c.06.12,0,.24,0,.3s.18.18.18.18a6.11,6.11,0,0,0,.48.9.73.73,0,0,1,.18.6c.48.24.48.72.78,1.08s.54.36.84.6a4.38,4.38,0,0,1,.54.6c.12.06.24,0,.3.06a13.87,13.87,0,0,1,1.74,1.44c.54,0,.66.3,1,.48a1.8,1.8,0,0,1,.48.24,3.66,3.66,0,0,0,1.62.6,14.29,14.29,0,0,0,4-.12A4.92,4.92,0,0,0,210.3,40c.42-.18.78-.72,1.26-1a9.16,9.16,0,0,0,1.38-1l.3-.6.42-.54c.06-.12,0-.3.06-.42l.3-.18c.06-.24.18-.24.24-.3a3,3,0,0,0,.3-.78l.18-.36c.18-.48.42-.9.54-1.26a6.75,6.75,0,0,1,.48-1.32,7.12,7.12,0,0,1,.06-2.52C215.82,29.4,215.64,29.22,215.64,29Z"/></g></g></svg>